<svg width="355" height="420" viewBox="0 0 363 440" fill="none" xmlns="http://www.w3.org/2000/svg">
<g filter="url(#filter0_d_28_18)">
<line x1="4" y1="429.5" x2="359" y2="429.5" stroke="black" stroke-width="7"/>
</g>
<g filter="url(#filter1_d_28_18)">
<line x1="34" y1="427" x2="34" y2="32.0001" stroke="black" stroke-width="6"/>
</g>
<g filter="url(#filter2_d_28_18)">
<line x1="31.0382" y1="40.5002" x2="306.04" y2="43.5002" stroke="black" stroke-width="7"/>
</g>
<g filter="url(#filter3_d_28_18)">
<line x1="303.5" y1="36.9828" x2="306.5" y2="123.983" stroke="black"/>
</g>
<path d="M343.5 169.5C343.5 194.434 326.412 214.5 305.5 214.5C284.588 214.5 267.5 194.434 267.5 169.5C267.5 144.566 284.588 124.5 305.5 124.5C326.412 124.5 343.5 144.566 343.5 169.5Z" fill="#D9D9D9" fill-opacity="0.8" stroke="black"/>
<g filter="url(#filter4_d_28_18)">
<line x1="293.464" y1="150.186" x2="289.464" y2="160.186" stroke="black"/>
</g>
<g filter="url(#filter5_d_28_18)">
<line x1="287.374" y1="150.668" x2="295.374" y2="159.668" stroke="black"/>
</g>
<g filter="url(#filter6_d_28_18)">
<line x1="319.464" y1="150.186" x2="315.464" y2="160.186" stroke="black"/>
</g>
<g filter="url(#filter7_d_28_18)">
<line x1="313.374" y1="150.668" x2="321.374" y2="159.668" stroke="black"/>
</g>
<g filter="url(#filter8_d_28_18)">
<path d="M289.2 189.061C289.2 189.061 293.2 183.061 303.7 182.561C314.2 182.061 320.684 189.061 320.684 189.061" stroke="black"/>
</g>
<g filter="url(#filter9_d_28_18)">
<line x1="305.5" y1="215.016" x2="302.5" y2="307.017" stroke="black"/>
</g>
<g filter="url(#filter10_d_28_18)">
<line x1="305.392" y1="215.31" x2="267.392" y2="263.31" stroke="black"/>
</g>
<g filter="url(#filter11_d_28_18)">
<line x1="305.404" y1="214.705" x2="340.404" y2="262.705" stroke="black"/>
</g>
<g filter="url(#filter12_d_28_18)">
<line x1="302.392" y1="305.31" x2="264.392" y2="353.31" stroke="black"/>
</g>
<g filter="url(#filter13_d_28_18)">
<line x1="302.404" y1="304.706" x2="337.404" y2="352.706" stroke="black"/>
</g>
<path d="M40.696 23.32C40.2907 23.32 39.8853 23.304 39.48 23.272C39.0853 23.24 38.776 23.2027 38.552 23.16C38.008 22.008 37.4587 20.6533 36.904 19.096C36.3493 17.528 35.816 15.8907 35.304 14.184C34.792 12.4773 34.3173 10.8133 33.88 9.192C33.4427 7.57067 33.0693 6.10933 32.76 4.808C32.4507 3.496 32.2267 2.46667 32.088 1.72C32.3867 1.624 32.7653 1.544 33.224 1.48C33.6933 1.40533 34.1573 1.34667 34.616 1.304C35.0747 1.26133 35.448 1.24 35.736 1.24C35.7787 1.58133 35.8853 2.168 36.056 3C36.2373 3.832 36.4613 4.81867 36.728 5.96C36.9947 7.09067 37.2933 8.31733 37.624 9.64C37.9547 10.952 38.3013 12.28 38.664 13.624C39.0267 14.9573 39.384 16.2373 39.736 17.464C40.088 18.68 40.4187 19.7573 40.728 20.696L40.44 20.76C40.8347 19.5973 41.2187 18.3333 41.592 16.968C41.9653 15.6027 42.3173 14.2107 42.648 12.792C42.9787 11.3627 43.2773 9.98667 43.544 8.664C43.8213 7.34133 44.056 6.14133 44.248 5.064C44.4507 3.98667 44.6107 3.10667 44.728 2.424C44.8453 1.74133 44.9093 1.336 44.92 1.208C45.4747 1.24 46.0773 1.31467 46.728 1.432C47.3893 1.54933 47.9653 1.71467 48.456 1.928C47.9227 4.31733 47.384 6.56267 46.84 8.664C46.3067 10.7547 45.7947 12.6587 45.304 14.376C44.8133 16.0933 44.3707 17.592 43.976 18.872C43.592 20.1413 43.2773 21.1493 43.032 21.896C42.7867 22.6427 42.6373 23.096 42.584 23.256C42.3707 23.2773 42.0987 23.2933 41.768 23.304C41.4373 23.3147 41.08 23.32 40.696 23.32ZM58.8035 23.496C56.0088 23.496 53.9448 22.7173 52.6115 21.16C51.2782 19.6027 50.6115 17.3627 50.6115 14.44C50.6115 12.5947 50.9528 11.0373 51.6355 9.768C52.3288 8.49867 53.2888 7.53333 54.5155 6.872C55.7528 6.21067 57.1928 5.88 58.8355 5.88C60.5742 5.88 62.0088 6.28533 63.1395 7.096C64.2702 7.896 65.1075 9.016 65.6515 10.456C66.2062 11.8853 66.4835 13.5493 66.4835 15.448C66.4835 17.08 66.1795 18.4987 65.5715 19.704C64.9635 20.8987 64.0835 21.832 62.9315 22.504C61.7902 23.1653 60.4142 23.496 58.8035 23.496ZM58.6755 20.632C59.5395 20.632 60.2808 20.472 60.8995 20.152C61.5182 19.832 62.0195 19.4053 62.4035 18.872C62.7875 18.328 63.0702 17.72 63.2515 17.048C63.4435 16.376 63.5395 15.688 63.5395 14.984C63.5395 13.704 63.3635 12.5627 63.0115 11.56C62.6595 10.5573 62.1262 9.77333 61.4115 9.208C60.6968 8.632 59.7848 8.344 58.6755 8.344C57.5875 8.344 56.6755 8.60533 55.9395 9.128C55.2035 9.65067 54.6488 10.3707 54.2755 11.288C53.9128 12.2053 53.7315 13.256 53.7315 14.44C53.7315 16.264 54.1528 17.752 54.9955 18.904C55.8382 20.056 57.0648 20.632 58.6755 20.632ZM80.6415 7C80.8015 6.95733 81.0308 6.92 81.3295 6.888C81.6388 6.856 81.9482 6.84 82.2575 6.84C82.5135 6.84 82.7908 6.85067 83.0895 6.872C83.3988 6.88267 83.6442 6.904 83.8255 6.936C83.9962 7.97067 84.1402 9.02667 84.2575 10.104C84.3748 11.1813 84.4335 12.2427 84.4335 13.288C84.4335 14.7173 84.3108 16.0667 84.0655 17.336C83.8202 18.6053 83.4148 19.7253 82.8495 20.696C82.2948 21.656 81.5428 22.4133 80.5935 22.968C79.6548 23.5227 78.4868 23.8 77.0895 23.8C75.5642 23.8 74.3108 23.5013 73.3295 22.904C72.3482 22.296 71.5855 21.4587 71.0415 20.392C70.4975 19.3147 70.1135 18.0773 69.8895 16.68C69.6762 15.2827 69.5695 13.7893 69.5695 12.2C69.5695 11.2293 69.6015 10.248 69.6655 9.256C69.7295 8.264 69.7988 7.29333 69.8735 6.344C70.0655 6.33333 70.3055 6.328 70.5935 6.328C70.8922 6.328 71.1588 6.33333 71.3935 6.344C71.7242 6.36533 72.0495 6.39733 72.3695 6.44C72.7002 6.472 72.9722 6.52 73.1855 6.584C73.0788 7.544 72.9935 8.49333 72.9295 9.432C72.8655 10.3707 72.8335 11.2773 72.8335 12.152C72.8335 14.0293 72.9882 15.6187 73.2975 16.92C73.6175 18.2213 74.0922 19.208 74.7215 19.88C75.3615 20.552 76.1615 20.888 77.1215 20.888C78.0175 20.888 78.7642 20.584 79.3615 19.976C79.9695 19.368 80.4282 18.488 80.7375 17.336C81.0468 16.1733 81.2015 14.76 81.2015 13.096C81.2015 12.1467 81.1535 11.1547 81.0575 10.12C80.9615 9.07467 80.8228 8.03467 80.6415 7ZM94.7653 24.296C93.7733 24.296 92.7866 24.1573 91.8053 23.88C90.8239 23.6027 89.9279 23.2347 89.1173 22.776C88.3173 22.3067 87.6773 21.7893 87.1973 21.224C87.2719 21.0747 87.3786 20.872 87.5173 20.616C87.6559 20.36 87.8159 20.0933 87.9973 19.816C88.1786 19.528 88.3599 19.2667 88.5413 19.032C88.7226 18.7867 88.8826 18.6 89.0213 18.472C89.4799 18.984 90.0293 19.48 90.6693 19.96C91.3093 20.4293 91.9973 20.8133 92.7333 21.112C93.4693 21.4 94.2053 21.544 94.9413 21.544C95.6453 21.544 96.2799 21.4427 96.8453 21.24C97.4213 21.0267 97.8746 20.7227 98.2053 20.328C98.5466 19.9333 98.7173 19.4587 98.7173 18.904C98.7173 18.264 98.5146 17.7147 98.1093 17.256C97.7039 16.7867 97.1599 16.376 96.4773 16.024C95.7946 15.6613 95.0426 15.3307 94.2213 15.032C93.2293 14.6693 92.3226 14.2747 91.5013 13.848C90.6906 13.4107 90.0399 12.8667 89.5493 12.216C89.0693 11.5653 88.8293 10.7387 88.8293 9.736C88.8293 8.712 89.1173 7.85867 89.6933 7.176C90.2799 6.49333 91.0479 5.976 91.9973 5.624C92.9573 5.272 93.9919 5.096 95.1013 5.096C96.3386 5.096 97.4746 5.256 98.5093 5.576C99.5546 5.88533 100.355 6.248 100.909 6.664C100.867 6.84533 100.776 7.08533 100.637 7.384C100.499 7.672 100.339 7.96533 100.157 8.264C99.9759 8.56267 99.7893 8.83467 99.5973 9.08C99.0853 8.73867 98.4613 8.41333 97.7253 8.104C96.9893 7.79467 96.1893 7.64 95.3253 7.64C94.7493 7.64 94.1946 7.70933 93.6613 7.848C93.1279 7.976 92.6906 8.19467 92.3493 8.504C92.0079 8.81333 91.8373 9.23467 91.8373 9.768C91.8373 10.2267 92.0026 10.6373 92.3333 11C92.6746 11.3627 93.1333 11.688 93.7093 11.976C94.2853 12.2533 94.9359 12.52 95.6613 12.776C96.5359 13.0747 97.3466 13.4107 98.0933 13.784C98.8399 14.1467 99.4853 14.568 100.029 15.048C100.584 15.5173 101.016 16.0613 101.325 16.68C101.635 17.288 101.789 17.976 101.789 18.744C101.789 19.9707 101.475 20.9947 100.845 21.816C100.216 22.6373 99.3733 23.256 98.3173 23.672C97.2613 24.088 96.0773 24.296 94.7653 24.296ZM120.98 23.336C119.647 23.336 118.436 23.16 117.348 22.808C116.271 22.4453 115.412 21.8693 114.772 21.08C114.132 20.28 113.812 19.2187 113.812 17.896C113.812 16.6267 114.169 15.576 114.884 14.744C115.599 13.912 116.564 13.2987 117.78 12.904C119.007 12.4987 120.377 12.296 121.892 12.296C122.596 12.296 123.284 12.3493 123.956 12.456C124.628 12.552 125.209 12.6693 125.7 12.808C126.191 12.936 126.521 13.0373 126.692 13.112C126.66 12.76 126.596 12.4027 126.5 12.04C126.415 11.6667 126.281 11.3413 126.1 11.064C125.695 10.3493 125.103 9.76267 124.324 9.304C123.556 8.83467 122.591 8.6 121.428 8.6C120.201 8.6 119.161 8.86667 118.308 9.4C117.455 9.92267 116.815 10.5467 116.388 11.272L113.796 9.56C114.265 8.86667 114.884 8.25333 115.652 7.72C116.42 7.18667 117.305 6.76533 118.308 6.456C119.311 6.14667 120.388 5.992 121.54 5.992C123.332 5.992 124.815 6.33333 125.988 7.016C127.161 7.69867 128.02 8.6 128.564 9.72C128.841 10.2853 129.06 10.904 129.22 11.576C129.38 12.248 129.476 13.08 129.508 14.072C129.529 15.1173 129.551 16.008 129.572 16.744C129.604 17.48 129.636 18.1147 129.668 18.648C129.721 19.3413 129.828 19.7893 129.988 19.992C130.148 20.1947 130.377 20.296 130.676 20.296C131.017 20.296 131.305 20.152 131.54 19.864C131.775 19.5653 131.908 19.1493 131.94 18.616L133.476 20.312C133.412 21.208 133.097 21.8907 132.532 22.36C131.967 22.8293 131.305 23.064 130.548 23.064C129.951 23.064 129.423 22.952 128.964 22.728C128.516 22.4933 128.159 22.1947 127.892 21.832C127.625 21.4693 127.471 21.096 127.428 20.712C127.215 21.1067 126.799 21.5067 126.18 21.912C125.572 22.3173 124.82 22.6587 123.924 22.936C123.039 23.2027 122.057 23.336 120.98 23.336ZM121.556 20.824C122.249 20.824 122.927 20.7173 123.588 20.504C124.249 20.2907 124.857 20.008 125.412 19.656C125.977 19.304 126.441 18.9147 126.804 18.488C126.793 17.8267 126.793 17.24 126.804 16.728C126.815 16.2053 126.831 15.7253 126.852 15.288C126.543 15.1813 125.951 15.0427 125.076 14.872C124.201 14.6907 123.215 14.6 122.116 14.6C121.167 14.6 120.303 14.728 119.524 14.984C118.756 15.2293 118.143 15.5867 117.684 16.056C117.236 16.5253 117.012 17.0907 117.012 17.752C117.012 18.552 117.204 19.176 117.588 19.624C117.983 20.0613 118.521 20.3707 119.204 20.552C119.887 20.7333 120.671 20.824 121.556 20.824ZM144.414 5.544C144.904 5.62933 145.363 5.73067 145.79 5.848C146.216 5.96533 146.579 6.072 146.878 6.168C147.176 6.25333 147.358 6.312 147.422 6.344C147.24 7.05867 146.979 7.96 146.638 9.048C146.296 10.1253 145.907 11.2933 145.47 12.552C145.043 13.8107 144.59 15.0907 144.11 16.392C143.64 17.6827 143.176 18.9093 142.718 20.072C142.27 21.2347 141.854 22.2427 141.47 23.096C141.128 23.16 140.659 23.192 140.062 23.192C139.806 23.192 139.555 23.1813 139.31 23.16C139.064 23.1387 138.856 23.1173 138.686 23.096C138.078 21.8373 137.486 20.4987 136.91 19.08C136.334 17.6507 135.779 16.1947 135.246 14.712C134.712 13.2293 134.211 11.768 133.742 10.328C133.283 8.888 132.862 7.528 132.478 6.248C132.616 6.20533 132.808 6.15733 133.054 6.104C133.299 6.04 133.56 5.976 133.838 5.912C134.115 5.83733 134.387 5.768 134.654 5.704C134.92 5.64 135.144 5.58133 135.326 5.528C135.496 6.21067 135.736 7.05333 136.046 8.056C136.355 9.048 136.696 10.104 137.07 11.224C137.454 12.344 137.838 13.448 138.222 14.536C138.616 15.6133 138.984 16.5947 139.326 17.48C139.667 18.3547 139.944 19.0427 140.158 19.544L139.934 19.592C140.211 18.9307 140.51 18.1573 140.83 17.272C141.15 16.376 141.48 15.416 141.822 14.392C142.174 13.368 142.515 12.3333 142.846 11.288C143.176 10.232 143.475 9.21333 143.742 8.232C144.008 7.24 144.232 6.344 144.414 5.544ZM164.843 19.432C164.629 19.7307 164.315 20.0773 163.899 20.472C163.483 20.856 162.965 21.2293 162.347 21.592C161.728 21.944 161.008 22.2373 160.187 22.472C159.365 22.7067 158.437 22.824 157.403 22.824C155.803 22.824 154.4 22.4987 153.195 21.848C151.989 21.1973 151.056 20.248 150.395 19C149.733 17.7413 149.403 16.2107 149.403 14.408C149.403 12.68 149.76 11.1813 150.475 9.912C151.2 8.64267 152.192 7.66133 153.451 6.968C154.709 6.27467 156.155 5.928 157.787 5.928C159.835 5.928 161.429 6.552 162.571 7.8C163.723 9.048 164.363 10.7227 164.491 12.824C164.512 13.1653 164.523 13.496 164.523 13.816C164.523 14.1253 164.507 14.4453 164.475 14.776C164.336 14.7653 164.048 14.7547 163.611 14.744C163.184 14.7227 162.683 14.7067 162.107 14.696C161.531 14.6747 160.949 14.6587 160.363 14.648C159.787 14.6267 159.291 14.616 158.875 14.616C157.797 14.616 156.693 14.6693 155.563 14.776C154.432 14.8827 153.424 15.0053 152.539 15.144C152.549 15.4213 152.576 15.6933 152.619 15.96C152.661 16.2267 152.715 16.4827 152.779 16.728C152.96 17.3787 153.291 17.944 153.771 18.424C154.251 18.8933 154.821 19.256 155.483 19.512C156.155 19.768 156.864 19.896 157.611 19.896C158.4 19.896 159.088 19.7787 159.675 19.544C160.261 19.3093 160.763 19.0213 161.179 18.68C161.605 18.3387 161.947 18.0133 162.203 17.704C162.469 17.3947 162.672 17.1653 162.811 17.016C162.875 17.0693 162.997 17.1867 163.179 17.368C163.371 17.5387 163.573 17.7467 163.787 17.992C164.011 18.2373 164.219 18.488 164.411 18.744C164.613 18.9893 164.757 19.2187 164.843 19.432ZM152.587 13C153.355 12.872 154.256 12.76 155.291 12.664C156.336 12.568 157.52 12.52 158.843 12.52C159.536 12.52 160.123 12.5307 160.603 12.552C161.093 12.5627 161.435 12.5787 161.627 12.6C161.627 12.248 161.584 11.8747 161.499 11.48C161.381 10.9467 161.168 10.4293 160.859 9.928C160.549 9.42667 160.128 9.01067 159.595 8.68C159.072 8.33867 158.411 8.168 157.611 8.168C156.693 8.168 155.856 8.36533 155.099 8.76C154.352 9.144 153.755 9.69867 153.307 10.424C152.859 11.1387 152.619 11.9973 152.587 13ZM181.395 22.92C180.51 22.9627 179.454 23 178.227 23.032C177.011 23.0747 175.763 23.096 174.483 23.096C173.075 23.096 171.688 23.0747 170.323 23.032C168.968 22.9893 167.79 22.9147 166.787 22.808L166.931 20.168C167.187 19.8267 167.582 19.352 168.115 18.744C168.659 18.136 169.278 17.4533 169.971 16.696C170.664 15.928 171.384 15.1387 172.131 14.328C172.878 13.5173 173.598 12.744 174.291 12.008C174.995 11.272 175.614 10.6267 176.147 10.072C176.68 9.51733 177.075 9.12267 177.331 8.888C177.182 8.87733 176.942 8.86667 176.611 8.856C176.291 8.84533 175.912 8.84 175.475 8.84C175.048 8.84 174.595 8.84 174.115 8.84C173.635 8.84 173.171 8.84 172.723 8.84C172.136 8.84 171.534 8.84533 170.915 8.856C170.296 8.86667 169.71 8.87733 169.155 8.888C168.611 8.89867 168.158 8.91467 167.795 8.936C167.443 8.94667 167.23 8.95733 167.155 8.968L167.283 6.392C167.539 6.392 167.923 6.38667 168.435 6.376C168.947 6.36533 169.55 6.35467 170.243 6.344C170.947 6.33333 171.71 6.32267 172.531 6.312C173.352 6.30133 174.195 6.296 175.059 6.296C176.04 6.296 177.064 6.30133 178.131 6.312C179.208 6.312 180.227 6.33333 181.187 6.376C181.198 6.41867 181.208 6.54667 181.219 6.76C181.24 6.96267 181.256 7.19733 181.267 7.464C181.288 7.73067 181.304 7.98133 181.315 8.216C181.326 8.44 181.331 8.6 181.331 8.696C180.979 9.00533 180.504 9.464 179.907 10.072C179.31 10.6693 178.648 11.3467 177.923 12.104C177.208 12.8613 176.472 13.6453 175.715 14.456C174.968 15.256 174.254 16.0347 173.571 16.792C172.899 17.5387 172.312 18.2 171.811 18.776C171.31 19.352 170.947 19.7893 170.723 20.088C171.011 20.1307 171.582 20.1627 172.435 20.184C173.299 20.2053 174.195 20.216 175.123 20.216C175.923 20.216 176.739 20.2053 177.571 20.184C178.414 20.1627 179.187 20.1307 179.891 20.088C180.595 20.0453 181.16 20.0027 181.587 19.96C181.587 20.056 181.582 20.2427 181.571 20.52C181.56 20.7973 181.544 21.1013 181.523 21.432C181.512 21.7627 181.496 22.0667 181.475 22.344C181.454 22.6213 181.427 22.8133 181.395 22.92ZM235.372 19.672C235.116 20.1947 234.684 20.7227 234.076 21.256C233.468 21.7787 232.711 22.2213 231.804 22.584C230.898 22.936 229.868 23.112 228.716 23.112C227.148 23.112 225.799 22.712 224.668 21.912C223.538 21.112 222.668 20.0507 222.06 18.728C221.452 17.3947 221.148 15.9387 221.148 14.36C221.148 12.632 221.447 11.1013 222.044 9.768C222.642 8.43467 223.516 7.38933 224.668 6.632C225.82 5.864 227.228 5.48 228.892 5.48C229.884 5.48 230.78 5.64533 231.58 5.976C232.38 6.296 233.068 6.73333 233.644 7.288C234.22 7.832 234.674 8.424 235.004 9.064L232.78 10.52C232.727 10.4027 232.626 10.2107 232.476 9.944C232.338 9.67733 232.119 9.4 231.82 9.112C231.532 8.81333 231.148 8.56267 230.668 8.36C230.199 8.15733 229.607 8.056 228.892 8.056C227.9 8.056 227.058 8.296 226.364 8.776C225.671 9.24533 225.143 9.90667 224.78 10.76C224.428 11.6027 224.252 12.5787 224.252 13.688C224.252 14.7547 224.402 15.7627 224.7 16.712C225.01 17.6507 225.5 18.4187 226.172 19.016C226.844 19.6133 227.735 19.912 228.844 19.912C229.516 19.912 230.108 19.8053 230.62 19.592C231.132 19.3787 231.57 19.128 231.932 18.84C232.295 18.552 232.578 18.2853 232.78 18.04C232.994 17.784 233.122 17.6133 233.164 17.528L235.372 19.672ZM246.179 23.496C243.384 23.496 241.32 22.7173 239.987 21.16C238.653 19.6027 237.987 17.3627 237.987 14.44C237.987 12.5947 238.328 11.0373 239.011 9.768C239.704 8.49867 240.664 7.53333 241.891 6.872C243.128 6.21067 244.568 5.88 246.211 5.88C247.949 5.88 249.384 6.28533 250.515 7.096C251.645 7.896 252.483 9.016 253.027 10.456C253.581 11.8853 253.859 13.5493 253.859 15.448C253.859 17.08 253.555 18.4987 252.947 19.704C252.339 20.8987 251.459 21.832 250.307 22.504C249.165 23.1653 247.789 23.496 246.179 23.496ZM246.051 20.632C246.915 20.632 247.656 20.472 248.275 20.152C248.893 19.832 249.395 19.4053 249.779 18.872C250.163 18.328 250.445 17.72 250.627 17.048C250.819 16.376 250.915 15.688 250.915 14.984C250.915 13.704 250.739 12.5627 250.387 11.56C250.035 10.5573 249.501 9.77333 248.787 9.208C248.072 8.632 247.16 8.344 246.051 8.344C244.963 8.344 244.051 8.60533 243.315 9.128C242.579 9.65067 242.024 10.3707 241.651 11.288C241.288 12.2053 241.107 13.256 241.107 14.44C241.107 16.264 241.528 17.752 242.371 18.904C243.213 20.056 244.44 20.632 246.051 20.632ZM268.017 7C268.177 6.95733 268.406 6.92 268.705 6.888C269.014 6.856 269.323 6.84 269.633 6.84C269.889 6.84 270.166 6.85067 270.465 6.872C270.774 6.88267 271.019 6.904 271.201 6.936C271.371 7.97067 271.515 9.02667 271.633 10.104C271.75 11.1813 271.809 12.2427 271.809 13.288C271.809 14.7173 271.686 16.0667 271.441 17.336C271.195 18.6053 270.79 19.7253 270.225 20.696C269.67 21.656 268.918 22.4133 267.969 22.968C267.03 23.5227 265.862 23.8 264.465 23.8C262.939 23.8 261.686 23.5013 260.705 22.904C259.723 22.296 258.961 21.4587 258.417 20.392C257.873 19.3147 257.489 18.0773 257.265 16.68C257.051 15.2827 256.945 13.7893 256.945 12.2C256.945 11.2293 256.977 10.248 257.041 9.256C257.105 8.264 257.174 7.29333 257.249 6.344C257.441 6.33333 257.681 6.328 257.969 6.328C258.267 6.328 258.534 6.33333 258.769 6.344C259.099 6.36533 259.425 6.39733 259.745 6.44C260.075 6.472 260.347 6.52 260.561 6.584C260.454 7.544 260.369 8.49333 260.305 9.432C260.241 10.3707 260.209 11.2773 260.209 12.152C260.209 14.0293 260.363 15.6187 260.673 16.92C260.993 18.2213 261.467 19.208 262.097 19.88C262.737 20.552 263.537 20.888 264.497 20.888C265.393 20.888 266.139 20.584 266.737 19.976C267.345 19.368 267.803 18.488 268.113 17.336C268.422 16.1733 268.577 14.76 268.577 13.096C268.577 12.1467 268.529 11.1547 268.433 10.12C268.337 9.07467 268.198 8.03467 268.017 7ZM275.388 30.024C275.559 28.4133 275.708 26.7013 275.836 24.888C275.975 23.0853 276.092 21.2667 276.188 19.432C276.295 17.5973 276.375 15.8373 276.428 14.152C276.492 12.4667 276.54 10.9307 276.572 9.544C276.604 8.14667 276.62 6.98933 276.62 6.072C277.047 5.944 277.548 5.85333 278.124 5.8C278.7 5.736 279.244 5.704 279.756 5.704C279.767 5.98133 279.772 6.37067 279.772 6.872C279.783 7.36267 279.788 7.8 279.788 8.184C280.055 7.88533 280.455 7.54933 280.988 7.176C281.532 6.792 282.194 6.456 282.972 6.168C283.762 5.88 284.631 5.736 285.58 5.736C287.682 5.736 289.282 6.408 290.38 7.752C291.49 9.096 292.044 10.9627 292.044 13.352C292.044 15.0267 291.756 16.488 291.18 17.736C290.615 18.9733 289.799 19.9333 288.732 20.616C287.666 21.2987 286.38 21.64 284.876 21.64C284.183 21.64 283.452 21.5387 282.684 21.336C281.927 21.1333 281.244 20.8933 280.636 20.616C280.028 20.328 279.607 20.0613 279.372 19.816C279.372 20.0507 279.351 20.4773 279.308 21.096C279.276 21.7147 279.234 22.4293 279.18 23.24C279.127 24.0613 279.068 24.8933 279.004 25.736C278.94 26.5787 278.876 27.3573 278.812 28.072C278.759 28.7867 278.7 29.3413 278.636 29.736C278.274 29.8 277.879 29.8533 277.452 29.896C277.036 29.9387 276.642 29.9707 276.268 29.992C275.895 30.0133 275.602 30.024 275.388 30.024ZM284.444 18.488C285.522 18.488 286.38 18.2693 287.02 17.832C287.671 17.3947 288.14 16.7707 288.428 15.96C288.716 15.1387 288.86 14.1627 288.86 13.032C288.86 11.5707 288.514 10.44 287.82 9.64C287.127 8.82933 286.108 8.424 284.764 8.424C283.943 8.424 283.186 8.57333 282.492 8.872C281.799 9.17067 281.218 9.50667 280.748 9.88C280.279 10.2533 279.948 10.5627 279.756 10.808C279.756 10.9893 279.746 11.3307 279.724 11.832C279.714 12.3333 279.698 12.8987 279.676 13.528C279.655 14.1573 279.634 14.76 279.612 15.336C279.602 15.9013 279.591 16.3387 279.58 16.648C279.804 16.84 280.135 17.0853 280.572 17.384C281.01 17.672 281.554 17.928 282.204 18.152C282.855 18.376 283.602 18.488 284.444 18.488ZM301.234 24.296C300.242 24.296 299.255 24.1573 298.274 23.88C297.293 23.6027 296.397 23.2347 295.586 22.776C294.786 22.3067 294.146 21.7893 293.666 21.224C293.741 21.0747 293.847 20.872 293.986 20.616C294.125 20.36 294.285 20.0933 294.466 19.816C294.647 19.528 294.829 19.2667 295.01 19.032C295.191 18.7867 295.351 18.6 295.49 18.472C295.949 18.984 296.498 19.48 297.138 19.96C297.778 20.4293 298.466 20.8133 299.202 21.112C299.938 21.4 300.674 21.544 301.41 21.544C302.114 21.544 302.749 21.4427 303.314 21.24C303.89 21.0267 304.343 20.7227 304.674 20.328C305.015 19.9333 305.186 19.4587 305.186 18.904C305.186 18.264 304.983 17.7147 304.578 17.256C304.173 16.7867 303.629 16.376 302.946 16.024C302.263 15.6613 301.511 15.3307 300.69 15.032C299.698 14.6693 298.791 14.2747 297.97 13.848C297.159 13.4107 296.509 12.8667 296.018 12.216C295.538 11.5653 295.298 10.7387 295.298 9.736C295.298 8.712 295.586 7.85867 296.162 7.176C296.749 6.49333 297.517 5.976 298.466 5.624C299.426 5.272 300.461 5.096 301.57 5.096C302.807 5.096 303.943 5.256 304.978 5.576C306.023 5.88533 306.823 6.248 307.378 6.664C307.335 6.84533 307.245 7.08533 307.106 7.384C306.967 7.672 306.807 7.96533 306.626 8.264C306.445 8.56267 306.258 8.83467 306.066 9.08C305.554 8.73867 304.93 8.41333 304.194 8.104C303.458 7.79467 302.658 7.64 301.794 7.64C301.218 7.64 300.663 7.70933 300.13 7.848C299.597 7.976 299.159 8.19467 298.818 8.504C298.477 8.81333 298.306 9.23467 298.306 9.768C298.306 10.2267 298.471 10.6373 298.802 11C299.143 11.3627 299.602 11.688 300.178 11.976C300.754 12.2533 301.405 12.52 302.13 12.776C303.005 13.0747 303.815 13.4107 304.562 13.784C305.309 14.1467 305.954 14.568 306.498 15.048C307.053 15.5173 307.485 16.0613 307.794 16.68C308.103 17.288 308.258 17.976 308.258 18.744C308.258 19.9707 307.943 20.9947 307.314 21.816C306.685 22.6373 305.842 23.256 304.786 23.672C303.73 24.088 302.546 24.296 301.234 24.296Z" fill="#132F63"/>
<path d="M201.418 23.512C200.128 23.512 199.029 23.192 198.122 22.552C197.216 21.912 196.474 21.048 195.898 19.96C195.322 18.8613 194.901 17.6133 194.634 16.216C194.378 14.8187 194.25 13.3573 194.25 11.832C194.25 9.96533 194.474 8.25867 194.922 6.712C195.381 5.15467 196.133 3.912 197.178 2.984C198.234 2.056 199.648 1.592 201.418 1.592C202.698 1.592 203.781 1.87467 204.666 2.44C205.562 2.99467 206.277 3.77867 206.81 4.792C207.344 5.80533 207.733 6.98933 207.978 8.344C208.224 9.69867 208.346 11.1653 208.346 12.744C208.346 14.184 208.208 15.5547 207.93 16.856C207.664 18.1467 207.248 19.2933 206.682 20.296C206.117 21.288 205.397 22.072 204.522 22.648C203.648 23.224 202.613 23.512 201.418 23.512ZM201.402 18.696C201.872 18.696 202.261 18.5307 202.57 18.2C202.89 17.8693 203.152 17.4 203.354 16.792C203.568 16.184 203.722 15.4693 203.818 14.648C203.914 13.816 203.962 12.9093 203.962 11.928C203.962 11.2027 203.914 10.4827 203.818 9.768C203.722 9.05333 203.573 8.40267 203.37 7.816C203.178 7.22933 202.917 6.76 202.586 6.408C202.266 6.056 201.872 5.88 201.402 5.88C200.933 5.88 200.533 6.06133 200.202 6.424C199.872 6.78667 199.605 7.26133 199.402 7.848C199.21 8.43467 199.066 9.08 198.97 9.784C198.874 10.4773 198.826 11.1547 198.826 11.816C198.826 13.544 198.933 14.9093 199.146 15.912C199.36 16.9147 199.658 17.6293 200.042 18.056C200.437 18.4827 200.89 18.696 201.402 18.696Z" fill="#FF0000"/>
<defs>
<filter id="filter0_d_28_18" x="0" y="426" width="363" height="15" filterUnits="userSpaceOnUse" color-interpolation-filters="sRGB">
<feFlood flood-opacity="0" result="BackgroundImageFix"/>
<feColorMatrix in="SourceAlpha" type="matrix" values="0 0 0 0 0 0 0 0 0 0 0 0 0 0 0 0 0 0 127 0" result="hardAlpha"/>
<feOffset dy="4"/>
<feGaussianBlur stdDeviation="2"/>
<feComposite in2="hardAlpha" operator="out"/>
<feColorMatrix type="matrix" values="0 0 0 0 0 0 0 0 0 0 0 0 0 0 0 0 0 0 0.25 0"/>
<feBlend mode="normal" in2="BackgroundImageFix" result="effect1_dropShadow_28_18"/>
<feBlend mode="normal" in="SourceGraphic" in2="effect1_dropShadow_28_18" result="shape"/>
</filter>
<filter id="filter1_d_28_18" x="27" y="32.0001" width="14" height="403" filterUnits="userSpaceOnUse" color-interpolation-filters="sRGB">
<feFlood flood-opacity="0" result="BackgroundImageFix"/>
<feColorMatrix in="SourceAlpha" type="matrix" values="0 0 0 0 0 0 0 0 0 0 0 0 0 0 0 0 0 0 127 0" result="hardAlpha"/>
<feOffset dy="4"/>
<feGaussianBlur stdDeviation="2"/>
<feComposite in2="hardAlpha" operator="out"/>
<feColorMatrix type="matrix" values="0 0 0 0 0 0 0 0 0 0 0 0 0 0 0 0 0 0 0.25 0"/>
<feBlend mode="normal" in2="BackgroundImageFix" result="effect1_dropShadow_28_18"/>
<feBlend mode="normal" in="SourceGraphic" in2="effect1_dropShadow_28_18" result="shape"/>
</filter>
<filter id="filter2_d_28_18" x="27" y="37.0004" width="283.078" height="17.9996" filterUnits="userSpaceOnUse" color-interpolation-filters="sRGB">
<feFlood flood-opacity="0" result="BackgroundImageFix"/>
<feColorMatrix in="SourceAlpha" type="matrix" values="0 0 0 0 0 0 0 0 0 0 0 0 0 0 0 0 0 0 127 0" result="hardAlpha"/>
<feOffset dy="4"/>
<feGaussianBlur stdDeviation="2"/>
<feComposite in2="hardAlpha" operator="out"/>
<feColorMatrix type="matrix" values="0 0 0 0 0 0 0 0 0 0 0 0 0 0 0 0 0 0 0.25 0"/>
<feBlend mode="normal" in2="BackgroundImageFix" result="effect1_dropShadow_28_18"/>
<feBlend mode="normal" in="SourceGraphic" in2="effect1_dropShadow_28_18" result="shape"/>
</filter>
<filter id="filter3_d_28_18" x="299" y="36.9655" width="11.9994" height="95.0352" filterUnits="userSpaceOnUse" color-interpolation-filters="sRGB">
<feFlood flood-opacity="0" result="BackgroundImageFix"/>
<feColorMatrix in="SourceAlpha" type="matrix" values="0 0 0 0 0 0 0 0 0 0 0 0 0 0 0 0 0 0 127 0" result="hardAlpha"/>
<feOffset dy="4"/>
<feGaussianBlur stdDeviation="2"/>
<feComposite in2="hardAlpha" operator="out"/>
<feColorMatrix type="matrix" values="0 0 0 0 0 0 0 0 0 0 0 0 0 0 0 0 0 0 0.25 0"/>
<feBlend mode="normal" in2="BackgroundImageFix" result="effect1_dropShadow_28_18"/>
<feBlend mode="normal" in="SourceGraphic" in2="effect1_dropShadow_28_18" result="shape"/>
</filter>
<filter id="filter4_d_28_18" x="285" y="150" width="12.9285" height="18.3714" filterUnits="userSpaceOnUse" color-interpolation-filters="sRGB">
<feFlood flood-opacity="0" result="BackgroundImageFix"/>
<feColorMatrix in="SourceAlpha" type="matrix" values="0 0 0 0 0 0 0 0 0 0 0 0 0 0 0 0 0 0 127 0" result="hardAlpha"/>
<feOffset dy="4"/>
<feGaussianBlur stdDeviation="2"/>
<feComposite in2="hardAlpha" operator="out"/>
<feColorMatrix type="matrix" values="0 0 0 0 0 0 0 0 0 0 0 0 0 0 0 0 0 0 0.25 0"/>
<feBlend mode="normal" in2="BackgroundImageFix" result="effect1_dropShadow_28_18"/>
<feBlend mode="normal" in="SourceGraphic" in2="effect1_dropShadow_28_18" result="shape"/>
</filter>
<filter id="filter5_d_28_18" x="283" y="150.336" width="16.7474" height="17.6644" filterUnits="userSpaceOnUse" color-interpolation-filters="sRGB">
<feFlood flood-opacity="0" result="BackgroundImageFix"/>
<feColorMatrix in="SourceAlpha" type="matrix" values="0 0 0 0 0 0 0 0 0 0 0 0 0 0 0 0 0 0 127 0" result="hardAlpha"/>
<feOffset dy="4"/>
<feGaussianBlur stdDeviation="2"/>
<feComposite in2="hardAlpha" operator="out"/>
<feColorMatrix type="matrix" values="0 0 0 0 0 0 0 0 0 0 0 0 0 0 0 0 0 0 0.25 0"/>
<feBlend mode="normal" in2="BackgroundImageFix" result="effect1_dropShadow_28_18"/>
<feBlend mode="normal" in="SourceGraphic" in2="effect1_dropShadow_28_18" result="shape"/>
</filter>
<filter id="filter6_d_28_18" x="311" y="150" width="12.9285" height="18.3714" filterUnits="userSpaceOnUse" color-interpolation-filters="sRGB">
<feFlood flood-opacity="0" result="BackgroundImageFix"/>
<feColorMatrix in="SourceAlpha" type="matrix" values="0 0 0 0 0 0 0 0 0 0 0 0 0 0 0 0 0 0 127 0" result="hardAlpha"/>
<feOffset dy="4"/>
<feGaussianBlur stdDeviation="2"/>
<feComposite in2="hardAlpha" operator="out"/>
<feColorMatrix type="matrix" values="0 0 0 0 0 0 0 0 0 0 0 0 0 0 0 0 0 0 0.25 0"/>
<feBlend mode="normal" in2="BackgroundImageFix" result="effect1_dropShadow_28_18"/>
<feBlend mode="normal" in="SourceGraphic" in2="effect1_dropShadow_28_18" result="shape"/>
</filter>
<filter id="filter7_d_28_18" x="309" y="150.336" width="16.7474" height="17.6644" filterUnits="userSpaceOnUse" color-interpolation-filters="sRGB">
<feFlood flood-opacity="0" result="BackgroundImageFix"/>
<feColorMatrix in="SourceAlpha" type="matrix" values="0 0 0 0 0 0 0 0 0 0 0 0 0 0 0 0 0 0 127 0" result="hardAlpha"/>
<feOffset dy="4"/>
<feGaussianBlur stdDeviation="2"/>
<feComposite in2="hardAlpha" operator="out"/>
<feColorMatrix type="matrix" values="0 0 0 0 0 0 0 0 0 0 0 0 0 0 0 0 0 0 0.25 0"/>
<feBlend mode="normal" in2="BackgroundImageFix" result="effect1_dropShadow_28_18"/>
<feBlend mode="normal" in="SourceGraphic" in2="effect1_dropShadow_28_18" result="shape"/>
</filter>
<filter id="filter8_d_28_18" x="284.785" y="182.035" width="40.2654" height="15.3659" filterUnits="userSpaceOnUse" color-interpolation-filters="sRGB">
<feFlood flood-opacity="0" result="BackgroundImageFix"/>
<feColorMatrix in="SourceAlpha" type="matrix" values="0 0 0 0 0 0 0 0 0 0 0 0 0 0 0 0 0 0 127 0" result="hardAlpha"/>
<feOffset dy="4"/>
<feGaussianBlur stdDeviation="2"/>
<feComposite in2="hardAlpha" operator="out"/>
<feColorMatrix type="matrix" values="0 0 0 0 0 0 0 0 0 0 0 0 0 0 0 0 0 0 0.25 0"/>
<feBlend mode="normal" in2="BackgroundImageFix" result="effect1_dropShadow_28_18"/>
<feBlend mode="normal" in="SourceGraphic" in2="effect1_dropShadow_28_18" result="shape"/>
</filter>
<filter id="filter9_d_28_18" x="298" y="215" width="11.9995" height="100.033" filterUnits="userSpaceOnUse" color-interpolation-filters="sRGB">
<feFlood flood-opacity="0" result="BackgroundImageFix"/>
<feColorMatrix in="SourceAlpha" type="matrix" values="0 0 0 0 0 0 0 0 0 0 0 0 0 0 0 0 0 0 127 0" result="hardAlpha"/>
<feOffset dy="4"/>
<feGaussianBlur stdDeviation="2"/>
<feComposite in2="hardAlpha" operator="out"/>
<feColorMatrix type="matrix" values="0 0 0 0 0 0 0 0 0 0 0 0 0 0 0 0 0 0 0.25 0"/>
<feBlend mode="normal" in2="BackgroundImageFix" result="effect1_dropShadow_28_18"/>
<feBlend mode="normal" in="SourceGraphic" in2="effect1_dropShadow_28_18" result="shape"/>
</filter>
<filter id="filter10_d_28_18" x="263" y="215" width="46.784" height="56.6207" filterUnits="userSpaceOnUse" color-interpolation-filters="sRGB">
<feFlood flood-opacity="0" result="BackgroundImageFix"/>
<feColorMatrix in="SourceAlpha" type="matrix" values="0 0 0 0 0 0 0 0 0 0 0 0 0 0 0 0 0 0 127 0" result="hardAlpha"/>
<feOffset dy="4"/>
<feGaussianBlur stdDeviation="2"/>
<feComposite in2="hardAlpha" operator="out"/>
<feColorMatrix type="matrix" values="0 0 0 0 0 0 0 0 0 0 0 0 0 0 0 0 0 0 0.25 0"/>
<feBlend mode="normal" in2="BackgroundImageFix" result="effect1_dropShadow_28_18"/>
<feBlend mode="normal" in="SourceGraphic" in2="effect1_dropShadow_28_18" result="shape"/>
</filter>
<filter id="filter11_d_28_18" x="301" y="214.411" width="43.808" height="56.5892" filterUnits="userSpaceOnUse" color-interpolation-filters="sRGB">
<feFlood flood-opacity="0" result="BackgroundImageFix"/>
<feColorMatrix in="SourceAlpha" type="matrix" values="0 0 0 0 0 0 0 0 0 0 0 0 0 0 0 0 0 0 127 0" result="hardAlpha"/>
<feOffset dy="4"/>
<feGaussianBlur stdDeviation="2"/>
<feComposite in2="hardAlpha" operator="out"/>
<feColorMatrix type="matrix" values="0 0 0 0 0 0 0 0 0 0 0 0 0 0 0 0 0 0 0.25 0"/>
<feBlend mode="normal" in2="BackgroundImageFix" result="effect1_dropShadow_28_18"/>
<feBlend mode="normal" in="SourceGraphic" in2="effect1_dropShadow_28_18" result="shape"/>
</filter>
<filter id="filter12_d_28_18" x="260" y="305" width="46.784" height="56.6207" filterUnits="userSpaceOnUse" color-interpolation-filters="sRGB">
<feFlood flood-opacity="0" result="BackgroundImageFix"/>
<feColorMatrix in="SourceAlpha" type="matrix" values="0 0 0 0 0 0 0 0 0 0 0 0 0 0 0 0 0 0 127 0" result="hardAlpha"/>
<feOffset dy="4"/>
<feGaussianBlur stdDeviation="2"/>
<feComposite in2="hardAlpha" operator="out"/>
<feColorMatrix type="matrix" values="0 0 0 0 0 0 0 0 0 0 0 0 0 0 0 0 0 0 0.25 0"/>
<feBlend mode="normal" in2="BackgroundImageFix" result="effect1_dropShadow_28_18"/>
<feBlend mode="normal" in="SourceGraphic" in2="effect1_dropShadow_28_18" result="shape"/>
</filter>
<filter id="filter13_d_28_18" x="298" y="304.411" width="43.808" height="56.5892" filterUnits="userSpaceOnUse" color-interpolation-filters="sRGB">
<feFlood flood-opacity="0" result="BackgroundImageFix"/>
<feColorMatrix in="SourceAlpha" type="matrix" values="0 0 0 0 0 0 0 0 0 0 0 0 0 0 0 0 0 0 127 0" result="hardAlpha"/>
<feOffset dy="4"/>
<feGaussianBlur stdDeviation="2"/>
<feComposite in2="hardAlpha" operator="out"/>
<feColorMatrix type="matrix" values="0 0 0 0 0 0 0 0 0 0 0 0 0 0 0 0 0 0 0.25 0"/>
<feBlend mode="normal" in2="BackgroundImageFix" result="effect1_dropShadow_28_18"/>
<feBlend mode="normal" in="SourceGraphic" in2="effect1_dropShadow_28_18" result="shape"/>
</filter>
</defs>
</svg>

