<svg width="355" height="420" viewBox="0 0 363 440" fill="none" xmlns="http://www.w3.org/2000/svg">
<g filter="url(#filter0_d_28_18)">
<line x1="4" y1="429.5" x2="359" y2="429.5" stroke="black" stroke-width="7"/>
</g>
<g filter="url(#filter1_d_28_18)">
<line x1="34" y1="427" x2="34" y2="32.0001" stroke="black" stroke-width="6"/>
</g>
<g filter="url(#filter2_d_28_18)">
<line x1="31.0382" y1="40.5002" x2="306.04" y2="43.5002" stroke="black" stroke-width="7"/>
</g>
<g filter="url(#filter3_d_28_18)">
<line x1="303.5" y1="36.9828" x2="306.5" y2="123.983" stroke="black"/>
</g>
<path d="M343.5 169.5C343.5 194.434 326.412 214.5 305.5 214.5C284.588 214.5 267.5 194.434 267.5 169.5C267.5 144.566 284.588 124.5 305.5 124.5C326.412 124.5 343.5 144.566 343.5 169.5Z" fill="#D9D9D9" fill-opacity="0.8" stroke="black"/>
<g filter="url(#filter4_d_28_18)">
<line x1="293.464" y1="150.186" x2="289.464" y2="160.186" stroke="black"/>
</g>
<g filter="url(#filter5_d_28_18)">
<line x1="287.374" y1="150.668" x2="295.374" y2="159.668" stroke="black"/>
</g>
<g filter="url(#filter6_d_28_18)">
<line x1="319.464" y1="150.186" x2="315.464" y2="160.186" stroke="black"/>
</g>
<g filter="url(#filter7_d_28_18)">
<line x1="313.374" y1="150.668" x2="321.374" y2="159.668" stroke="black"/>
</g>
<g filter="url(#filter8_d_28_18)">
<path d="M289.2 189.061C289.2 189.061 293.2 183.061 303.7 182.561C314.2 182.061 320.684 189.061 320.684 189.061" stroke="black"/>
</g>
<g filter="url(#filter9_d_28_18)">
<line x1="305.5" y1="215.016" x2="302.5" y2="307.017" stroke="black"/>
</g>
<g filter="url(#filter10_d_28_18)">
<line x1="305.392" y1="215.31" x2="267.392" y2="263.31" stroke="black"/>
</g>
<g filter="url(#filter11_d_28_18)">
<line x1="305.404" y1="214.705" x2="340.404" y2="262.705" stroke="black"/>
</g>
<g filter="url(#filter12_d_28_18)">
<line x1="302.392" y1="305.31" x2="264.392" y2="353.31" stroke="black"/>
</g>
<line x1="302.404" y1="304.706" x2="337.404" y2="352.706" stroke="black" stroke-opacity="0.3"/>
<path d="M40.696 23.32C40.2907 23.32 39.8853 23.304 39.48 23.272C39.0853 23.24 38.776 23.2027 38.552 23.16C38.008 22.008 37.4587 20.6533 36.904 19.096C36.3493 17.528 35.816 15.8907 35.304 14.184C34.792 12.4773 34.3173 10.8133 33.88 9.192C33.4427 7.57067 33.0693 6.10933 32.76 4.808C32.4507 3.496 32.2267 2.46667 32.088 1.72C32.3867 1.624 32.7653 1.544 33.224 1.48C33.6933 1.40533 34.1573 1.34667 34.616 1.304C35.0747 1.26133 35.448 1.24 35.736 1.24C35.7787 1.58133 35.8853 2.168 36.056 3C36.2373 3.832 36.4613 4.81867 36.728 5.96C36.9947 7.09067 37.2933 8.31733 37.624 9.64C37.9547 10.952 38.3013 12.28 38.664 13.624C39.0267 14.9573 39.384 16.2373 39.736 17.464C40.088 18.68 40.4187 19.7573 40.728 20.696L40.44 20.76C40.8347 19.5973 41.2187 18.3333 41.592 16.968C41.9653 15.6027 42.3173 14.2107 42.648 12.792C42.9787 11.3627 43.2773 9.98667 43.544 8.664C43.8213 7.34133 44.056 6.14133 44.248 5.064C44.4507 3.98667 44.6107 3.10667 44.728 2.424C44.8453 1.74133 44.9093 1.336 44.92 1.208C45.4747 1.24 46.0773 1.31467 46.728 1.432C47.3893 1.54933 47.9653 1.71467 48.456 1.928C47.9227 4.31733 47.384 6.56267 46.84 8.664C46.3067 10.7547 45.7947 12.6587 45.304 14.376C44.8133 16.0933 44.3707 17.592 43.976 18.872C43.592 20.1413 43.2773 21.1493 43.032 21.896C42.7867 22.6427 42.6373 23.096 42.584 23.256C42.3707 23.2773 42.0987 23.2933 41.768 23.304C41.4373 23.3147 41.08 23.32 40.696 23.32ZM58.8035 23.496C56.0088 23.496 53.9448 22.7173 52.6115 21.16C51.2782 19.6027 50.6115 17.3627 50.6115 14.44C50.6115 12.5947 50.9528 11.0373 51.6355 9.768C52.3288 8.49867 53.2888 7.53333 54.5155 6.872C55.7528 6.21067 57.1928 5.88 58.8355 5.88C60.5742 5.88 62.0088 6.28533 63.1395 7.096C64.2702 7.896 65.1075 9.016 65.6515 10.456C66.2062 11.8853 66.4835 13.5493 66.4835 15.448C66.4835 17.08 66.1795 18.4987 65.5715 19.704C64.9635 20.8987 64.0835 21.832 62.9315 22.504C61.7902 23.1653 60.4142 23.496 58.8035 23.496ZM58.6755 20.632C59.5395 20.632 60.2808 20.472 60.8995 20.152C61.5182 19.832 62.0195 19.4053 62.4035 18.872C62.7875 18.328 63.0702 17.72 63.2515 17.048C63.4435 16.376 63.5395 15.688 63.5395 14.984C63.5395 13.704 63.3635 12.5627 63.0115 11.56C62.6595 10.5573 62.1262 9.77333 61.4115 9.208C60.6968 8.632 59.7848 8.344 58.6755 8.344C57.5875 8.344 56.6755 8.60533 55.9395 9.128C55.2035 9.65067 54.6488 10.3707 54.2755 11.288C53.9128 12.2053 53.7315 13.256 53.7315 14.44C53.7315 16.264 54.1528 17.752 54.9955 18.904C55.8382 20.056 57.0648 20.632 58.6755 20.632ZM80.6415 7C80.8015 6.95733 81.0308 6.92 81.3295 6.888C81.6388 6.856 81.9482 6.84 82.2575 6.84C82.5135 6.84 82.7908 6.85067 83.0895 6.872C83.3988 6.88267 83.6442 6.904 83.8255 6.936C83.9962 7.97067 84.1402 9.02667 84.2575 10.104C84.3748 11.1813 84.4335 12.2427 84.4335 13.288C84.4335 14.7173 84.3108 16.0667 84.0655 17.336C83.8202 18.6053 83.4148 19.7253 82.8495 20.696C82.2948 21.656 81.5428 22.4133 80.5935 22.968C79.6548 23.5227 78.4868 23.8 77.0895 23.8C75.5642 23.8 74.3108 23.5013 73.3295 22.904C72.3482 22.296 71.5855 21.4587 71.0415 20.392C70.4975 19.3147 70.1135 18.0773 69.8895 16.68C69.6762 15.2827 69.5695 13.7893 69.5695 12.2C69.5695 11.2293 69.6015 10.248 69.6655 9.256C69.7295 8.264 69.7988 7.29333 69.8735 6.344C70.0655 6.33333 70.3055 6.328 70.5935 6.328C70.8922 6.328 71.1588 6.33333 71.3935 6.344C71.7242 6.36533 72.0495 6.39733 72.3695 6.44C72.7002 6.472 72.9722 6.52 73.1855 6.584C73.0788 7.544 72.9935 8.49333 72.9295 9.432C72.8655 10.3707 72.8335 11.2773 72.8335 12.152C72.8335 14.0293 72.9882 15.6187 73.2975 16.92C73.6175 18.2213 74.0922 19.208 74.7215 19.88C75.3615 20.552 76.1615 20.888 77.1215 20.888C78.0175 20.888 78.7642 20.584 79.3615 19.976C79.9695 19.368 80.4282 18.488 80.7375 17.336C81.0468 16.1733 81.2015 14.76 81.2015 13.096C81.2015 12.1467 81.1535 11.1547 81.0575 10.12C80.9615 9.07467 80.8228 8.03467 80.6415 7ZM94.7653 24.296C93.7733 24.296 92.7866 24.1573 91.8053 23.88C90.8239 23.6027 89.9279 23.2347 89.1173 22.776C88.3173 22.3067 87.6773 21.7893 87.1973 21.224C87.2719 21.0747 87.3786 20.872 87.5173 20.616C87.6559 20.36 87.8159 20.0933 87.9973 19.816C88.1786 19.528 88.3599 19.2667 88.5413 19.032C88.7226 18.7867 88.8826 18.6 89.0213 18.472C89.4799 18.984 90.0293 19.48 90.6693 19.96C91.3093 20.4293 91.9973 20.8133 92.7333 21.112C93.4693 21.4 94.2053 21.544 94.9413 21.544C95.6453 21.544 96.2799 21.4427 96.8453 21.24C97.4213 21.0267 97.8746 20.7227 98.2053 20.328C98.5466 19.9333 98.7173 19.4587 98.7173 18.904C98.7173 18.264 98.5146 17.7147 98.1093 17.256C97.7039 16.7867 97.1599 16.376 96.4773 16.024C95.7946 15.6613 95.0426 15.3307 94.2213 15.032C93.2293 14.6693 92.3226 14.2747 91.5013 13.848C90.6906 13.4107 90.0399 12.8667 89.5493 12.216C89.0693 11.5653 88.8293 10.7387 88.8293 9.736C88.8293 8.712 89.1173 7.85867 89.6933 7.176C90.2799 6.49333 91.0479 5.976 91.9973 5.624C92.9573 5.272 93.9919 5.096 95.1013 5.096C96.3386 5.096 97.4746 5.256 98.5093 5.576C99.5546 5.88533 100.355 6.248 100.909 6.664C100.867 6.84533 100.776 7.08533 100.637 7.384C100.499 7.672 100.339 7.96533 100.157 8.264C99.9759 8.56267 99.7893 8.83467 99.5973 9.08C99.0853 8.73867 98.4613 8.41333 97.7253 8.104C96.9893 7.79467 96.1893 7.64 95.3253 7.64C94.7493 7.64 94.1946 7.70933 93.6613 7.848C93.1279 7.976 92.6906 8.19467 92.3493 8.504C92.0079 8.81333 91.8373 9.23467 91.8373 9.768C91.8373 10.2267 92.0026 10.6373 92.3333 11C92.6746 11.3627 93.1333 11.688 93.7093 11.976C94.2853 12.2533 94.9359 12.52 95.6613 12.776C96.5359 13.0747 97.3466 13.4107 98.0933 13.784C98.8399 14.1467 99.4853 14.568 100.029 15.048C100.584 15.5173 101.016 16.0613 101.325 16.68C101.635 17.288 101.789 17.976 101.789 18.744C101.789 19.9707 101.475 20.9947 100.845 21.816C100.216 22.6373 99.3733 23.256 98.3173 23.672C97.2613 24.088 96.0773 24.296 94.7653 24.296ZM120.98 23.336C119.647 23.336 118.436 23.16 117.348 22.808C116.271 22.4453 115.412 21.8693 114.772 21.08C114.132 20.28 113.812 19.2187 113.812 17.896C113.812 16.6267 114.169 15.576 114.884 14.744C115.599 13.912 116.564 13.2987 117.78 12.904C119.007 12.4987 120.377 12.296 121.892 12.296C122.596 12.296 123.284 12.3493 123.956 12.456C124.628 12.552 125.209 12.6693 125.7 12.808C126.191 12.936 126.521 13.0373 126.692 13.112C126.66 12.76 126.596 12.4027 126.5 12.04C126.415 11.6667 126.281 11.3413 126.1 11.064C125.695 10.3493 125.103 9.76267 124.324 9.304C123.556 8.83467 122.591 8.6 121.428 8.6C120.201 8.6 119.161 8.86667 118.308 9.4C117.455 9.92267 116.815 10.5467 116.388 11.272L113.796 9.56C114.265 8.86667 114.884 8.25333 115.652 7.72C116.42 7.18667 117.305 6.76533 118.308 6.456C119.311 6.14667 120.388 5.992 121.54 5.992C123.332 5.992 124.815 6.33333 125.988 7.016C127.161 7.69867 128.02 8.6 128.564 9.72C128.841 10.2853 129.06 10.904 129.22 11.576C129.38 12.248 129.476 13.08 129.508 14.072C129.529 15.1173 129.551 16.008 129.572 16.744C129.604 17.48 129.636 18.1147 129.668 18.648C129.721 19.3413 129.828 19.7893 129.988 19.992C130.148 20.1947 130.377 20.296 130.676 20.296C131.017 20.296 131.305 20.152 131.54 19.864C131.775 19.5653 131.908 19.1493 131.94 18.616L133.476 20.312C133.412 21.208 133.097 21.8907 132.532 22.36C131.967 22.8293 131.305 23.064 130.548 23.064C129.951 23.064 129.423 22.952 128.964 22.728C128.516 22.4933 128.159 22.1947 127.892 21.832C127.625 21.4693 127.471 21.096 127.428 20.712C127.215 21.1067 126.799 21.5067 126.18 21.912C125.572 22.3173 124.82 22.6587 123.924 22.936C123.039 23.2027 122.057 23.336 120.98 23.336ZM121.556 20.824C122.249 20.824 122.927 20.7173 123.588 20.504C124.249 20.2907 124.857 20.008 125.412 19.656C125.977 19.304 126.441 18.9147 126.804 18.488C126.793 17.8267 126.793 17.24 126.804 16.728C126.815 16.2053 126.831 15.7253 126.852 15.288C126.543 15.1813 125.951 15.0427 125.076 14.872C124.201 14.6907 123.215 14.6 122.116 14.6C121.167 14.6 120.303 14.728 119.524 14.984C118.756 15.2293 118.143 15.5867 117.684 16.056C117.236 16.5253 117.012 17.0907 117.012 17.752C117.012 18.552 117.204 19.176 117.588 19.624C117.983 20.0613 118.521 20.3707 119.204 20.552C119.887 20.7333 120.671 20.824 121.556 20.824ZM144.414 5.544C144.904 5.62933 145.363 5.73067 145.79 5.848C146.216 5.96533 146.579 6.072 146.878 6.168C147.176 6.25333 147.358 6.312 147.422 6.344C147.24 7.05867 146.979 7.96 146.638 9.048C146.296 10.1253 145.907 11.2933 145.47 12.552C145.043 13.8107 144.59 15.0907 144.11 16.392C143.64 17.6827 143.176 18.9093 142.718 20.072C142.27 21.2347 141.854 22.2427 141.47 23.096C141.128 23.16 140.659 23.192 140.062 23.192C139.806 23.192 139.555 23.1813 139.31 23.16C139.064 23.1387 138.856 23.1173 138.686 23.096C138.078 21.8373 137.486 20.4987 136.91 19.08C136.334 17.6507 135.779 16.1947 135.246 14.712C134.712 13.2293 134.211 11.768 133.742 10.328C133.283 8.888 132.862 7.528 132.478 6.248C132.616 6.20533 132.808 6.15733 133.054 6.104C133.299 6.04 133.56 5.976 133.838 5.912C134.115 5.83733 134.387 5.768 134.654 5.704C134.92 5.64 135.144 5.58133 135.326 5.528C135.496 6.21067 135.736 7.05333 136.046 8.056C136.355 9.048 136.696 10.104 137.07 11.224C137.454 12.344 137.838 13.448 138.222 14.536C138.616 15.6133 138.984 16.5947 139.326 17.48C139.667 18.3547 139.944 19.0427 140.158 19.544L139.934 19.592C140.211 18.9307 140.51 18.1573 140.83 17.272C141.15 16.376 141.48 15.416 141.822 14.392C142.174 13.368 142.515 12.3333 142.846 11.288C143.176 10.232 143.475 9.21333 143.742 8.232C144.008 7.24 144.232 6.344 144.414 5.544ZM164.843 19.432C164.629 19.7307 164.315 20.0773 163.899 20.472C163.483 20.856 162.965 21.2293 162.347 21.592C161.728 21.944 161.008 22.2373 160.187 22.472C159.365 22.7067 158.437 22.824 157.403 22.824C155.803 22.824 154.4 22.4987 153.195 21.848C151.989 21.1973 151.056 20.248 150.395 19C149.733 17.7413 149.403 16.2107 149.403 14.408C149.403 12.68 149.76 11.1813 150.475 9.912C151.2 8.64267 152.192 7.66133 153.451 6.968C154.709 6.27467 156.155 5.928 157.787 5.928C159.835 5.928 161.429 6.552 162.571 7.8C163.723 9.048 164.363 10.7227 164.491 12.824C164.512 13.1653 164.523 13.496 164.523 13.816C164.523 14.1253 164.507 14.4453 164.475 14.776C164.336 14.7653 164.048 14.7547 163.611 14.744C163.184 14.7227 162.683 14.7067 162.107 14.696C161.531 14.6747 160.949 14.6587 160.363 14.648C159.787 14.6267 159.291 14.616 158.875 14.616C157.797 14.616 156.693 14.6693 155.563 14.776C154.432 14.8827 153.424 15.0053 152.539 15.144C152.549 15.4213 152.576 15.6933 152.619 15.96C152.661 16.2267 152.715 16.4827 152.779 16.728C152.96 17.3787 153.291 17.944 153.771 18.424C154.251 18.8933 154.821 19.256 155.483 19.512C156.155 19.768 156.864 19.896 157.611 19.896C158.4 19.896 159.088 19.7787 159.675 19.544C160.261 19.3093 160.763 19.0213 161.179 18.68C161.605 18.3387 161.947 18.0133 162.203 17.704C162.469 17.3947 162.672 17.1653 162.811 17.016C162.875 17.0693 162.997 17.1867 163.179 17.368C163.371 17.5387 163.573 17.7467 163.787 17.992C164.011 18.2373 164.219 18.488 164.411 18.744C164.613 18.9893 164.757 19.2187 164.843 19.432ZM152.587 13C153.355 12.872 154.256 12.76 155.291 12.664C156.336 12.568 157.52 12.52 158.843 12.52C159.536 12.52 160.123 12.5307 160.603 12.552C161.093 12.5627 161.435 12.5787 161.627 12.6C161.627 12.248 161.584 11.8747 161.499 11.48C161.381 10.9467 161.168 10.4293 160.859 9.928C160.549 9.42667 160.128 9.01067 159.595 8.68C159.072 8.33867 158.411 8.168 157.611 8.168C156.693 8.168 155.856 8.36533 155.099 8.76C154.352 9.144 153.755 9.69867 153.307 10.424C152.859 11.1387 152.619 11.9973 152.587 13ZM181.395 22.92C180.51 22.9627 179.454 23 178.227 23.032C177.011 23.0747 175.763 23.096 174.483 23.096C173.075 23.096 171.688 23.0747 170.323 23.032C168.968 22.9893 167.79 22.9147 166.787 22.808L166.931 20.168C167.187 19.8267 167.582 19.352 168.115 18.744C168.659 18.136 169.278 17.4533 169.971 16.696C170.664 15.928 171.384 15.1387 172.131 14.328C172.878 13.5173 173.598 12.744 174.291 12.008C174.995 11.272 175.614 10.6267 176.147 10.072C176.68 9.51733 177.075 9.12267 177.331 8.888C177.182 8.87733 176.942 8.86667 176.611 8.856C176.291 8.84533 175.912 8.84 175.475 8.84C175.048 8.84 174.595 8.84 174.115 8.84C173.635 8.84 173.171 8.84 172.723 8.84C172.136 8.84 171.534 8.84533 170.915 8.856C170.296 8.86667 169.71 8.87733 169.155 8.888C168.611 8.89867 168.158 8.91467 167.795 8.936C167.443 8.94667 167.23 8.95733 167.155 8.968L167.283 6.392C167.539 6.392 167.923 6.38667 168.435 6.376C168.947 6.36533 169.55 6.35467 170.243 6.344C170.947 6.33333 171.71 6.32267 172.531 6.312C173.352 6.30133 174.195 6.296 175.059 6.296C176.04 6.296 177.064 6.30133 178.131 6.312C179.208 6.312 180.227 6.33333 181.187 6.376C181.198 6.41867 181.208 6.54667 181.219 6.76C181.24 6.96267 181.256 7.19733 181.267 7.464C181.288 7.73067 181.304 7.98133 181.315 8.216C181.326 8.44 181.331 8.6 181.331 8.696C180.979 9.00533 180.504 9.464 179.907 10.072C179.31 10.6693 178.648 11.3467 177.923 12.104C177.208 12.8613 176.472 13.6453 175.715 14.456C174.968 15.256 174.254 16.0347 173.571 16.792C172.899 17.5387 172.312 18.2 171.811 18.776C171.31 19.352 170.947 19.7893 170.723 20.088C171.011 20.1307 171.582 20.1627 172.435 20.184C173.299 20.2053 174.195 20.216 175.123 20.216C175.923 20.216 176.739 20.2053 177.571 20.184C178.414 20.1627 179.187 20.1307 179.891 20.088C180.595 20.0453 181.16 20.0027 181.587 19.96C181.587 20.056 181.582 20.2427 181.571 20.52C181.56 20.7973 181.544 21.1013 181.523 21.432C181.512 21.7627 181.496 22.0667 181.475 22.344C181.454 22.6213 181.427 22.8133 181.395 22.92ZM230.904 19.672C230.648 20.1947 230.216 20.7227 229.608 21.256C229 21.7787 228.242 22.2213 227.336 22.584C226.429 22.936 225.4 23.112 224.248 23.112C222.68 23.112 221.33 22.712 220.2 21.912C219.069 21.112 218.2 20.0507 217.592 18.728C216.984 17.3947 216.68 15.9387 216.68 14.36C216.68 12.632 216.978 11.1013 217.576 9.768C218.173 8.43467 219.048 7.38933 220.2 6.632C221.352 5.864 222.76 5.48 224.424 5.48C225.416 5.48 226.312 5.64533 227.112 5.976C227.912 6.296 228.6 6.73333 229.176 7.288C229.752 7.832 230.205 8.424 230.536 9.064L228.312 10.52C228.258 10.4027 228.157 10.2107 228.008 9.944C227.869 9.67733 227.65 9.4 227.352 9.112C227.064 8.81333 226.68 8.56267 226.2 8.36C225.73 8.15733 225.138 8.056 224.424 8.056C223.432 8.056 222.589 8.296 221.896 8.776C221.202 9.24533 220.674 9.90667 220.312 10.76C219.96 11.6027 219.784 12.5787 219.784 13.688C219.784 14.7547 219.933 15.7627 220.232 16.712C220.541 17.6507 221.032 18.4187 221.704 19.016C222.376 19.6133 223.266 19.912 224.376 19.912C225.048 19.912 225.64 19.8053 226.152 19.592C226.664 19.3787 227.101 19.128 227.464 18.84C227.826 18.552 228.109 18.2853 228.312 18.04C228.525 17.784 228.653 17.6133 228.696 17.528L230.904 19.672ZM241.71 23.496C238.915 23.496 236.851 22.7173 235.518 21.16C234.184 19.6027 233.518 17.3627 233.518 14.44C233.518 12.5947 233.859 11.0373 234.542 9.768C235.235 8.49867 236.195 7.53333 237.422 6.872C238.659 6.21067 240.099 5.88 241.742 5.88C243.48 5.88 244.915 6.28533 246.046 7.096C247.176 7.896 248.014 9.016 248.558 10.456C249.112 11.8853 249.39 13.5493 249.39 15.448C249.39 17.08 249.086 18.4987 248.478 19.704C247.87 20.8987 246.99 21.832 245.838 22.504C244.696 23.1653 243.32 23.496 241.71 23.496ZM241.582 20.632C242.446 20.632 243.187 20.472 243.806 20.152C244.424 19.832 244.926 19.4053 245.31 18.872C245.694 18.328 245.976 17.72 246.158 17.048C246.35 16.376 246.446 15.688 246.446 14.984C246.446 13.704 246.27 12.5627 245.918 11.56C245.566 10.5573 245.032 9.77333 244.318 9.208C243.603 8.632 242.691 8.344 241.582 8.344C240.494 8.344 239.582 8.60533 238.846 9.128C238.11 9.65067 237.555 10.3707 237.182 11.288C236.819 12.2053 236.638 13.256 236.638 14.44C236.638 16.264 237.059 17.752 237.902 18.904C238.744 20.056 239.971 20.632 241.582 20.632ZM263.548 7C263.708 6.95733 263.937 6.92 264.236 6.888C264.545 6.856 264.854 6.84 265.164 6.84C265.42 6.84 265.697 6.85067 265.996 6.872C266.305 6.88267 266.55 6.904 266.732 6.936C266.902 7.97067 267.046 9.02667 267.164 10.104C267.281 11.1813 267.34 12.2427 267.34 13.288C267.34 14.7173 267.217 16.0667 266.972 17.336C266.726 18.6053 266.321 19.7253 265.756 20.696C265.201 21.656 264.449 22.4133 263.5 22.968C262.561 23.5227 261.393 23.8 259.996 23.8C258.47 23.8 257.217 23.5013 256.236 22.904C255.254 22.296 254.492 21.4587 253.948 20.392C253.404 19.3147 253.02 18.0773 252.796 16.68C252.582 15.2827 252.476 13.7893 252.476 12.2C252.476 11.2293 252.508 10.248 252.572 9.256C252.636 8.264 252.705 7.29333 252.78 6.344C252.972 6.33333 253.212 6.328 253.5 6.328C253.798 6.328 254.065 6.33333 254.3 6.344C254.63 6.36533 254.956 6.39733 255.276 6.44C255.606 6.472 255.878 6.52 256.092 6.584C255.985 7.544 255.9 8.49333 255.836 9.432C255.772 10.3707 255.74 11.2773 255.74 12.152C255.74 14.0293 255.894 15.6187 256.204 16.92C256.524 18.2213 256.998 19.208 257.628 19.88C258.268 20.552 259.068 20.888 260.028 20.888C260.924 20.888 261.67 20.584 262.268 19.976C262.876 19.368 263.334 18.488 263.644 17.336C263.953 16.1733 264.108 14.76 264.108 13.096C264.108 12.1467 264.06 11.1547 263.964 10.12C263.868 9.07467 263.729 8.03467 263.548 7ZM270.92 30.024C271.09 28.4133 271.24 26.7013 271.368 24.888C271.506 23.0853 271.624 21.2667 271.72 19.432C271.826 17.5973 271.906 15.8373 271.96 14.152C272.024 12.4667 272.072 10.9307 272.104 9.544C272.136 8.14667 272.152 6.98933 272.152 6.072C272.578 5.944 273.08 5.85333 273.656 5.8C274.232 5.736 274.776 5.704 275.288 5.704C275.298 5.98133 275.304 6.37067 275.304 6.872C275.314 7.36267 275.32 7.8 275.32 8.184C275.586 7.88533 275.986 7.54933 276.52 7.176C277.064 6.792 277.725 6.456 278.503 6.168C279.293 5.88 280.162 5.736 281.112 5.736C283.213 5.736 284.813 6.408 285.912 7.752C287.021 9.096 287.576 10.9627 287.576 13.352C287.576 15.0267 287.288 16.488 286.712 17.736C286.146 18.9733 285.33 19.9333 284.264 20.616C283.197 21.2987 281.912 21.64 280.408 21.64C279.714 21.64 278.984 21.5387 278.216 21.336C277.458 21.1333 276.776 20.8933 276.168 20.616C275.56 20.328 275.138 20.0613 274.904 19.816C274.904 20.0507 274.882 20.4773 274.84 21.096C274.808 21.7147 274.765 22.4293 274.712 23.24C274.658 24.0613 274.6 24.8933 274.536 25.736C274.472 26.5787 274.408 27.3573 274.344 28.072C274.29 28.7867 274.232 29.3413 274.168 29.736C273.805 29.8 273.41 29.8533 272.984 29.896C272.568 29.9387 272.173 29.9707 271.799 29.992C271.426 30.0133 271.133 30.024 270.92 30.024ZM279.976 18.488C281.053 18.488 281.912 18.2693 282.552 17.832C283.202 17.3947 283.672 16.7707 283.96 15.96C284.248 15.1387 284.392 14.1627 284.392 13.032C284.392 11.5707 284.045 10.44 283.352 9.64C282.658 8.82933 281.64 8.424 280.296 8.424C279.474 8.424 278.717 8.57333 278.024 8.872C277.33 9.17067 276.749 9.50667 276.28 9.88C275.81 10.2533 275.48 10.5627 275.288 10.808C275.288 10.9893 275.277 11.3307 275.256 11.832C275.245 12.3333 275.229 12.8987 275.208 13.528C275.186 14.1573 275.165 14.76 275.144 15.336C275.133 15.9013 275.122 16.3387 275.112 16.648C275.336 16.84 275.666 17.0853 276.104 17.384C276.541 17.672 277.085 17.928 277.736 18.152C278.386 18.376 279.133 18.488 279.976 18.488Z" fill="#132F63"/>
<path d="M201.29 18.824C201.642 18.824 202 18.8347 202.362 18.856C202.725 18.8667 203.066 18.888 203.386 18.92C203.706 18.952 203.962 18.984 204.154 19.016C204.154 19.1653 204.144 19.416 204.122 19.768C204.112 20.1093 204.096 20.4827 204.074 20.888C204.053 21.2933 204.026 21.6773 203.994 22.04C203.962 22.4027 203.93 22.6747 203.898 22.856C203.621 22.856 203.146 22.8667 202.474 22.888C201.813 22.8987 201.056 22.9147 200.202 22.936C199.36 22.9573 198.517 22.9787 197.674 23C196.842 23.032 196.101 23.064 195.45 23.096C194.81 23.128 194.373 23.16 194.138 23.192C194.138 22.904 194.138 22.5147 194.138 22.024C194.138 21.5333 194.138 21.0427 194.138 20.552C194.149 20.0613 194.16 19.6773 194.17 19.4C194.341 19.3573 194.56 19.3147 194.826 19.272C195.104 19.2293 195.386 19.192 195.674 19.16C195.973 19.1173 196.25 19.0853 196.506 19.064C196.762 19.032 196.96 19.0107 197.098 19C197.098 18.744 197.098 18.3333 197.098 17.768C197.109 17.192 197.12 16.5253 197.13 15.768C197.152 15 197.168 14.2053 197.178 13.384C197.2 12.552 197.221 11.752 197.242 10.984C197.264 10.2053 197.285 9.51733 197.306 8.92C197.328 8.312 197.344 7.85867 197.354 7.56C197.237 7.656 197.072 7.816 196.858 8.04C196.656 8.25333 196.437 8.49333 196.202 8.76C195.978 9.016 195.77 9.25067 195.578 9.464C195.386 9.67733 195.258 9.82667 195.194 9.912C194.885 9.56 194.517 9.04267 194.09 8.36C193.664 7.67733 193.306 7.05333 193.018 6.488C193.178 6.31733 193.44 6.05067 193.802 5.688C194.176 5.31467 194.597 4.89867 195.066 4.44C195.536 3.98133 196.005 3.53333 196.474 3.096C196.944 2.65867 197.349 2.29067 197.69 1.992C197.989 1.992 198.357 2.00267 198.794 2.024C199.242 2.03467 199.685 2.056 200.122 2.088C200.57 2.12 200.928 2.16267 201.194 2.216C201.216 2.39733 201.242 2.78133 201.274 3.368C201.306 3.944 201.338 4.68533 201.37 5.592C201.402 6.488 201.424 7.512 201.434 8.664C201.456 9.816 201.466 11.064 201.466 12.408C201.466 13.4107 201.456 14.456 201.434 15.544C201.413 16.6213 201.365 17.7147 201.29 18.824Z" fill="#FF0000"/>
<defs>
<filter id="filter0_d_28_18" x="0" y="426" width="363" height="15" filterUnits="userSpaceOnUse" color-interpolation-filters="sRGB">
<feFlood flood-opacity="0" result="BackgroundImageFix"/>
<feColorMatrix in="SourceAlpha" type="matrix" values="0 0 0 0 0 0 0 0 0 0 0 0 0 0 0 0 0 0 127 0" result="hardAlpha"/>
<feOffset dy="4"/>
<feGaussianBlur stdDeviation="2"/>
<feComposite in2="hardAlpha" operator="out"/>
<feColorMatrix type="matrix" values="0 0 0 0 0 0 0 0 0 0 0 0 0 0 0 0 0 0 0.25 0"/>
<feBlend mode="normal" in2="BackgroundImageFix" result="effect1_dropShadow_28_18"/>
<feBlend mode="normal" in="SourceGraphic" in2="effect1_dropShadow_28_18" result="shape"/>
</filter>
<filter id="filter1_d_28_18" x="27" y="32.0001" width="14" height="403" filterUnits="userSpaceOnUse" color-interpolation-filters="sRGB">
<feFlood flood-opacity="0" result="BackgroundImageFix"/>
<feColorMatrix in="SourceAlpha" type="matrix" values="0 0 0 0 0 0 0 0 0 0 0 0 0 0 0 0 0 0 127 0" result="hardAlpha"/>
<feOffset dy="4"/>
<feGaussianBlur stdDeviation="2"/>
<feComposite in2="hardAlpha" operator="out"/>
<feColorMatrix type="matrix" values="0 0 0 0 0 0 0 0 0 0 0 0 0 0 0 0 0 0 0.25 0"/>
<feBlend mode="normal" in2="BackgroundImageFix" result="effect1_dropShadow_28_18"/>
<feBlend mode="normal" in="SourceGraphic" in2="effect1_dropShadow_28_18" result="shape"/>
</filter>
<filter id="filter2_d_28_18" x="27" y="37.0004" width="283.078" height="17.9996" filterUnits="userSpaceOnUse" color-interpolation-filters="sRGB">
<feFlood flood-opacity="0" result="BackgroundImageFix"/>
<feColorMatrix in="SourceAlpha" type="matrix" values="0 0 0 0 0 0 0 0 0 0 0 0 0 0 0 0 0 0 127 0" result="hardAlpha"/>
<feOffset dy="4"/>
<feGaussianBlur stdDeviation="2"/>
<feComposite in2="hardAlpha" operator="out"/>
<feColorMatrix type="matrix" values="0 0 0 0 0 0 0 0 0 0 0 0 0 0 0 0 0 0 0.25 0"/>
<feBlend mode="normal" in2="BackgroundImageFix" result="effect1_dropShadow_28_18"/>
<feBlend mode="normal" in="SourceGraphic" in2="effect1_dropShadow_28_18" result="shape"/>
</filter>
<filter id="filter3_d_28_18" x="299" y="36.9655" width="11.9994" height="95.0352" filterUnits="userSpaceOnUse" color-interpolation-filters="sRGB">
<feFlood flood-opacity="0" result="BackgroundImageFix"/>
<feColorMatrix in="SourceAlpha" type="matrix" values="0 0 0 0 0 0 0 0 0 0 0 0 0 0 0 0 0 0 127 0" result="hardAlpha"/>
<feOffset dy="4"/>
<feGaussianBlur stdDeviation="2"/>
<feComposite in2="hardAlpha" operator="out"/>
<feColorMatrix type="matrix" values="0 0 0 0 0 0 0 0 0 0 0 0 0 0 0 0 0 0 0.25 0"/>
<feBlend mode="normal" in2="BackgroundImageFix" result="effect1_dropShadow_28_18"/>
<feBlend mode="normal" in="SourceGraphic" in2="effect1_dropShadow_28_18" result="shape"/>
</filter>
<filter id="filter4_d_28_18" x="285" y="150" width="12.9285" height="18.3714" filterUnits="userSpaceOnUse" color-interpolation-filters="sRGB">
<feFlood flood-opacity="0" result="BackgroundImageFix"/>
<feColorMatrix in="SourceAlpha" type="matrix" values="0 0 0 0 0 0 0 0 0 0 0 0 0 0 0 0 0 0 127 0" result="hardAlpha"/>
<feOffset dy="4"/>
<feGaussianBlur stdDeviation="2"/>
<feComposite in2="hardAlpha" operator="out"/>
<feColorMatrix type="matrix" values="0 0 0 0 0 0 0 0 0 0 0 0 0 0 0 0 0 0 0.25 0"/>
<feBlend mode="normal" in2="BackgroundImageFix" result="effect1_dropShadow_28_18"/>
<feBlend mode="normal" in="SourceGraphic" in2="effect1_dropShadow_28_18" result="shape"/>
</filter>
<filter id="filter5_d_28_18" x="283" y="150.336" width="16.7474" height="17.6644" filterUnits="userSpaceOnUse" color-interpolation-filters="sRGB">
<feFlood flood-opacity="0" result="BackgroundImageFix"/>
<feColorMatrix in="SourceAlpha" type="matrix" values="0 0 0 0 0 0 0 0 0 0 0 0 0 0 0 0 0 0 127 0" result="hardAlpha"/>
<feOffset dy="4"/>
<feGaussianBlur stdDeviation="2"/>
<feComposite in2="hardAlpha" operator="out"/>
<feColorMatrix type="matrix" values="0 0 0 0 0 0 0 0 0 0 0 0 0 0 0 0 0 0 0.25 0"/>
<feBlend mode="normal" in2="BackgroundImageFix" result="effect1_dropShadow_28_18"/>
<feBlend mode="normal" in="SourceGraphic" in2="effect1_dropShadow_28_18" result="shape"/>
</filter>
<filter id="filter6_d_28_18" x="311" y="150" width="12.9285" height="18.3714" filterUnits="userSpaceOnUse" color-interpolation-filters="sRGB">
<feFlood flood-opacity="0" result="BackgroundImageFix"/>
<feColorMatrix in="SourceAlpha" type="matrix" values="0 0 0 0 0 0 0 0 0 0 0 0 0 0 0 0 0 0 127 0" result="hardAlpha"/>
<feOffset dy="4"/>
<feGaussianBlur stdDeviation="2"/>
<feComposite in2="hardAlpha" operator="out"/>
<feColorMatrix type="matrix" values="0 0 0 0 0 0 0 0 0 0 0 0 0 0 0 0 0 0 0.25 0"/>
<feBlend mode="normal" in2="BackgroundImageFix" result="effect1_dropShadow_28_18"/>
<feBlend mode="normal" in="SourceGraphic" in2="effect1_dropShadow_28_18" result="shape"/>
</filter>
<filter id="filter7_d_28_18" x="309" y="150.336" width="16.7474" height="17.6644" filterUnits="userSpaceOnUse" color-interpolation-filters="sRGB">
<feFlood flood-opacity="0" result="BackgroundImageFix"/>
<feColorMatrix in="SourceAlpha" type="matrix" values="0 0 0 0 0 0 0 0 0 0 0 0 0 0 0 0 0 0 127 0" result="hardAlpha"/>
<feOffset dy="4"/>
<feGaussianBlur stdDeviation="2"/>
<feComposite in2="hardAlpha" operator="out"/>
<feColorMatrix type="matrix" values="0 0 0 0 0 0 0 0 0 0 0 0 0 0 0 0 0 0 0.25 0"/>
<feBlend mode="normal" in2="BackgroundImageFix" result="effect1_dropShadow_28_18"/>
<feBlend mode="normal" in="SourceGraphic" in2="effect1_dropShadow_28_18" result="shape"/>
</filter>
<filter id="filter8_d_28_18" x="284.785" y="182.035" width="40.2654" height="15.3659" filterUnits="userSpaceOnUse" color-interpolation-filters="sRGB">
<feFlood flood-opacity="0" result="BackgroundImageFix"/>
<feColorMatrix in="SourceAlpha" type="matrix" values="0 0 0 0 0 0 0 0 0 0 0 0 0 0 0 0 0 0 127 0" result="hardAlpha"/>
<feOffset dy="4"/>
<feGaussianBlur stdDeviation="2"/>
<feComposite in2="hardAlpha" operator="out"/>
<feColorMatrix type="matrix" values="0 0 0 0 0 0 0 0 0 0 0 0 0 0 0 0 0 0 0.25 0"/>
<feBlend mode="normal" in2="BackgroundImageFix" result="effect1_dropShadow_28_18"/>
<feBlend mode="normal" in="SourceGraphic" in2="effect1_dropShadow_28_18" result="shape"/>
</filter>
<filter id="filter9_d_28_18" x="298" y="215" width="11.9995" height="100.033" filterUnits="userSpaceOnUse" color-interpolation-filters="sRGB">
<feFlood flood-opacity="0" result="BackgroundImageFix"/>
<feColorMatrix in="SourceAlpha" type="matrix" values="0 0 0 0 0 0 0 0 0 0 0 0 0 0 0 0 0 0 127 0" result="hardAlpha"/>
<feOffset dy="4"/>
<feGaussianBlur stdDeviation="2"/>
<feComposite in2="hardAlpha" operator="out"/>
<feColorMatrix type="matrix" values="0 0 0 0 0 0 0 0 0 0 0 0 0 0 0 0 0 0 0.25 0"/>
<feBlend mode="normal" in2="BackgroundImageFix" result="effect1_dropShadow_28_18"/>
<feBlend mode="normal" in="SourceGraphic" in2="effect1_dropShadow_28_18" result="shape"/>
</filter>
<filter id="filter10_d_28_18" x="263" y="215" width="46.784" height="56.6207" filterUnits="userSpaceOnUse" color-interpolation-filters="sRGB">
<feFlood flood-opacity="0" result="BackgroundImageFix"/>
<feColorMatrix in="SourceAlpha" type="matrix" values="0 0 0 0 0 0 0 0 0 0 0 0 0 0 0 0 0 0 127 0" result="hardAlpha"/>
<feOffset dy="4"/>
<feGaussianBlur stdDeviation="2"/>
<feComposite in2="hardAlpha" operator="out"/>
<feColorMatrix type="matrix" values="0 0 0 0 0 0 0 0 0 0 0 0 0 0 0 0 0 0 0.25 0"/>
<feBlend mode="normal" in2="BackgroundImageFix" result="effect1_dropShadow_28_18"/>
<feBlend mode="normal" in="SourceGraphic" in2="effect1_dropShadow_28_18" result="shape"/>
</filter>
<filter id="filter11_d_28_18" x="301" y="214.411" width="43.808" height="56.5892" filterUnits="userSpaceOnUse" color-interpolation-filters="sRGB">
<feFlood flood-opacity="0" result="BackgroundImageFix"/>
<feColorMatrix in="SourceAlpha" type="matrix" values="0 0 0 0 0 0 0 0 0 0 0 0 0 0 0 0 0 0 127 0" result="hardAlpha"/>
<feOffset dy="4"/>
<feGaussianBlur stdDeviation="2"/>
<feComposite in2="hardAlpha" operator="out"/>
<feColorMatrix type="matrix" values="0 0 0 0 0 0 0 0 0 0 0 0 0 0 0 0 0 0 0.25 0"/>
<feBlend mode="normal" in2="BackgroundImageFix" result="effect1_dropShadow_28_18"/>
<feBlend mode="normal" in="SourceGraphic" in2="effect1_dropShadow_28_18" result="shape"/>
</filter>
<filter id="filter12_d_28_18" x="260" y="305" width="46.784" height="56.6207" filterUnits="userSpaceOnUse" color-interpolation-filters="sRGB">
<feFlood flood-opacity="0" result="BackgroundImageFix"/>
<feColorMatrix in="SourceAlpha" type="matrix" values="0 0 0 0 0 0 0 0 0 0 0 0 0 0 0 0 0 0 127 0" result="hardAlpha"/>
<feOffset dy="4"/>
<feGaussianBlur stdDeviation="2"/>
<feComposite in2="hardAlpha" operator="out"/>
<feColorMatrix type="matrix" values="0 0 0 0 0 0 0 0 0 0 0 0 0 0 0 0 0 0 0.25 0"/>
<feBlend mode="normal" in2="BackgroundImageFix" result="effect1_dropShadow_28_18"/>
<feBlend mode="normal" in="SourceGraphic" in2="effect1_dropShadow_28_18" result="shape"/>
</filter>
</defs>
</svg>


