<svg width="355" height="420" viewBox="0 0 363 440" fill="none" xmlns="http://www.w3.org/2000/svg">
<g filter="url(#filter0_d_28_18)">
<line x1="4" y1="429.5" x2="359" y2="429.5" stroke="black" stroke-width="7"/>
</g>
<g filter="url(#filter1_d_28_18)">
<line x1="34" y1="427" x2="34" y2="32.0001" stroke="black" stroke-width="6"/>
</g>
<g filter="url(#filter2_d_28_18)">
<line x1="31.0382" y1="40.5002" x2="306.04" y2="43.5002" stroke="black" stroke-width="7"/>
</g>
<g filter="url(#filter3_d_28_18)">
<line x1="303.5" y1="36.9828" x2="306.5" y2="123.983" stroke="black"/>
</g>
<path d="M343.5 169.5C343.5 194.434 326.412 214.5 305.5 214.5C284.588 214.5 267.5 194.434 267.5 169.5C267.5 144.566 284.588 124.5 305.5 124.5C326.412 124.5 343.5 144.566 343.5 169.5Z" fill="#D9D9D9" fill-opacity="0.8" stroke="black"/>
<g filter="url(#filter4_d_28_18)">
<line x1="293.464" y1="150.186" x2="289.464" y2="160.186" stroke="black"/>
</g>
<g filter="url(#filter5_d_28_18)">
<line x1="287.374" y1="150.668" x2="295.374" y2="159.668" stroke="black"/>
</g>
<g filter="url(#filter6_d_28_18)">
<line x1="319.464" y1="150.186" x2="315.464" y2="160.186" stroke="black"/>
</g>
<g filter="url(#filter7_d_28_18)">
<line x1="313.374" y1="150.668" x2="321.374" y2="159.668" stroke="black"/>
</g>
<g filter="url(#filter8_d_28_18)">
<path d="M289.2 189.061C289.2 189.061 293.2 183.061 303.7 182.561C314.2 182.061 320.684 189.061 320.684 189.061" stroke="black"/>
</g>
<line x1="305.5" y1="215.016" x2="302.5" y2="307.017" stroke="black" stroke-opacity="0.3"/>
<g filter="url(#filter9_d_28_18)">
<line x1="305.392" y1="215.31" x2="267.392" y2="263.31" stroke="black"/>
</g>
<g filter="url(#filter10_d_28_18)">
<line x1="305.404" y1="214.705" x2="340.404" y2="262.705" stroke="black"/>
</g>
<line x1="302.392" y1="305.31" x2="264.392" y2="353.31" stroke="black" stroke-opacity="0.3"/>
<line x1="302.404" y1="304.706" x2="337.404" y2="352.706" stroke="black" stroke-opacity="0.3"/>
<path d="M40.696 23.32C40.2907 23.32 39.8853 23.304 39.48 23.272C39.0853 23.24 38.776 23.2027 38.552 23.16C38.008 22.008 37.4587 20.6533 36.904 19.096C36.3493 17.528 35.816 15.8907 35.304 14.184C34.792 12.4773 34.3173 10.8133 33.88 9.192C33.4427 7.57067 33.0693 6.10933 32.76 4.808C32.4507 3.496 32.2267 2.46667 32.088 1.72C32.3867 1.624 32.7653 1.544 33.224 1.48C33.6933 1.40533 34.1573 1.34667 34.616 1.304C35.0747 1.26133 35.448 1.24 35.736 1.24C35.7787 1.58133 35.8853 2.168 36.056 3C36.2373 3.832 36.4613 4.81867 36.728 5.96C36.9947 7.09067 37.2933 8.31733 37.624 9.64C37.9547 10.952 38.3013 12.28 38.664 13.624C39.0267 14.9573 39.384 16.2373 39.736 17.464C40.088 18.68 40.4187 19.7573 40.728 20.696L40.44 20.76C40.8347 19.5973 41.2187 18.3333 41.592 16.968C41.9653 15.6027 42.3173 14.2107 42.648 12.792C42.9787 11.3627 43.2773 9.98667 43.544 8.664C43.8213 7.34133 44.056 6.14133 44.248 5.064C44.4507 3.98667 44.6107 3.10667 44.728 2.424C44.8453 1.74133 44.9093 1.336 44.92 1.208C45.4747 1.24 46.0773 1.31467 46.728 1.432C47.3893 1.54933 47.9653 1.71467 48.456 1.928C47.9227 4.31733 47.384 6.56267 46.84 8.664C46.3067 10.7547 45.7947 12.6587 45.304 14.376C44.8133 16.0933 44.3707 17.592 43.976 18.872C43.592 20.1413 43.2773 21.1493 43.032 21.896C42.7867 22.6427 42.6373 23.096 42.584 23.256C42.3707 23.2773 42.0987 23.2933 41.768 23.304C41.4373 23.3147 41.08 23.32 40.696 23.32ZM58.8035 23.496C56.0088 23.496 53.9448 22.7173 52.6115 21.16C51.2782 19.6027 50.6115 17.3627 50.6115 14.44C50.6115 12.5947 50.9528 11.0373 51.6355 9.768C52.3288 8.49867 53.2888 7.53333 54.5155 6.872C55.7528 6.21067 57.1928 5.88 58.8355 5.88C60.5742 5.88 62.0088 6.28533 63.1395 7.096C64.2702 7.896 65.1075 9.016 65.6515 10.456C66.2062 11.8853 66.4835 13.5493 66.4835 15.448C66.4835 17.08 66.1795 18.4987 65.5715 19.704C64.9635 20.8987 64.0835 21.832 62.9315 22.504C61.7902 23.1653 60.4142 23.496 58.8035 23.496ZM58.6755 20.632C59.5395 20.632 60.2808 20.472 60.8995 20.152C61.5182 19.832 62.0195 19.4053 62.4035 18.872C62.7875 18.328 63.0702 17.72 63.2515 17.048C63.4435 16.376 63.5395 15.688 63.5395 14.984C63.5395 13.704 63.3635 12.5627 63.0115 11.56C62.6595 10.5573 62.1262 9.77333 61.4115 9.208C60.6968 8.632 59.7848 8.344 58.6755 8.344C57.5875 8.344 56.6755 8.60533 55.9395 9.128C55.2035 9.65067 54.6488 10.3707 54.2755 11.288C53.9128 12.2053 53.7315 13.256 53.7315 14.44C53.7315 16.264 54.1528 17.752 54.9955 18.904C55.8382 20.056 57.0648 20.632 58.6755 20.632ZM80.6415 7C80.8015 6.95733 81.0308 6.92 81.3295 6.888C81.6388 6.856 81.9482 6.84 82.2575 6.84C82.5135 6.84 82.7908 6.85067 83.0895 6.872C83.3988 6.88267 83.6442 6.904 83.8255 6.936C83.9962 7.97067 84.1402 9.02667 84.2575 10.104C84.3748 11.1813 84.4335 12.2427 84.4335 13.288C84.4335 14.7173 84.3108 16.0667 84.0655 17.336C83.8202 18.6053 83.4148 19.7253 82.8495 20.696C82.2948 21.656 81.5428 22.4133 80.5935 22.968C79.6548 23.5227 78.4868 23.8 77.0895 23.8C75.5642 23.8 74.3108 23.5013 73.3295 22.904C72.3482 22.296 71.5855 21.4587 71.0415 20.392C70.4975 19.3147 70.1135 18.0773 69.8895 16.68C69.6762 15.2827 69.5695 13.7893 69.5695 12.2C69.5695 11.2293 69.6015 10.248 69.6655 9.256C69.7295 8.264 69.7988 7.29333 69.8735 6.344C70.0655 6.33333 70.3055 6.328 70.5935 6.328C70.8922 6.328 71.1588 6.33333 71.3935 6.344C71.7242 6.36533 72.0495 6.39733 72.3695 6.44C72.7002 6.472 72.9722 6.52 73.1855 6.584C73.0788 7.544 72.9935 8.49333 72.9295 9.432C72.8655 10.3707 72.8335 11.2773 72.8335 12.152C72.8335 14.0293 72.9882 15.6187 73.2975 16.92C73.6175 18.2213 74.0922 19.208 74.7215 19.88C75.3615 20.552 76.1615 20.888 77.1215 20.888C78.0175 20.888 78.7642 20.584 79.3615 19.976C79.9695 19.368 80.4282 18.488 80.7375 17.336C81.0468 16.1733 81.2015 14.76 81.2015 13.096C81.2015 12.1467 81.1535 11.1547 81.0575 10.12C80.9615 9.07467 80.8228 8.03467 80.6415 7ZM94.7653 24.296C93.7733 24.296 92.7866 24.1573 91.8053 23.88C90.8239 23.6027 89.9279 23.2347 89.1173 22.776C88.3173 22.3067 87.6773 21.7893 87.1973 21.224C87.2719 21.0747 87.3786 20.872 87.5173 20.616C87.6559 20.36 87.8159 20.0933 87.9973 19.816C88.1786 19.528 88.3599 19.2667 88.5413 19.032C88.7226 18.7867 88.8826 18.6 89.0213 18.472C89.4799 18.984 90.0293 19.48 90.6693 19.96C91.3093 20.4293 91.9973 20.8133 92.7333 21.112C93.4693 21.4 94.2053 21.544 94.9413 21.544C95.6453 21.544 96.2799 21.4427 96.8453 21.24C97.4213 21.0267 97.8746 20.7227 98.2053 20.328C98.5466 19.9333 98.7173 19.4587 98.7173 18.904C98.7173 18.264 98.5146 17.7147 98.1093 17.256C97.7039 16.7867 97.1599 16.376 96.4773 16.024C95.7946 15.6613 95.0426 15.3307 94.2213 15.032C93.2293 14.6693 92.3226 14.2747 91.5013 13.848C90.6906 13.4107 90.0399 12.8667 89.5493 12.216C89.0693 11.5653 88.8293 10.7387 88.8293 9.736C88.8293 8.712 89.1173 7.85867 89.6933 7.176C90.2799 6.49333 91.0479 5.976 91.9973 5.624C92.9573 5.272 93.9919 5.096 95.1013 5.096C96.3386 5.096 97.4746 5.256 98.5093 5.576C99.5546 5.88533 100.355 6.248 100.909 6.664C100.867 6.84533 100.776 7.08533 100.637 7.384C100.499 7.672 100.339 7.96533 100.157 8.264C99.9759 8.56267 99.7893 8.83467 99.5973 9.08C99.0853 8.73867 98.4613 8.41333 97.7253 8.104C96.9893 7.79467 96.1893 7.64 95.3253 7.64C94.7493 7.64 94.1946 7.70933 93.6613 7.848C93.1279 7.976 92.6906 8.19467 92.3493 8.504C92.0079 8.81333 91.8373 9.23467 91.8373 9.768C91.8373 10.2267 92.0026 10.6373 92.3333 11C92.6746 11.3627 93.1333 11.688 93.7093 11.976C94.2853 12.2533 94.9359 12.52 95.6613 12.776C96.5359 13.0747 97.3466 13.4107 98.0933 13.784C98.8399 14.1467 99.4853 14.568 100.029 15.048C100.584 15.5173 101.016 16.0613 101.325 16.68C101.635 17.288 101.789 17.976 101.789 18.744C101.789 19.9707 101.475 20.9947 100.845 21.816C100.216 22.6373 99.3733 23.256 98.3173 23.672C97.2613 24.088 96.0773 24.296 94.7653 24.296ZM120.98 23.336C119.647 23.336 118.436 23.16 117.348 22.808C116.271 22.4453 115.412 21.8693 114.772 21.08C114.132 20.28 113.812 19.2187 113.812 17.896C113.812 16.6267 114.169 15.576 114.884 14.744C115.599 13.912 116.564 13.2987 117.78 12.904C119.007 12.4987 120.377 12.296 121.892 12.296C122.596 12.296 123.284 12.3493 123.956 12.456C124.628 12.552 125.209 12.6693 125.7 12.808C126.191 12.936 126.521 13.0373 126.692 13.112C126.66 12.76 126.596 12.4027 126.5 12.04C126.415 11.6667 126.281 11.3413 126.1 11.064C125.695 10.3493 125.103 9.76267 124.324 9.304C123.556 8.83467 122.591 8.6 121.428 8.6C120.201 8.6 119.161 8.86667 118.308 9.4C117.455 9.92267 116.815 10.5467 116.388 11.272L113.796 9.56C114.265 8.86667 114.884 8.25333 115.652 7.72C116.42 7.18667 117.305 6.76533 118.308 6.456C119.311 6.14667 120.388 5.992 121.54 5.992C123.332 5.992 124.815 6.33333 125.988 7.016C127.161 7.69867 128.02 8.6 128.564 9.72C128.841 10.2853 129.06 10.904 129.22 11.576C129.38 12.248 129.476 13.08 129.508 14.072C129.529 15.1173 129.551 16.008 129.572 16.744C129.604 17.48 129.636 18.1147 129.668 18.648C129.721 19.3413 129.828 19.7893 129.988 19.992C130.148 20.1947 130.377 20.296 130.676 20.296C131.017 20.296 131.305 20.152 131.54 19.864C131.775 19.5653 131.908 19.1493 131.94 18.616L133.476 20.312C133.412 21.208 133.097 21.8907 132.532 22.36C131.967 22.8293 131.305 23.064 130.548 23.064C129.951 23.064 129.423 22.952 128.964 22.728C128.516 22.4933 128.159 22.1947 127.892 21.832C127.625 21.4693 127.471 21.096 127.428 20.712C127.215 21.1067 126.799 21.5067 126.18 21.912C125.572 22.3173 124.82 22.6587 123.924 22.936C123.039 23.2027 122.057 23.336 120.98 23.336ZM121.556 20.824C122.249 20.824 122.927 20.7173 123.588 20.504C124.249 20.2907 124.857 20.008 125.412 19.656C125.977 19.304 126.441 18.9147 126.804 18.488C126.793 17.8267 126.793 17.24 126.804 16.728C126.815 16.2053 126.831 15.7253 126.852 15.288C126.543 15.1813 125.951 15.0427 125.076 14.872C124.201 14.6907 123.215 14.6 122.116 14.6C121.167 14.6 120.303 14.728 119.524 14.984C118.756 15.2293 118.143 15.5867 117.684 16.056C117.236 16.5253 117.012 17.0907 117.012 17.752C117.012 18.552 117.204 19.176 117.588 19.624C117.983 20.0613 118.521 20.3707 119.204 20.552C119.887 20.7333 120.671 20.824 121.556 20.824ZM144.414 5.544C144.904 5.62933 145.363 5.73067 145.79 5.848C146.216 5.96533 146.579 6.072 146.878 6.168C147.176 6.25333 147.358 6.312 147.422 6.344C147.24 7.05867 146.979 7.96 146.638 9.048C146.296 10.1253 145.907 11.2933 145.47 12.552C145.043 13.8107 144.59 15.0907 144.11 16.392C143.64 17.6827 143.176 18.9093 142.718 20.072C142.27 21.2347 141.854 22.2427 141.47 23.096C141.128 23.16 140.659 23.192 140.062 23.192C139.806 23.192 139.555 23.1813 139.31 23.16C139.064 23.1387 138.856 23.1173 138.686 23.096C138.078 21.8373 137.486 20.4987 136.91 19.08C136.334 17.6507 135.779 16.1947 135.246 14.712C134.712 13.2293 134.211 11.768 133.742 10.328C133.283 8.888 132.862 7.528 132.478 6.248C132.616 6.20533 132.808 6.15733 133.054 6.104C133.299 6.04 133.56 5.976 133.838 5.912C134.115 5.83733 134.387 5.768 134.654 5.704C134.92 5.64 135.144 5.58133 135.326 5.528C135.496 6.21067 135.736 7.05333 136.046 8.056C136.355 9.048 136.696 10.104 137.07 11.224C137.454 12.344 137.838 13.448 138.222 14.536C138.616 15.6133 138.984 16.5947 139.326 17.48C139.667 18.3547 139.944 19.0427 140.158 19.544L139.934 19.592C140.211 18.9307 140.51 18.1573 140.83 17.272C141.15 16.376 141.48 15.416 141.822 14.392C142.174 13.368 142.515 12.3333 142.846 11.288C143.176 10.232 143.475 9.21333 143.742 8.232C144.008 7.24 144.232 6.344 144.414 5.544ZM164.843 19.432C164.629 19.7307 164.315 20.0773 163.899 20.472C163.483 20.856 162.965 21.2293 162.347 21.592C161.728 21.944 161.008 22.2373 160.187 22.472C159.365 22.7067 158.437 22.824 157.403 22.824C155.803 22.824 154.4 22.4987 153.195 21.848C151.989 21.1973 151.056 20.248 150.395 19C149.733 17.7413 149.403 16.2107 149.403 14.408C149.403 12.68 149.76 11.1813 150.475 9.912C151.2 8.64267 152.192 7.66133 153.451 6.968C154.709 6.27467 156.155 5.928 157.787 5.928C159.835 5.928 161.429 6.552 162.571 7.8C163.723 9.048 164.363 10.7227 164.491 12.824C164.512 13.1653 164.523 13.496 164.523 13.816C164.523 14.1253 164.507 14.4453 164.475 14.776C164.336 14.7653 164.048 14.7547 163.611 14.744C163.184 14.7227 162.683 14.7067 162.107 14.696C161.531 14.6747 160.949 14.6587 160.363 14.648C159.787 14.6267 159.291 14.616 158.875 14.616C157.797 14.616 156.693 14.6693 155.563 14.776C154.432 14.8827 153.424 15.0053 152.539 15.144C152.549 15.4213 152.576 15.6933 152.619 15.96C152.661 16.2267 152.715 16.4827 152.779 16.728C152.96 17.3787 153.291 17.944 153.771 18.424C154.251 18.8933 154.821 19.256 155.483 19.512C156.155 19.768 156.864 19.896 157.611 19.896C158.4 19.896 159.088 19.7787 159.675 19.544C160.261 19.3093 160.763 19.0213 161.179 18.68C161.605 18.3387 161.947 18.0133 162.203 17.704C162.469 17.3947 162.672 17.1653 162.811 17.016C162.875 17.0693 162.997 17.1867 163.179 17.368C163.371 17.5387 163.573 17.7467 163.787 17.992C164.011 18.2373 164.219 18.488 164.411 18.744C164.613 18.9893 164.757 19.2187 164.843 19.432ZM152.587 13C153.355 12.872 154.256 12.76 155.291 12.664C156.336 12.568 157.52 12.52 158.843 12.52C159.536 12.52 160.123 12.5307 160.603 12.552C161.093 12.5627 161.435 12.5787 161.627 12.6C161.627 12.248 161.584 11.8747 161.499 11.48C161.381 10.9467 161.168 10.4293 160.859 9.928C160.549 9.42667 160.128 9.01067 159.595 8.68C159.072 8.33867 158.411 8.168 157.611 8.168C156.693 8.168 155.856 8.36533 155.099 8.76C154.352 9.144 153.755 9.69867 153.307 10.424C152.859 11.1387 152.619 11.9973 152.587 13ZM181.395 22.92C180.51 22.9627 179.454 23 178.227 23.032C177.011 23.0747 175.763 23.096 174.483 23.096C173.075 23.096 171.688 23.0747 170.323 23.032C168.968 22.9893 167.79 22.9147 166.787 22.808L166.931 20.168C167.187 19.8267 167.582 19.352 168.115 18.744C168.659 18.136 169.278 17.4533 169.971 16.696C170.664 15.928 171.384 15.1387 172.131 14.328C172.878 13.5173 173.598 12.744 174.291 12.008C174.995 11.272 175.614 10.6267 176.147 10.072C176.68 9.51733 177.075 9.12267 177.331 8.888C177.182 8.87733 176.942 8.86667 176.611 8.856C176.291 8.84533 175.912 8.84 175.475 8.84C175.048 8.84 174.595 8.84 174.115 8.84C173.635 8.84 173.171 8.84 172.723 8.84C172.136 8.84 171.534 8.84533 170.915 8.856C170.296 8.86667 169.71 8.87733 169.155 8.888C168.611 8.89867 168.158 8.91467 167.795 8.936C167.443 8.94667 167.23 8.95733 167.155 8.968L167.283 6.392C167.539 6.392 167.923 6.38667 168.435 6.376C168.947 6.36533 169.55 6.35467 170.243 6.344C170.947 6.33333 171.71 6.32267 172.531 6.312C173.352 6.30133 174.195 6.296 175.059 6.296C176.04 6.296 177.064 6.30133 178.131 6.312C179.208 6.312 180.227 6.33333 181.187 6.376C181.198 6.41867 181.208 6.54667 181.219 6.76C181.24 6.96267 181.256 7.19733 181.267 7.464C181.288 7.73067 181.304 7.98133 181.315 8.216C181.326 8.44 181.331 8.6 181.331 8.696C180.979 9.00533 180.504 9.464 179.907 10.072C179.31 10.6693 178.648 11.3467 177.923 12.104C177.208 12.8613 176.472 13.6453 175.715 14.456C174.968 15.256 174.254 16.0347 173.571 16.792C172.899 17.5387 172.312 18.2 171.811 18.776C171.31 19.352 170.947 19.7893 170.723 20.088C171.011 20.1307 171.582 20.1627 172.435 20.184C173.299 20.2053 174.195 20.216 175.123 20.216C175.923 20.216 176.739 20.2053 177.571 20.184C178.414 20.1627 179.187 20.1307 179.891 20.088C180.595 20.0453 181.16 20.0027 181.587 19.96C181.587 20.056 181.582 20.2427 181.571 20.52C181.56 20.7973 181.544 21.1013 181.523 21.432C181.512 21.7627 181.496 22.0667 181.475 22.344C181.454 22.6213 181.427 22.8133 181.395 22.92ZM234.466 19.672C234.21 20.1947 233.778 20.7227 233.17 21.256C232.562 21.7787 231.805 22.2213 230.898 22.584C229.991 22.936 228.962 23.112 227.81 23.112C226.242 23.112 224.893 22.712 223.762 21.912C222.631 21.112 221.762 20.0507 221.154 18.728C220.546 17.3947 220.242 15.9387 220.242 14.36C220.242 12.632 220.541 11.1013 221.138 9.768C221.735 8.43467 222.61 7.38933 223.762 6.632C224.914 5.864 226.322 5.48 227.986 5.48C228.978 5.48 229.874 5.64533 230.674 5.976C231.474 6.296 232.162 6.73333 232.738 7.288C233.314 7.832 233.767 8.424 234.098 9.064L231.874 10.52C231.821 10.4027 231.719 10.2107 231.57 9.944C231.431 9.67733 231.213 9.4 230.914 9.112C230.626 8.81333 230.242 8.56267 229.762 8.36C229.293 8.15733 228.701 8.056 227.986 8.056C226.994 8.056 226.151 8.296 225.458 8.776C224.765 9.24533 224.237 9.90667 223.874 10.76C223.522 11.6027 223.346 12.5787 223.346 13.688C223.346 14.7547 223.495 15.7627 223.794 16.712C224.103 17.6507 224.594 18.4187 225.266 19.016C225.938 19.6133 226.829 19.912 227.938 19.912C228.61 19.912 229.202 19.8053 229.714 19.592C230.226 19.3787 230.663 19.128 231.026 18.84C231.389 18.552 231.671 18.2853 231.874 18.04C232.087 17.784 232.215 17.6133 232.258 17.528L234.466 19.672ZM245.272 23.496C242.478 23.496 240.414 22.7173 239.08 21.16C237.747 19.6027 237.08 17.3627 237.08 14.44C237.08 12.5947 237.422 11.0373 238.104 9.768C238.798 8.49867 239.758 7.53333 240.984 6.872C242.222 6.21067 243.662 5.88 245.304 5.88C247.043 5.88 248.478 6.28533 249.608 7.096C250.739 7.896 251.576 9.016 252.12 10.456C252.675 11.8853 252.952 13.5493 252.952 15.448C252.952 17.08 252.648 18.4987 252.04 19.704C251.432 20.8987 250.552 21.832 249.4 22.504C248.259 23.1653 246.883 23.496 245.272 23.496ZM245.144 20.632C246.008 20.632 246.75 20.472 247.368 20.152C247.987 19.832 248.488 19.4053 248.872 18.872C249.256 18.328 249.539 17.72 249.72 17.048C249.912 16.376 250.008 15.688 250.008 14.984C250.008 13.704 249.832 12.5627 249.48 11.56C249.128 10.5573 248.595 9.77333 247.88 9.208C247.166 8.632 246.254 8.344 245.144 8.344C244.056 8.344 243.144 8.60533 242.408 9.128C241.672 9.65067 241.118 10.3707 240.744 11.288C240.382 12.2053 240.2 13.256 240.2 14.44C240.2 16.264 240.622 17.752 241.464 18.904C242.307 20.056 243.534 20.632 245.144 20.632ZM267.11 7C267.27 6.95733 267.5 6.92 267.798 6.888C268.108 6.856 268.417 6.84 268.726 6.84C268.982 6.84 269.26 6.85067 269.558 6.872C269.868 6.88267 270.113 6.904 270.294 6.936C270.465 7.97067 270.609 9.02667 270.726 10.104C270.844 11.1813 270.902 12.2427 270.902 13.288C270.902 14.7173 270.78 16.0667 270.534 17.336C270.289 18.6053 269.884 19.7253 269.318 20.696C268.764 21.656 268.012 22.4133 267.062 22.968C266.124 23.5227 264.956 23.8 263.558 23.8C262.033 23.8 260.78 23.5013 259.798 22.904C258.817 22.296 258.054 21.4587 257.51 20.392C256.966 19.3147 256.582 18.0773 256.358 16.68C256.145 15.2827 256.038 13.7893 256.038 12.2C256.038 11.2293 256.07 10.248 256.134 9.256C256.198 8.264 256.268 7.29333 256.342 6.344C256.534 6.33333 256.774 6.328 257.062 6.328C257.361 6.328 257.628 6.33333 257.862 6.344C258.193 6.36533 258.518 6.39733 258.838 6.44C259.169 6.472 259.441 6.52 259.654 6.584C259.548 7.544 259.462 8.49333 259.398 9.432C259.334 10.3707 259.302 11.2773 259.302 12.152C259.302 14.0293 259.457 15.6187 259.766 16.92C260.086 18.2213 260.561 19.208 261.19 19.88C261.83 20.552 262.63 20.888 263.59 20.888C264.486 20.888 265.233 20.584 265.83 19.976C266.438 19.368 266.897 18.488 267.206 17.336C267.516 16.1733 267.67 14.76 267.67 13.096C267.67 12.1467 267.622 11.1547 267.526 10.12C267.43 9.07467 267.292 8.03467 267.11 7ZM274.482 30.024C274.653 28.4133 274.802 26.7013 274.93 24.888C275.069 23.0853 275.186 21.2667 275.282 19.432C275.389 17.5973 275.469 15.8373 275.522 14.152C275.586 12.4667 275.634 10.9307 275.666 9.544C275.698 8.14667 275.714 6.98933 275.714 6.072C276.141 5.944 276.642 5.85333 277.218 5.8C277.794 5.736 278.338 5.704 278.85 5.704C278.861 5.98133 278.866 6.37067 278.866 6.872C278.877 7.36267 278.882 7.8 278.882 8.184C279.149 7.88533 279.549 7.54933 280.082 7.176C280.626 6.792 281.287 6.456 282.066 6.168C282.855 5.88 283.725 5.736 284.674 5.736C286.775 5.736 288.375 6.408 289.474 7.752C290.583 9.096 291.138 10.9627 291.138 13.352C291.138 15.0267 290.85 16.488 290.274 17.736C289.709 18.9733 288.893 19.9333 287.826 20.616C286.759 21.2987 285.474 21.64 283.97 21.64C283.277 21.64 282.546 21.5387 281.778 21.336C281.021 21.1333 280.338 20.8933 279.73 20.616C279.122 20.328 278.701 20.0613 278.466 19.816C278.466 20.0507 278.445 20.4773 278.402 21.096C278.37 21.7147 278.327 22.4293 278.274 23.24C278.221 24.0613 278.162 24.8933 278.098 25.736C278.034 26.5787 277.97 27.3573 277.906 28.072C277.853 28.7867 277.794 29.3413 277.73 29.736C277.367 29.8 276.973 29.8533 276.546 29.896C276.13 29.9387 275.735 29.9707 275.362 29.992C274.989 30.0133 274.695 30.024 274.482 30.024ZM283.538 18.488C284.615 18.488 285.474 18.2693 286.114 17.832C286.765 17.3947 287.234 16.7707 287.522 15.96C287.81 15.1387 287.954 14.1627 287.954 13.032C287.954 11.5707 287.607 10.44 286.914 9.64C286.221 8.82933 285.202 8.424 283.858 8.424C283.037 8.424 282.279 8.57333 281.586 8.872C280.893 9.17067 280.311 9.50667 279.842 9.88C279.373 10.2533 279.042 10.5627 278.85 10.808C278.85 10.9893 278.839 11.3307 278.818 11.832C278.807 12.3333 278.791 12.8987 278.77 13.528C278.749 14.1573 278.727 14.76 278.706 15.336C278.695 15.9013 278.685 16.3387 278.674 16.648C278.898 16.84 279.229 17.0853 279.666 17.384C280.103 17.672 280.647 17.928 281.298 18.152C281.949 18.376 282.695 18.488 283.538 18.488ZM300.328 24.296C299.336 24.296 298.349 24.1573 297.368 23.88C296.386 23.6027 295.49 23.2347 294.68 22.776C293.88 22.3067 293.24 21.7893 292.76 21.224C292.834 21.0747 292.941 20.872 293.08 20.616C293.218 20.36 293.378 20.0933 293.56 19.816C293.741 19.528 293.922 19.2667 294.104 19.032C294.285 18.7867 294.445 18.6 294.584 18.472C295.042 18.984 295.592 19.48 296.232 19.96C296.872 20.4293 297.56 20.8133 298.296 21.112C299.032 21.4 299.768 21.544 300.504 21.544C301.208 21.544 301.842 21.4427 302.408 21.24C302.984 21.0267 303.437 20.7227 303.768 20.328C304.109 19.9333 304.28 19.4587 304.28 18.904C304.28 18.264 304.077 17.7147 303.672 17.256C303.266 16.7867 302.722 16.376 302.04 16.024C301.357 15.6613 300.605 15.3307 299.784 15.032C298.792 14.6693 297.885 14.2747 297.064 13.848C296.253 13.4107 295.602 12.8667 295.112 12.216C294.632 11.5653 294.392 10.7387 294.392 9.736C294.392 8.712 294.68 7.85867 295.256 7.176C295.842 6.49333 296.61 5.976 297.56 5.624C298.52 5.272 299.554 5.096 300.664 5.096C301.901 5.096 303.037 5.256 304.072 5.576C305.117 5.88533 305.917 6.248 306.472 6.664C306.429 6.84533 306.338 7.08533 306.2 7.384C306.061 7.672 305.901 7.96533 305.72 8.264C305.538 8.56267 305.352 8.83467 305.16 9.08C304.648 8.73867 304.024 8.41333 303.288 8.104C302.552 7.79467 301.752 7.64 300.888 7.64C300.312 7.64 299.757 7.70933 299.224 7.848C298.69 7.976 298.253 8.19467 297.912 8.504C297.57 8.81333 297.4 9.23467 297.4 9.768C297.4 10.2267 297.565 10.6373 297.896 11C298.237 11.3627 298.696 11.688 299.272 11.976C299.848 12.2533 300.498 12.52 301.224 12.776C302.098 13.0747 302.909 13.4107 303.656 13.784C304.402 14.1467 305.048 14.568 305.592 15.048C306.146 15.5173 306.578 16.0613 306.888 16.68C307.197 17.288 307.352 17.976 307.352 18.744C307.352 19.9707 307.037 20.9947 306.408 21.816C305.778 22.6373 304.936 23.256 303.88 23.672C302.824 24.088 301.64 24.296 300.328 24.296Z" fill="#132F63"/>
<path d="M200.538 23.048C199.386 23.048 198.346 22.8987 197.418 22.6C196.49 22.3013 195.701 21.8587 195.05 21.272C194.41 20.6853 193.93 19.9653 193.61 19.112C193.952 18.8667 194.362 18.616 194.842 18.36C195.322 18.104 195.813 17.864 196.314 17.64C196.826 17.416 197.28 17.2347 197.674 17.096C197.909 17.704 198.256 18.2053 198.714 18.6C199.173 18.9947 199.808 19.192 200.618 19.192C201.429 19.192 202.08 19 202.57 18.616C203.061 18.232 203.306 17.6667 203.306 16.92C203.306 16.1413 203.066 15.528 202.586 15.08C202.106 14.632 201.418 14.312 200.522 14.12C199.626 13.928 198.565 13.832 197.338 13.832C197.242 13.544 197.152 13.08 197.066 12.44C196.981 11.8 196.938 11.1227 196.938 10.408C197.76 10.408 198.565 10.28 199.354 10.024C200.144 9.768 200.794 9.416 201.306 8.968C201.818 8.50933 202.074 7.98133 202.074 7.384C202.074 6.89333 201.925 6.488 201.626 6.168C201.338 5.848 200.89 5.688 200.282 5.688C199.77 5.688 199.248 5.79467 198.714 6.008C198.192 6.22133 197.717 6.48267 197.29 6.792C196.874 7.09067 196.554 7.37867 196.33 7.656C195.872 7.28267 195.418 6.89867 194.97 6.504C194.533 6.09867 194.165 5.74667 193.866 5.448C193.568 5.13867 193.386 4.94667 193.322 4.872C193.6 4.54133 194.058 4.12 194.698 3.608C195.349 3.096 196.186 2.64267 197.21 2.248C198.234 1.84267 199.434 1.64 200.81 1.64C201.877 1.64 202.858 1.84267 203.754 2.248C204.661 2.65333 205.386 3.24533 205.93 4.024C206.474 4.792 206.746 5.72533 206.746 6.824C206.746 7.50667 206.576 8.152 206.234 8.76C205.893 9.368 205.44 9.896 204.874 10.344C204.32 10.7813 203.717 11.096 203.066 11.288C203.92 11.448 204.704 11.7573 205.418 12.216C206.144 12.664 206.725 13.256 207.162 13.992C207.6 14.728 207.818 15.608 207.818 16.632C207.818 17.976 207.482 19.128 206.81 20.088C206.149 21.048 205.269 21.784 204.17 22.296C203.072 22.7973 201.861 23.048 200.538 23.048Z" fill="#FF0000"/>
<defs>
<filter id="filter0_d_28_18" x="0" y="426" width="363" height="15" filterUnits="userSpaceOnUse" color-interpolation-filters="sRGB">
<feFlood flood-opacity="0" result="BackgroundImageFix"/>
<feColorMatrix in="SourceAlpha" type="matrix" values="0 0 0 0 0 0 0 0 0 0 0 0 0 0 0 0 0 0 127 0" result="hardAlpha"/>
<feOffset dy="4"/>
<feGaussianBlur stdDeviation="2"/>
<feComposite in2="hardAlpha" operator="out"/>
<feColorMatrix type="matrix" values="0 0 0 0 0 0 0 0 0 0 0 0 0 0 0 0 0 0 0.25 0"/>
<feBlend mode="normal" in2="BackgroundImageFix" result="effect1_dropShadow_28_18"/>
<feBlend mode="normal" in="SourceGraphic" in2="effect1_dropShadow_28_18" result="shape"/>
</filter>
<filter id="filter1_d_28_18" x="27" y="32.0001" width="14" height="403" filterUnits="userSpaceOnUse" color-interpolation-filters="sRGB">
<feFlood flood-opacity="0" result="BackgroundImageFix"/>
<feColorMatrix in="SourceAlpha" type="matrix" values="0 0 0 0 0 0 0 0 0 0 0 0 0 0 0 0 0 0 127 0" result="hardAlpha"/>
<feOffset dy="4"/>
<feGaussianBlur stdDeviation="2"/>
<feComposite in2="hardAlpha" operator="out"/>
<feColorMatrix type="matrix" values="0 0 0 0 0 0 0 0 0 0 0 0 0 0 0 0 0 0 0.25 0"/>
<feBlend mode="normal" in2="BackgroundImageFix" result="effect1_dropShadow_28_18"/>
<feBlend mode="normal" in="SourceGraphic" in2="effect1_dropShadow_28_18" result="shape"/>
</filter>
<filter id="filter2_d_28_18" x="27" y="37.0004" width="283.078" height="17.9996" filterUnits="userSpaceOnUse" color-interpolation-filters="sRGB">
<feFlood flood-opacity="0" result="BackgroundImageFix"/>
<feColorMatrix in="SourceAlpha" type="matrix" values="0 0 0 0 0 0 0 0 0 0 0 0 0 0 0 0 0 0 127 0" result="hardAlpha"/>
<feOffset dy="4"/>
<feGaussianBlur stdDeviation="2"/>
<feComposite in2="hardAlpha" operator="out"/>
<feColorMatrix type="matrix" values="0 0 0 0 0 0 0 0 0 0 0 0 0 0 0 0 0 0 0.25 0"/>
<feBlend mode="normal" in2="BackgroundImageFix" result="effect1_dropShadow_28_18"/>
<feBlend mode="normal" in="SourceGraphic" in2="effect1_dropShadow_28_18" result="shape"/>
</filter>
<filter id="filter3_d_28_18" x="299" y="36.9655" width="11.9994" height="95.0352" filterUnits="userSpaceOnUse" color-interpolation-filters="sRGB">
<feFlood flood-opacity="0" result="BackgroundImageFix"/>
<feColorMatrix in="SourceAlpha" type="matrix" values="0 0 0 0 0 0 0 0 0 0 0 0 0 0 0 0 0 0 127 0" result="hardAlpha"/>
<feOffset dy="4"/>
<feGaussianBlur stdDeviation="2"/>
<feComposite in2="hardAlpha" operator="out"/>
<feColorMatrix type="matrix" values="0 0 0 0 0 0 0 0 0 0 0 0 0 0 0 0 0 0 0.25 0"/>
<feBlend mode="normal" in2="BackgroundImageFix" result="effect1_dropShadow_28_18"/>
<feBlend mode="normal" in="SourceGraphic" in2="effect1_dropShadow_28_18" result="shape"/>
</filter>
<filter id="filter4_d_28_18" x="285" y="150" width="12.9285" height="18.3714" filterUnits="userSpaceOnUse" color-interpolation-filters="sRGB">
<feFlood flood-opacity="0" result="BackgroundImageFix"/>
<feColorMatrix in="SourceAlpha" type="matrix" values="0 0 0 0 0 0 0 0 0 0 0 0 0 0 0 0 0 0 127 0" result="hardAlpha"/>
<feOffset dy="4"/>
<feGaussianBlur stdDeviation="2"/>
<feComposite in2="hardAlpha" operator="out"/>
<feColorMatrix type="matrix" values="0 0 0 0 0 0 0 0 0 0 0 0 0 0 0 0 0 0 0.25 0"/>
<feBlend mode="normal" in2="BackgroundImageFix" result="effect1_dropShadow_28_18"/>
<feBlend mode="normal" in="SourceGraphic" in2="effect1_dropShadow_28_18" result="shape"/>
</filter>
<filter id="filter5_d_28_18" x="283" y="150.336" width="16.7474" height="17.6644" filterUnits="userSpaceOnUse" color-interpolation-filters="sRGB">
<feFlood flood-opacity="0" result="BackgroundImageFix"/>
<feColorMatrix in="SourceAlpha" type="matrix" values="0 0 0 0 0 0 0 0 0 0 0 0 0 0 0 0 0 0 127 0" result="hardAlpha"/>
<feOffset dy="4"/>
<feGaussianBlur stdDeviation="2"/>
<feComposite in2="hardAlpha" operator="out"/>
<feColorMatrix type="matrix" values="0 0 0 0 0 0 0 0 0 0 0 0 0 0 0 0 0 0 0.25 0"/>
<feBlend mode="normal" in2="BackgroundImageFix" result="effect1_dropShadow_28_18"/>
<feBlend mode="normal" in="SourceGraphic" in2="effect1_dropShadow_28_18" result="shape"/>
</filter>
<filter id="filter6_d_28_18" x="311" y="150" width="12.9285" height="18.3714" filterUnits="userSpaceOnUse" color-interpolation-filters="sRGB">
<feFlood flood-opacity="0" result="BackgroundImageFix"/>
<feColorMatrix in="SourceAlpha" type="matrix" values="0 0 0 0 0 0 0 0 0 0 0 0 0 0 0 0 0 0 127 0" result="hardAlpha"/>
<feOffset dy="4"/>
<feGaussianBlur stdDeviation="2"/>
<feComposite in2="hardAlpha" operator="out"/>
<feColorMatrix type="matrix" values="0 0 0 0 0 0 0 0 0 0 0 0 0 0 0 0 0 0 0.25 0"/>
<feBlend mode="normal" in2="BackgroundImageFix" result="effect1_dropShadow_28_18"/>
<feBlend mode="normal" in="SourceGraphic" in2="effect1_dropShadow_28_18" result="shape"/>
</filter>
<filter id="filter7_d_28_18" x="309" y="150.336" width="16.7474" height="17.6644" filterUnits="userSpaceOnUse" color-interpolation-filters="sRGB">
<feFlood flood-opacity="0" result="BackgroundImageFix"/>
<feColorMatrix in="SourceAlpha" type="matrix" values="0 0 0 0 0 0 0 0 0 0 0 0 0 0 0 0 0 0 127 0" result="hardAlpha"/>
<feOffset dy="4"/>
<feGaussianBlur stdDeviation="2"/>
<feComposite in2="hardAlpha" operator="out"/>
<feColorMatrix type="matrix" values="0 0 0 0 0 0 0 0 0 0 0 0 0 0 0 0 0 0 0.25 0"/>
<feBlend mode="normal" in2="BackgroundImageFix" result="effect1_dropShadow_28_18"/>
<feBlend mode="normal" in="SourceGraphic" in2="effect1_dropShadow_28_18" result="shape"/>
</filter>
<filter id="filter8_d_28_18" x="284.785" y="182.035" width="40.2654" height="15.3659" filterUnits="userSpaceOnUse" color-interpolation-filters="sRGB">
<feFlood flood-opacity="0" result="BackgroundImageFix"/>
<feColorMatrix in="SourceAlpha" type="matrix" values="0 0 0 0 0 0 0 0 0 0 0 0 0 0 0 0 0 0 127 0" result="hardAlpha"/>
<feOffset dy="4"/>
<feGaussianBlur stdDeviation="2"/>
<feComposite in2="hardAlpha" operator="out"/>
<feColorMatrix type="matrix" values="0 0 0 0 0 0 0 0 0 0 0 0 0 0 0 0 0 0 0.25 0"/>
<feBlend mode="normal" in2="BackgroundImageFix" result="effect1_dropShadow_28_18"/>
<feBlend mode="normal" in="SourceGraphic" in2="effect1_dropShadow_28_18" result="shape"/>
</filter>
<filter id="filter9_d_28_18" x="263" y="215" width="46.784" height="56.6207" filterUnits="userSpaceOnUse" color-interpolation-filters="sRGB">
<feFlood flood-opacity="0" result="BackgroundImageFix"/>
<feColorMatrix in="SourceAlpha" type="matrix" values="0 0 0 0 0 0 0 0 0 0 0 0 0 0 0 0 0 0 127 0" result="hardAlpha"/>
<feOffset dy="4"/>
<feGaussianBlur stdDeviation="2"/>
<feComposite in2="hardAlpha" operator="out"/>
<feColorMatrix type="matrix" values="0 0 0 0 0 0 0 0 0 0 0 0 0 0 0 0 0 0 0.25 0"/>
<feBlend mode="normal" in2="BackgroundImageFix" result="effect1_dropShadow_28_18"/>
<feBlend mode="normal" in="SourceGraphic" in2="effect1_dropShadow_28_18" result="shape"/>
</filter>
<filter id="filter10_d_28_18" x="301" y="214.411" width="43.808" height="56.5892" filterUnits="userSpaceOnUse" color-interpolation-filters="sRGB">
<feFlood flood-opacity="0" result="BackgroundImageFix"/>
<feColorMatrix in="SourceAlpha" type="matrix" values="0 0 0 0 0 0 0 0 0 0 0 0 0 0 0 0 0 0 127 0" result="hardAlpha"/>
<feOffset dy="4"/>
<feGaussianBlur stdDeviation="2"/>
<feComposite in2="hardAlpha" operator="out"/>
<feColorMatrix type="matrix" values="0 0 0 0 0 0 0 0 0 0 0 0 0 0 0 0 0 0 0.25 0"/>
<feBlend mode="normal" in2="BackgroundImageFix" result="effect1_dropShadow_28_18"/>
<feBlend mode="normal" in="SourceGraphic" in2="effect1_dropShadow_28_18" result="shape"/>
</filter>
</defs>
</svg>


