<svg width="355" height="420" viewBox="0 0 363 440" fill="none" xmlns="http://www.w3.org/2000/svg">
<g filter="url(#filter0_d_28_18)">
<line x1="4" y1="429.5" x2="359" y2="429.5" stroke="black" stroke-width="7"/>
</g>
<g filter="url(#filter1_d_28_18)">
<line x1="34" y1="427" x2="34" y2="32.0001" stroke="black" stroke-width="6"/>
</g>
<g filter="url(#filter2_d_28_18)">
<line x1="31.0382" y1="40.5002" x2="306.04" y2="43.5002" stroke="black" stroke-width="7"/>
</g>
<g filter="url(#filter3_d_28_18)">
<line x1="303.5" y1="36.9828" x2="306.5" y2="123.983" stroke="black"/>
</g>
<path d="M343.5 169.5C343.5 194.434 326.412 214.5 305.5 214.5C284.588 214.5 267.5 194.434 267.5 169.5C267.5 144.566 284.588 124.5 305.5 124.5C326.412 124.5 343.5 144.566 343.5 169.5Z" fill="#D9D9D9" fill-opacity="0.8" stroke="black"/>
<g filter="url(#filter4_d_28_18)">
<line x1="293.464" y1="150.186" x2="289.464" y2="160.186" stroke="black"/>
</g>
<g filter="url(#filter5_d_28_18)">
<line x1="287.374" y1="150.668" x2="295.374" y2="159.668" stroke="black"/>
</g>
<g filter="url(#filter6_d_28_18)">
<line x1="319.464" y1="150.186" x2="315.464" y2="160.186" stroke="black"/>
</g>
<g filter="url(#filter7_d_28_18)">
<line x1="313.374" y1="150.668" x2="321.374" y2="159.668" stroke="black"/>
</g>
<g filter="url(#filter8_d_28_18)">
<path d="M289.2 189.061C289.2 189.061 293.2 183.061 303.7 182.561C314.2 182.061 320.684 189.061 320.684 189.061" stroke="black"/>
</g>
<line x1="305.5" y1="215.016" x2="302.5" y2="307.017" stroke="black" stroke-opacity="0.3"/>
<g filter="url(#filter9_d_28_18)">
<line x1="305.392" y1="215.31" x2="267.392" y2="263.31" stroke="black"/>
</g>
<line x1="305.404" y1="214.705" x2="340.404" y2="262.705" stroke="black" stroke-opacity="0.3"/>
<line x1="302.392" y1="305.31" x2="264.392" y2="353.31" stroke="black" stroke-opacity="0.3"/>
<line x1="302.404" y1="304.706" x2="337.404" y2="352.706" stroke="black" stroke-opacity="0.3"/>
<path d="M40.696 23.32C40.2907 23.32 39.8853 23.304 39.48 23.272C39.0853 23.24 38.776 23.2027 38.552 23.16C38.008 22.008 37.4587 20.6533 36.904 19.096C36.3493 17.528 35.816 15.8907 35.304 14.184C34.792 12.4773 34.3173 10.8133 33.88 9.192C33.4427 7.57067 33.0693 6.10933 32.76 4.808C32.4507 3.496 32.2267 2.46667 32.088 1.72C32.3867 1.624 32.7653 1.544 33.224 1.48C33.6933 1.40533 34.1573 1.34667 34.616 1.304C35.0747 1.26133 35.448 1.24 35.736 1.24C35.7787 1.58133 35.8853 2.168 36.056 3C36.2373 3.832 36.4613 4.81867 36.728 5.96C36.9947 7.09067 37.2933 8.31733 37.624 9.64C37.9547 10.952 38.3013 12.28 38.664 13.624C39.0267 14.9573 39.384 16.2373 39.736 17.464C40.088 18.68 40.4187 19.7573 40.728 20.696L40.44 20.76C40.8347 19.5973 41.2187 18.3333 41.592 16.968C41.9653 15.6027 42.3173 14.2107 42.648 12.792C42.9787 11.3627 43.2773 9.98667 43.544 8.664C43.8213 7.34133 44.056 6.14133 44.248 5.064C44.4507 3.98667 44.6107 3.10667 44.728 2.424C44.8453 1.74133 44.9093 1.336 44.92 1.208C45.4747 1.24 46.0773 1.31467 46.728 1.432C47.3893 1.54933 47.9653 1.71467 48.456 1.928C47.9227 4.31733 47.384 6.56267 46.84 8.664C46.3067 10.7547 45.7947 12.6587 45.304 14.376C44.8133 16.0933 44.3707 17.592 43.976 18.872C43.592 20.1413 43.2773 21.1493 43.032 21.896C42.7867 22.6427 42.6373 23.096 42.584 23.256C42.3707 23.2773 42.0987 23.2933 41.768 23.304C41.4373 23.3147 41.08 23.32 40.696 23.32ZM58.8035 23.496C56.0088 23.496 53.9448 22.7173 52.6115 21.16C51.2782 19.6027 50.6115 17.3627 50.6115 14.44C50.6115 12.5947 50.9528 11.0373 51.6355 9.768C52.3288 8.49867 53.2888 7.53333 54.5155 6.872C55.7528 6.21067 57.1928 5.88 58.8355 5.88C60.5742 5.88 62.0088 6.28533 63.1395 7.096C64.2702 7.896 65.1075 9.016 65.6515 10.456C66.2062 11.8853 66.4835 13.5493 66.4835 15.448C66.4835 17.08 66.1795 18.4987 65.5715 19.704C64.9635 20.8987 64.0835 21.832 62.9315 22.504C61.7902 23.1653 60.4142 23.496 58.8035 23.496ZM58.6755 20.632C59.5395 20.632 60.2808 20.472 60.8995 20.152C61.5182 19.832 62.0195 19.4053 62.4035 18.872C62.7875 18.328 63.0702 17.72 63.2515 17.048C63.4435 16.376 63.5395 15.688 63.5395 14.984C63.5395 13.704 63.3635 12.5627 63.0115 11.56C62.6595 10.5573 62.1262 9.77333 61.4115 9.208C60.6968 8.632 59.7848 8.344 58.6755 8.344C57.5875 8.344 56.6755 8.60533 55.9395 9.128C55.2035 9.65067 54.6488 10.3707 54.2755 11.288C53.9128 12.2053 53.7315 13.256 53.7315 14.44C53.7315 16.264 54.1528 17.752 54.9955 18.904C55.8382 20.056 57.0648 20.632 58.6755 20.632ZM80.6415 7C80.8015 6.95733 81.0308 6.92 81.3295 6.888C81.6388 6.856 81.9482 6.84 82.2575 6.84C82.5135 6.84 82.7908 6.85067 83.0895 6.872C83.3988 6.88267 83.6442 6.904 83.8255 6.936C83.9962 7.97067 84.1402 9.02667 84.2575 10.104C84.3748 11.1813 84.4335 12.2427 84.4335 13.288C84.4335 14.7173 84.3108 16.0667 84.0655 17.336C83.8202 18.6053 83.4148 19.7253 82.8495 20.696C82.2948 21.656 81.5428 22.4133 80.5935 22.968C79.6548 23.5227 78.4868 23.8 77.0895 23.8C75.5642 23.8 74.3108 23.5013 73.3295 22.904C72.3482 22.296 71.5855 21.4587 71.0415 20.392C70.4975 19.3147 70.1135 18.0773 69.8895 16.68C69.6762 15.2827 69.5695 13.7893 69.5695 12.2C69.5695 11.2293 69.6015 10.248 69.6655 9.256C69.7295 8.264 69.7988 7.29333 69.8735 6.344C70.0655 6.33333 70.3055 6.328 70.5935 6.328C70.8922 6.328 71.1588 6.33333 71.3935 6.344C71.7242 6.36533 72.0495 6.39733 72.3695 6.44C72.7002 6.472 72.9722 6.52 73.1855 6.584C73.0788 7.544 72.9935 8.49333 72.9295 9.432C72.8655 10.3707 72.8335 11.2773 72.8335 12.152C72.8335 14.0293 72.9882 15.6187 73.2975 16.92C73.6175 18.2213 74.0922 19.208 74.7215 19.88C75.3615 20.552 76.1615 20.888 77.1215 20.888C78.0175 20.888 78.7642 20.584 79.3615 19.976C79.9695 19.368 80.4282 18.488 80.7375 17.336C81.0468 16.1733 81.2015 14.76 81.2015 13.096C81.2015 12.1467 81.1535 11.1547 81.0575 10.12C80.9615 9.07467 80.8228 8.03467 80.6415 7ZM94.7653 24.296C93.7733 24.296 92.7866 24.1573 91.8053 23.88C90.8239 23.6027 89.9279 23.2347 89.1173 22.776C88.3173 22.3067 87.6773 21.7893 87.1973 21.224C87.2719 21.0747 87.3786 20.872 87.5173 20.616C87.6559 20.36 87.8159 20.0933 87.9973 19.816C88.1786 19.528 88.3599 19.2667 88.5413 19.032C88.7226 18.7867 88.8826 18.6 89.0213 18.472C89.4799 18.984 90.0293 19.48 90.6693 19.96C91.3093 20.4293 91.9973 20.8133 92.7333 21.112C93.4693 21.4 94.2053 21.544 94.9413 21.544C95.6453 21.544 96.2799 21.4427 96.8453 21.24C97.4213 21.0267 97.8746 20.7227 98.2053 20.328C98.5466 19.9333 98.7173 19.4587 98.7173 18.904C98.7173 18.264 98.5146 17.7147 98.1093 17.256C97.7039 16.7867 97.1599 16.376 96.4773 16.024C95.7946 15.6613 95.0426 15.3307 94.2213 15.032C93.2293 14.6693 92.3226 14.2747 91.5013 13.848C90.6906 13.4107 90.0399 12.8667 89.5493 12.216C89.0693 11.5653 88.8293 10.7387 88.8293 9.736C88.8293 8.712 89.1173 7.85867 89.6933 7.176C90.2799 6.49333 91.0479 5.976 91.9973 5.624C92.9573 5.272 93.9919 5.096 95.1013 5.096C96.3386 5.096 97.4746 5.256 98.5093 5.576C99.5546 5.88533 100.355 6.248 100.909 6.664C100.867 6.84533 100.776 7.08533 100.637 7.384C100.499 7.672 100.339 7.96533 100.157 8.264C99.9759 8.56267 99.7893 8.83467 99.5973 9.08C99.0853 8.73867 98.4613 8.41333 97.7253 8.104C96.9893 7.79467 96.1893 7.64 95.3253 7.64C94.7493 7.64 94.1946 7.70933 93.6613 7.848C93.1279 7.976 92.6906 8.19467 92.3493 8.504C92.0079 8.81333 91.8373 9.23467 91.8373 9.768C91.8373 10.2267 92.0026 10.6373 92.3333 11C92.6746 11.3627 93.1333 11.688 93.7093 11.976C94.2853 12.2533 94.9359 12.52 95.6613 12.776C96.5359 13.0747 97.3466 13.4107 98.0933 13.784C98.8399 14.1467 99.4853 14.568 100.029 15.048C100.584 15.5173 101.016 16.0613 101.325 16.68C101.635 17.288 101.789 17.976 101.789 18.744C101.789 19.9707 101.475 20.9947 100.845 21.816C100.216 22.6373 99.3733 23.256 98.3173 23.672C97.2613 24.088 96.0773 24.296 94.7653 24.296ZM120.98 23.336C119.647 23.336 118.436 23.16 117.348 22.808C116.271 22.4453 115.412 21.8693 114.772 21.08C114.132 20.28 113.812 19.2187 113.812 17.896C113.812 16.6267 114.169 15.576 114.884 14.744C115.599 13.912 116.564 13.2987 117.78 12.904C119.007 12.4987 120.377 12.296 121.892 12.296C122.596 12.296 123.284 12.3493 123.956 12.456C124.628 12.552 125.209 12.6693 125.7 12.808C126.191 12.936 126.521 13.0373 126.692 13.112C126.66 12.76 126.596 12.4027 126.5 12.04C126.415 11.6667 126.281 11.3413 126.1 11.064C125.695 10.3493 125.103 9.76267 124.324 9.304C123.556 8.83467 122.591 8.6 121.428 8.6C120.201 8.6 119.161 8.86667 118.308 9.4C117.455 9.92267 116.815 10.5467 116.388 11.272L113.796 9.56C114.265 8.86667 114.884 8.25333 115.652 7.72C116.42 7.18667 117.305 6.76533 118.308 6.456C119.311 6.14667 120.388 5.992 121.54 5.992C123.332 5.992 124.815 6.33333 125.988 7.016C127.161 7.69867 128.02 8.6 128.564 9.72C128.841 10.2853 129.06 10.904 129.22 11.576C129.38 12.248 129.476 13.08 129.508 14.072C129.529 15.1173 129.551 16.008 129.572 16.744C129.604 17.48 129.636 18.1147 129.668 18.648C129.721 19.3413 129.828 19.7893 129.988 19.992C130.148 20.1947 130.377 20.296 130.676 20.296C131.017 20.296 131.305 20.152 131.54 19.864C131.775 19.5653 131.908 19.1493 131.94 18.616L133.476 20.312C133.412 21.208 133.097 21.8907 132.532 22.36C131.967 22.8293 131.305 23.064 130.548 23.064C129.951 23.064 129.423 22.952 128.964 22.728C128.516 22.4933 128.159 22.1947 127.892 21.832C127.625 21.4693 127.471 21.096 127.428 20.712C127.215 21.1067 126.799 21.5067 126.18 21.912C125.572 22.3173 124.82 22.6587 123.924 22.936C123.039 23.2027 122.057 23.336 120.98 23.336ZM121.556 20.824C122.249 20.824 122.927 20.7173 123.588 20.504C124.249 20.2907 124.857 20.008 125.412 19.656C125.977 19.304 126.441 18.9147 126.804 18.488C126.793 17.8267 126.793 17.24 126.804 16.728C126.815 16.2053 126.831 15.7253 126.852 15.288C126.543 15.1813 125.951 15.0427 125.076 14.872C124.201 14.6907 123.215 14.6 122.116 14.6C121.167 14.6 120.303 14.728 119.524 14.984C118.756 15.2293 118.143 15.5867 117.684 16.056C117.236 16.5253 117.012 17.0907 117.012 17.752C117.012 18.552 117.204 19.176 117.588 19.624C117.983 20.0613 118.521 20.3707 119.204 20.552C119.887 20.7333 120.671 20.824 121.556 20.824ZM144.414 5.544C144.904 5.62933 145.363 5.73067 145.79 5.848C146.216 5.96533 146.579 6.072 146.878 6.168C147.176 6.25333 147.358 6.312 147.422 6.344C147.24 7.05867 146.979 7.96 146.638 9.048C146.296 10.1253 145.907 11.2933 145.47 12.552C145.043 13.8107 144.59 15.0907 144.11 16.392C143.64 17.6827 143.176 18.9093 142.718 20.072C142.27 21.2347 141.854 22.2427 141.47 23.096C141.128 23.16 140.659 23.192 140.062 23.192C139.806 23.192 139.555 23.1813 139.31 23.16C139.064 23.1387 138.856 23.1173 138.686 23.096C138.078 21.8373 137.486 20.4987 136.91 19.08C136.334 17.6507 135.779 16.1947 135.246 14.712C134.712 13.2293 134.211 11.768 133.742 10.328C133.283 8.888 132.862 7.528 132.478 6.248C132.616 6.20533 132.808 6.15733 133.054 6.104C133.299 6.04 133.56 5.976 133.838 5.912C134.115 5.83733 134.387 5.768 134.654 5.704C134.92 5.64 135.144 5.58133 135.326 5.528C135.496 6.21067 135.736 7.05333 136.046 8.056C136.355 9.048 136.696 10.104 137.07 11.224C137.454 12.344 137.838 13.448 138.222 14.536C138.616 15.6133 138.984 16.5947 139.326 17.48C139.667 18.3547 139.944 19.0427 140.158 19.544L139.934 19.592C140.211 18.9307 140.51 18.1573 140.83 17.272C141.15 16.376 141.48 15.416 141.822 14.392C142.174 13.368 142.515 12.3333 142.846 11.288C143.176 10.232 143.475 9.21333 143.742 8.232C144.008 7.24 144.232 6.344 144.414 5.544ZM164.843 19.432C164.629 19.7307 164.315 20.0773 163.899 20.472C163.483 20.856 162.965 21.2293 162.347 21.592C161.728 21.944 161.008 22.2373 160.187 22.472C159.365 22.7067 158.437 22.824 157.403 22.824C155.803 22.824 154.4 22.4987 153.195 21.848C151.989 21.1973 151.056 20.248 150.395 19C149.733 17.7413 149.403 16.2107 149.403 14.408C149.403 12.68 149.76 11.1813 150.475 9.912C151.2 8.64267 152.192 7.66133 153.451 6.968C154.709 6.27467 156.155 5.928 157.787 5.928C159.835 5.928 161.429 6.552 162.571 7.8C163.723 9.048 164.363 10.7227 164.491 12.824C164.512 13.1653 164.523 13.496 164.523 13.816C164.523 14.1253 164.507 14.4453 164.475 14.776C164.336 14.7653 164.048 14.7547 163.611 14.744C163.184 14.7227 162.683 14.7067 162.107 14.696C161.531 14.6747 160.949 14.6587 160.363 14.648C159.787 14.6267 159.291 14.616 158.875 14.616C157.797 14.616 156.693 14.6693 155.563 14.776C154.432 14.8827 153.424 15.0053 152.539 15.144C152.549 15.4213 152.576 15.6933 152.619 15.96C152.661 16.2267 152.715 16.4827 152.779 16.728C152.96 17.3787 153.291 17.944 153.771 18.424C154.251 18.8933 154.821 19.256 155.483 19.512C156.155 19.768 156.864 19.896 157.611 19.896C158.4 19.896 159.088 19.7787 159.675 19.544C160.261 19.3093 160.763 19.0213 161.179 18.68C161.605 18.3387 161.947 18.0133 162.203 17.704C162.469 17.3947 162.672 17.1653 162.811 17.016C162.875 17.0693 162.997 17.1867 163.179 17.368C163.371 17.5387 163.573 17.7467 163.787 17.992C164.011 18.2373 164.219 18.488 164.411 18.744C164.613 18.9893 164.757 19.2187 164.843 19.432ZM152.587 13C153.355 12.872 154.256 12.76 155.291 12.664C156.336 12.568 157.52 12.52 158.843 12.52C159.536 12.52 160.123 12.5307 160.603 12.552C161.093 12.5627 161.435 12.5787 161.627 12.6C161.627 12.248 161.584 11.8747 161.499 11.48C161.381 10.9467 161.168 10.4293 160.859 9.928C160.549 9.42667 160.128 9.01067 159.595 8.68C159.072 8.33867 158.411 8.168 157.611 8.168C156.693 8.168 155.856 8.36533 155.099 8.76C154.352 9.144 153.755 9.69867 153.307 10.424C152.859 11.1387 152.619 11.9973 152.587 13ZM181.395 22.92C180.51 22.9627 179.454 23 178.227 23.032C177.011 23.0747 175.763 23.096 174.483 23.096C173.075 23.096 171.688 23.0747 170.323 23.032C168.968 22.9893 167.79 22.9147 166.787 22.808L166.931 20.168C167.187 19.8267 167.582 19.352 168.115 18.744C168.659 18.136 169.278 17.4533 169.971 16.696C170.664 15.928 171.384 15.1387 172.131 14.328C172.878 13.5173 173.598 12.744 174.291 12.008C174.995 11.272 175.614 10.6267 176.147 10.072C176.68 9.51733 177.075 9.12267 177.331 8.888C177.182 8.87733 176.942 8.86667 176.611 8.856C176.291 8.84533 175.912 8.84 175.475 8.84C175.048 8.84 174.595 8.84 174.115 8.84C173.635 8.84 173.171 8.84 172.723 8.84C172.136 8.84 171.534 8.84533 170.915 8.856C170.296 8.86667 169.71 8.87733 169.155 8.888C168.611 8.89867 168.158 8.91467 167.795 8.936C167.443 8.94667 167.23 8.95733 167.155 8.968L167.283 6.392C167.539 6.392 167.923 6.38667 168.435 6.376C168.947 6.36533 169.55 6.35467 170.243 6.344C170.947 6.33333 171.71 6.32267 172.531 6.312C173.352 6.30133 174.195 6.296 175.059 6.296C176.04 6.296 177.064 6.30133 178.131 6.312C179.208 6.312 180.227 6.33333 181.187 6.376C181.198 6.41867 181.208 6.54667 181.219 6.76C181.24 6.96267 181.256 7.19733 181.267 7.464C181.288 7.73067 181.304 7.98133 181.315 8.216C181.326 8.44 181.331 8.6 181.331 8.696C180.979 9.00533 180.504 9.464 179.907 10.072C179.31 10.6693 178.648 11.3467 177.923 12.104C177.208 12.8613 176.472 13.6453 175.715 14.456C174.968 15.256 174.254 16.0347 173.571 16.792C172.899 17.5387 172.312 18.2 171.811 18.776C171.31 19.352 170.947 19.7893 170.723 20.088C171.011 20.1307 171.582 20.1627 172.435 20.184C173.299 20.2053 174.195 20.216 175.123 20.216C175.923 20.216 176.739 20.2053 177.571 20.184C178.414 20.1627 179.187 20.1307 179.891 20.088C180.595 20.0453 181.16 20.0027 181.587 19.96C181.587 20.056 181.582 20.2427 181.571 20.52C181.56 20.7973 181.544 21.1013 181.523 21.432C181.512 21.7627 181.496 22.0667 181.475 22.344C181.454 22.6213 181.427 22.8133 181.395 22.92ZM235.622 19.672C235.366 20.1947 234.934 20.7227 234.326 21.256C233.718 21.7787 232.961 22.2213 232.054 22.584C231.148 22.936 230.118 23.112 228.966 23.112C227.398 23.112 226.049 22.712 224.918 21.912C223.788 21.112 222.918 20.0507 222.31 18.728C221.702 17.3947 221.398 15.9387 221.398 14.36C221.398 12.632 221.697 11.1013 222.294 9.768C222.892 8.43467 223.766 7.38933 224.918 6.632C226.07 5.864 227.478 5.48 229.142 5.48C230.134 5.48 231.03 5.64533 231.83 5.976C232.63 6.296 233.318 6.73333 233.894 7.288C234.47 7.832 234.924 8.424 235.254 9.064L233.03 10.52C232.977 10.4027 232.876 10.2107 232.726 9.944C232.588 9.67733 232.369 9.4 232.07 9.112C231.782 8.81333 231.398 8.56267 230.918 8.36C230.449 8.15733 229.857 8.056 229.142 8.056C228.15 8.056 227.308 8.296 226.614 8.776C225.921 9.24533 225.393 9.90667 225.03 10.76C224.678 11.6027 224.502 12.5787 224.502 13.688C224.502 14.7547 224.652 15.7627 224.95 16.712C225.26 17.6507 225.75 18.4187 226.422 19.016C227.094 19.6133 227.985 19.912 229.094 19.912C229.766 19.912 230.358 19.8053 230.87 19.592C231.382 19.3787 231.82 19.128 232.182 18.84C232.545 18.552 232.828 18.2853 233.03 18.04C233.244 17.784 233.372 17.6133 233.414 17.528L235.622 19.672ZM246.429 23.496C243.634 23.496 241.57 22.7173 240.237 21.16C238.903 19.6027 238.237 17.3627 238.237 14.44C238.237 12.5947 238.578 11.0373 239.261 9.768C239.954 8.49867 240.914 7.53333 242.141 6.872C243.378 6.21067 244.818 5.88 246.461 5.88C248.199 5.88 249.634 6.28533 250.765 7.096C251.895 7.896 252.733 9.016 253.277 10.456C253.831 11.8853 254.109 13.5493 254.109 15.448C254.109 17.08 253.805 18.4987 253.197 19.704C252.589 20.8987 251.709 21.832 250.557 22.504C249.415 23.1653 248.039 23.496 246.429 23.496ZM246.301 20.632C247.165 20.632 247.906 20.472 248.525 20.152C249.143 19.832 249.645 19.4053 250.029 18.872C250.413 18.328 250.695 17.72 250.877 17.048C251.069 16.376 251.165 15.688 251.165 14.984C251.165 13.704 250.989 12.5627 250.637 11.56C250.285 10.5573 249.751 9.77333 249.037 9.208C248.322 8.632 247.41 8.344 246.301 8.344C245.213 8.344 244.301 8.60533 243.565 9.128C242.829 9.65067 242.274 10.3707 241.901 11.288C241.538 12.2053 241.357 13.256 241.357 14.44C241.357 16.264 241.778 17.752 242.621 18.904C243.463 20.056 244.69 20.632 246.301 20.632ZM268.267 7C268.427 6.95733 268.656 6.92 268.955 6.888C269.264 6.856 269.573 6.84 269.883 6.84C270.139 6.84 270.416 6.85067 270.715 6.872C271.024 6.88267 271.269 6.904 271.451 6.936C271.621 7.97067 271.765 9.02667 271.883 10.104C272 11.1813 272.059 12.2427 272.059 13.288C272.059 14.7173 271.936 16.0667 271.691 17.336C271.445 18.6053 271.04 19.7253 270.475 20.696C269.92 21.656 269.168 22.4133 268.219 22.968C267.28 23.5227 266.112 23.8 264.715 23.8C263.189 23.8 261.936 23.5013 260.955 22.904C259.973 22.296 259.211 21.4587 258.667 20.392C258.123 19.3147 257.739 18.0773 257.515 16.68C257.301 15.2827 257.195 13.7893 257.195 12.2C257.195 11.2293 257.227 10.248 257.291 9.256C257.355 8.264 257.424 7.29333 257.499 6.344C257.691 6.33333 257.931 6.328 258.219 6.328C258.517 6.328 258.784 6.33333 259.019 6.344C259.349 6.36533 259.675 6.39733 259.995 6.44C260.325 6.472 260.597 6.52 260.811 6.584C260.704 7.544 260.619 8.49333 260.555 9.432C260.491 10.3707 260.459 11.2773 260.459 12.152C260.459 14.0293 260.613 15.6187 260.923 16.92C261.243 18.2213 261.717 19.208 262.347 19.88C262.987 20.552 263.787 20.888 264.747 20.888C265.643 20.888 266.389 20.584 266.987 19.976C267.595 19.368 268.053 18.488 268.363 17.336C268.672 16.1733 268.827 14.76 268.827 13.096C268.827 12.1467 268.779 11.1547 268.683 10.12C268.587 9.07467 268.448 8.03467 268.267 7ZM275.638 30.024C275.809 28.4133 275.958 26.7013 276.086 24.888C276.225 23.0853 276.342 21.2667 276.438 19.432C276.545 17.5973 276.625 15.8373 276.678 14.152C276.742 12.4667 276.79 10.9307 276.822 9.544C276.854 8.14667 276.87 6.98933 276.87 6.072C277.297 5.944 277.798 5.85333 278.374 5.8C278.95 5.736 279.494 5.704 280.006 5.704C280.017 5.98133 280.022 6.37067 280.022 6.872C280.033 7.36267 280.038 7.8 280.038 8.184C280.305 7.88533 280.705 7.54933 281.238 7.176C281.782 6.792 282.444 6.456 283.222 6.168C284.012 5.88 284.881 5.736 285.83 5.736C287.932 5.736 289.532 6.408 290.63 7.752C291.74 9.096 292.294 10.9627 292.294 13.352C292.294 15.0267 292.006 16.488 291.43 17.736C290.865 18.9733 290.049 19.9333 288.982 20.616C287.916 21.2987 286.63 21.64 285.126 21.64C284.433 21.64 283.702 21.5387 282.934 21.336C282.177 21.1333 281.494 20.8933 280.886 20.616C280.278 20.328 279.857 20.0613 279.622 19.816C279.622 20.0507 279.601 20.4773 279.558 21.096C279.526 21.7147 279.484 22.4293 279.43 23.24C279.377 24.0613 279.318 24.8933 279.254 25.736C279.19 26.5787 279.126 27.3573 279.062 28.072C279.009 28.7867 278.95 29.3413 278.886 29.736C278.524 29.8 278.129 29.8533 277.702 29.896C277.286 29.9387 276.892 29.9707 276.518 29.992C276.145 30.0133 275.852 30.024 275.638 30.024ZM284.694 18.488C285.772 18.488 286.63 18.2693 287.27 17.832C287.921 17.3947 288.39 16.7707 288.678 15.96C288.966 15.1387 289.11 14.1627 289.11 13.032C289.11 11.5707 288.764 10.44 288.07 9.64C287.377 8.82933 286.358 8.424 285.014 8.424C284.193 8.424 283.436 8.57333 282.742 8.872C282.049 9.17067 281.468 9.50667 280.998 9.88C280.529 10.2533 280.198 10.5627 280.006 10.808C280.006 10.9893 279.996 11.3307 279.974 11.832C279.964 12.3333 279.948 12.8987 279.926 13.528C279.905 14.1573 279.884 14.76 279.862 15.336C279.852 15.9013 279.841 16.3387 279.83 16.648C280.054 16.84 280.385 17.0853 280.822 17.384C281.26 17.672 281.804 17.928 282.454 18.152C283.105 18.376 283.852 18.488 284.694 18.488ZM301.484 24.296C300.492 24.296 299.505 24.1573 298.524 23.88C297.543 23.6027 296.647 23.2347 295.836 22.776C295.036 22.3067 294.396 21.7893 293.916 21.224C293.991 21.0747 294.097 20.872 294.236 20.616C294.375 20.36 294.535 20.0933 294.716 19.816C294.897 19.528 295.079 19.2667 295.26 19.032C295.441 18.7867 295.601 18.6 295.74 18.472C296.199 18.984 296.748 19.48 297.388 19.96C298.028 20.4293 298.716 20.8133 299.452 21.112C300.188 21.4 300.924 21.544 301.66 21.544C302.364 21.544 302.999 21.4427 303.564 21.24C304.14 21.0267 304.593 20.7227 304.924 20.328C305.265 19.9333 305.436 19.4587 305.436 18.904C305.436 18.264 305.233 17.7147 304.828 17.256C304.423 16.7867 303.879 16.376 303.196 16.024C302.513 15.6613 301.761 15.3307 300.94 15.032C299.948 14.6693 299.041 14.2747 298.22 13.848C297.409 13.4107 296.759 12.8667 296.268 12.216C295.788 11.5653 295.548 10.7387 295.548 9.736C295.548 8.712 295.836 7.85867 296.412 7.176C296.999 6.49333 297.767 5.976 298.716 5.624C299.676 5.272 300.711 5.096 301.82 5.096C303.057 5.096 304.193 5.256 305.228 5.576C306.273 5.88533 307.073 6.248 307.628 6.664C307.585 6.84533 307.495 7.08533 307.356 7.384C307.217 7.672 307.057 7.96533 306.876 8.264C306.695 8.56267 306.508 8.83467 306.316 9.08C305.804 8.73867 305.18 8.41333 304.444 8.104C303.708 7.79467 302.908 7.64 302.044 7.64C301.468 7.64 300.913 7.70933 300.38 7.848C299.847 7.976 299.409 8.19467 299.068 8.504C298.727 8.81333 298.556 9.23467 298.556 9.768C298.556 10.2267 298.721 10.6373 299.052 11C299.393 11.3627 299.852 11.688 300.428 11.976C301.004 12.2533 301.655 12.52 302.38 12.776C303.255 13.0747 304.065 13.4107 304.812 13.784C305.559 14.1467 306.204 14.568 306.748 15.048C307.303 15.5173 307.735 16.0613 308.044 16.68C308.353 17.288 308.508 17.976 308.508 18.744C308.508 19.9707 308.193 20.9947 307.564 21.816C306.935 22.6373 306.092 23.256 305.036 23.672C303.98 24.088 302.796 24.296 301.484 24.296Z" fill="#132F63"/>
<path d="M208.858 17.8C208.538 17.8 208.208 17.8053 207.866 17.816C207.525 17.816 207.178 17.8213 206.826 17.832C206.485 17.832 206.144 17.8373 205.802 17.848C205.802 19.0427 205.808 20.056 205.818 20.888C205.84 21.7093 205.861 22.3333 205.882 22.76C205.616 22.8027 205.264 22.8507 204.826 22.904C204.389 22.9573 203.93 23 203.45 23.032C202.981 23.0747 202.544 23.1067 202.138 23.128C201.744 23.1493 201.445 23.16 201.242 23.16C201.242 22.5627 201.269 21.8213 201.322 20.936C201.376 20.0507 201.445 19.112 201.53 18.12C200.965 18.1627 200.336 18.216 199.642 18.28C198.949 18.3333 198.261 18.392 197.578 18.456C196.906 18.52 196.309 18.584 195.786 18.648C195.264 18.7013 194.901 18.7387 194.698 18.76C194.549 18.1093 194.416 17.448 194.298 16.776C194.181 16.104 194.08 15.4267 193.994 14.744C194.304 14.2 194.693 13.5333 195.162 12.744C195.632 11.9547 196.138 11.1067 196.682 10.2C197.237 9.28267 197.792 8.37067 198.346 7.464C198.912 6.55733 199.445 5.70933 199.946 4.92C200.448 4.13067 200.88 3.464 201.242 2.92C201.605 2.36533 201.856 1.992 201.994 1.8C202.154 1.77867 202.41 1.752 202.762 1.72C203.114 1.688 203.509 1.656 203.946 1.624C204.384 1.592 204.805 1.57067 205.21 1.56C205.616 1.53867 205.957 1.528 206.234 1.528C206.213 1.816 206.181 2.28 206.138 2.92C206.106 3.54933 206.074 4.30133 206.042 5.176C206.01 6.04 205.978 6.97333 205.946 7.976C205.914 8.968 205.888 9.97067 205.866 10.984C205.845 11.9867 205.834 12.936 205.834 13.832C206.144 13.832 206.496 13.832 206.89 13.832C207.285 13.8213 207.642 13.816 207.962 13.816C208.293 13.816 208.501 13.8213 208.586 13.832C208.608 13.9067 208.629 14.0933 208.65 14.392C208.682 14.68 208.709 15.032 208.73 15.448C208.762 15.8533 208.789 16.264 208.81 16.68C208.842 17.096 208.858 17.4693 208.858 17.8ZM202.666 6.824C202.464 7.15467 202.224 7.544 201.946 7.992C201.669 8.44 201.376 8.92 201.066 9.432C200.757 9.944 200.453 10.456 200.154 10.968C199.856 11.48 199.573 11.9653 199.306 12.424C199.04 12.8827 198.81 13.2827 198.618 13.624C198.437 13.9653 198.309 14.216 198.234 14.376C198.341 14.3547 198.549 14.328 198.858 14.296C199.168 14.264 199.514 14.2267 199.898 14.184C200.293 14.1413 200.682 14.1093 201.066 14.088C201.45 14.056 201.77 14.04 202.026 14.04C202.037 13.8373 202.058 13.5067 202.09 13.048C202.122 12.5893 202.16 12.0667 202.202 11.48C202.245 10.8933 202.293 10.296 202.346 9.688C202.4 9.06933 202.453 8.50933 202.506 8.008C202.56 7.50667 202.613 7.112 202.666 6.824Z" fill="#036913"/>
<defs>
<filter id="filter0_d_28_18" x="0" y="426" width="363" height="15" filterUnits="userSpaceOnUse" color-interpolation-filters="sRGB">
<feFlood flood-opacity="0" result="BackgroundImageFix"/>
<feColorMatrix in="SourceAlpha" type="matrix" values="0 0 0 0 0 0 0 0 0 0 0 0 0 0 0 0 0 0 127 0" result="hardAlpha"/>
<feOffset dy="4"/>
<feGaussianBlur stdDeviation="2"/>
<feComposite in2="hardAlpha" operator="out"/>
<feColorMatrix type="matrix" values="0 0 0 0 0 0 0 0 0 0 0 0 0 0 0 0 0 0 0.25 0"/>
<feBlend mode="normal" in2="BackgroundImageFix" result="effect1_dropShadow_28_18"/>
<feBlend mode="normal" in="SourceGraphic" in2="effect1_dropShadow_28_18" result="shape"/>
</filter>
<filter id="filter1_d_28_18" x="27" y="32.0001" width="14" height="403" filterUnits="userSpaceOnUse" color-interpolation-filters="sRGB">
<feFlood flood-opacity="0" result="BackgroundImageFix"/>
<feColorMatrix in="SourceAlpha" type="matrix" values="0 0 0 0 0 0 0 0 0 0 0 0 0 0 0 0 0 0 127 0" result="hardAlpha"/>
<feOffset dy="4"/>
<feGaussianBlur stdDeviation="2"/>
<feComposite in2="hardAlpha" operator="out"/>
<feColorMatrix type="matrix" values="0 0 0 0 0 0 0 0 0 0 0 0 0 0 0 0 0 0 0.25 0"/>
<feBlend mode="normal" in2="BackgroundImageFix" result="effect1_dropShadow_28_18"/>
<feBlend mode="normal" in="SourceGraphic" in2="effect1_dropShadow_28_18" result="shape"/>
</filter>
<filter id="filter2_d_28_18" x="27" y="37.0004" width="283.078" height="17.9996" filterUnits="userSpaceOnUse" color-interpolation-filters="sRGB">
<feFlood flood-opacity="0" result="BackgroundImageFix"/>
<feColorMatrix in="SourceAlpha" type="matrix" values="0 0 0 0 0 0 0 0 0 0 0 0 0 0 0 0 0 0 127 0" result="hardAlpha"/>
<feOffset dy="4"/>
<feGaussianBlur stdDeviation="2"/>
<feComposite in2="hardAlpha" operator="out"/>
<feColorMatrix type="matrix" values="0 0 0 0 0 0 0 0 0 0 0 0 0 0 0 0 0 0 0.25 0"/>
<feBlend mode="normal" in2="BackgroundImageFix" result="effect1_dropShadow_28_18"/>
<feBlend mode="normal" in="SourceGraphic" in2="effect1_dropShadow_28_18" result="shape"/>
</filter>
<filter id="filter3_d_28_18" x="299" y="36.9655" width="11.9994" height="95.0352" filterUnits="userSpaceOnUse" color-interpolation-filters="sRGB">
<feFlood flood-opacity="0" result="BackgroundImageFix"/>
<feColorMatrix in="SourceAlpha" type="matrix" values="0 0 0 0 0 0 0 0 0 0 0 0 0 0 0 0 0 0 127 0" result="hardAlpha"/>
<feOffset dy="4"/>
<feGaussianBlur stdDeviation="2"/>
<feComposite in2="hardAlpha" operator="out"/>
<feColorMatrix type="matrix" values="0 0 0 0 0 0 0 0 0 0 0 0 0 0 0 0 0 0 0.25 0"/>
<feBlend mode="normal" in2="BackgroundImageFix" result="effect1_dropShadow_28_18"/>
<feBlend mode="normal" in="SourceGraphic" in2="effect1_dropShadow_28_18" result="shape"/>
</filter>
<filter id="filter4_d_28_18" x="285" y="150" width="12.9285" height="18.3714" filterUnits="userSpaceOnUse" color-interpolation-filters="sRGB">
<feFlood flood-opacity="0" result="BackgroundImageFix"/>
<feColorMatrix in="SourceAlpha" type="matrix" values="0 0 0 0 0 0 0 0 0 0 0 0 0 0 0 0 0 0 127 0" result="hardAlpha"/>
<feOffset dy="4"/>
<feGaussianBlur stdDeviation="2"/>
<feComposite in2="hardAlpha" operator="out"/>
<feColorMatrix type="matrix" values="0 0 0 0 0 0 0 0 0 0 0 0 0 0 0 0 0 0 0.25 0"/>
<feBlend mode="normal" in2="BackgroundImageFix" result="effect1_dropShadow_28_18"/>
<feBlend mode="normal" in="SourceGraphic" in2="effect1_dropShadow_28_18" result="shape"/>
</filter>
<filter id="filter5_d_28_18" x="283" y="150.336" width="16.7474" height="17.6644" filterUnits="userSpaceOnUse" color-interpolation-filters="sRGB">
<feFlood flood-opacity="0" result="BackgroundImageFix"/>
<feColorMatrix in="SourceAlpha" type="matrix" values="0 0 0 0 0 0 0 0 0 0 0 0 0 0 0 0 0 0 127 0" result="hardAlpha"/>
<feOffset dy="4"/>
<feGaussianBlur stdDeviation="2"/>
<feComposite in2="hardAlpha" operator="out"/>
<feColorMatrix type="matrix" values="0 0 0 0 0 0 0 0 0 0 0 0 0 0 0 0 0 0 0.25 0"/>
<feBlend mode="normal" in2="BackgroundImageFix" result="effect1_dropShadow_28_18"/>
<feBlend mode="normal" in="SourceGraphic" in2="effect1_dropShadow_28_18" result="shape"/>
</filter>
<filter id="filter6_d_28_18" x="311" y="150" width="12.9285" height="18.3714" filterUnits="userSpaceOnUse" color-interpolation-filters="sRGB">
<feFlood flood-opacity="0" result="BackgroundImageFix"/>
<feColorMatrix in="SourceAlpha" type="matrix" values="0 0 0 0 0 0 0 0 0 0 0 0 0 0 0 0 0 0 127 0" result="hardAlpha"/>
<feOffset dy="4"/>
<feGaussianBlur stdDeviation="2"/>
<feComposite in2="hardAlpha" operator="out"/>
<feColorMatrix type="matrix" values="0 0 0 0 0 0 0 0 0 0 0 0 0 0 0 0 0 0 0.25 0"/>
<feBlend mode="normal" in2="BackgroundImageFix" result="effect1_dropShadow_28_18"/>
<feBlend mode="normal" in="SourceGraphic" in2="effect1_dropShadow_28_18" result="shape"/>
</filter>
<filter id="filter7_d_28_18" x="309" y="150.336" width="16.7474" height="17.6644" filterUnits="userSpaceOnUse" color-interpolation-filters="sRGB">
<feFlood flood-opacity="0" result="BackgroundImageFix"/>
<feColorMatrix in="SourceAlpha" type="matrix" values="0 0 0 0 0 0 0 0 0 0 0 0 0 0 0 0 0 0 127 0" result="hardAlpha"/>
<feOffset dy="4"/>
<feGaussianBlur stdDeviation="2"/>
<feComposite in2="hardAlpha" operator="out"/>
<feColorMatrix type="matrix" values="0 0 0 0 0 0 0 0 0 0 0 0 0 0 0 0 0 0 0.25 0"/>
<feBlend mode="normal" in2="BackgroundImageFix" result="effect1_dropShadow_28_18"/>
<feBlend mode="normal" in="SourceGraphic" in2="effect1_dropShadow_28_18" result="shape"/>
</filter>
<filter id="filter8_d_28_18" x="284.785" y="182.035" width="40.2654" height="15.3659" filterUnits="userSpaceOnUse" color-interpolation-filters="sRGB">
<feFlood flood-opacity="0" result="BackgroundImageFix"/>
<feColorMatrix in="SourceAlpha" type="matrix" values="0 0 0 0 0 0 0 0 0 0 0 0 0 0 0 0 0 0 127 0" result="hardAlpha"/>
<feOffset dy="4"/>
<feGaussianBlur stdDeviation="2"/>
<feComposite in2="hardAlpha" operator="out"/>
<feColorMatrix type="matrix" values="0 0 0 0 0 0 0 0 0 0 0 0 0 0 0 0 0 0 0.25 0"/>
<feBlend mode="normal" in2="BackgroundImageFix" result="effect1_dropShadow_28_18"/>
<feBlend mode="normal" in="SourceGraphic" in2="effect1_dropShadow_28_18" result="shape"/>
</filter>
<filter id="filter9_d_28_18" x="263" y="215" width="46.784" height="56.6207" filterUnits="userSpaceOnUse" color-interpolation-filters="sRGB">
<feFlood flood-opacity="0" result="BackgroundImageFix"/>
<feColorMatrix in="SourceAlpha" type="matrix" values="0 0 0 0 0 0 0 0 0 0 0 0 0 0 0 0 0 0 127 0" result="hardAlpha"/>
<feOffset dy="4"/>
<feGaussianBlur stdDeviation="2"/>
<feComposite in2="hardAlpha" operator="out"/>
<feColorMatrix type="matrix" values="0 0 0 0 0 0 0 0 0 0 0 0 0 0 0 0 0 0 0.25 0"/>
<feBlend mode="normal" in2="BackgroundImageFix" result="effect1_dropShadow_28_18"/>
<feBlend mode="normal" in="SourceGraphic" in2="effect1_dropShadow_28_18" result="shape"/>
</filter>
</defs>
</svg>

