<svg width="355" height="420" viewBox="0 0 363 440" fill="none" xmlns="http://www.w3.org/2000/svg">
<g filter="url(#filter0_d_28_18)">
<line x1="4" y1="429.5" x2="359" y2="429.5" stroke="black" stroke-width="7"/>
</g>
<g filter="url(#filter1_d_28_18)">
<line x1="34" y1="427" x2="34" y2="32.0001" stroke="black" stroke-width="6"/>
</g>
<g filter="url(#filter2_d_28_18)">
<line x1="31.0382" y1="40.5002" x2="306.04" y2="43.5002" stroke="black" stroke-width="7"/>
</g>
<g filter="url(#filter3_d_28_18)">
<line x1="303.5" y1="36.9828" x2="306.5" y2="123.983" stroke="black"/>
</g>
<path d="M343.5 169.5C343.5 194.434 326.412 214.5 305.5 214.5C284.588 214.5 267.5 194.434 267.5 169.5C267.5 144.566 284.588 124.5 305.5 124.5C326.412 124.5 343.5 144.566 343.5 169.5Z" fill="#D9D9D9" fill-opacity="0.8" stroke="black"/>
<g filter="url(#filter4_d_28_18)">
<line x1="293.464" y1="150.186" x2="289.464" y2="160.186" stroke="black"/>
</g>
<g filter="url(#filter5_d_28_18)">
<line x1="287.374" y1="150.668" x2="295.374" y2="159.668" stroke="black"/>
</g>
<g filter="url(#filter6_d_28_18)">
<line x1="319.464" y1="150.186" x2="315.464" y2="160.186" stroke="black"/>
</g>
<g filter="url(#filter7_d_28_18)">
<line x1="313.374" y1="150.668" x2="321.374" y2="159.668" stroke="black"/>
</g>
<g filter="url(#filter8_d_28_18)">
<path d="M289.2 189.061C289.2 189.061 293.2 183.061 303.7 182.561C314.2 182.061 320.684 189.061 320.684 189.061" stroke="black"/>
</g>
<line x1="305.5" y1="215.016" x2="302.5" y2="307.017" stroke="black" stroke-opacity="0.3"/>
<line x1="305.392" y1="215.31" x2="267.392" y2="263.31" stroke="black" stroke-opacity="0.3"/>
<line x1="305.404" y1="214.705" x2="340.404" y2="262.705" stroke="black" stroke-opacity="0.3"/>
<line x1="302.392" y1="305.31" x2="264.392" y2="353.31" stroke="black" stroke-opacity="0.3"/>
<line x1="302.404" y1="304.706" x2="337.404" y2="352.706" stroke="black" stroke-opacity="0.3"/>
<path d="M40.696 23.32C40.2907 23.32 39.8853 23.304 39.48 23.272C39.0853 23.24 38.776 23.2027 38.552 23.16C38.008 22.008 37.4587 20.6533 36.904 19.096C36.3493 17.528 35.816 15.8907 35.304 14.184C34.792 12.4773 34.3173 10.8133 33.88 9.192C33.4427 7.57067 33.0693 6.10933 32.76 4.808C32.4507 3.496 32.2267 2.46667 32.088 1.72C32.3867 1.624 32.7653 1.544 33.224 1.48C33.6933 1.40533 34.1573 1.34667 34.616 1.304C35.0747 1.26133 35.448 1.24 35.736 1.24C35.7787 1.58133 35.8853 2.168 36.056 3C36.2373 3.832 36.4613 4.81867 36.728 5.96C36.9947 7.09067 37.2933 8.31733 37.624 9.64C37.9547 10.952 38.3013 12.28 38.664 13.624C39.0267 14.9573 39.384 16.2373 39.736 17.464C40.088 18.68 40.4187 19.7573 40.728 20.696L40.44 20.76C40.8347 19.5973 41.2187 18.3333 41.592 16.968C41.9653 15.6027 42.3173 14.2107 42.648 12.792C42.9787 11.3627 43.2773 9.98667 43.544 8.664C43.8213 7.34133 44.056 6.14133 44.248 5.064C44.4507 3.98667 44.6107 3.10667 44.728 2.424C44.8453 1.74133 44.9093 1.336 44.92 1.208C45.4747 1.24 46.0773 1.31467 46.728 1.432C47.3893 1.54933 47.9653 1.71467 48.456 1.928C47.9227 4.31733 47.384 6.56267 46.84 8.664C46.3067 10.7547 45.7947 12.6587 45.304 14.376C44.8133 16.0933 44.3707 17.592 43.976 18.872C43.592 20.1413 43.2773 21.1493 43.032 21.896C42.7867 22.6427 42.6373 23.096 42.584 23.256C42.3707 23.2773 42.0987 23.2933 41.768 23.304C41.4373 23.3147 41.08 23.32 40.696 23.32ZM58.8035 23.496C56.0088 23.496 53.9448 22.7173 52.6115 21.16C51.2782 19.6027 50.6115 17.3627 50.6115 14.44C50.6115 12.5947 50.9528 11.0373 51.6355 9.768C52.3288 8.49867 53.2888 7.53333 54.5155 6.872C55.7528 6.21067 57.1928 5.88 58.8355 5.88C60.5742 5.88 62.0088 6.28533 63.1395 7.096C64.2702 7.896 65.1075 9.016 65.6515 10.456C66.2062 11.8853 66.4835 13.5493 66.4835 15.448C66.4835 17.08 66.1795 18.4987 65.5715 19.704C64.9635 20.8987 64.0835 21.832 62.9315 22.504C61.7902 23.1653 60.4142 23.496 58.8035 23.496ZM58.6755 20.632C59.5395 20.632 60.2808 20.472 60.8995 20.152C61.5182 19.832 62.0195 19.4053 62.4035 18.872C62.7875 18.328 63.0702 17.72 63.2515 17.048C63.4435 16.376 63.5395 15.688 63.5395 14.984C63.5395 13.704 63.3635 12.5627 63.0115 11.56C62.6595 10.5573 62.1262 9.77333 61.4115 9.208C60.6968 8.632 59.7848 8.344 58.6755 8.344C57.5875 8.344 56.6755 8.60533 55.9395 9.128C55.2035 9.65067 54.6488 10.3707 54.2755 11.288C53.9128 12.2053 53.7315 13.256 53.7315 14.44C53.7315 16.264 54.1528 17.752 54.9955 18.904C55.8382 20.056 57.0648 20.632 58.6755 20.632ZM80.6415 7C80.8015 6.95733 81.0308 6.92 81.3295 6.888C81.6388 6.856 81.9482 6.84 82.2575 6.84C82.5135 6.84 82.7908 6.85067 83.0895 6.872C83.3988 6.88267 83.6442 6.904 83.8255 6.936C83.9962 7.97067 84.1402 9.02667 84.2575 10.104C84.3748 11.1813 84.4335 12.2427 84.4335 13.288C84.4335 14.7173 84.3108 16.0667 84.0655 17.336C83.8202 18.6053 83.4148 19.7253 82.8495 20.696C82.2948 21.656 81.5428 22.4133 80.5935 22.968C79.6548 23.5227 78.4868 23.8 77.0895 23.8C75.5642 23.8 74.3108 23.5013 73.3295 22.904C72.3482 22.296 71.5855 21.4587 71.0415 20.392C70.4975 19.3147 70.1135 18.0773 69.8895 16.68C69.6762 15.2827 69.5695 13.7893 69.5695 12.2C69.5695 11.2293 69.6015 10.248 69.6655 9.256C69.7295 8.264 69.7988 7.29333 69.8735 6.344C70.0655 6.33333 70.3055 6.328 70.5935 6.328C70.8922 6.328 71.1588 6.33333 71.3935 6.344C71.7242 6.36533 72.0495 6.39733 72.3695 6.44C72.7002 6.472 72.9722 6.52 73.1855 6.584C73.0788 7.544 72.9935 8.49333 72.9295 9.432C72.8655 10.3707 72.8335 11.2773 72.8335 12.152C72.8335 14.0293 72.9882 15.6187 73.2975 16.92C73.6175 18.2213 74.0922 19.208 74.7215 19.88C75.3615 20.552 76.1615 20.888 77.1215 20.888C78.0175 20.888 78.7642 20.584 79.3615 19.976C79.9695 19.368 80.4282 18.488 80.7375 17.336C81.0468 16.1733 81.2015 14.76 81.2015 13.096C81.2015 12.1467 81.1535 11.1547 81.0575 10.12C80.9615 9.07467 80.8228 8.03467 80.6415 7ZM94.7653 24.296C93.7733 24.296 92.7866 24.1573 91.8053 23.88C90.8239 23.6027 89.9279 23.2347 89.1173 22.776C88.3173 22.3067 87.6773 21.7893 87.1973 21.224C87.2719 21.0747 87.3786 20.872 87.5173 20.616C87.6559 20.36 87.8159 20.0933 87.9973 19.816C88.1786 19.528 88.3599 19.2667 88.5413 19.032C88.7226 18.7867 88.8826 18.6 89.0213 18.472C89.4799 18.984 90.0293 19.48 90.6693 19.96C91.3093 20.4293 91.9973 20.8133 92.7333 21.112C93.4693 21.4 94.2053 21.544 94.9413 21.544C95.6453 21.544 96.2799 21.4427 96.8453 21.24C97.4213 21.0267 97.8746 20.7227 98.2053 20.328C98.5466 19.9333 98.7173 19.4587 98.7173 18.904C98.7173 18.264 98.5146 17.7147 98.1093 17.256C97.7039 16.7867 97.1599 16.376 96.4773 16.024C95.7946 15.6613 95.0426 15.3307 94.2213 15.032C93.2293 14.6693 92.3226 14.2747 91.5013 13.848C90.6906 13.4107 90.0399 12.8667 89.5493 12.216C89.0693 11.5653 88.8293 10.7387 88.8293 9.736C88.8293 8.712 89.1173 7.85867 89.6933 7.176C90.2799 6.49333 91.0479 5.976 91.9973 5.624C92.9573 5.272 93.9919 5.096 95.1013 5.096C96.3386 5.096 97.4746 5.256 98.5093 5.576C99.5546 5.88533 100.355 6.248 100.909 6.664C100.867 6.84533 100.776 7.08533 100.637 7.384C100.499 7.672 100.339 7.96533 100.157 8.264C99.9759 8.56267 99.7893 8.83467 99.5973 9.08C99.0853 8.73867 98.4613 8.41333 97.7253 8.104C96.9893 7.79467 96.1893 7.64 95.3253 7.64C94.7493 7.64 94.1946 7.70933 93.6613 7.848C93.1279 7.976 92.6906 8.19467 92.3493 8.504C92.0079 8.81333 91.8373 9.23467 91.8373 9.768C91.8373 10.2267 92.0026 10.6373 92.3333 11C92.6746 11.3627 93.1333 11.688 93.7093 11.976C94.2853 12.2533 94.9359 12.52 95.6613 12.776C96.5359 13.0747 97.3466 13.4107 98.0933 13.784C98.8399 14.1467 99.4853 14.568 100.029 15.048C100.584 15.5173 101.016 16.0613 101.325 16.68C101.635 17.288 101.789 17.976 101.789 18.744C101.789 19.9707 101.475 20.9947 100.845 21.816C100.216 22.6373 99.3733 23.256 98.3173 23.672C97.2613 24.088 96.0773 24.296 94.7653 24.296ZM120.98 23.336C119.647 23.336 118.436 23.16 117.348 22.808C116.271 22.4453 115.412 21.8693 114.772 21.08C114.132 20.28 113.812 19.2187 113.812 17.896C113.812 16.6267 114.169 15.576 114.884 14.744C115.599 13.912 116.564 13.2987 117.78 12.904C119.007 12.4987 120.377 12.296 121.892 12.296C122.596 12.296 123.284 12.3493 123.956 12.456C124.628 12.552 125.209 12.6693 125.7 12.808C126.191 12.936 126.521 13.0373 126.692 13.112C126.66 12.76 126.596 12.4027 126.5 12.04C126.415 11.6667 126.281 11.3413 126.1 11.064C125.695 10.3493 125.103 9.76267 124.324 9.304C123.556 8.83467 122.591 8.6 121.428 8.6C120.201 8.6 119.161 8.86667 118.308 9.4C117.455 9.92267 116.815 10.5467 116.388 11.272L113.796 9.56C114.265 8.86667 114.884 8.25333 115.652 7.72C116.42 7.18667 117.305 6.76533 118.308 6.456C119.311 6.14667 120.388 5.992 121.54 5.992C123.332 5.992 124.815 6.33333 125.988 7.016C127.161 7.69867 128.02 8.6 128.564 9.72C128.841 10.2853 129.06 10.904 129.22 11.576C129.38 12.248 129.476 13.08 129.508 14.072C129.529 15.1173 129.551 16.008 129.572 16.744C129.604 17.48 129.636 18.1147 129.668 18.648C129.721 19.3413 129.828 19.7893 129.988 19.992C130.148 20.1947 130.377 20.296 130.676 20.296C131.017 20.296 131.305 20.152 131.54 19.864C131.775 19.5653 131.908 19.1493 131.94 18.616L133.476 20.312C133.412 21.208 133.097 21.8907 132.532 22.36C131.967 22.8293 131.305 23.064 130.548 23.064C129.951 23.064 129.423 22.952 128.964 22.728C128.516 22.4933 128.159 22.1947 127.892 21.832C127.625 21.4693 127.471 21.096 127.428 20.712C127.215 21.1067 126.799 21.5067 126.18 21.912C125.572 22.3173 124.82 22.6587 123.924 22.936C123.039 23.2027 122.057 23.336 120.98 23.336ZM121.556 20.824C122.249 20.824 122.927 20.7173 123.588 20.504C124.249 20.2907 124.857 20.008 125.412 19.656C125.977 19.304 126.441 18.9147 126.804 18.488C126.793 17.8267 126.793 17.24 126.804 16.728C126.815 16.2053 126.831 15.7253 126.852 15.288C126.543 15.1813 125.951 15.0427 125.076 14.872C124.201 14.6907 123.215 14.6 122.116 14.6C121.167 14.6 120.303 14.728 119.524 14.984C118.756 15.2293 118.143 15.5867 117.684 16.056C117.236 16.5253 117.012 17.0907 117.012 17.752C117.012 18.552 117.204 19.176 117.588 19.624C117.983 20.0613 118.521 20.3707 119.204 20.552C119.887 20.7333 120.671 20.824 121.556 20.824ZM144.414 5.544C144.904 5.62933 145.363 5.73067 145.79 5.848C146.216 5.96533 146.579 6.072 146.878 6.168C147.176 6.25333 147.358 6.312 147.422 6.344C147.24 7.05867 146.979 7.96 146.638 9.048C146.296 10.1253 145.907 11.2933 145.47 12.552C145.043 13.8107 144.59 15.0907 144.11 16.392C143.64 17.6827 143.176 18.9093 142.718 20.072C142.27 21.2347 141.854 22.2427 141.47 23.096C141.128 23.16 140.659 23.192 140.062 23.192C139.806 23.192 139.555 23.1813 139.31 23.16C139.064 23.1387 138.856 23.1173 138.686 23.096C138.078 21.8373 137.486 20.4987 136.91 19.08C136.334 17.6507 135.779 16.1947 135.246 14.712C134.712 13.2293 134.211 11.768 133.742 10.328C133.283 8.888 132.862 7.528 132.478 6.248C132.616 6.20533 132.808 6.15733 133.054 6.104C133.299 6.04 133.56 5.976 133.838 5.912C134.115 5.83733 134.387 5.768 134.654 5.704C134.92 5.64 135.144 5.58133 135.326 5.528C135.496 6.21067 135.736 7.05333 136.046 8.056C136.355 9.048 136.696 10.104 137.07 11.224C137.454 12.344 137.838 13.448 138.222 14.536C138.616 15.6133 138.984 16.5947 139.326 17.48C139.667 18.3547 139.944 19.0427 140.158 19.544L139.934 19.592C140.211 18.9307 140.51 18.1573 140.83 17.272C141.15 16.376 141.48 15.416 141.822 14.392C142.174 13.368 142.515 12.3333 142.846 11.288C143.176 10.232 143.475 9.21333 143.742 8.232C144.008 7.24 144.232 6.344 144.414 5.544ZM164.843 19.432C164.629 19.7307 164.315 20.0773 163.899 20.472C163.483 20.856 162.965 21.2293 162.347 21.592C161.728 21.944 161.008 22.2373 160.187 22.472C159.365 22.7067 158.437 22.824 157.403 22.824C155.803 22.824 154.4 22.4987 153.195 21.848C151.989 21.1973 151.056 20.248 150.395 19C149.733 17.7413 149.403 16.2107 149.403 14.408C149.403 12.68 149.76 11.1813 150.475 9.912C151.2 8.64267 152.192 7.66133 153.451 6.968C154.709 6.27467 156.155 5.928 157.787 5.928C159.835 5.928 161.429 6.552 162.571 7.8C163.723 9.048 164.363 10.7227 164.491 12.824C164.512 13.1653 164.523 13.496 164.523 13.816C164.523 14.1253 164.507 14.4453 164.475 14.776C164.336 14.7653 164.048 14.7547 163.611 14.744C163.184 14.7227 162.683 14.7067 162.107 14.696C161.531 14.6747 160.949 14.6587 160.363 14.648C159.787 14.6267 159.291 14.616 158.875 14.616C157.797 14.616 156.693 14.6693 155.563 14.776C154.432 14.8827 153.424 15.0053 152.539 15.144C152.549 15.4213 152.576 15.6933 152.619 15.96C152.661 16.2267 152.715 16.4827 152.779 16.728C152.96 17.3787 153.291 17.944 153.771 18.424C154.251 18.8933 154.821 19.256 155.483 19.512C156.155 19.768 156.864 19.896 157.611 19.896C158.4 19.896 159.088 19.7787 159.675 19.544C160.261 19.3093 160.763 19.0213 161.179 18.68C161.605 18.3387 161.947 18.0133 162.203 17.704C162.469 17.3947 162.672 17.1653 162.811 17.016C162.875 17.0693 162.997 17.1867 163.179 17.368C163.371 17.5387 163.573 17.7467 163.787 17.992C164.011 18.2373 164.219 18.488 164.411 18.744C164.613 18.9893 164.757 19.2187 164.843 19.432ZM152.587 13C153.355 12.872 154.256 12.76 155.291 12.664C156.336 12.568 157.52 12.52 158.843 12.52C159.536 12.52 160.123 12.5307 160.603 12.552C161.093 12.5627 161.435 12.5787 161.627 12.6C161.627 12.248 161.584 11.8747 161.499 11.48C161.381 10.9467 161.168 10.4293 160.859 9.928C160.549 9.42667 160.128 9.01067 159.595 8.68C159.072 8.33867 158.411 8.168 157.611 8.168C156.693 8.168 155.856 8.36533 155.099 8.76C154.352 9.144 153.755 9.69867 153.307 10.424C152.859 11.1387 152.619 11.9973 152.587 13ZM181.395 22.92C180.51 22.9627 179.454 23 178.227 23.032C177.011 23.0747 175.763 23.096 174.483 23.096C173.075 23.096 171.688 23.0747 170.323 23.032C168.968 22.9893 167.79 22.9147 166.787 22.808L166.931 20.168C167.187 19.8267 167.582 19.352 168.115 18.744C168.659 18.136 169.278 17.4533 169.971 16.696C170.664 15.928 171.384 15.1387 172.131 14.328C172.878 13.5173 173.598 12.744 174.291 12.008C174.995 11.272 175.614 10.6267 176.147 10.072C176.68 9.51733 177.075 9.12267 177.331 8.888C177.182 8.87733 176.942 8.86667 176.611 8.856C176.291 8.84533 175.912 8.84 175.475 8.84C175.048 8.84 174.595 8.84 174.115 8.84C173.635 8.84 173.171 8.84 172.723 8.84C172.136 8.84 171.534 8.84533 170.915 8.856C170.296 8.86667 169.71 8.87733 169.155 8.888C168.611 8.89867 168.158 8.91467 167.795 8.936C167.443 8.94667 167.23 8.95733 167.155 8.968L167.283 6.392C167.539 6.392 167.923 6.38667 168.435 6.376C168.947 6.36533 169.55 6.35467 170.243 6.344C170.947 6.33333 171.71 6.32267 172.531 6.312C173.352 6.30133 174.195 6.296 175.059 6.296C176.04 6.296 177.064 6.30133 178.131 6.312C179.208 6.312 180.227 6.33333 181.187 6.376C181.198 6.41867 181.208 6.54667 181.219 6.76C181.24 6.96267 181.256 7.19733 181.267 7.464C181.288 7.73067 181.304 7.98133 181.315 8.216C181.326 8.44 181.331 8.6 181.331 8.696C180.979 9.00533 180.504 9.464 179.907 10.072C179.31 10.6693 178.648 11.3467 177.923 12.104C177.208 12.8613 176.472 13.6453 175.715 14.456C174.968 15.256 174.254 16.0347 173.571 16.792C172.899 17.5387 172.312 18.2 171.811 18.776C171.31 19.352 170.947 19.7893 170.723 20.088C171.011 20.1307 171.582 20.1627 172.435 20.184C173.299 20.2053 174.195 20.216 175.123 20.216C175.923 20.216 176.739 20.2053 177.571 20.184C178.414 20.1627 179.187 20.1307 179.891 20.088C180.595 20.0453 181.16 20.0027 181.587 19.96C181.587 20.056 181.582 20.2427 181.571 20.52C181.56 20.7973 181.544 21.1013 181.523 21.432C181.512 21.7627 181.496 22.0667 181.475 22.344C181.454 22.6213 181.427 22.8133 181.395 22.92ZM236.154 19.672C235.898 20.1947 235.466 20.7227 234.858 21.256C234.25 21.7787 233.492 22.2213 232.586 22.584C231.679 22.936 230.65 23.112 229.498 23.112C227.93 23.112 226.58 22.712 225.45 21.912C224.319 21.112 223.45 20.0507 222.842 18.728C222.234 17.3947 221.93 15.9387 221.93 14.36C221.93 12.632 222.228 11.1013 222.826 9.768C223.423 8.43467 224.298 7.38933 225.45 6.632C226.602 5.864 228.01 5.48 229.674 5.48C230.666 5.48 231.562 5.64533 232.362 5.976C233.162 6.296 233.85 6.73333 234.426 7.288C235.002 7.832 235.455 8.424 235.786 9.064L233.562 10.52C233.508 10.4027 233.407 10.2107 233.258 9.944C233.119 9.67733 232.9 9.4 232.602 9.112C232.314 8.81333 231.93 8.56267 231.45 8.36C230.98 8.15733 230.388 8.056 229.674 8.056C228.682 8.056 227.839 8.296 227.146 8.776C226.452 9.24533 225.924 9.90667 225.562 10.76C225.21 11.6027 225.034 12.5787 225.034 13.688C225.034 14.7547 225.183 15.7627 225.482 16.712C225.791 17.6507 226.282 18.4187 226.954 19.016C227.626 19.6133 228.516 19.912 229.626 19.912C230.298 19.912 230.89 19.8053 231.402 19.592C231.914 19.3787 232.351 19.128 232.714 18.84C233.076 18.552 233.359 18.2853 233.562 18.04C233.775 17.784 233.903 17.6133 233.946 17.528L236.154 19.672ZM246.96 23.496C244.165 23.496 242.101 22.7173 240.768 21.16C239.434 19.6027 238.768 17.3627 238.768 14.44C238.768 12.5947 239.109 11.0373 239.792 9.768C240.485 8.49867 241.445 7.53333 242.672 6.872C243.909 6.21067 245.349 5.88 246.992 5.88C248.73 5.88 250.165 6.28533 251.296 7.096C252.426 7.896 253.264 9.016 253.808 10.456C254.362 11.8853 254.64 13.5493 254.64 15.448C254.64 17.08 254.336 18.4987 253.728 19.704C253.12 20.8987 252.24 21.832 251.088 22.504C249.946 23.1653 248.57 23.496 246.96 23.496ZM246.832 20.632C247.696 20.632 248.437 20.472 249.056 20.152C249.674 19.832 250.176 19.4053 250.56 18.872C250.944 18.328 251.226 17.72 251.408 17.048C251.6 16.376 251.696 15.688 251.696 14.984C251.696 13.704 251.52 12.5627 251.168 11.56C250.816 10.5573 250.282 9.77333 249.568 9.208C248.853 8.632 247.941 8.344 246.832 8.344C245.744 8.344 244.832 8.60533 244.096 9.128C243.36 9.65067 242.805 10.3707 242.432 11.288C242.069 12.2053 241.888 13.256 241.888 14.44C241.888 16.264 242.309 17.752 243.152 18.904C243.994 20.056 245.221 20.632 246.832 20.632ZM268.798 7C268.958 6.95733 269.187 6.92 269.486 6.888C269.795 6.856 270.104 6.84 270.414 6.84C270.67 6.84 270.947 6.85067 271.246 6.872C271.555 6.88267 271.8 6.904 271.982 6.936C272.152 7.97067 272.296 9.02667 272.414 10.104C272.531 11.1813 272.59 12.2427 272.59 13.288C272.59 14.7173 272.467 16.0667 272.222 17.336C271.976 18.6053 271.571 19.7253 271.006 20.696C270.451 21.656 269.699 22.4133 268.75 22.968C267.811 23.5227 266.643 23.8 265.246 23.8C263.72 23.8 262.467 23.5013 261.486 22.904C260.504 22.296 259.742 21.4587 259.198 20.392C258.654 19.3147 258.27 18.0773 258.046 16.68C257.832 15.2827 257.726 13.7893 257.726 12.2C257.726 11.2293 257.758 10.248 257.822 9.256C257.886 8.264 257.955 7.29333 258.03 6.344C258.222 6.33333 258.462 6.328 258.75 6.328C259.048 6.328 259.315 6.33333 259.55 6.344C259.88 6.36533 260.206 6.39733 260.526 6.44C260.856 6.472 261.128 6.52 261.342 6.584C261.235 7.544 261.15 8.49333 261.086 9.432C261.022 10.3707 260.99 11.2773 260.99 12.152C260.99 14.0293 261.144 15.6187 261.454 16.92C261.774 18.2213 262.248 19.208 262.878 19.88C263.518 20.552 264.318 20.888 265.278 20.888C266.174 20.888 266.92 20.584 267.518 19.976C268.126 19.368 268.584 18.488 268.894 17.336C269.203 16.1733 269.358 14.76 269.358 13.096C269.358 12.1467 269.31 11.1547 269.214 10.12C269.118 9.07467 268.979 8.03467 268.798 7ZM276.17 30.024C276.34 28.4133 276.49 26.7013 276.618 24.888C276.756 23.0853 276.874 21.2667 276.97 19.432C277.076 17.5973 277.156 15.8373 277.21 14.152C277.274 12.4667 277.322 10.9307 277.354 9.544C277.386 8.14667 277.402 6.98933 277.402 6.072C277.828 5.944 278.33 5.85333 278.906 5.8C279.482 5.736 280.026 5.704 280.538 5.704C280.548 5.98133 280.554 6.37067 280.554 6.872C280.564 7.36267 280.57 7.8 280.57 8.184C280.836 7.88533 281.236 7.54933 281.77 7.176C282.314 6.792 282.975 6.456 283.753 6.168C284.543 5.88 285.412 5.736 286.362 5.736C288.463 5.736 290.063 6.408 291.162 7.752C292.271 9.096 292.826 10.9627 292.826 13.352C292.826 15.0267 292.538 16.488 291.962 17.736C291.396 18.9733 290.58 19.9333 289.514 20.616C288.447 21.2987 287.162 21.64 285.658 21.64C284.964 21.64 284.234 21.5387 283.466 21.336C282.708 21.1333 282.026 20.8933 281.418 20.616C280.81 20.328 280.388 20.0613 280.154 19.816C280.154 20.0507 280.132 20.4773 280.09 21.096C280.058 21.7147 280.015 22.4293 279.962 23.24C279.908 24.0613 279.85 24.8933 279.786 25.736C279.722 26.5787 279.658 27.3573 279.594 28.072C279.54 28.7867 279.482 29.3413 279.418 29.736C279.055 29.8 278.66 29.8533 278.234 29.896C277.818 29.9387 277.423 29.9707 277.049 29.992C276.676 30.0133 276.383 30.024 276.17 30.024ZM285.226 18.488C286.303 18.488 287.162 18.2693 287.802 17.832C288.452 17.3947 288.922 16.7707 289.21 15.96C289.498 15.1387 289.642 14.1627 289.642 13.032C289.642 11.5707 289.295 10.44 288.602 9.64C287.908 8.82933 286.89 8.424 285.546 8.424C284.724 8.424 283.967 8.57333 283.274 8.872C282.58 9.17067 281.999 9.50667 281.53 9.88C281.06 10.2533 280.73 10.5627 280.538 10.808C280.538 10.9893 280.527 11.3307 280.506 11.832C280.495 12.3333 280.479 12.8987 280.458 13.528C280.436 14.1573 280.415 14.76 280.394 15.336C280.383 15.9013 280.372 16.3387 280.362 16.648C280.586 16.84 280.916 17.0853 281.354 17.384C281.791 17.672 282.335 17.928 282.986 18.152C283.636 18.376 284.383 18.488 285.226 18.488ZM302.015 24.296C301.023 24.296 300.037 24.1573 299.055 23.88C298.074 23.6027 297.178 23.2347 296.367 22.776C295.567 22.3067 294.927 21.7893 294.447 21.224C294.522 21.0747 294.629 20.872 294.767 20.616C294.906 20.36 295.066 20.0933 295.247 19.816C295.429 19.528 295.61 19.2667 295.791 19.032C295.973 18.7867 296.133 18.6 296.271 18.472C296.73 18.984 297.279 19.48 297.919 19.96C298.559 20.4293 299.247 20.8133 299.983 21.112C300.719 21.4 301.455 21.544 302.191 21.544C302.895 21.544 303.53 21.4427 304.095 21.24C304.671 21.0267 305.125 20.7227 305.455 20.328C305.797 19.9333 305.967 19.4587 305.967 18.904C305.967 18.264 305.765 17.7147 305.359 17.256C304.954 16.7867 304.41 16.376 303.727 16.024C303.045 15.6613 302.293 15.3307 301.471 15.032C300.479 14.6693 299.573 14.2747 298.751 13.848C297.941 13.4107 297.29 12.8667 296.799 12.216C296.319 11.5653 296.079 10.7387 296.079 9.736C296.079 8.712 296.367 7.85867 296.943 7.176C297.53 6.49333 298.298 5.976 299.247 5.624C300.207 5.272 301.242 5.096 302.351 5.096C303.589 5.096 304.725 5.256 305.759 5.576C306.805 5.88533 307.605 6.248 308.159 6.664C308.117 6.84533 308.026 7.08533 307.887 7.384C307.749 7.672 307.589 7.96533 307.407 8.264C307.226 8.56267 307.039 8.83467 306.847 9.08C306.335 8.73867 305.711 8.41333 304.975 8.104C304.239 7.79467 303.439 7.64 302.575 7.64C301.999 7.64 301.445 7.70933 300.911 7.848C300.378 7.976 299.941 8.19467 299.599 8.504C299.258 8.81333 299.087 9.23467 299.087 9.768C299.087 10.2267 299.253 10.6373 299.583 11C299.925 11.3627 300.383 11.688 300.959 11.976C301.535 12.2533 302.186 12.52 302.911 12.776C303.786 13.0747 304.597 13.4107 305.343 13.784C306.09 14.1467 306.735 14.568 307.279 15.048C307.834 15.5173 308.266 16.0613 308.575 16.68C308.885 17.288 309.039 17.976 309.039 18.744C309.039 19.9707 308.725 20.9947 308.095 21.816C307.466 22.6373 306.623 23.256 305.567 23.672C304.511 24.088 303.327 24.296 302.015 24.296Z" fill="#132F63"/>
<path d="M193.338 19.368C193.562 19.0053 193.904 18.6107 194.362 18.184C194.832 17.7467 195.29 17.352 195.738 17C196.197 16.6373 196.538 16.392 196.762 16.264C197.018 16.68 197.36 17.08 197.786 17.464C198.224 17.848 198.741 18.1627 199.338 18.408C199.946 18.6427 200.624 18.76 201.37 18.76C202.16 18.76 202.842 18.5947 203.418 18.264C203.994 17.9333 204.437 17.4693 204.746 16.872C205.066 16.264 205.226 15.5493 205.226 14.728C205.226 14.184 205.13 13.6613 204.938 13.16C204.757 12.648 204.464 12.232 204.058 11.912C203.664 11.5813 203.141 11.416 202.49 11.416C202.021 11.416 201.605 11.496 201.242 11.656C200.88 11.8053 200.57 12.0027 200.314 12.248C200.069 12.4933 199.877 12.7547 199.738 13.032C199.61 13.2987 199.536 13.5387 199.514 13.752C199.248 13.784 198.906 13.816 198.49 13.848C198.074 13.88 197.669 13.896 197.274 13.896C196.922 13.896 196.522 13.896 196.074 13.896C195.637 13.8853 195.322 13.8747 195.13 13.864C195.13 12.04 195.072 10.2747 194.954 8.568C194.848 6.85067 194.693 5.20267 194.49 3.624C194.981 3.51733 195.632 3.38933 196.442 3.24C197.264 3.09067 198.165 2.94133 199.146 2.792C200.128 2.632 201.114 2.48267 202.106 2.344C203.109 2.19467 204.042 2.06667 204.906 1.96C205.77 1.85333 206.49 1.77333 207.066 1.72C207.109 1.816 207.189 2.07733 207.306 2.504C207.434 2.93067 207.557 3.432 207.674 4.008C207.792 4.57333 207.85 5.13867 207.85 5.704C207.168 5.736 206.426 5.784 205.626 5.848C204.837 5.912 204.053 5.98667 203.274 6.072C202.506 6.14667 201.797 6.22667 201.146 6.312C200.506 6.39733 199.994 6.472 199.61 6.536C199.632 6.76 199.648 7.02133 199.658 7.32C199.669 7.608 199.685 7.90667 199.706 8.216C199.728 8.51467 199.738 8.79733 199.738 9.064C199.749 9.33067 199.754 9.55467 199.754 9.736C199.85 9.544 200.01 9.34133 200.234 9.128C200.458 8.904 200.73 8.696 201.05 8.504C201.381 8.312 201.749 8.15733 202.154 8.04C202.57 7.92267 203.013 7.864 203.482 7.864C204.73 7.864 205.808 8.2 206.714 8.872C207.621 9.53333 208.32 10.408 208.81 11.496C209.301 12.5733 209.546 13.7413 209.546 15C209.546 16.6 209.189 17.9973 208.474 19.192C207.77 20.3867 206.794 21.3147 205.546 21.976C204.309 22.6373 202.896 22.968 201.306 22.968C200.357 22.968 199.381 22.8507 198.378 22.616C197.376 22.3707 196.437 21.9867 195.562 21.464C194.688 20.9307 193.946 20.232 193.338 19.368Z" fill="#036913"/>
<defs>
<filter id="filter0_d_28_18" x="0" y="426" width="363" height="15" filterUnits="userSpaceOnUse" color-interpolation-filters="sRGB">
<feFlood flood-opacity="0" result="BackgroundImageFix"/>
<feColorMatrix in="SourceAlpha" type="matrix" values="0 0 0 0 0 0 0 0 0 0 0 0 0 0 0 0 0 0 127 0" result="hardAlpha"/>
<feOffset dy="4"/>
<feGaussianBlur stdDeviation="2"/>
<feComposite in2="hardAlpha" operator="out"/>
<feColorMatrix type="matrix" values="0 0 0 0 0 0 0 0 0 0 0 0 0 0 0 0 0 0 0.25 0"/>
<feBlend mode="normal" in2="BackgroundImageFix" result="effect1_dropShadow_28_18"/>
<feBlend mode="normal" in="SourceGraphic" in2="effect1_dropShadow_28_18" result="shape"/>
</filter>
<filter id="filter1_d_28_18" x="27" y="32.0001" width="14" height="403" filterUnits="userSpaceOnUse" color-interpolation-filters="sRGB">
<feFlood flood-opacity="0" result="BackgroundImageFix"/>
<feColorMatrix in="SourceAlpha" type="matrix" values="0 0 0 0 0 0 0 0 0 0 0 0 0 0 0 0 0 0 127 0" result="hardAlpha"/>
<feOffset dy="4"/>
<feGaussianBlur stdDeviation="2"/>
<feComposite in2="hardAlpha" operator="out"/>
<feColorMatrix type="matrix" values="0 0 0 0 0 0 0 0 0 0 0 0 0 0 0 0 0 0 0.25 0"/>
<feBlend mode="normal" in2="BackgroundImageFix" result="effect1_dropShadow_28_18"/>
<feBlend mode="normal" in="SourceGraphic" in2="effect1_dropShadow_28_18" result="shape"/>
</filter>
<filter id="filter2_d_28_18" x="27" y="37.0004" width="283.078" height="17.9996" filterUnits="userSpaceOnUse" color-interpolation-filters="sRGB">
<feFlood flood-opacity="0" result="BackgroundImageFix"/>
<feColorMatrix in="SourceAlpha" type="matrix" values="0 0 0 0 0 0 0 0 0 0 0 0 0 0 0 0 0 0 127 0" result="hardAlpha"/>
<feOffset dy="4"/>
<feGaussianBlur stdDeviation="2"/>
<feComposite in2="hardAlpha" operator="out"/>
<feColorMatrix type="matrix" values="0 0 0 0 0 0 0 0 0 0 0 0 0 0 0 0 0 0 0.25 0"/>
<feBlend mode="normal" in2="BackgroundImageFix" result="effect1_dropShadow_28_18"/>
<feBlend mode="normal" in="SourceGraphic" in2="effect1_dropShadow_28_18" result="shape"/>
</filter>
<filter id="filter3_d_28_18" x="299" y="36.9655" width="11.9994" height="95.0352" filterUnits="userSpaceOnUse" color-interpolation-filters="sRGB">
<feFlood flood-opacity="0" result="BackgroundImageFix"/>
<feColorMatrix in="SourceAlpha" type="matrix" values="0 0 0 0 0 0 0 0 0 0 0 0 0 0 0 0 0 0 127 0" result="hardAlpha"/>
<feOffset dy="4"/>
<feGaussianBlur stdDeviation="2"/>
<feComposite in2="hardAlpha" operator="out"/>
<feColorMatrix type="matrix" values="0 0 0 0 0 0 0 0 0 0 0 0 0 0 0 0 0 0 0.25 0"/>
<feBlend mode="normal" in2="BackgroundImageFix" result="effect1_dropShadow_28_18"/>
<feBlend mode="normal" in="SourceGraphic" in2="effect1_dropShadow_28_18" result="shape"/>
</filter>
<filter id="filter4_d_28_18" x="285" y="150" width="12.9285" height="18.3714" filterUnits="userSpaceOnUse" color-interpolation-filters="sRGB">
<feFlood flood-opacity="0" result="BackgroundImageFix"/>
<feColorMatrix in="SourceAlpha" type="matrix" values="0 0 0 0 0 0 0 0 0 0 0 0 0 0 0 0 0 0 127 0" result="hardAlpha"/>
<feOffset dy="4"/>
<feGaussianBlur stdDeviation="2"/>
<feComposite in2="hardAlpha" operator="out"/>
<feColorMatrix type="matrix" values="0 0 0 0 0 0 0 0 0 0 0 0 0 0 0 0 0 0 0.25 0"/>
<feBlend mode="normal" in2="BackgroundImageFix" result="effect1_dropShadow_28_18"/>
<feBlend mode="normal" in="SourceGraphic" in2="effect1_dropShadow_28_18" result="shape"/>
</filter>
<filter id="filter5_d_28_18" x="283" y="150.336" width="16.7474" height="17.6644" filterUnits="userSpaceOnUse" color-interpolation-filters="sRGB">
<feFlood flood-opacity="0" result="BackgroundImageFix"/>
<feColorMatrix in="SourceAlpha" type="matrix" values="0 0 0 0 0 0 0 0 0 0 0 0 0 0 0 0 0 0 127 0" result="hardAlpha"/>
<feOffset dy="4"/>
<feGaussianBlur stdDeviation="2"/>
<feComposite in2="hardAlpha" operator="out"/>
<feColorMatrix type="matrix" values="0 0 0 0 0 0 0 0 0 0 0 0 0 0 0 0 0 0 0.25 0"/>
<feBlend mode="normal" in2="BackgroundImageFix" result="effect1_dropShadow_28_18"/>
<feBlend mode="normal" in="SourceGraphic" in2="effect1_dropShadow_28_18" result="shape"/>
</filter>
<filter id="filter6_d_28_18" x="311" y="150" width="12.9285" height="18.3714" filterUnits="userSpaceOnUse" color-interpolation-filters="sRGB">
<feFlood flood-opacity="0" result="BackgroundImageFix"/>
<feColorMatrix in="SourceAlpha" type="matrix" values="0 0 0 0 0 0 0 0 0 0 0 0 0 0 0 0 0 0 127 0" result="hardAlpha"/>
<feOffset dy="4"/>
<feGaussianBlur stdDeviation="2"/>
<feComposite in2="hardAlpha" operator="out"/>
<feColorMatrix type="matrix" values="0 0 0 0 0 0 0 0 0 0 0 0 0 0 0 0 0 0 0.25 0"/>
<feBlend mode="normal" in2="BackgroundImageFix" result="effect1_dropShadow_28_18"/>
<feBlend mode="normal" in="SourceGraphic" in2="effect1_dropShadow_28_18" result="shape"/>
</filter>
<filter id="filter7_d_28_18" x="309" y="150.336" width="16.7474" height="17.6644" filterUnits="userSpaceOnUse" color-interpolation-filters="sRGB">
<feFlood flood-opacity="0" result="BackgroundImageFix"/>
<feColorMatrix in="SourceAlpha" type="matrix" values="0 0 0 0 0 0 0 0 0 0 0 0 0 0 0 0 0 0 127 0" result="hardAlpha"/>
<feOffset dy="4"/>
<feGaussianBlur stdDeviation="2"/>
<feComposite in2="hardAlpha" operator="out"/>
<feColorMatrix type="matrix" values="0 0 0 0 0 0 0 0 0 0 0 0 0 0 0 0 0 0 0.25 0"/>
<feBlend mode="normal" in2="BackgroundImageFix" result="effect1_dropShadow_28_18"/>
<feBlend mode="normal" in="SourceGraphic" in2="effect1_dropShadow_28_18" result="shape"/>
</filter>
<filter id="filter8_d_28_18" x="284.785" y="182.035" width="40.2654" height="15.3659" filterUnits="userSpaceOnUse" color-interpolation-filters="sRGB">
<feFlood flood-opacity="0" result="BackgroundImageFix"/>
<feColorMatrix in="SourceAlpha" type="matrix" values="0 0 0 0 0 0 0 0 0 0 0 0 0 0 0 0 0 0 127 0" result="hardAlpha"/>
<feOffset dy="4"/>
<feGaussianBlur stdDeviation="2"/>
<feComposite in2="hardAlpha" operator="out"/>
<feColorMatrix type="matrix" values="0 0 0 0 0 0 0 0 0 0 0 0 0 0 0 0 0 0 0.25 0"/>
<feBlend mode="normal" in2="BackgroundImageFix" result="effect1_dropShadow_28_18"/>
<feBlend mode="normal" in="SourceGraphic" in2="effect1_dropShadow_28_18" result="shape"/>
</filter>
</defs>
</svg>
