<svg width="355" height="420" viewBox="0 0 363 440" fill="none" xmlns="http://www.w3.org/2000/svg">
<g filter="url(#filter0_d_28_18)">
<line x1="4" y1="429.5" x2="359" y2="429.5" stroke="black" stroke-width="7"/>
</g>
<g filter="url(#filter1_d_28_18)">
<line x1="34" y1="427" x2="34" y2="32.0001" stroke="black" stroke-width="6"/>
</g>
<g filter="url(#filter2_d_28_18)">
<line x1="31.0382" y1="40.5002" x2="306.04" y2="43.5002" stroke="black" stroke-width="7"/>
</g>
<g filter="url(#filter3_d_28_18)">
<line x1="303.5" y1="36.9828" x2="306.5" y2="123.983" stroke="black"/>
</g>
<path d="M343.5 169.5C343.5 194.434 326.412 214.5 305.5 214.5C284.588 214.5 267.5 194.434 267.5 169.5C267.5 144.566 284.588 124.5 305.5 124.5C326.412 124.5 343.5 144.566 343.5 169.5Z" stroke="black" stroke-opacity="0.3"/>
<line x1="293.464" y1="150.186" x2="289.464" y2="160.186" stroke="black" stroke-opacity="0.3"/>
<line x1="287.374" y1="150.668" x2="295.374" y2="159.668" stroke="black" stroke-opacity="0.3"/>
<line x1="319.464" y1="150.186" x2="315.464" y2="160.186" stroke="black" stroke-opacity="0.3"/>
<line x1="313.374" y1="150.668" x2="321.374" y2="159.668" stroke="black" stroke-opacity="0.3"/>
<path d="M289.2 189.061C289.2 189.061 293.2 183.061 303.7 182.561C314.2 182.061 320.684 189.061 320.684 189.061" stroke="black" stroke-opacity="0.3"/>
<line x1="305.5" y1="215.016" x2="302.5" y2="307.017" stroke="black" stroke-opacity="0.3"/>
<line x1="305.392" y1="215.31" x2="267.392" y2="263.31" stroke="black" stroke-opacity="0.3"/>
<line x1="305.404" y1="214.705" x2="340.404" y2="262.705" stroke="black" stroke-opacity="0.3"/>
<line x1="302.392" y1="305.31" x2="264.392" y2="353.31" stroke="black" stroke-opacity="0.3"/>
<line x1="302.404" y1="304.706" x2="337.404" y2="352.706" stroke="black" stroke-opacity="0.3"/>
<path d="M40.696 23.32C40.2907 23.32 39.8853 23.304 39.48 23.272C39.0853 23.24 38.776 23.2027 38.552 23.16C38.008 22.008 37.4587 20.6533 36.904 19.096C36.3493 17.528 35.816 15.8907 35.304 14.184C34.792 12.4773 34.3173 10.8133 33.88 9.192C33.4427 7.57067 33.0693 6.10933 32.76 4.808C32.4507 3.496 32.2267 2.46667 32.088 1.72C32.3867 1.624 32.7653 1.544 33.224 1.48C33.6933 1.40533 34.1573 1.34667 34.616 1.304C35.0747 1.26133 35.448 1.24 35.736 1.24C35.7787 1.58133 35.8853 2.168 36.056 3C36.2373 3.832 36.4613 4.81867 36.728 5.96C36.9947 7.09067 37.2933 8.31733 37.624 9.64C37.9547 10.952 38.3013 12.28 38.664 13.624C39.0267 14.9573 39.384 16.2373 39.736 17.464C40.088 18.68 40.4187 19.7573 40.728 20.696L40.44 20.76C40.8347 19.5973 41.2187 18.3333 41.592 16.968C41.9653 15.6027 42.3173 14.2107 42.648 12.792C42.9787 11.3627 43.2773 9.98667 43.544 8.664C43.8213 7.34133 44.056 6.14133 44.248 5.064C44.4507 3.98667 44.6107 3.10667 44.728 2.424C44.8453 1.74133 44.9093 1.336 44.92 1.208C45.4747 1.24 46.0773 1.31467 46.728 1.432C47.3893 1.54933 47.9653 1.71467 48.456 1.928C47.9227 4.31733 47.384 6.56267 46.84 8.664C46.3067 10.7547 45.7947 12.6587 45.304 14.376C44.8133 16.0933 44.3707 17.592 43.976 18.872C43.592 20.1413 43.2773 21.1493 43.032 21.896C42.7867 22.6427 42.6373 23.096 42.584 23.256C42.3707 23.2773 42.0987 23.2933 41.768 23.304C41.4373 23.3147 41.08 23.32 40.696 23.32ZM58.8035 23.496C56.0088 23.496 53.9448 22.7173 52.6115 21.16C51.2782 19.6027 50.6115 17.3627 50.6115 14.44C50.6115 12.5947 50.9528 11.0373 51.6355 9.768C52.3288 8.49867 53.2888 7.53333 54.5155 6.872C55.7528 6.21067 57.1928 5.88 58.8355 5.88C60.5742 5.88 62.0088 6.28533 63.1395 7.096C64.2702 7.896 65.1075 9.016 65.6515 10.456C66.2062 11.8853 66.4835 13.5493 66.4835 15.448C66.4835 17.08 66.1795 18.4987 65.5715 19.704C64.9635 20.8987 64.0835 21.832 62.9315 22.504C61.7902 23.1653 60.4142 23.496 58.8035 23.496ZM58.6755 20.632C59.5395 20.632 60.2808 20.472 60.8995 20.152C61.5182 19.832 62.0195 19.4053 62.4035 18.872C62.7875 18.328 63.0702 17.72 63.2515 17.048C63.4435 16.376 63.5395 15.688 63.5395 14.984C63.5395 13.704 63.3635 12.5627 63.0115 11.56C62.6595 10.5573 62.1262 9.77333 61.4115 9.208C60.6968 8.632 59.7848 8.344 58.6755 8.344C57.5875 8.344 56.6755 8.60533 55.9395 9.128C55.2035 9.65067 54.6488 10.3707 54.2755 11.288C53.9128 12.2053 53.7315 13.256 53.7315 14.44C53.7315 16.264 54.1528 17.752 54.9955 18.904C55.8382 20.056 57.0648 20.632 58.6755 20.632ZM80.6415 7C80.8015 6.95733 81.0308 6.92 81.3295 6.888C81.6388 6.856 81.9482 6.84 82.2575 6.84C82.5135 6.84 82.7908 6.85067 83.0895 6.872C83.3988 6.88267 83.6442 6.904 83.8255 6.936C83.9962 7.97067 84.1402 9.02667 84.2575 10.104C84.3748 11.1813 84.4335 12.2427 84.4335 13.288C84.4335 14.7173 84.3108 16.0667 84.0655 17.336C83.8202 18.6053 83.4148 19.7253 82.8495 20.696C82.2948 21.656 81.5428 22.4133 80.5935 22.968C79.6548 23.5227 78.4868 23.8 77.0895 23.8C75.5642 23.8 74.3108 23.5013 73.3295 22.904C72.3482 22.296 71.5855 21.4587 71.0415 20.392C70.4975 19.3147 70.1135 18.0773 69.8895 16.68C69.6762 15.2827 69.5695 13.7893 69.5695 12.2C69.5695 11.2293 69.6015 10.248 69.6655 9.256C69.7295 8.264 69.7988 7.29333 69.8735 6.344C70.0655 6.33333 70.3055 6.328 70.5935 6.328C70.8922 6.328 71.1588 6.33333 71.3935 6.344C71.7242 6.36533 72.0495 6.39733 72.3695 6.44C72.7002 6.472 72.9722 6.52 73.1855 6.584C73.0788 7.544 72.9935 8.49333 72.9295 9.432C72.8655 10.3707 72.8335 11.2773 72.8335 12.152C72.8335 14.0293 72.9882 15.6187 73.2975 16.92C73.6175 18.2213 74.0922 19.208 74.7215 19.88C75.3615 20.552 76.1615 20.888 77.1215 20.888C78.0175 20.888 78.7642 20.584 79.3615 19.976C79.9695 19.368 80.4282 18.488 80.7375 17.336C81.0468 16.1733 81.2015 14.76 81.2015 13.096C81.2015 12.1467 81.1535 11.1547 81.0575 10.12C80.9615 9.07467 80.8228 8.03467 80.6415 7ZM94.7653 24.296C93.7733 24.296 92.7866 24.1573 91.8053 23.88C90.8239 23.6027 89.9279 23.2347 89.1173 22.776C88.3173 22.3067 87.6773 21.7893 87.1973 21.224C87.2719 21.0747 87.3786 20.872 87.5173 20.616C87.6559 20.36 87.8159 20.0933 87.9973 19.816C88.1786 19.528 88.3599 19.2667 88.5413 19.032C88.7226 18.7867 88.8826 18.6 89.0213 18.472C89.4799 18.984 90.0293 19.48 90.6693 19.96C91.3093 20.4293 91.9973 20.8133 92.7333 21.112C93.4693 21.4 94.2053 21.544 94.9413 21.544C95.6453 21.544 96.2799 21.4427 96.8453 21.24C97.4213 21.0267 97.8746 20.7227 98.2053 20.328C98.5466 19.9333 98.7173 19.4587 98.7173 18.904C98.7173 18.264 98.5146 17.7147 98.1093 17.256C97.7039 16.7867 97.1599 16.376 96.4773 16.024C95.7946 15.6613 95.0426 15.3307 94.2213 15.032C93.2293 14.6693 92.3226 14.2747 91.5013 13.848C90.6906 13.4107 90.0399 12.8667 89.5493 12.216C89.0693 11.5653 88.8293 10.7387 88.8293 9.736C88.8293 8.712 89.1173 7.85867 89.6933 7.176C90.2799 6.49333 91.0479 5.976 91.9973 5.624C92.9573 5.272 93.9919 5.096 95.1013 5.096C96.3386 5.096 97.4746 5.256 98.5093 5.576C99.5546 5.88533 100.355 6.248 100.909 6.664C100.867 6.84533 100.776 7.08533 100.637 7.384C100.499 7.672 100.339 7.96533 100.157 8.264C99.9759 8.56267 99.7893 8.83467 99.5973 9.08C99.0853 8.73867 98.4613 8.41333 97.7253 8.104C96.9893 7.79467 96.1893 7.64 95.3253 7.64C94.7493 7.64 94.1946 7.70933 93.6613 7.848C93.1279 7.976 92.6906 8.19467 92.3493 8.504C92.0079 8.81333 91.8373 9.23467 91.8373 9.768C91.8373 10.2267 92.0026 10.6373 92.3333 11C92.6746 11.3627 93.1333 11.688 93.7093 11.976C94.2853 12.2533 94.9359 12.52 95.6613 12.776C96.5359 13.0747 97.3466 13.4107 98.0933 13.784C98.8399 14.1467 99.4853 14.568 100.029 15.048C100.584 15.5173 101.016 16.0613 101.325 16.68C101.635 17.288 101.789 17.976 101.789 18.744C101.789 19.9707 101.475 20.9947 100.845 21.816C100.216 22.6373 99.3733 23.256 98.3173 23.672C97.2613 24.088 96.0773 24.296 94.7653 24.296ZM120.98 23.336C119.647 23.336 118.436 23.16 117.348 22.808C116.271 22.4453 115.412 21.8693 114.772 21.08C114.132 20.28 113.812 19.2187 113.812 17.896C113.812 16.6267 114.169 15.576 114.884 14.744C115.599 13.912 116.564 13.2987 117.78 12.904C119.007 12.4987 120.377 12.296 121.892 12.296C122.596 12.296 123.284 12.3493 123.956 12.456C124.628 12.552 125.209 12.6693 125.7 12.808C126.191 12.936 126.521 13.0373 126.692 13.112C126.66 12.76 126.596 12.4027 126.5 12.04C126.415 11.6667 126.281 11.3413 126.1 11.064C125.695 10.3493 125.103 9.76267 124.324 9.304C123.556 8.83467 122.591 8.6 121.428 8.6C120.201 8.6 119.161 8.86667 118.308 9.4C117.455 9.92267 116.815 10.5467 116.388 11.272L113.796 9.56C114.265 8.86667 114.884 8.25333 115.652 7.72C116.42 7.18667 117.305 6.76533 118.308 6.456C119.311 6.14667 120.388 5.992 121.54 5.992C123.332 5.992 124.815 6.33333 125.988 7.016C127.161 7.69867 128.02 8.6 128.564 9.72C128.841 10.2853 129.06 10.904 129.22 11.576C129.38 12.248 129.476 13.08 129.508 14.072C129.529 15.1173 129.551 16.008 129.572 16.744C129.604 17.48 129.636 18.1147 129.668 18.648C129.721 19.3413 129.828 19.7893 129.988 19.992C130.148 20.1947 130.377 20.296 130.676 20.296C131.017 20.296 131.305 20.152 131.54 19.864C131.775 19.5653 131.908 19.1493 131.94 18.616L133.476 20.312C133.412 21.208 133.097 21.8907 132.532 22.36C131.967 22.8293 131.305 23.064 130.548 23.064C129.951 23.064 129.423 22.952 128.964 22.728C128.516 22.4933 128.159 22.1947 127.892 21.832C127.625 21.4693 127.471 21.096 127.428 20.712C127.215 21.1067 126.799 21.5067 126.18 21.912C125.572 22.3173 124.82 22.6587 123.924 22.936C123.039 23.2027 122.057 23.336 120.98 23.336ZM121.556 20.824C122.249 20.824 122.927 20.7173 123.588 20.504C124.249 20.2907 124.857 20.008 125.412 19.656C125.977 19.304 126.441 18.9147 126.804 18.488C126.793 17.8267 126.793 17.24 126.804 16.728C126.815 16.2053 126.831 15.7253 126.852 15.288C126.543 15.1813 125.951 15.0427 125.076 14.872C124.201 14.6907 123.215 14.6 122.116 14.6C121.167 14.6 120.303 14.728 119.524 14.984C118.756 15.2293 118.143 15.5867 117.684 16.056C117.236 16.5253 117.012 17.0907 117.012 17.752C117.012 18.552 117.204 19.176 117.588 19.624C117.983 20.0613 118.521 20.3707 119.204 20.552C119.887 20.7333 120.671 20.824 121.556 20.824ZM144.414 5.544C144.904 5.62933 145.363 5.73067 145.79 5.848C146.216 5.96533 146.579 6.072 146.878 6.168C147.176 6.25333 147.358 6.312 147.422 6.344C147.24 7.05867 146.979 7.96 146.638 9.048C146.296 10.1253 145.907 11.2933 145.47 12.552C145.043 13.8107 144.59 15.0907 144.11 16.392C143.64 17.6827 143.176 18.9093 142.718 20.072C142.27 21.2347 141.854 22.2427 141.47 23.096C141.128 23.16 140.659 23.192 140.062 23.192C139.806 23.192 139.555 23.1813 139.31 23.16C139.064 23.1387 138.856 23.1173 138.686 23.096C138.078 21.8373 137.486 20.4987 136.91 19.08C136.334 17.6507 135.779 16.1947 135.246 14.712C134.712 13.2293 134.211 11.768 133.742 10.328C133.283 8.888 132.862 7.528 132.478 6.248C132.616 6.20533 132.808 6.15733 133.054 6.104C133.299 6.04 133.56 5.976 133.838 5.912C134.115 5.83733 134.387 5.768 134.654 5.704C134.92 5.64 135.144 5.58133 135.326 5.528C135.496 6.21067 135.736 7.05333 136.046 8.056C136.355 9.048 136.696 10.104 137.07 11.224C137.454 12.344 137.838 13.448 138.222 14.536C138.616 15.6133 138.984 16.5947 139.326 17.48C139.667 18.3547 139.944 19.0427 140.158 19.544L139.934 19.592C140.211 18.9307 140.51 18.1573 140.83 17.272C141.15 16.376 141.48 15.416 141.822 14.392C142.174 13.368 142.515 12.3333 142.846 11.288C143.176 10.232 143.475 9.21333 143.742 8.232C144.008 7.24 144.232 6.344 144.414 5.544ZM164.843 19.432C164.629 19.7307 164.315 20.0773 163.899 20.472C163.483 20.856 162.965 21.2293 162.347 21.592C161.728 21.944 161.008 22.2373 160.187 22.472C159.365 22.7067 158.437 22.824 157.403 22.824C155.803 22.824 154.4 22.4987 153.195 21.848C151.989 21.1973 151.056 20.248 150.395 19C149.733 17.7413 149.403 16.2107 149.403 14.408C149.403 12.68 149.76 11.1813 150.475 9.912C151.2 8.64267 152.192 7.66133 153.451 6.968C154.709 6.27467 156.155 5.928 157.787 5.928C159.835 5.928 161.429 6.552 162.571 7.8C163.723 9.048 164.363 10.7227 164.491 12.824C164.512 13.1653 164.523 13.496 164.523 13.816C164.523 14.1253 164.507 14.4453 164.475 14.776C164.336 14.7653 164.048 14.7547 163.611 14.744C163.184 14.7227 162.683 14.7067 162.107 14.696C161.531 14.6747 160.949 14.6587 160.363 14.648C159.787 14.6267 159.291 14.616 158.875 14.616C157.797 14.616 156.693 14.6693 155.563 14.776C154.432 14.8827 153.424 15.0053 152.539 15.144C152.549 15.4213 152.576 15.6933 152.619 15.96C152.661 16.2267 152.715 16.4827 152.779 16.728C152.96 17.3787 153.291 17.944 153.771 18.424C154.251 18.8933 154.821 19.256 155.483 19.512C156.155 19.768 156.864 19.896 157.611 19.896C158.4 19.896 159.088 19.7787 159.675 19.544C160.261 19.3093 160.763 19.0213 161.179 18.68C161.605 18.3387 161.947 18.0133 162.203 17.704C162.469 17.3947 162.672 17.1653 162.811 17.016C162.875 17.0693 162.997 17.1867 163.179 17.368C163.371 17.5387 163.573 17.7467 163.787 17.992C164.011 18.2373 164.219 18.488 164.411 18.744C164.613 18.9893 164.757 19.2187 164.843 19.432ZM152.587 13C153.355 12.872 154.256 12.76 155.291 12.664C156.336 12.568 157.52 12.52 158.843 12.52C159.536 12.52 160.123 12.5307 160.603 12.552C161.093 12.5627 161.435 12.5787 161.627 12.6C161.627 12.248 161.584 11.8747 161.499 11.48C161.381 10.9467 161.168 10.4293 160.859 9.928C160.549 9.42667 160.128 9.01067 159.595 8.68C159.072 8.33867 158.411 8.168 157.611 8.168C156.693 8.168 155.856 8.36533 155.099 8.76C154.352 9.144 153.755 9.69867 153.307 10.424C152.859 11.1387 152.619 11.9973 152.587 13ZM181.395 22.92C180.51 22.9627 179.454 23 178.227 23.032C177.011 23.0747 175.763 23.096 174.483 23.096C173.075 23.096 171.688 23.0747 170.323 23.032C168.968 22.9893 167.79 22.9147 166.787 22.808L166.931 20.168C167.187 19.8267 167.582 19.352 168.115 18.744C168.659 18.136 169.278 17.4533 169.971 16.696C170.664 15.928 171.384 15.1387 172.131 14.328C172.878 13.5173 173.598 12.744 174.291 12.008C174.995 11.272 175.614 10.6267 176.147 10.072C176.68 9.51733 177.075 9.12267 177.331 8.888C177.182 8.87733 176.942 8.86667 176.611 8.856C176.291 8.84533 175.912 8.84 175.475 8.84C175.048 8.84 174.595 8.84 174.115 8.84C173.635 8.84 173.171 8.84 172.723 8.84C172.136 8.84 171.534 8.84533 170.915 8.856C170.296 8.86667 169.71 8.87733 169.155 8.888C168.611 8.89867 168.158 8.91467 167.795 8.936C167.443 8.94667 167.23 8.95733 167.155 8.968L167.283 6.392C167.539 6.392 167.923 6.38667 168.435 6.376C168.947 6.36533 169.55 6.35467 170.243 6.344C170.947 6.33333 171.71 6.32267 172.531 6.312C173.352 6.30133 174.195 6.296 175.059 6.296C176.04 6.296 177.064 6.30133 178.131 6.312C179.208 6.312 180.227 6.33333 181.187 6.376C181.198 6.41867 181.208 6.54667 181.219 6.76C181.24 6.96267 181.256 7.19733 181.267 7.464C181.288 7.73067 181.304 7.98133 181.315 8.216C181.326 8.44 181.331 8.6 181.331 8.696C180.979 9.00533 180.504 9.464 179.907 10.072C179.31 10.6693 178.648 11.3467 177.923 12.104C177.208 12.8613 176.472 13.6453 175.715 14.456C174.968 15.256 174.254 16.0347 173.571 16.792C172.899 17.5387 172.312 18.2 171.811 18.776C171.31 19.352 170.947 19.7893 170.723 20.088C171.011 20.1307 171.582 20.1627 172.435 20.184C173.299 20.2053 174.195 20.216 175.123 20.216C175.923 20.216 176.739 20.2053 177.571 20.184C178.414 20.1627 179.187 20.1307 179.891 20.088C180.595 20.0453 181.16 20.0027 181.587 19.96C181.587 20.056 181.582 20.2427 181.571 20.52C181.56 20.7973 181.544 21.1013 181.523 21.432C181.512 21.7627 181.496 22.0667 181.475 22.344C181.454 22.6213 181.427 22.8133 181.395 22.92ZM236.435 19.672C236.179 20.1947 235.747 20.7227 235.139 21.256C234.531 21.7787 233.773 22.2213 232.867 22.584C231.96 22.936 230.931 23.112 229.779 23.112C228.211 23.112 226.861 22.712 225.731 21.912C224.6 21.112 223.731 20.0507 223.123 18.728C222.515 17.3947 222.211 15.9387 222.211 14.36C222.211 12.632 222.509 11.1013 223.107 9.768C223.704 8.43467 224.579 7.38933 225.731 6.632C226.883 5.864 228.291 5.48 229.955 5.48C230.947 5.48 231.843 5.64533 232.643 5.976C233.443 6.296 234.131 6.73333 234.707 7.288C235.283 7.832 235.736 8.424 236.067 9.064L233.843 10.52C233.789 10.4027 233.688 10.2107 233.539 9.944C233.4 9.67733 233.181 9.4 232.883 9.112C232.595 8.81333 232.211 8.56267 231.731 8.36C231.261 8.15733 230.669 8.056 229.955 8.056C228.963 8.056 228.12 8.296 227.427 8.776C226.733 9.24533 226.205 9.90667 225.843 10.76C225.491 11.6027 225.315 12.5787 225.315 13.688C225.315 14.7547 225.464 15.7627 225.763 16.712C226.072 17.6507 226.563 18.4187 227.235 19.016C227.907 19.6133 228.797 19.912 229.907 19.912C230.579 19.912 231.171 19.8053 231.683 19.592C232.195 19.3787 232.632 19.128 232.995 18.84C233.357 18.552 233.64 18.2853 233.843 18.04C234.056 17.784 234.184 17.6133 234.227 17.528L236.435 19.672ZM247.241 23.496C244.446 23.496 242.382 22.7173 241.049 21.16C239.716 19.6027 239.049 17.3627 239.049 14.44C239.049 12.5947 239.39 11.0373 240.073 9.768C240.766 8.49867 241.726 7.53333 242.953 6.872C244.19 6.21067 245.63 5.88 247.273 5.88C249.012 5.88 250.446 6.28533 251.577 7.096C252.708 7.896 253.545 9.016 254.089 10.456C254.644 11.8853 254.921 13.5493 254.921 15.448C254.921 17.08 254.617 18.4987 254.009 19.704C253.401 20.8987 252.521 21.832 251.369 22.504C250.228 23.1653 248.852 23.496 247.241 23.496ZM247.113 20.632C247.977 20.632 248.718 20.472 249.337 20.152C249.956 19.832 250.457 19.4053 250.841 18.872C251.225 18.328 251.508 17.72 251.689 17.048C251.881 16.376 251.977 15.688 251.977 14.984C251.977 13.704 251.801 12.5627 251.449 11.56C251.097 10.5573 250.564 9.77333 249.849 9.208C249.134 8.632 248.222 8.344 247.113 8.344C246.025 8.344 245.113 8.60533 244.377 9.128C243.641 9.65067 243.086 10.3707 242.713 11.288C242.35 12.2053 242.169 13.256 242.169 14.44C242.169 16.264 242.59 17.752 243.433 18.904C244.276 20.056 245.502 20.632 247.113 20.632ZM269.079 7C269.239 6.95733 269.468 6.92 269.767 6.888C270.076 6.856 270.386 6.84 270.695 6.84C270.951 6.84 271.228 6.85067 271.527 6.872C271.836 6.88267 272.082 6.904 272.263 6.936C272.434 7.97067 272.578 9.02667 272.695 10.104C272.812 11.1813 272.871 12.2427 272.871 13.288C272.871 14.7173 272.748 16.0667 272.503 17.336C272.258 18.6053 271.852 19.7253 271.287 20.696C270.732 21.656 269.98 22.4133 269.031 22.968C268.092 23.5227 266.924 23.8 265.527 23.8C264.002 23.8 262.748 23.5013 261.767 22.904C260.786 22.296 260.023 21.4587 259.479 20.392C258.935 19.3147 258.551 18.0773 258.327 16.68C258.114 15.2827 258.007 13.7893 258.007 12.2C258.007 11.2293 258.039 10.248 258.103 9.256C258.167 8.264 258.236 7.29333 258.311 6.344C258.503 6.33333 258.743 6.328 259.031 6.328C259.33 6.328 259.596 6.33333 259.831 6.344C260.162 6.36533 260.487 6.39733 260.807 6.44C261.138 6.472 261.41 6.52 261.623 6.584C261.516 7.544 261.431 8.49333 261.367 9.432C261.303 10.3707 261.271 11.2773 261.271 12.152C261.271 14.0293 261.426 15.6187 261.735 16.92C262.055 18.2213 262.53 19.208 263.159 19.88C263.799 20.552 264.599 20.888 265.559 20.888C266.455 20.888 267.202 20.584 267.799 19.976C268.407 19.368 268.866 18.488 269.175 17.336C269.484 16.1733 269.639 14.76 269.639 13.096C269.639 12.1467 269.591 11.1547 269.495 10.12C269.399 9.07467 269.26 8.03467 269.079 7ZM276.451 30.024C276.621 28.4133 276.771 26.7013 276.899 24.888C277.037 23.0853 277.155 21.2667 277.251 19.432C277.357 17.5973 277.437 15.8373 277.491 14.152C277.555 12.4667 277.603 10.9307 277.635 9.544C277.667 8.14667 277.683 6.98933 277.683 6.072C278.109 5.944 278.611 5.85333 279.187 5.8C279.763 5.736 280.307 5.704 280.819 5.704C280.829 5.98133 280.835 6.37067 280.835 6.872C280.845 7.36267 280.851 7.8 280.851 8.184C281.117 7.88533 281.517 7.54933 282.051 7.176C282.595 6.792 283.256 6.456 284.035 6.168C284.824 5.88 285.693 5.736 286.643 5.736C288.744 5.736 290.344 6.408 291.443 7.752C292.552 9.096 293.107 10.9627 293.107 13.352C293.107 15.0267 292.819 16.488 292.243 17.736C291.677 18.9733 290.861 19.9333 289.795 20.616C288.728 21.2987 287.443 21.64 285.939 21.64C285.245 21.64 284.515 21.5387 283.747 21.336C282.989 21.1333 282.307 20.8933 281.699 20.616C281.091 20.328 280.669 20.0613 280.435 19.816C280.435 20.0507 280.413 20.4773 280.371 21.096C280.339 21.7147 280.296 22.4293 280.243 23.24C280.189 24.0613 280.131 24.8933 280.067 25.736C280.003 26.5787 279.939 27.3573 279.875 28.072C279.821 28.7867 279.763 29.3413 279.699 29.736C279.336 29.8 278.941 29.8533 278.515 29.896C278.099 29.9387 277.704 29.9707 277.331 29.992C276.957 30.0133 276.664 30.024 276.451 30.024ZM285.507 18.488C286.584 18.488 287.443 18.2693 288.083 17.832C288.733 17.3947 289.203 16.7707 289.491 15.96C289.779 15.1387 289.923 14.1627 289.923 13.032C289.923 11.5707 289.576 10.44 288.883 9.64C288.189 8.82933 287.171 8.424 285.827 8.424C285.005 8.424 284.248 8.57333 283.555 8.872C282.861 9.17067 282.28 9.50667 281.811 9.88C281.341 10.2533 281.011 10.5627 280.819 10.808C280.819 10.9893 280.808 11.3307 280.787 11.832C280.776 12.3333 280.76 12.8987 280.739 13.528C280.717 14.1573 280.696 14.76 280.675 15.336C280.664 15.9013 280.653 16.3387 280.643 16.648C280.867 16.84 281.197 17.0853 281.635 17.384C282.072 17.672 282.616 17.928 283.267 18.152C283.917 18.376 284.664 18.488 285.507 18.488ZM302.297 24.296C301.305 24.296 300.318 24.1573 299.337 23.88C298.355 23.6027 297.459 23.2347 296.649 22.776C295.849 22.3067 295.209 21.7893 294.729 21.224C294.803 21.0747 294.91 20.872 295.049 20.616C295.187 20.36 295.347 20.0933 295.529 19.816C295.71 19.528 295.891 19.2667 296.073 19.032C296.254 18.7867 296.414 18.6 296.553 18.472C297.011 18.984 297.561 19.48 298.201 19.96C298.841 20.4293 299.529 20.8133 300.265 21.112C301.001 21.4 301.737 21.544 302.473 21.544C303.177 21.544 303.811 21.4427 304.377 21.24C304.953 21.0267 305.406 20.7227 305.737 20.328C306.078 19.9333 306.249 19.4587 306.249 18.904C306.249 18.264 306.046 17.7147 305.641 17.256C305.235 16.7867 304.691 16.376 304.009 16.024C303.326 15.6613 302.574 15.3307 301.753 15.032C300.761 14.6693 299.854 14.2747 299.033 13.848C298.222 13.4107 297.571 12.8667 297.081 12.216C296.601 11.5653 296.361 10.7387 296.361 9.736C296.361 8.712 296.649 7.85867 297.225 7.176C297.811 6.49333 298.579 5.976 299.529 5.624C300.489 5.272 301.523 5.096 302.633 5.096C303.87 5.096 305.006 5.256 306.041 5.576C307.086 5.88533 307.886 6.248 308.441 6.664C308.398 6.84533 308.307 7.08533 308.169 7.384C308.03 7.672 307.87 7.96533 307.689 8.264C307.507 8.56267 307.321 8.83467 307.129 9.08C306.617 8.73867 305.993 8.41333 305.257 8.104C304.521 7.79467 303.721 7.64 302.857 7.64C302.281 7.64 301.726 7.70933 301.193 7.848C300.659 7.976 300.222 8.19467 299.881 8.504C299.539 8.81333 299.369 9.23467 299.369 9.768C299.369 10.2267 299.534 10.6373 299.865 11C300.206 11.3627 300.665 11.688 301.241 11.976C301.817 12.2533 302.467 12.52 303.193 12.776C304.067 13.0747 304.878 13.4107 305.625 13.784C306.371 14.1467 307.017 14.568 307.561 15.048C308.115 15.5173 308.547 16.0613 308.857 16.68C309.166 17.288 309.321 17.976 309.321 18.744C309.321 19.9707 309.006 20.9947 308.377 21.816C307.747 22.6373 306.905 23.256 305.849 23.672C304.793 24.088 303.609 24.296 302.297 24.296Z" fill="#132F63"/>
<path d="M206.554 4.456C205.754 4.70133 204.96 5.06933 204.17 5.56C203.381 6.05067 202.634 6.62133 201.93 7.272C201.237 7.92267 200.624 8.616 200.09 9.352C199.568 10.0773 199.168 10.8027 198.89 11.528C199.253 11.1227 199.712 10.776 200.266 10.488C200.832 10.1893 201.44 9.96533 202.09 9.816C202.741 9.66667 203.376 9.592 203.994 9.592C205.114 9.592 206.085 9.81067 206.906 10.248C207.738 10.6747 208.378 11.32 208.826 12.184C209.274 13.0373 209.498 14.12 209.498 15.432C209.498 16.968 209.146 18.3173 208.442 19.48C207.749 20.6427 206.805 21.544 205.61 22.184C204.426 22.824 203.104 23.144 201.642 23.144C200.042 23.144 198.693 22.7973 197.594 22.104C196.496 21.4107 195.658 20.44 195.082 19.192C194.517 17.944 194.234 16.504 194.234 14.872C194.234 13.2933 194.464 11.784 194.922 10.344C195.392 8.89333 196.064 7.55467 196.938 6.328C197.824 5.10133 198.89 4.024 200.138 3.096C201.397 2.15733 202.816 1.41067 204.394 0.855999C204.629 1.03733 204.896 1.33066 205.194 1.736C205.493 2.14133 205.77 2.58933 206.026 3.08C206.282 3.56 206.458 4.01867 206.554 4.456ZM199.69 14.696C199.498 14.92 199.349 15.176 199.242 15.464C199.146 15.7413 199.098 16.024 199.098 16.312C199.098 17.112 199.36 17.7467 199.882 18.216C200.405 18.6853 201.098 18.92 201.962 18.92C202.602 18.92 203.162 18.7707 203.642 18.472C204.133 18.1733 204.512 17.784 204.778 17.304C205.045 16.8133 205.178 16.296 205.178 15.752C205.178 14.9947 204.97 14.4133 204.554 14.008C204.138 13.592 203.573 13.384 202.858 13.384C202.218 13.384 201.616 13.5067 201.05 13.752C200.496 13.9867 200.042 14.3013 199.69 14.696Z" fill="#036913"/>
<defs>
<filter id="filter0_d_28_18" x="0" y="426" width="363" height="15" filterUnits="userSpaceOnUse" color-interpolation-filters="sRGB">
<feFlood flood-opacity="0" result="BackgroundImageFix"/>
<feColorMatrix in="SourceAlpha" type="matrix" values="0 0 0 0 0 0 0 0 0 0 0 0 0 0 0 0 0 0 127 0" result="hardAlpha"/>
<feOffset dy="4"/>
<feGaussianBlur stdDeviation="2"/>
<feComposite in2="hardAlpha" operator="out"/>
<feColorMatrix type="matrix" values="0 0 0 0 0 0 0 0 0 0 0 0 0 0 0 0 0 0 0.25 0"/>
<feBlend mode="normal" in2="BackgroundImageFix" result="effect1_dropShadow_28_18"/>
<feBlend mode="normal" in="SourceGraphic" in2="effect1_dropShadow_28_18" result="shape"/>
</filter>
<filter id="filter1_d_28_18" x="27" y="32.0001" width="14" height="403" filterUnits="userSpaceOnUse" color-interpolation-filters="sRGB">
<feFlood flood-opacity="0" result="BackgroundImageFix"/>
<feColorMatrix in="SourceAlpha" type="matrix" values="0 0 0 0 0 0 0 0 0 0 0 0 0 0 0 0 0 0 127 0" result="hardAlpha"/>
<feOffset dy="4"/>
<feGaussianBlur stdDeviation="2"/>
<feComposite in2="hardAlpha" operator="out"/>
<feColorMatrix type="matrix" values="0 0 0 0 0 0 0 0 0 0 0 0 0 0 0 0 0 0 0.25 0"/>
<feBlend mode="normal" in2="BackgroundImageFix" result="effect1_dropShadow_28_18"/>
<feBlend mode="normal" in="SourceGraphic" in2="effect1_dropShadow_28_18" result="shape"/>
</filter>
<filter id="filter2_d_28_18" x="27" y="37.0004" width="283.078" height="17.9996" filterUnits="userSpaceOnUse" color-interpolation-filters="sRGB">
<feFlood flood-opacity="0" result="BackgroundImageFix"/>
<feColorMatrix in="SourceAlpha" type="matrix" values="0 0 0 0 0 0 0 0 0 0 0 0 0 0 0 0 0 0 127 0" result="hardAlpha"/>
<feOffset dy="4"/>
<feGaussianBlur stdDeviation="2"/>
<feComposite in2="hardAlpha" operator="out"/>
<feColorMatrix type="matrix" values="0 0 0 0 0 0 0 0 0 0 0 0 0 0 0 0 0 0 0.25 0"/>
<feBlend mode="normal" in2="BackgroundImageFix" result="effect1_dropShadow_28_18"/>
<feBlend mode="normal" in="SourceGraphic" in2="effect1_dropShadow_28_18" result="shape"/>
</filter>
<filter id="filter3_d_28_18" x="299" y="36.9655" width="11.9994" height="95.0352" filterUnits="userSpaceOnUse" color-interpolation-filters="sRGB">
<feFlood flood-opacity="0" result="BackgroundImageFix"/>
<feColorMatrix in="SourceAlpha" type="matrix" values="0 0 0 0 0 0 0 0 0 0 0 0 0 0 0 0 0 0 127 0" result="hardAlpha"/>
<feOffset dy="4"/>
<feGaussianBlur stdDeviation="2"/>
<feComposite in2="hardAlpha" operator="out"/>
<feColorMatrix type="matrix" values="0 0 0 0 0 0 0 0 0 0 0 0 0 0 0 0 0 0 0.25 0"/>
<feBlend mode="normal" in2="BackgroundImageFix" result="effect1_dropShadow_28_18"/>
<feBlend mode="normal" in="SourceGraphic" in2="effect1_dropShadow_28_18" result="shape"/>
</filter>
</defs>
</svg>
