<svg width="355" height="420" viewBox="0 0 363 440" fill="none" xmlns="http://www.w3.org/2000/svg">
<g filter="url(#filter0_d_28_18)">
<line x1="4" y1="429.5" x2="359" y2="429.5" stroke="black" stroke-width="7"/>
</g>
<g filter="url(#filter1_d_28_18)">
<line x1="34" y1="427" x2="34" y2="32.0001" stroke="black" stroke-width="6"/>
</g>
<g filter="url(#filter2_d_28_18)">
<line x1="31.0382" y1="40.5002" x2="306.04" y2="43.5002" stroke="black" stroke-width="7"/>
</g>
<line x1="303.5" y1="36.9828" x2="306.5" y2="123.983" stroke="black" stroke-opacity="0.3"/>
<path d="M343.5 169.5C343.5 194.434 326.412 214.5 305.5 214.5C284.588 214.5 267.5 194.434 267.5 169.5C267.5 144.566 284.588 124.5 305.5 124.5C326.412 124.5 343.5 144.566 343.5 169.5Z" stroke="black" stroke-opacity="0.3"/>
<line x1="293.464" y1="150.186" x2="289.464" y2="160.186" stroke="black" stroke-opacity="0.3"/>
<line x1="287.374" y1="150.668" x2="295.374" y2="159.668" stroke="black" stroke-opacity="0.3"/>
<line x1="319.464" y1="150.186" x2="315.464" y2="160.186" stroke="black" stroke-opacity="0.3"/>
<line x1="313.374" y1="150.668" x2="321.374" y2="159.668" stroke="black" stroke-opacity="0.3"/>
<path d="M289.2 189.061C289.2 189.061 293.2 183.061 303.7 182.561C314.2 182.061 320.684 189.061 320.684 189.061" stroke="black" stroke-opacity="0.3"/>
<line x1="305.5" y1="215.016" x2="302.5" y2="307.017" stroke="black" stroke-opacity="0.3"/>
<line x1="305.392" y1="215.31" x2="267.392" y2="263.31" stroke="black" stroke-opacity="0.3"/>
<line x1="305.404" y1="214.705" x2="340.404" y2="262.705" stroke="black" stroke-opacity="0.3"/>
<line x1="302.392" y1="305.31" x2="264.392" y2="353.31" stroke="black" stroke-opacity="0.3"/>
<line x1="302.404" y1="304.706" x2="337.404" y2="352.706" stroke="black" stroke-opacity="0.3"/>
<path d="M40.696 23.32C40.2907 23.32 39.8853 23.304 39.48 23.272C39.0853 23.24 38.776 23.2027 38.552 23.16C38.008 22.008 37.4587 20.6533 36.904 19.096C36.3493 17.528 35.816 15.8907 35.304 14.184C34.792 12.4773 34.3173 10.8133 33.88 9.192C33.4427 7.57067 33.0693 6.10933 32.76 4.808C32.4507 3.496 32.2267 2.46667 32.088 1.72C32.3867 1.624 32.7653 1.544 33.224 1.48C33.6933 1.40533 34.1573 1.34667 34.616 1.304C35.0747 1.26133 35.448 1.24 35.736 1.24C35.7787 1.58133 35.8853 2.168 36.056 3C36.2373 3.832 36.4613 4.81867 36.728 5.96C36.9947 7.09067 37.2933 8.31733 37.624 9.64C37.9547 10.952 38.3013 12.28 38.664 13.624C39.0267 14.9573 39.384 16.2373 39.736 17.464C40.088 18.68 40.4187 19.7573 40.728 20.696L40.44 20.76C40.8347 19.5973 41.2187 18.3333 41.592 16.968C41.9653 15.6027 42.3173 14.2107 42.648 12.792C42.9787 11.3627 43.2773 9.98667 43.544 8.664C43.8213 7.34133 44.056 6.14133 44.248 5.064C44.4507 3.98667 44.6107 3.10667 44.728 2.424C44.8453 1.74133 44.9093 1.336 44.92 1.208C45.4747 1.24 46.0773 1.31467 46.728 1.432C47.3893 1.54933 47.9653 1.71467 48.456 1.928C47.9227 4.31733 47.384 6.56267 46.84 8.664C46.3067 10.7547 45.7947 12.6587 45.304 14.376C44.8133 16.0933 44.3707 17.592 43.976 18.872C43.592 20.1413 43.2773 21.1493 43.032 21.896C42.7867 22.6427 42.6373 23.096 42.584 23.256C42.3707 23.2773 42.0987 23.2933 41.768 23.304C41.4373 23.3147 41.08 23.32 40.696 23.32ZM58.8035 23.496C56.0088 23.496 53.9448 22.7173 52.6115 21.16C51.2782 19.6027 50.6115 17.3627 50.6115 14.44C50.6115 12.5947 50.9528 11.0373 51.6355 9.768C52.3288 8.49867 53.2888 7.53333 54.5155 6.872C55.7528 6.21067 57.1928 5.88 58.8355 5.88C60.5742 5.88 62.0088 6.28533 63.1395 7.096C64.2702 7.896 65.1075 9.016 65.6515 10.456C66.2062 11.8853 66.4835 13.5493 66.4835 15.448C66.4835 17.08 66.1795 18.4987 65.5715 19.704C64.9635 20.8987 64.0835 21.832 62.9315 22.504C61.7902 23.1653 60.4142 23.496 58.8035 23.496ZM58.6755 20.632C59.5395 20.632 60.2808 20.472 60.8995 20.152C61.5182 19.832 62.0195 19.4053 62.4035 18.872C62.7875 18.328 63.0702 17.72 63.2515 17.048C63.4435 16.376 63.5395 15.688 63.5395 14.984C63.5395 13.704 63.3635 12.5627 63.0115 11.56C62.6595 10.5573 62.1262 9.77333 61.4115 9.208C60.6968 8.632 59.7848 8.344 58.6755 8.344C57.5875 8.344 56.6755 8.60533 55.9395 9.128C55.2035 9.65067 54.6488 10.3707 54.2755 11.288C53.9128 12.2053 53.7315 13.256 53.7315 14.44C53.7315 16.264 54.1528 17.752 54.9955 18.904C55.8382 20.056 57.0648 20.632 58.6755 20.632ZM80.6415 7C80.8015 6.95733 81.0308 6.92 81.3295 6.888C81.6388 6.856 81.9482 6.84 82.2575 6.84C82.5135 6.84 82.7908 6.85067 83.0895 6.872C83.3988 6.88267 83.6442 6.904 83.8255 6.936C83.9962 7.97067 84.1402 9.02667 84.2575 10.104C84.3748 11.1813 84.4335 12.2427 84.4335 13.288C84.4335 14.7173 84.3108 16.0667 84.0655 17.336C83.8202 18.6053 83.4148 19.7253 82.8495 20.696C82.2948 21.656 81.5428 22.4133 80.5935 22.968C79.6548 23.5227 78.4868 23.8 77.0895 23.8C75.5642 23.8 74.3108 23.5013 73.3295 22.904C72.3482 22.296 71.5855 21.4587 71.0415 20.392C70.4975 19.3147 70.1135 18.0773 69.8895 16.68C69.6762 15.2827 69.5695 13.7893 69.5695 12.2C69.5695 11.2293 69.6015 10.248 69.6655 9.256C69.7295 8.264 69.7988 7.29333 69.8735 6.344C70.0655 6.33333 70.3055 6.328 70.5935 6.328C70.8922 6.328 71.1588 6.33333 71.3935 6.344C71.7242 6.36533 72.0495 6.39733 72.3695 6.44C72.7002 6.472 72.9722 6.52 73.1855 6.584C73.0788 7.544 72.9935 8.49333 72.9295 9.432C72.8655 10.3707 72.8335 11.2773 72.8335 12.152C72.8335 14.0293 72.9882 15.6187 73.2975 16.92C73.6175 18.2213 74.0922 19.208 74.7215 19.88C75.3615 20.552 76.1615 20.888 77.1215 20.888C78.0175 20.888 78.7642 20.584 79.3615 19.976C79.9695 19.368 80.4282 18.488 80.7375 17.336C81.0468 16.1733 81.2015 14.76 81.2015 13.096C81.2015 12.1467 81.1535 11.1547 81.0575 10.12C80.9615 9.07467 80.8228 8.03467 80.6415 7ZM94.7653 24.296C93.7733 24.296 92.7866 24.1573 91.8053 23.88C90.8239 23.6027 89.9279 23.2347 89.1173 22.776C88.3173 22.3067 87.6773 21.7893 87.1973 21.224C87.2719 21.0747 87.3786 20.872 87.5173 20.616C87.6559 20.36 87.8159 20.0933 87.9973 19.816C88.1786 19.528 88.3599 19.2667 88.5413 19.032C88.7226 18.7867 88.8826 18.6 89.0213 18.472C89.4799 18.984 90.0293 19.48 90.6693 19.96C91.3093 20.4293 91.9973 20.8133 92.7333 21.112C93.4693 21.4 94.2053 21.544 94.9413 21.544C95.6453 21.544 96.2799 21.4427 96.8453 21.24C97.4213 21.0267 97.8746 20.7227 98.2053 20.328C98.5466 19.9333 98.7173 19.4587 98.7173 18.904C98.7173 18.264 98.5146 17.7147 98.1093 17.256C97.7039 16.7867 97.1599 16.376 96.4773 16.024C95.7946 15.6613 95.0426 15.3307 94.2213 15.032C93.2293 14.6693 92.3226 14.2747 91.5013 13.848C90.6906 13.4107 90.0399 12.8667 89.5493 12.216C89.0693 11.5653 88.8293 10.7387 88.8293 9.736C88.8293 8.712 89.1173 7.85867 89.6933 7.176C90.2799 6.49333 91.0479 5.976 91.9973 5.624C92.9573 5.272 93.9919 5.096 95.1013 5.096C96.3386 5.096 97.4746 5.256 98.5093 5.576C99.5546 5.88533 100.355 6.248 100.909 6.664C100.867 6.84533 100.776 7.08533 100.637 7.384C100.499 7.672 100.339 7.96533 100.157 8.264C99.9759 8.56267 99.7893 8.83467 99.5973 9.08C99.0853 8.73867 98.4613 8.41333 97.7253 8.104C96.9893 7.79467 96.1893 7.64 95.3253 7.64C94.7493 7.64 94.1946 7.70933 93.6613 7.848C93.1279 7.976 92.6906 8.19467 92.3493 8.504C92.0079 8.81333 91.8373 9.23467 91.8373 9.768C91.8373 10.2267 92.0026 10.6373 92.3333 11C92.6746 11.3627 93.1333 11.688 93.7093 11.976C94.2853 12.2533 94.9359 12.52 95.6613 12.776C96.5359 13.0747 97.3466 13.4107 98.0933 13.784C98.8399 14.1467 99.4853 14.568 100.029 15.048C100.584 15.5173 101.016 16.0613 101.325 16.68C101.635 17.288 101.789 17.976 101.789 18.744C101.789 19.9707 101.475 20.9947 100.845 21.816C100.216 22.6373 99.3733 23.256 98.3173 23.672C97.2613 24.088 96.0773 24.296 94.7653 24.296ZM120.98 23.336C119.647 23.336 118.436 23.16 117.348 22.808C116.271 22.4453 115.412 21.8693 114.772 21.08C114.132 20.28 113.812 19.2187 113.812 17.896C113.812 16.6267 114.169 15.576 114.884 14.744C115.599 13.912 116.564 13.2987 117.78 12.904C119.007 12.4987 120.377 12.296 121.892 12.296C122.596 12.296 123.284 12.3493 123.956 12.456C124.628 12.552 125.209 12.6693 125.7 12.808C126.191 12.936 126.521 13.0373 126.692 13.112C126.66 12.76 126.596 12.4027 126.5 12.04C126.415 11.6667 126.281 11.3413 126.1 11.064C125.695 10.3493 125.103 9.76267 124.324 9.304C123.556 8.83467 122.591 8.6 121.428 8.6C120.201 8.6 119.161 8.86667 118.308 9.4C117.455 9.92267 116.815 10.5467 116.388 11.272L113.796 9.56C114.265 8.86667 114.884 8.25333 115.652 7.72C116.42 7.18667 117.305 6.76533 118.308 6.456C119.311 6.14667 120.388 5.992 121.54 5.992C123.332 5.992 124.815 6.33333 125.988 7.016C127.161 7.69867 128.02 8.6 128.564 9.72C128.841 10.2853 129.06 10.904 129.22 11.576C129.38 12.248 129.476 13.08 129.508 14.072C129.529 15.1173 129.551 16.008 129.572 16.744C129.604 17.48 129.636 18.1147 129.668 18.648C129.721 19.3413 129.828 19.7893 129.988 19.992C130.148 20.1947 130.377 20.296 130.676 20.296C131.017 20.296 131.305 20.152 131.54 19.864C131.775 19.5653 131.908 19.1493 131.94 18.616L133.476 20.312C133.412 21.208 133.097 21.8907 132.532 22.36C131.967 22.8293 131.305 23.064 130.548 23.064C129.951 23.064 129.423 22.952 128.964 22.728C128.516 22.4933 128.159 22.1947 127.892 21.832C127.625 21.4693 127.471 21.096 127.428 20.712C127.215 21.1067 126.799 21.5067 126.18 21.912C125.572 22.3173 124.82 22.6587 123.924 22.936C123.039 23.2027 122.057 23.336 120.98 23.336ZM121.556 20.824C122.249 20.824 122.927 20.7173 123.588 20.504C124.249 20.2907 124.857 20.008 125.412 19.656C125.977 19.304 126.441 18.9147 126.804 18.488C126.793 17.8267 126.793 17.24 126.804 16.728C126.815 16.2053 126.831 15.7253 126.852 15.288C126.543 15.1813 125.951 15.0427 125.076 14.872C124.201 14.6907 123.215 14.6 122.116 14.6C121.167 14.6 120.303 14.728 119.524 14.984C118.756 15.2293 118.143 15.5867 117.684 16.056C117.236 16.5253 117.012 17.0907 117.012 17.752C117.012 18.552 117.204 19.176 117.588 19.624C117.983 20.0613 118.521 20.3707 119.204 20.552C119.887 20.7333 120.671 20.824 121.556 20.824ZM144.414 5.544C144.904 5.62933 145.363 5.73067 145.79 5.848C146.216 5.96533 146.579 6.072 146.878 6.168C147.176 6.25333 147.358 6.312 147.422 6.344C147.24 7.05867 146.979 7.96 146.638 9.048C146.296 10.1253 145.907 11.2933 145.47 12.552C145.043 13.8107 144.59 15.0907 144.11 16.392C143.64 17.6827 143.176 18.9093 142.718 20.072C142.27 21.2347 141.854 22.2427 141.47 23.096C141.128 23.16 140.659 23.192 140.062 23.192C139.806 23.192 139.555 23.1813 139.31 23.16C139.064 23.1387 138.856 23.1173 138.686 23.096C138.078 21.8373 137.486 20.4987 136.91 19.08C136.334 17.6507 135.779 16.1947 135.246 14.712C134.712 13.2293 134.211 11.768 133.742 10.328C133.283 8.888 132.862 7.528 132.478 6.248C132.616 6.20533 132.808 6.15733 133.054 6.104C133.299 6.04 133.56 5.976 133.838 5.912C134.115 5.83733 134.387 5.768 134.654 5.704C134.92 5.64 135.144 5.58133 135.326 5.528C135.496 6.21067 135.736 7.05333 136.046 8.056C136.355 9.048 136.696 10.104 137.07 11.224C137.454 12.344 137.838 13.448 138.222 14.536C138.616 15.6133 138.984 16.5947 139.326 17.48C139.667 18.3547 139.944 19.0427 140.158 19.544L139.934 19.592C140.211 18.9307 140.51 18.1573 140.83 17.272C141.15 16.376 141.48 15.416 141.822 14.392C142.174 13.368 142.515 12.3333 142.846 11.288C143.176 10.232 143.475 9.21333 143.742 8.232C144.008 7.24 144.232 6.344 144.414 5.544ZM164.843 19.432C164.629 19.7307 164.315 20.0773 163.899 20.472C163.483 20.856 162.965 21.2293 162.347 21.592C161.728 21.944 161.008 22.2373 160.187 22.472C159.365 22.7067 158.437 22.824 157.403 22.824C155.803 22.824 154.4 22.4987 153.195 21.848C151.989 21.1973 151.056 20.248 150.395 19C149.733 17.7413 149.403 16.2107 149.403 14.408C149.403 12.68 149.76 11.1813 150.475 9.912C151.2 8.64267 152.192 7.66133 153.451 6.968C154.709 6.27467 156.155 5.928 157.787 5.928C159.835 5.928 161.429 6.552 162.571 7.8C163.723 9.048 164.363 10.7227 164.491 12.824C164.512 13.1653 164.523 13.496 164.523 13.816C164.523 14.1253 164.507 14.4453 164.475 14.776C164.336 14.7653 164.048 14.7547 163.611 14.744C163.184 14.7227 162.683 14.7067 162.107 14.696C161.531 14.6747 160.949 14.6587 160.363 14.648C159.787 14.6267 159.291 14.616 158.875 14.616C157.797 14.616 156.693 14.6693 155.563 14.776C154.432 14.8827 153.424 15.0053 152.539 15.144C152.549 15.4213 152.576 15.6933 152.619 15.96C152.661 16.2267 152.715 16.4827 152.779 16.728C152.96 17.3787 153.291 17.944 153.771 18.424C154.251 18.8933 154.821 19.256 155.483 19.512C156.155 19.768 156.864 19.896 157.611 19.896C158.4 19.896 159.088 19.7787 159.675 19.544C160.261 19.3093 160.763 19.0213 161.179 18.68C161.605 18.3387 161.947 18.0133 162.203 17.704C162.469 17.3947 162.672 17.1653 162.811 17.016C162.875 17.0693 162.997 17.1867 163.179 17.368C163.371 17.5387 163.573 17.7467 163.787 17.992C164.011 18.2373 164.219 18.488 164.411 18.744C164.613 18.9893 164.757 19.2187 164.843 19.432ZM152.587 13C153.355 12.872 154.256 12.76 155.291 12.664C156.336 12.568 157.52 12.52 158.843 12.52C159.536 12.52 160.123 12.5307 160.603 12.552C161.093 12.5627 161.435 12.5787 161.627 12.6C161.627 12.248 161.584 11.8747 161.499 11.48C161.381 10.9467 161.168 10.4293 160.859 9.928C160.549 9.42667 160.128 9.01067 159.595 8.68C159.072 8.33867 158.411 8.168 157.611 8.168C156.693 8.168 155.856 8.36533 155.099 8.76C154.352 9.144 153.755 9.69867 153.307 10.424C152.859 11.1387 152.619 11.9973 152.587 13ZM181.395 22.92C180.51 22.9627 179.454 23 178.227 23.032C177.011 23.0747 175.763 23.096 174.483 23.096C173.075 23.096 171.688 23.0747 170.323 23.032C168.968 22.9893 167.79 22.9147 166.787 22.808L166.931 20.168C167.187 19.8267 167.582 19.352 168.115 18.744C168.659 18.136 169.278 17.4533 169.971 16.696C170.664 15.928 171.384 15.1387 172.131 14.328C172.878 13.5173 173.598 12.744 174.291 12.008C174.995 11.272 175.614 10.6267 176.147 10.072C176.68 9.51733 177.075 9.12267 177.331 8.888C177.182 8.87733 176.942 8.86667 176.611 8.856C176.291 8.84533 175.912 8.84 175.475 8.84C175.048 8.84 174.595 8.84 174.115 8.84C173.635 8.84 173.171 8.84 172.723 8.84C172.136 8.84 171.534 8.84533 170.915 8.856C170.296 8.86667 169.71 8.87733 169.155 8.888C168.611 8.89867 168.158 8.91467 167.795 8.936C167.443 8.94667 167.23 8.95733 167.155 8.968L167.283 6.392C167.539 6.392 167.923 6.38667 168.435 6.376C168.947 6.36533 169.55 6.35467 170.243 6.344C170.947 6.33333 171.71 6.32267 172.531 6.312C173.352 6.30133 174.195 6.296 175.059 6.296C176.04 6.296 177.064 6.30133 178.131 6.312C179.208 6.312 180.227 6.33333 181.187 6.376C181.198 6.41867 181.208 6.54667 181.219 6.76C181.24 6.96267 181.256 7.19733 181.267 7.464C181.288 7.73067 181.304 7.98133 181.315 8.216C181.326 8.44 181.331 8.6 181.331 8.696C180.979 9.00533 180.504 9.464 179.907 10.072C179.31 10.6693 178.648 11.3467 177.923 12.104C177.208 12.8613 176.472 13.6453 175.715 14.456C174.968 15.256 174.254 16.0347 173.571 16.792C172.899 17.5387 172.312 18.2 171.811 18.776C171.31 19.352 170.947 19.7893 170.723 20.088C171.011 20.1307 171.582 20.1627 172.435 20.184C173.299 20.2053 174.195 20.216 175.123 20.216C175.923 20.216 176.739 20.2053 177.571 20.184C178.414 20.1627 179.187 20.1307 179.891 20.088C180.595 20.0453 181.16 20.0027 181.587 19.96C181.587 20.056 181.582 20.2427 181.571 20.52C181.56 20.7973 181.544 21.1013 181.523 21.432C181.512 21.7627 181.496 22.0667 181.475 22.344C181.454 22.6213 181.427 22.8133 181.395 22.92ZM234.154 19.672C233.898 20.1947 233.466 20.7227 232.858 21.256C232.25 21.7787 231.492 22.2213 230.586 22.584C229.679 22.936 228.65 23.112 227.498 23.112C225.93 23.112 224.58 22.712 223.45 21.912C222.319 21.112 221.45 20.0507 220.842 18.728C220.234 17.3947 219.93 15.9387 219.93 14.36C219.93 12.632 220.228 11.1013 220.826 9.768C221.423 8.43467 222.298 7.38933 223.45 6.632C224.602 5.864 226.01 5.48 227.674 5.48C228.666 5.48 229.562 5.64533 230.362 5.976C231.162 6.296 231.85 6.73333 232.426 7.288C233.002 7.832 233.455 8.424 233.786 9.064L231.562 10.52C231.508 10.4027 231.407 10.2107 231.258 9.944C231.119 9.67733 230.9 9.4 230.602 9.112C230.314 8.81333 229.93 8.56267 229.45 8.36C228.98 8.15733 228.388 8.056 227.674 8.056C226.682 8.056 225.839 8.296 225.146 8.776C224.452 9.24533 223.924 9.90667 223.562 10.76C223.21 11.6027 223.034 12.5787 223.034 13.688C223.034 14.7547 223.183 15.7627 223.482 16.712C223.791 17.6507 224.282 18.4187 224.954 19.016C225.626 19.6133 226.516 19.912 227.626 19.912C228.298 19.912 228.89 19.8053 229.402 19.592C229.914 19.3787 230.351 19.128 230.714 18.84C231.076 18.552 231.359 18.2853 231.562 18.04C231.775 17.784 231.903 17.6133 231.946 17.528L234.154 19.672ZM244.96 23.496C242.165 23.496 240.101 22.7173 238.768 21.16C237.434 19.6027 236.768 17.3627 236.768 14.44C236.768 12.5947 237.109 11.0373 237.792 9.768C238.485 8.49867 239.445 7.53333 240.672 6.872C241.909 6.21067 243.349 5.88 244.992 5.88C246.73 5.88 248.165 6.28533 249.296 7.096C250.426 7.896 251.264 9.016 251.808 10.456C252.362 11.8853 252.64 13.5493 252.64 15.448C252.64 17.08 252.336 18.4987 251.728 19.704C251.12 20.8987 250.24 21.832 249.088 22.504C247.946 23.1653 246.57 23.496 244.96 23.496ZM244.832 20.632C245.696 20.632 246.437 20.472 247.056 20.152C247.674 19.832 248.176 19.4053 248.56 18.872C248.944 18.328 249.226 17.72 249.408 17.048C249.6 16.376 249.696 15.688 249.696 14.984C249.696 13.704 249.52 12.5627 249.168 11.56C248.816 10.5573 248.282 9.77333 247.568 9.208C246.853 8.632 245.941 8.344 244.832 8.344C243.744 8.344 242.832 8.60533 242.096 9.128C241.36 9.65067 240.805 10.3707 240.432 11.288C240.069 12.2053 239.888 13.256 239.888 14.44C239.888 16.264 240.309 17.752 241.152 18.904C241.994 20.056 243.221 20.632 244.832 20.632ZM266.798 7C266.958 6.95733 267.187 6.92 267.486 6.888C267.795 6.856 268.104 6.84 268.414 6.84C268.67 6.84 268.947 6.85067 269.246 6.872C269.555 6.88267 269.8 6.904 269.982 6.936C270.152 7.97067 270.296 9.02667 270.414 10.104C270.531 11.1813 270.59 12.2427 270.59 13.288C270.59 14.7173 270.467 16.0667 270.222 17.336C269.976 18.6053 269.571 19.7253 269.006 20.696C268.451 21.656 267.699 22.4133 266.75 22.968C265.811 23.5227 264.643 23.8 263.246 23.8C261.72 23.8 260.467 23.5013 259.486 22.904C258.504 22.296 257.742 21.4587 257.198 20.392C256.654 19.3147 256.27 18.0773 256.046 16.68C255.832 15.2827 255.726 13.7893 255.726 12.2C255.726 11.2293 255.758 10.248 255.822 9.256C255.886 8.264 255.955 7.29333 256.03 6.344C256.222 6.33333 256.462 6.328 256.75 6.328C257.048 6.328 257.315 6.33333 257.55 6.344C257.88 6.36533 258.206 6.39733 258.526 6.44C258.856 6.472 259.128 6.52 259.342 6.584C259.235 7.544 259.15 8.49333 259.086 9.432C259.022 10.3707 258.99 11.2773 258.99 12.152C258.99 14.0293 259.144 15.6187 259.454 16.92C259.774 18.2213 260.248 19.208 260.878 19.88C261.518 20.552 262.318 20.888 263.278 20.888C264.174 20.888 264.92 20.584 265.518 19.976C266.126 19.368 266.584 18.488 266.894 17.336C267.203 16.1733 267.358 14.76 267.358 13.096C267.358 12.1467 267.31 11.1547 267.214 10.12C267.118 9.07467 266.979 8.03467 266.798 7ZM274.17 30.024C274.34 28.4133 274.49 26.7013 274.618 24.888C274.756 23.0853 274.874 21.2667 274.97 19.432C275.076 17.5973 275.156 15.8373 275.21 14.152C275.274 12.4667 275.322 10.9307 275.354 9.544C275.386 8.14667 275.402 6.98933 275.402 6.072C275.828 5.944 276.33 5.85333 276.906 5.8C277.482 5.736 278.026 5.704 278.538 5.704C278.548 5.98133 278.554 6.37067 278.554 6.872C278.564 7.36267 278.57 7.8 278.57 8.184C278.836 7.88533 279.236 7.54933 279.77 7.176C280.314 6.792 280.975 6.456 281.753 6.168C282.543 5.88 283.412 5.736 284.362 5.736C286.463 5.736 288.063 6.408 289.162 7.752C290.271 9.096 290.826 10.9627 290.826 13.352C290.826 15.0267 290.538 16.488 289.962 17.736C289.396 18.9733 288.58 19.9333 287.514 20.616C286.447 21.2987 285.162 21.64 283.658 21.64C282.964 21.64 282.234 21.5387 281.466 21.336C280.708 21.1333 280.026 20.8933 279.418 20.616C278.81 20.328 278.388 20.0613 278.154 19.816C278.154 20.0507 278.132 20.4773 278.09 21.096C278.058 21.7147 278.015 22.4293 277.962 23.24C277.908 24.0613 277.85 24.8933 277.786 25.736C277.722 26.5787 277.658 27.3573 277.594 28.072C277.54 28.7867 277.482 29.3413 277.418 29.736C277.055 29.8 276.66 29.8533 276.234 29.896C275.818 29.9387 275.423 29.9707 275.049 29.992C274.676 30.0133 274.383 30.024 274.17 30.024ZM283.226 18.488C284.303 18.488 285.162 18.2693 285.802 17.832C286.452 17.3947 286.922 16.7707 287.21 15.96C287.498 15.1387 287.642 14.1627 287.642 13.032C287.642 11.5707 287.295 10.44 286.602 9.64C285.908 8.82933 284.89 8.424 283.546 8.424C282.724 8.424 281.967 8.57333 281.274 8.872C280.58 9.17067 279.999 9.50667 279.53 9.88C279.06 10.2533 278.73 10.5627 278.538 10.808C278.538 10.9893 278.527 11.3307 278.506 11.832C278.495 12.3333 278.479 12.8987 278.458 13.528C278.436 14.1573 278.415 14.76 278.394 15.336C278.383 15.9013 278.372 16.3387 278.362 16.648C278.586 16.84 278.916 17.0853 279.354 17.384C279.791 17.672 280.335 17.928 280.986 18.152C281.636 18.376 282.383 18.488 283.226 18.488ZM300.015 24.296C299.023 24.296 298.037 24.1573 297.055 23.88C296.074 23.6027 295.178 23.2347 294.367 22.776C293.567 22.3067 292.927 21.7893 292.447 21.224C292.522 21.0747 292.629 20.872 292.767 20.616C292.906 20.36 293.066 20.0933 293.247 19.816C293.429 19.528 293.61 19.2667 293.791 19.032C293.973 18.7867 294.133 18.6 294.271 18.472C294.73 18.984 295.279 19.48 295.919 19.96C296.559 20.4293 297.247 20.8133 297.983 21.112C298.719 21.4 299.455 21.544 300.191 21.544C300.895 21.544 301.53 21.4427 302.095 21.24C302.671 21.0267 303.125 20.7227 303.455 20.328C303.797 19.9333 303.967 19.4587 303.967 18.904C303.967 18.264 303.765 17.7147 303.359 17.256C302.954 16.7867 302.41 16.376 301.727 16.024C301.045 15.6613 300.293 15.3307 299.471 15.032C298.479 14.6693 297.573 14.2747 296.751 13.848C295.941 13.4107 295.29 12.8667 294.799 12.216C294.319 11.5653 294.079 10.7387 294.079 9.736C294.079 8.712 294.367 7.85867 294.943 7.176C295.53 6.49333 296.298 5.976 297.247 5.624C298.207 5.272 299.242 5.096 300.351 5.096C301.589 5.096 302.725 5.256 303.759 5.576C304.805 5.88533 305.605 6.248 306.159 6.664C306.117 6.84533 306.026 7.08533 305.887 7.384C305.749 7.672 305.589 7.96533 305.407 8.264C305.226 8.56267 305.039 8.83467 304.847 9.08C304.335 8.73867 303.711 8.41333 302.975 8.104C302.239 7.79467 301.439 7.64 300.575 7.64C299.999 7.64 299.445 7.70933 298.911 7.848C298.378 7.976 297.941 8.19467 297.599 8.504C297.258 8.81333 297.087 9.23467 297.087 9.768C297.087 10.2267 297.253 10.6373 297.583 11C297.925 11.3627 298.383 11.688 298.959 11.976C299.535 12.2533 300.186 12.52 300.911 12.776C301.786 13.0747 302.597 13.4107 303.343 13.784C304.09 14.1467 304.735 14.568 305.279 15.048C305.834 15.5173 306.266 16.0613 306.575 16.68C306.885 17.288 307.039 17.976 307.039 18.744C307.039 19.9707 306.725 20.9947 306.095 21.816C305.466 22.6373 304.623 23.256 303.567 23.672C302.511 24.088 301.327 24.296 300.015 24.296Z" fill="#132F63"/>
<path d="M199.418 23.608C199.045 23.512 198.576 23.3733 198.01 23.192C197.456 23.0213 196.89 22.8453 196.314 22.664C195.738 22.472 195.242 22.3067 194.826 22.168C194.41 22.0293 194.17 21.944 194.106 21.912C194.48 20.8773 194.906 19.8 195.386 18.68C195.866 17.56 196.389 16.4347 196.954 15.304C197.52 14.1627 198.117 13.048 198.746 11.96C199.376 10.8613 200.026 9.81067 200.698 8.808C201.381 7.80533 202.069 6.88267 202.762 6.04C201.888 6.17867 201.008 6.33333 200.122 6.504C199.237 6.67467 198.405 6.84533 197.626 7.016C196.848 7.18667 196.181 7.34133 195.626 7.48C195.082 7.608 194.714 7.704 194.522 7.768C194.48 7.58667 194.432 7.28267 194.378 6.856C194.325 6.42933 194.272 5.96533 194.218 5.464C194.176 4.96267 194.138 4.488 194.106 4.04C194.074 3.58133 194.058 3.22933 194.058 2.984C195.168 2.728 196.362 2.48267 197.642 2.248C198.933 2.01333 200.213 1.80533 201.482 1.624C202.752 1.432 203.925 1.28267 205.002 1.176C206.08 1.05866 206.965 0.999998 207.658 0.999998C207.69 1.128 207.738 1.384 207.802 1.768C207.866 2.14133 207.936 2.55733 208.01 3.016C208.096 3.464 208.165 3.88 208.218 4.264C208.282 4.63733 208.32 4.88267 208.33 5C207.018 7.09067 205.893 8.97333 204.954 10.648C204.016 12.312 203.21 13.8587 202.538 15.288C201.877 16.7067 201.296 18.088 200.794 19.432C200.304 20.776 199.845 22.168 199.418 23.608Z" fill="#036913"/>
<defs>
<filter id="filter0_d_28_18" x="0" y="426" width="363" height="15" filterUnits="userSpaceOnUse" color-interpolation-filters="sRGB">
<feFlood flood-opacity="0" result="BackgroundImageFix"/>
<feColorMatrix in="SourceAlpha" type="matrix" values="0 0 0 0 0 0 0 0 0 0 0 0 0 0 0 0 0 0 127 0" result="hardAlpha"/>
<feOffset dy="4"/>
<feGaussianBlur stdDeviation="2"/>
<feComposite in2="hardAlpha" operator="out"/>
<feColorMatrix type="matrix" values="0 0 0 0 0 0 0 0 0 0 0 0 0 0 0 0 0 0 0.25 0"/>
<feBlend mode="normal" in2="BackgroundImageFix" result="effect1_dropShadow_28_18"/>
<feBlend mode="normal" in="SourceGraphic" in2="effect1_dropShadow_28_18" result="shape"/>
</filter>
<filter id="filter1_d_28_18" x="27" y="32.0001" width="14" height="403" filterUnits="userSpaceOnUse" color-interpolation-filters="sRGB">
<feFlood flood-opacity="0" result="BackgroundImageFix"/>
<feColorMatrix in="SourceAlpha" type="matrix" values="0 0 0 0 0 0 0 0 0 0 0 0 0 0 0 0 0 0 127 0" result="hardAlpha"/>
<feOffset dy="4"/>
<feGaussianBlur stdDeviation="2"/>
<feComposite in2="hardAlpha" operator="out"/>
<feColorMatrix type="matrix" values="0 0 0 0 0 0 0 0 0 0 0 0 0 0 0 0 0 0 0.25 0"/>
<feBlend mode="normal" in2="BackgroundImageFix" result="effect1_dropShadow_28_18"/>
<feBlend mode="normal" in="SourceGraphic" in2="effect1_dropShadow_28_18" result="shape"/>
</filter>
<filter id="filter2_d_28_18" x="27" y="37.0004" width="283.078" height="17.9996" filterUnits="userSpaceOnUse" color-interpolation-filters="sRGB">
<feFlood flood-opacity="0" result="BackgroundImageFix"/>
<feColorMatrix in="SourceAlpha" type="matrix" values="0 0 0 0 0 0 0 0 0 0 0 0 0 0 0 0 0 0 127 0" result="hardAlpha"/>
<feOffset dy="4"/>
<feGaussianBlur stdDeviation="2"/>
<feComposite in2="hardAlpha" operator="out"/>
<feColorMatrix type="matrix" values="0 0 0 0 0 0 0 0 0 0 0 0 0 0 0 0 0 0 0.25 0"/>
<feBlend mode="normal" in2="BackgroundImageFix" result="effect1_dropShadow_28_18"/>
<feBlend mode="normal" in="SourceGraphic" in2="effect1_dropShadow_28_18" result="shape"/>
</filter>
</defs>
</svg>
