<svg width="355" height="420" viewBox="0 0 363 440" fill="none" xmlns="http://www.w3.org/2000/svg">
<g filter="url(#filter0_d_28_18)">
<line x1="4" y1="429.5" x2="359" y2="429.5" stroke="black" stroke-width="7"/>
</g>
<g filter="url(#filter1_d_28_18)">
<line x1="34" y1="427" x2="34" y2="32.0001" stroke="black" stroke-width="6"/>
</g>
<line x1="31.0382" y1="40.5002" x2="306.04" y2="43.5002" stroke="black" stroke-opacity="0.3" stroke-width="7"/>
<line x1="303.5" y1="36.9828" x2="306.5" y2="123.983" stroke="black" stroke-opacity="0.3"/>
<path d="M343.5 169.5C343.5 194.434 326.412 214.5 305.5 214.5C284.588 214.5 267.5 194.434 267.5 169.5C267.5 144.566 284.588 124.5 305.5 124.5C326.412 124.5 343.5 144.566 343.5 169.5Z" stroke="black" stroke-opacity="0.3"/>
<line x1="293.464" y1="150.186" x2="289.464" y2="160.186" stroke="black" stroke-opacity="0.3"/>
<line x1="287.374" y1="150.668" x2="295.374" y2="159.668" stroke="black" stroke-opacity="0.3"/>
<line x1="319.464" y1="150.186" x2="315.464" y2="160.186" stroke="black" stroke-opacity="0.3"/>
<line x1="313.374" y1="150.668" x2="321.374" y2="159.668" stroke="black" stroke-opacity="0.3"/>
<path d="M289.2 189.061C289.2 189.061 293.2 183.061 303.7 182.561C314.2 182.061 320.684 189.061 320.684 189.061" stroke="black" stroke-opacity="0.3"/>
<line x1="305.5" y1="215.016" x2="302.5" y2="307.017" stroke="black" stroke-opacity="0.3"/>
<line x1="305.392" y1="215.31" x2="267.392" y2="263.31" stroke="black" stroke-opacity="0.3"/>
<line x1="305.404" y1="214.705" x2="340.404" y2="262.705" stroke="black" stroke-opacity="0.3"/>
<line x1="302.392" y1="305.31" x2="264.392" y2="353.31" stroke="black" stroke-opacity="0.3"/>
<line x1="302.404" y1="304.706" x2="337.404" y2="352.706" stroke="black" stroke-opacity="0.3"/>
<path d="M40.696 23.32C40.2907 23.32 39.8853 23.304 39.48 23.272C39.0853 23.24 38.776 23.2027 38.552 23.16C38.008 22.008 37.4587 20.6533 36.904 19.096C36.3493 17.528 35.816 15.8907 35.304 14.184C34.792 12.4773 34.3173 10.8133 33.88 9.192C33.4427 7.57067 33.0693 6.10933 32.76 4.808C32.4507 3.496 32.2267 2.46667 32.088 1.72C32.3867 1.624 32.7653 1.544 33.224 1.48C33.6933 1.40533 34.1573 1.34667 34.616 1.304C35.0747 1.26133 35.448 1.24 35.736 1.24C35.7787 1.58133 35.8853 2.168 36.056 3C36.2373 3.832 36.4613 4.81867 36.728 5.96C36.9947 7.09067 37.2933 8.31733 37.624 9.64C37.9547 10.952 38.3013 12.28 38.664 13.624C39.0267 14.9573 39.384 16.2373 39.736 17.464C40.088 18.68 40.4187 19.7573 40.728 20.696L40.44 20.76C40.8347 19.5973 41.2187 18.3333 41.592 16.968C41.9653 15.6027 42.3173 14.2107 42.648 12.792C42.9787 11.3627 43.2773 9.98667 43.544 8.664C43.8213 7.34133 44.056 6.14133 44.248 5.064C44.4507 3.98667 44.6107 3.10667 44.728 2.424C44.8453 1.74133 44.9093 1.336 44.92 1.208C45.4747 1.24 46.0773 1.31467 46.728 1.432C47.3893 1.54933 47.9653 1.71467 48.456 1.928C47.9227 4.31733 47.384 6.56267 46.84 8.664C46.3067 10.7547 45.7947 12.6587 45.304 14.376C44.8133 16.0933 44.3707 17.592 43.976 18.872C43.592 20.1413 43.2773 21.1493 43.032 21.896C42.7867 22.6427 42.6373 23.096 42.584 23.256C42.3707 23.2773 42.0987 23.2933 41.768 23.304C41.4373 23.3147 41.08 23.32 40.696 23.32ZM58.8035 23.496C56.0088 23.496 53.9448 22.7173 52.6115 21.16C51.2782 19.6027 50.6115 17.3627 50.6115 14.44C50.6115 12.5947 50.9528 11.0373 51.6355 9.768C52.3288 8.49867 53.2888 7.53333 54.5155 6.872C55.7528 6.21067 57.1928 5.88 58.8355 5.88C60.5742 5.88 62.0088 6.28533 63.1395 7.096C64.2702 7.896 65.1075 9.016 65.6515 10.456C66.2062 11.8853 66.4835 13.5493 66.4835 15.448C66.4835 17.08 66.1795 18.4987 65.5715 19.704C64.9635 20.8987 64.0835 21.832 62.9315 22.504C61.7902 23.1653 60.4142 23.496 58.8035 23.496ZM58.6755 20.632C59.5395 20.632 60.2808 20.472 60.8995 20.152C61.5182 19.832 62.0195 19.4053 62.4035 18.872C62.7875 18.328 63.0702 17.72 63.2515 17.048C63.4435 16.376 63.5395 15.688 63.5395 14.984C63.5395 13.704 63.3635 12.5627 63.0115 11.56C62.6595 10.5573 62.1262 9.77333 61.4115 9.208C60.6968 8.632 59.7848 8.344 58.6755 8.344C57.5875 8.344 56.6755 8.60533 55.9395 9.128C55.2035 9.65067 54.6488 10.3707 54.2755 11.288C53.9128 12.2053 53.7315 13.256 53.7315 14.44C53.7315 16.264 54.1528 17.752 54.9955 18.904C55.8382 20.056 57.0648 20.632 58.6755 20.632ZM80.6415 7C80.8015 6.95733 81.0308 6.92 81.3295 6.888C81.6388 6.856 81.9482 6.84 82.2575 6.84C82.5135 6.84 82.7908 6.85067 83.0895 6.872C83.3988 6.88267 83.6442 6.904 83.8255 6.936C83.9962 7.97067 84.1402 9.02667 84.2575 10.104C84.3748 11.1813 84.4335 12.2427 84.4335 13.288C84.4335 14.7173 84.3108 16.0667 84.0655 17.336C83.8202 18.6053 83.4148 19.7253 82.8495 20.696C82.2948 21.656 81.5428 22.4133 80.5935 22.968C79.6548 23.5227 78.4868 23.8 77.0895 23.8C75.5642 23.8 74.3108 23.5013 73.3295 22.904C72.3482 22.296 71.5855 21.4587 71.0415 20.392C70.4975 19.3147 70.1135 18.0773 69.8895 16.68C69.6762 15.2827 69.5695 13.7893 69.5695 12.2C69.5695 11.2293 69.6015 10.248 69.6655 9.256C69.7295 8.264 69.7988 7.29333 69.8735 6.344C70.0655 6.33333 70.3055 6.328 70.5935 6.328C70.8922 6.328 71.1588 6.33333 71.3935 6.344C71.7242 6.36533 72.0495 6.39733 72.3695 6.44C72.7002 6.472 72.9722 6.52 73.1855 6.584C73.0788 7.544 72.9935 8.49333 72.9295 9.432C72.8655 10.3707 72.8335 11.2773 72.8335 12.152C72.8335 14.0293 72.9882 15.6187 73.2975 16.92C73.6175 18.2213 74.0922 19.208 74.7215 19.88C75.3615 20.552 76.1615 20.888 77.1215 20.888C78.0175 20.888 78.7642 20.584 79.3615 19.976C79.9695 19.368 80.4282 18.488 80.7375 17.336C81.0468 16.1733 81.2015 14.76 81.2015 13.096C81.2015 12.1467 81.1535 11.1547 81.0575 10.12C80.9615 9.07467 80.8228 8.03467 80.6415 7ZM94.7653 24.296C93.7733 24.296 92.7866 24.1573 91.8053 23.88C90.8239 23.6027 89.9279 23.2347 89.1173 22.776C88.3173 22.3067 87.6773 21.7893 87.1973 21.224C87.2719 21.0747 87.3786 20.872 87.5173 20.616C87.6559 20.36 87.8159 20.0933 87.9973 19.816C88.1786 19.528 88.3599 19.2667 88.5413 19.032C88.7226 18.7867 88.8826 18.6 89.0213 18.472C89.4799 18.984 90.0293 19.48 90.6693 19.96C91.3093 20.4293 91.9973 20.8133 92.7333 21.112C93.4693 21.4 94.2053 21.544 94.9413 21.544C95.6453 21.544 96.2799 21.4427 96.8453 21.24C97.4213 21.0267 97.8746 20.7227 98.2053 20.328C98.5466 19.9333 98.7173 19.4587 98.7173 18.904C98.7173 18.264 98.5146 17.7147 98.1093 17.256C97.7039 16.7867 97.1599 16.376 96.4773 16.024C95.7946 15.6613 95.0426 15.3307 94.2213 15.032C93.2293 14.6693 92.3226 14.2747 91.5013 13.848C90.6906 13.4107 90.0399 12.8667 89.5493 12.216C89.0693 11.5653 88.8293 10.7387 88.8293 9.736C88.8293 8.712 89.1173 7.85867 89.6933 7.176C90.2799 6.49333 91.0479 5.976 91.9973 5.624C92.9573 5.272 93.9919 5.096 95.1013 5.096C96.3386 5.096 97.4746 5.256 98.5093 5.576C99.5546 5.88533 100.355 6.248 100.909 6.664C100.867 6.84533 100.776 7.08533 100.637 7.384C100.499 7.672 100.339 7.96533 100.157 8.264C99.9759 8.56267 99.7893 8.83467 99.5973 9.08C99.0853 8.73867 98.4613 8.41333 97.7253 8.104C96.9893 7.79467 96.1893 7.64 95.3253 7.64C94.7493 7.64 94.1946 7.70933 93.6613 7.848C93.1279 7.976 92.6906 8.19467 92.3493 8.504C92.0079 8.81333 91.8373 9.23467 91.8373 9.768C91.8373 10.2267 92.0026 10.6373 92.3333 11C92.6746 11.3627 93.1333 11.688 93.7093 11.976C94.2853 12.2533 94.9359 12.52 95.6613 12.776C96.5359 13.0747 97.3466 13.4107 98.0933 13.784C98.8399 14.1467 99.4853 14.568 100.029 15.048C100.584 15.5173 101.016 16.0613 101.325 16.68C101.635 17.288 101.789 17.976 101.789 18.744C101.789 19.9707 101.475 20.9947 100.845 21.816C100.216 22.6373 99.3733 23.256 98.3173 23.672C97.2613 24.088 96.0773 24.296 94.7653 24.296ZM120.98 23.336C119.647 23.336 118.436 23.16 117.348 22.808C116.271 22.4453 115.412 21.8693 114.772 21.08C114.132 20.28 113.812 19.2187 113.812 17.896C113.812 16.6267 114.169 15.576 114.884 14.744C115.599 13.912 116.564 13.2987 117.78 12.904C119.007 12.4987 120.377 12.296 121.892 12.296C122.596 12.296 123.284 12.3493 123.956 12.456C124.628 12.552 125.209 12.6693 125.7 12.808C126.191 12.936 126.521 13.0373 126.692 13.112C126.66 12.76 126.596 12.4027 126.5 12.04C126.415 11.6667 126.281 11.3413 126.1 11.064C125.695 10.3493 125.103 9.76267 124.324 9.304C123.556 8.83467 122.591 8.6 121.428 8.6C120.201 8.6 119.161 8.86667 118.308 9.4C117.455 9.92267 116.815 10.5467 116.388 11.272L113.796 9.56C114.265 8.86667 114.884 8.25333 115.652 7.72C116.42 7.18667 117.305 6.76533 118.308 6.456C119.311 6.14667 120.388 5.992 121.54 5.992C123.332 5.992 124.815 6.33333 125.988 7.016C127.161 7.69867 128.02 8.6 128.564 9.72C128.841 10.2853 129.06 10.904 129.22 11.576C129.38 12.248 129.476 13.08 129.508 14.072C129.529 15.1173 129.551 16.008 129.572 16.744C129.604 17.48 129.636 18.1147 129.668 18.648C129.721 19.3413 129.828 19.7893 129.988 19.992C130.148 20.1947 130.377 20.296 130.676 20.296C131.017 20.296 131.305 20.152 131.54 19.864C131.775 19.5653 131.908 19.1493 131.94 18.616L133.476 20.312C133.412 21.208 133.097 21.8907 132.532 22.36C131.967 22.8293 131.305 23.064 130.548 23.064C129.951 23.064 129.423 22.952 128.964 22.728C128.516 22.4933 128.159 22.1947 127.892 21.832C127.625 21.4693 127.471 21.096 127.428 20.712C127.215 21.1067 126.799 21.5067 126.18 21.912C125.572 22.3173 124.82 22.6587 123.924 22.936C123.039 23.2027 122.057 23.336 120.98 23.336ZM121.556 20.824C122.249 20.824 122.927 20.7173 123.588 20.504C124.249 20.2907 124.857 20.008 125.412 19.656C125.977 19.304 126.441 18.9147 126.804 18.488C126.793 17.8267 126.793 17.24 126.804 16.728C126.815 16.2053 126.831 15.7253 126.852 15.288C126.543 15.1813 125.951 15.0427 125.076 14.872C124.201 14.6907 123.215 14.6 122.116 14.6C121.167 14.6 120.303 14.728 119.524 14.984C118.756 15.2293 118.143 15.5867 117.684 16.056C117.236 16.5253 117.012 17.0907 117.012 17.752C117.012 18.552 117.204 19.176 117.588 19.624C117.983 20.0613 118.521 20.3707 119.204 20.552C119.887 20.7333 120.671 20.824 121.556 20.824ZM144.414 5.544C144.904 5.62933 145.363 5.73067 145.79 5.848C146.216 5.96533 146.579 6.072 146.878 6.168C147.176 6.25333 147.358 6.312 147.422 6.344C147.24 7.05867 146.979 7.96 146.638 9.048C146.296 10.1253 145.907 11.2933 145.47 12.552C145.043 13.8107 144.59 15.0907 144.11 16.392C143.64 17.6827 143.176 18.9093 142.718 20.072C142.27 21.2347 141.854 22.2427 141.47 23.096C141.128 23.16 140.659 23.192 140.062 23.192C139.806 23.192 139.555 23.1813 139.31 23.16C139.064 23.1387 138.856 23.1173 138.686 23.096C138.078 21.8373 137.486 20.4987 136.91 19.08C136.334 17.6507 135.779 16.1947 135.246 14.712C134.712 13.2293 134.211 11.768 133.742 10.328C133.283 8.888 132.862 7.528 132.478 6.248C132.616 6.20533 132.808 6.15733 133.054 6.104C133.299 6.04 133.56 5.976 133.838 5.912C134.115 5.83733 134.387 5.768 134.654 5.704C134.92 5.64 135.144 5.58133 135.326 5.528C135.496 6.21067 135.736 7.05333 136.046 8.056C136.355 9.048 136.696 10.104 137.07 11.224C137.454 12.344 137.838 13.448 138.222 14.536C138.616 15.6133 138.984 16.5947 139.326 17.48C139.667 18.3547 139.944 19.0427 140.158 19.544L139.934 19.592C140.211 18.9307 140.51 18.1573 140.83 17.272C141.15 16.376 141.48 15.416 141.822 14.392C142.174 13.368 142.515 12.3333 142.846 11.288C143.176 10.232 143.475 9.21333 143.742 8.232C144.008 7.24 144.232 6.344 144.414 5.544ZM164.843 19.432C164.629 19.7307 164.315 20.0773 163.899 20.472C163.483 20.856 162.965 21.2293 162.347 21.592C161.728 21.944 161.008 22.2373 160.187 22.472C159.365 22.7067 158.437 22.824 157.403 22.824C155.803 22.824 154.4 22.4987 153.195 21.848C151.989 21.1973 151.056 20.248 150.395 19C149.733 17.7413 149.403 16.2107 149.403 14.408C149.403 12.68 149.76 11.1813 150.475 9.912C151.2 8.64267 152.192 7.66133 153.451 6.968C154.709 6.27467 156.155 5.928 157.787 5.928C159.835 5.928 161.429 6.552 162.571 7.8C163.723 9.048 164.363 10.7227 164.491 12.824C164.512 13.1653 164.523 13.496 164.523 13.816C164.523 14.1253 164.507 14.4453 164.475 14.776C164.336 14.7653 164.048 14.7547 163.611 14.744C163.184 14.7227 162.683 14.7067 162.107 14.696C161.531 14.6747 160.949 14.6587 160.363 14.648C159.787 14.6267 159.291 14.616 158.875 14.616C157.797 14.616 156.693 14.6693 155.563 14.776C154.432 14.8827 153.424 15.0053 152.539 15.144C152.549 15.4213 152.576 15.6933 152.619 15.96C152.661 16.2267 152.715 16.4827 152.779 16.728C152.96 17.3787 153.291 17.944 153.771 18.424C154.251 18.8933 154.821 19.256 155.483 19.512C156.155 19.768 156.864 19.896 157.611 19.896C158.4 19.896 159.088 19.7787 159.675 19.544C160.261 19.3093 160.763 19.0213 161.179 18.68C161.605 18.3387 161.947 18.0133 162.203 17.704C162.469 17.3947 162.672 17.1653 162.811 17.016C162.875 17.0693 162.997 17.1867 163.179 17.368C163.371 17.5387 163.573 17.7467 163.787 17.992C164.011 18.2373 164.219 18.488 164.411 18.744C164.613 18.9893 164.757 19.2187 164.843 19.432ZM152.587 13C153.355 12.872 154.256 12.76 155.291 12.664C156.336 12.568 157.52 12.52 158.843 12.52C159.536 12.52 160.123 12.5307 160.603 12.552C161.093 12.5627 161.435 12.5787 161.627 12.6C161.627 12.248 161.584 11.8747 161.499 11.48C161.381 10.9467 161.168 10.4293 160.859 9.928C160.549 9.42667 160.128 9.01067 159.595 8.68C159.072 8.33867 158.411 8.168 157.611 8.168C156.693 8.168 155.856 8.36533 155.099 8.76C154.352 9.144 153.755 9.69867 153.307 10.424C152.859 11.1387 152.619 11.9973 152.587 13ZM181.395 22.92C180.51 22.9627 179.454 23 178.227 23.032C177.011 23.0747 175.763 23.096 174.483 23.096C173.075 23.096 171.688 23.0747 170.323 23.032C168.968 22.9893 167.79 22.9147 166.787 22.808L166.931 20.168C167.187 19.8267 167.582 19.352 168.115 18.744C168.659 18.136 169.278 17.4533 169.971 16.696C170.664 15.928 171.384 15.1387 172.131 14.328C172.878 13.5173 173.598 12.744 174.291 12.008C174.995 11.272 175.614 10.6267 176.147 10.072C176.68 9.51733 177.075 9.12267 177.331 8.888C177.182 8.87733 176.942 8.86667 176.611 8.856C176.291 8.84533 175.912 8.84 175.475 8.84C175.048 8.84 174.595 8.84 174.115 8.84C173.635 8.84 173.171 8.84 172.723 8.84C172.136 8.84 171.534 8.84533 170.915 8.856C170.296 8.86667 169.71 8.87733 169.155 8.888C168.611 8.89867 168.158 8.91467 167.795 8.936C167.443 8.94667 167.23 8.95733 167.155 8.968L167.283 6.392C167.539 6.392 167.923 6.38667 168.435 6.376C168.947 6.36533 169.55 6.35467 170.243 6.344C170.947 6.33333 171.71 6.32267 172.531 6.312C173.352 6.30133 174.195 6.296 175.059 6.296C176.04 6.296 177.064 6.30133 178.131 6.312C179.208 6.312 180.227 6.33333 181.187 6.376C181.198 6.41867 181.208 6.54667 181.219 6.76C181.24 6.96267 181.256 7.19733 181.267 7.464C181.288 7.73067 181.304 7.98133 181.315 8.216C181.326 8.44 181.331 8.6 181.331 8.696C180.979 9.00533 180.504 9.464 179.907 10.072C179.31 10.6693 178.648 11.3467 177.923 12.104C177.208 12.8613 176.472 13.6453 175.715 14.456C174.968 15.256 174.254 16.0347 173.571 16.792C172.899 17.5387 172.312 18.2 171.811 18.776C171.31 19.352 170.947 19.7893 170.723 20.088C171.011 20.1307 171.582 20.1627 172.435 20.184C173.299 20.2053 174.195 20.216 175.123 20.216C175.923 20.216 176.739 20.2053 177.571 20.184C178.414 20.1627 179.187 20.1307 179.891 20.088C180.595 20.0453 181.16 20.0027 181.587 19.96C181.587 20.056 181.582 20.2427 181.571 20.52C181.56 20.7973 181.544 21.1013 181.523 21.432C181.512 21.7627 181.496 22.0667 181.475 22.344C181.454 22.6213 181.427 22.8133 181.395 22.92ZM237.841 19.672C237.585 20.1947 237.153 20.7227 236.545 21.256C235.937 21.7787 235.18 22.2213 234.273 22.584C233.366 22.936 232.337 23.112 231.185 23.112C229.617 23.112 228.268 22.712 227.137 21.912C226.006 21.112 225.137 20.0507 224.529 18.728C223.921 17.3947 223.617 15.9387 223.617 14.36C223.617 12.632 223.916 11.1013 224.513 9.768C225.11 8.43467 225.985 7.38933 227.137 6.632C228.289 5.864 229.697 5.48 231.361 5.48C232.353 5.48 233.249 5.64533 234.049 5.976C234.849 6.296 235.537 6.73333 236.113 7.288C236.689 7.832 237.142 8.424 237.473 9.064L235.249 10.52C235.196 10.4027 235.094 10.2107 234.945 9.944C234.806 9.67733 234.588 9.4 234.289 9.112C234.001 8.81333 233.617 8.56267 233.137 8.36C232.668 8.15733 232.076 8.056 231.361 8.056C230.369 8.056 229.526 8.296 228.833 8.776C228.14 9.24533 227.612 9.90667 227.249 10.76C226.897 11.6027 226.721 12.5787 226.721 13.688C226.721 14.7547 226.87 15.7627 227.169 16.712C227.478 17.6507 227.969 18.4187 228.641 19.016C229.313 19.6133 230.204 19.912 231.313 19.912C231.985 19.912 232.577 19.8053 233.089 19.592C233.601 19.3787 234.038 19.128 234.401 18.84C234.764 18.552 235.046 18.2853 235.249 18.04C235.462 17.784 235.59 17.6133 235.633 17.528L237.841 19.672ZM248.647 23.496C245.853 23.496 243.789 22.7173 242.455 21.16C241.122 19.6027 240.455 17.3627 240.455 14.44C240.455 12.5947 240.797 11.0373 241.479 9.768C242.173 8.49867 243.133 7.53333 244.359 6.872C245.597 6.21067 247.037 5.88 248.679 5.88C250.418 5.88 251.853 6.28533 252.983 7.096C254.114 7.896 254.951 9.016 255.495 10.456C256.05 11.8853 256.327 13.5493 256.327 15.448C256.327 17.08 256.023 18.4987 255.415 19.704C254.807 20.8987 253.927 21.832 252.775 22.504C251.634 23.1653 250.258 23.496 248.647 23.496ZM248.519 20.632C249.383 20.632 250.125 20.472 250.743 20.152C251.362 19.832 251.863 19.4053 252.247 18.872C252.631 18.328 252.914 17.72 253.095 17.048C253.287 16.376 253.383 15.688 253.383 14.984C253.383 13.704 253.207 12.5627 252.855 11.56C252.503 10.5573 251.97 9.77333 251.255 9.208C250.541 8.632 249.629 8.344 248.519 8.344C247.431 8.344 246.519 8.60533 245.783 9.128C245.047 9.65067 244.493 10.3707 244.119 11.288C243.757 12.2053 243.575 13.256 243.575 14.44C243.575 16.264 243.997 17.752 244.839 18.904C245.682 20.056 246.909 20.632 248.519 20.632ZM270.485 7C270.645 6.95733 270.875 6.92 271.173 6.888C271.483 6.856 271.792 6.84 272.101 6.84C272.357 6.84 272.635 6.85067 272.933 6.872C273.243 6.88267 273.488 6.904 273.669 6.936C273.84 7.97067 273.984 9.02667 274.101 10.104C274.219 11.1813 274.277 12.2427 274.277 13.288C274.277 14.7173 274.155 16.0667 273.909 17.336C273.664 18.6053 273.259 19.7253 272.693 20.696C272.139 21.656 271.387 22.4133 270.437 22.968C269.499 23.5227 268.331 23.8 266.933 23.8C265.408 23.8 264.155 23.5013 263.173 22.904C262.192 22.296 261.429 21.4587 260.885 20.392C260.341 19.3147 259.957 18.0773 259.733 16.68C259.52 15.2827 259.413 13.7893 259.413 12.2C259.413 11.2293 259.445 10.248 259.509 9.256C259.573 8.264 259.643 7.29333 259.717 6.344C259.909 6.33333 260.149 6.328 260.437 6.328C260.736 6.328 261.003 6.33333 261.237 6.344C261.568 6.36533 261.893 6.39733 262.213 6.44C262.544 6.472 262.816 6.52 263.029 6.584C262.923 7.544 262.837 8.49333 262.773 9.432C262.709 10.3707 262.677 11.2773 262.677 12.152C262.677 14.0293 262.832 15.6187 263.141 16.92C263.461 18.2213 263.936 19.208 264.565 19.88C265.205 20.552 266.005 20.888 266.965 20.888C267.861 20.888 268.608 20.584 269.205 19.976C269.813 19.368 270.272 18.488 270.581 17.336C270.891 16.1733 271.045 14.76 271.045 13.096C271.045 12.1467 270.997 11.1547 270.901 10.12C270.805 9.07467 270.667 8.03467 270.485 7ZM277.857 30.024C278.028 28.4133 278.177 26.7013 278.305 24.888C278.444 23.0853 278.561 21.2667 278.657 19.432C278.764 17.5973 278.844 15.8373 278.897 14.152C278.961 12.4667 279.009 10.9307 279.041 9.544C279.073 8.14667 279.089 6.98933 279.089 6.072C279.516 5.944 280.017 5.85333 280.593 5.8C281.169 5.736 281.713 5.704 282.225 5.704C282.236 5.98133 282.241 6.37067 282.241 6.872C282.252 7.36267 282.257 7.8 282.257 8.184C282.524 7.88533 282.924 7.54933 283.457 7.176C284.001 6.792 284.662 6.456 285.441 6.168C286.23 5.88 287.1 5.736 288.049 5.736C290.15 5.736 291.75 6.408 292.849 7.752C293.958 9.096 294.513 10.9627 294.513 13.352C294.513 15.0267 294.225 16.488 293.649 17.736C293.084 18.9733 292.268 19.9333 291.201 20.616C290.134 21.2987 288.849 21.64 287.345 21.64C286.652 21.64 285.921 21.5387 285.153 21.336C284.396 21.1333 283.713 20.8933 283.105 20.616C282.497 20.328 282.076 20.0613 281.841 19.816C281.841 20.0507 281.82 20.4773 281.777 21.096C281.745 21.7147 281.702 22.4293 281.649 23.24C281.596 24.0613 281.537 24.8933 281.473 25.736C281.409 26.5787 281.345 27.3573 281.281 28.072C281.228 28.7867 281.169 29.3413 281.105 29.736C280.742 29.8 280.348 29.8533 279.921 29.896C279.505 29.9387 279.11 29.9707 278.737 29.992C278.364 30.0133 278.07 30.024 277.857 30.024ZM286.913 18.488C287.99 18.488 288.849 18.2693 289.489 17.832C290.14 17.3947 290.609 16.7707 290.897 15.96C291.185 15.1387 291.329 14.1627 291.329 13.032C291.329 11.5707 290.982 10.44 290.289 9.64C289.596 8.82933 288.577 8.424 287.233 8.424C286.412 8.424 285.654 8.57333 284.961 8.872C284.268 9.17067 283.686 9.50667 283.217 9.88C282.748 10.2533 282.417 10.5627 282.225 10.808C282.225 10.9893 282.214 11.3307 282.193 11.832C282.182 12.3333 282.166 12.8987 282.145 13.528C282.124 14.1573 282.102 14.76 282.081 15.336C282.07 15.9013 282.06 16.3387 282.049 16.648C282.273 16.84 282.604 17.0853 283.041 17.384C283.478 17.672 284.022 17.928 284.673 18.152C285.324 18.376 286.07 18.488 286.913 18.488ZM303.703 24.296C302.711 24.296 301.724 24.1573 300.743 23.88C299.761 23.6027 298.865 23.2347 298.055 22.776C297.255 22.3067 296.615 21.7893 296.135 21.224C296.209 21.0747 296.316 20.872 296.455 20.616C296.593 20.36 296.753 20.0933 296.935 19.816C297.116 19.528 297.297 19.2667 297.479 19.032C297.66 18.7867 297.82 18.6 297.959 18.472C298.417 18.984 298.967 19.48 299.607 19.96C300.247 20.4293 300.935 20.8133 301.671 21.112C302.407 21.4 303.143 21.544 303.879 21.544C304.583 21.544 305.217 21.4427 305.783 21.24C306.359 21.0267 306.812 20.7227 307.143 20.328C307.484 19.9333 307.655 19.4587 307.655 18.904C307.655 18.264 307.452 17.7147 307.047 17.256C306.641 16.7867 306.097 16.376 305.415 16.024C304.732 15.6613 303.98 15.3307 303.159 15.032C302.167 14.6693 301.26 14.2747 300.439 13.848C299.628 13.4107 298.977 12.8667 298.487 12.216C298.007 11.5653 297.767 10.7387 297.767 9.736C297.767 8.712 298.055 7.85867 298.631 7.176C299.217 6.49333 299.985 5.976 300.935 5.624C301.895 5.272 302.929 5.096 304.039 5.096C305.276 5.096 306.412 5.256 307.447 5.576C308.492 5.88533 309.292 6.248 309.847 6.664C309.804 6.84533 309.713 7.08533 309.575 7.384C309.436 7.672 309.276 7.96533 309.095 8.264C308.913 8.56267 308.727 8.83467 308.535 9.08C308.023 8.73867 307.399 8.41333 306.663 8.104C305.927 7.79467 305.127 7.64 304.263 7.64C303.687 7.64 303.132 7.70933 302.599 7.848C302.065 7.976 301.628 8.19467 301.287 8.504C300.945 8.81333 300.775 9.23467 300.775 9.768C300.775 10.2267 300.94 10.6373 301.271 11C301.612 11.3627 302.071 11.688 302.647 11.976C303.223 12.2533 303.873 12.52 304.599 12.776C305.473 13.0747 306.284 13.4107 307.031 13.784C307.777 14.1467 308.423 14.568 308.967 15.048C309.521 15.5173 309.953 16.0613 310.263 16.68C310.572 17.288 310.727 17.976 310.727 18.744C310.727 19.9707 310.412 20.9947 309.783 21.816C309.153 22.6373 308.311 23.256 307.255 23.672C306.199 24.088 305.015 24.296 303.703 24.296Z" fill="#132F63"/>
<path d="M202.682 23.16C200.944 23.16 199.408 22.936 198.074 22.488C196.752 22.04 195.717 21.3627 194.97 20.456C194.234 19.5387 193.866 18.376 193.866 16.968C193.866 16.1253 194.021 15.3627 194.33 14.68C194.65 13.9973 195.082 13.4 195.626 12.888C196.17 12.376 196.784 11.9653 197.466 11.656C196.613 11.272 195.914 10.6853 195.37 9.896C194.826 9.096 194.554 8.13067 194.554 7C194.554 5.64533 194.922 4.52533 195.658 3.64C196.394 2.75467 197.381 2.09867 198.618 1.672C199.866 1.23467 201.258 1.016 202.794 1.016C204.096 1.016 205.264 1.224 206.298 1.64C207.344 2.04533 208.17 2.664 208.778 3.496C209.386 4.328 209.69 5.37867 209.69 6.648C209.69 7.88533 209.429 8.97333 208.906 9.912C208.394 10.8507 207.632 11.5013 206.618 11.864C207.258 11.96 207.866 12.2 208.442 12.584C209.029 12.968 209.509 13.512 209.882 14.216C210.256 14.92 210.442 15.7947 210.442 16.84C210.442 18.12 210.096 19.2347 209.402 20.184C208.72 21.1333 207.792 21.8693 206.618 22.392C205.456 22.904 204.144 23.16 202.682 23.16ZM202.298 19.032C202.896 19.032 203.461 18.9413 203.994 18.76C204.538 18.5787 204.976 18.296 205.306 17.912C205.648 17.528 205.818 17.0373 205.818 16.44C205.818 15.4693 205.482 14.8133 204.81 14.472C204.149 14.1307 203.344 13.96 202.394 13.96C202 13.96 201.589 14.0027 201.162 14.088C200.746 14.1627 200.362 14.296 200.01 14.488C199.658 14.68 199.37 14.9413 199.146 15.272C198.933 15.6027 198.826 16.024 198.826 16.536C198.826 16.984 198.922 17.368 199.114 17.688C199.306 18.008 199.568 18.2693 199.898 18.472C200.229 18.664 200.602 18.808 201.018 18.904C201.434 18.9893 201.861 19.032 202.298 19.032ZM202.314 9.544C202.89 9.544 203.386 9.432 203.802 9.208C204.218 8.97333 204.538 8.664 204.762 8.28C204.986 7.88533 205.098 7.45867 205.098 7C205.098 6.18933 204.821 5.61333 204.266 5.272C203.712 4.92 203.013 4.744 202.17 4.744C201.253 4.744 200.538 5 200.026 5.512C199.525 6.024 199.274 6.64267 199.274 7.368C199.274 7.88 199.397 8.30133 199.642 8.632C199.898 8.952 200.256 9.18667 200.714 9.336C201.184 9.47467 201.717 9.544 202.314 9.544Z" fill="#036913"/>
<defs>
<filter id="filter0_d_28_18" x="0" y="426" width="363" height="15" filterUnits="userSpaceOnUse" color-interpolation-filters="sRGB">
<feFlood flood-opacity="0" result="BackgroundImageFix"/>
<feColorMatrix in="SourceAlpha" type="matrix" values="0 0 0 0 0 0 0 0 0 0 0 0 0 0 0 0 0 0 127 0" result="hardAlpha"/>
<feOffset dy="4"/>
<feGaussianBlur stdDeviation="2"/>
<feComposite in2="hardAlpha" operator="out"/>
<feColorMatrix type="matrix" values="0 0 0 0 0 0 0 0 0 0 0 0 0 0 0 0 0 0 0.25 0"/>
<feBlend mode="normal" in2="BackgroundImageFix" result="effect1_dropShadow_28_18"/>
<feBlend mode="normal" in="SourceGraphic" in2="effect1_dropShadow_28_18" result="shape"/>
</filter>
<filter id="filter1_d_28_18" x="27" y="32.0001" width="14" height="403" filterUnits="userSpaceOnUse" color-interpolation-filters="sRGB">
<feFlood flood-opacity="0" result="BackgroundImageFix"/>
<feColorMatrix in="SourceAlpha" type="matrix" values="0 0 0 0 0 0 0 0 0 0 0 0 0 0 0 0 0 0 127 0" result="hardAlpha"/>
<feOffset dy="4"/>
<feGaussianBlur stdDeviation="2"/>
<feComposite in2="hardAlpha" operator="out"/>
<feColorMatrix type="matrix" values="0 0 0 0 0 0 0 0 0 0 0 0 0 0 0 0 0 0 0.25 0"/>
<feBlend mode="normal" in2="BackgroundImageFix" result="effect1_dropShadow_28_18"/>
<feBlend mode="normal" in="SourceGraphic" in2="effect1_dropShadow_28_18" result="shape"/>
</filter>
</defs>
</svg>
