<svg width="355" height="401" viewBox="0 0 355 401" fill="none" xmlns="http://www.w3.org/2000/svg">
<line y1="397.5" x2="355" y2="397.5" stroke="black" stroke-width="7"/>
<line x1="30" y1="395" x2="30" stroke="black" stroke-width="6"/>
<line x1="27.0382" y1="8.50021" x2="302.038" y2="11.5002" stroke="black" stroke-width="7"/>
<line x1="299.999" y1="7.96431" x2="302.999" y2="91.9643" stroke="black" stroke-width="2"/>
<path d="M339 137.5C339 162.24 322.061 182 301.5 182C280.939 182 264 162.24 264 137.5C264 112.76 280.939 93 301.5 93C322.061 93 339 112.76 339 137.5Z" stroke="black" stroke-width="2"/>
<line x1="289.928" y1="118.371" x2="285.928" y2="128.371" stroke="black" stroke-width="2"/>
<line x1="283.747" y1="118.336" x2="291.747" y2="127.336" stroke="black" stroke-width="2"/>
<line x1="315.928" y1="118.371" x2="311.928" y2="128.371" stroke="black" stroke-width="2"/>
<line x1="309.747" y1="118.336" x2="317.747" y2="127.336" stroke="black" stroke-width="2"/>
<path d="M285.2 157.061C285.2 157.061 289.2 151.061 299.7 150.561C310.2 150.061 316.684 157.061 316.684 157.061" stroke="black" stroke-width="2"/>
<line x1="301.999" y1="183.033" x2="298.999" y2="275.033" stroke="black" stroke-width="2"/>
<line x1="301.784" y1="183.621" x2="263.784" y2="231.621" stroke="black" stroke-width="2"/>
<line x1="301.808" y1="182.411" x2="336.808" y2="230.411" stroke="black" stroke-width="2"/>
<line x1="298.784" y1="273.621" x2="260.784" y2="321.621" stroke="black" stroke-width="2"/>
<line x1="298.808" y1="272.411" x2="333.808" y2="320.411" stroke="black" stroke-width="2"/>
</svg>

