<svg width="355" height="401" viewBox="0 0 355 401" fill="none" xmlns="http://www.w3.org/2000/svg">
<line y1="397.5" x2="355" y2="397.5" stroke="black" stroke-width="7"/>
<line x1="30" y1="395" x2="30" stroke="black" stroke-width="6"/>
<line x1="27.0382" y1="8.50021" x2="302.038" y2="11.5002" stroke="black" stroke-width="7"/>
<line x1="299.5" y1="7.98215" x2="302.5" y2="91.9822" stroke="black"/>
<path d="M339.5 137.5C339.5 162.434 322.412 182.5 301.5 182.5C280.588 182.5 263.5 162.434 263.5 137.5C263.5 112.566 280.588 92.5 301.5 92.5C322.412 92.5 339.5 112.566 339.5 137.5Z" stroke="black"/>
<line x1="289.464" y1="118.186" x2="285.464" y2="128.186" stroke="black"/>
<line x1="283.374" y1="118.668" x2="291.374" y2="127.668" stroke="black"/>
<line x1="315.464" y1="118.186" x2="311.464" y2="128.186" stroke="black"/>
<line x1="309.374" y1="118.668" x2="317.374" y2="127.668" stroke="black"/>
<path d="M285.2 157.061C285.2 157.061 289.2 151.061 299.7 150.561C310.2 150.061 316.684 157.061 316.684 157.061" stroke="black"/>
<line x1="301.392" y1="183.31" x2="263.392" y2="231.31" stroke="black"/>
<line x1="301.404" y1="182.705" x2="336.404" y2="230.705" stroke="black"/>
</svg>
