<svg width="355" height="420" viewBox="0 0 355 433" fill="none" xmlns="http://www.w3.org/2000/svg">
<line y1="429.5" x2="355" y2="429.5" stroke="black" stroke-opacity="0.3" stroke-width="7"/>
<line x1="30" y1="427" x2="30" y2="32.0001" stroke="black" stroke-opacity="0.3" stroke-width="6"/>
<line x1="27.0382" y1="40.5002" x2="302.04" y2="43.5002" stroke="black" stroke-opacity="0.3" stroke-width="7"/>
<line x1="299.5" y1="36.9828" x2="302.5" y2="123.983" stroke="black" stroke-opacity="0.3"/>
<path d="M339.5 169.5C339.5 194.434 322.412 214.5 301.5 214.5C280.588 214.5 263.5 194.434 263.5 169.5C263.5 144.566 280.588 124.5 301.5 124.5C322.412 124.5 339.5 144.566 339.5 169.5Z" stroke="black" stroke-opacity="0.3"/>
<line x1="289.464" y1="150.186" x2="285.464" y2="160.186" stroke="black" stroke-opacity="0.3"/>
<line x1="283.374" y1="150.668" x2="291.374" y2="159.668" stroke="black" stroke-opacity="0.3"/>
<line x1="315.464" y1="150.186" x2="311.464" y2="160.186" stroke="black" stroke-opacity="0.3"/>
<line x1="309.374" y1="150.668" x2="317.374" y2="159.668" stroke="black" stroke-opacity="0.3"/>
<path d="M285.2 189.061C285.2 189.061 289.2 183.061 299.7 182.561C310.2 182.061 316.684 189.061 316.684 189.061" stroke="black" stroke-opacity="0.3"/>
<line x1="301.5" y1="215.016" x2="298.5" y2="307.017" stroke="black" stroke-opacity="0.3"/>
<line x1="301.392" y1="215.31" x2="263.392" y2="263.31" stroke="black" stroke-opacity="0.3"/>
<line x1="301.404" y1="214.705" x2="336.404" y2="262.705" stroke="black" stroke-opacity="0.3"/>
<line x1="298.392" y1="305.31" x2="260.392" y2="353.31" stroke="black" stroke-opacity="0.3"/>
<line x1="298.404" y1="304.706" x2="333.404" y2="352.706" stroke="black" stroke-opacity="0.3"/>
<path d="M36.696 23.32C36.2907 23.32 35.8853 23.304 35.48 23.272C35.0853 23.24 34.776 23.2027 34.552 23.16C34.008 22.008 33.4587 20.6533 32.904 19.096C32.3493 17.528 31.816 15.8907 31.304 14.184C30.792 12.4773 30.3173 10.8133 29.88 9.192C29.4427 7.57067 29.0693 6.10933 28.76 4.808C28.4507 3.496 28.2267 2.46667 28.088 1.72C28.3867 1.624 28.7653 1.544 29.224 1.48C29.6933 1.40533 30.1573 1.34667 30.616 1.304C31.0747 1.26133 31.448 1.24 31.736 1.24C31.7787 1.58133 31.8853 2.168 32.056 3C32.2373 3.832 32.4613 4.81867 32.728 5.96C32.9947 7.09067 33.2933 8.31733 33.624 9.64C33.9547 10.952 34.3013 12.28 34.664 13.624C35.0267 14.9573 35.384 16.2373 35.736 17.464C36.088 18.68 36.4187 19.7573 36.728 20.696L36.44 20.76C36.8347 19.5973 37.2187 18.3333 37.592 16.968C37.9653 15.6027 38.3173 14.2107 38.648 12.792C38.9787 11.3627 39.2773 9.98667 39.544 8.664C39.8213 7.34133 40.056 6.14133 40.248 5.064C40.4507 3.98667 40.6107 3.10667 40.728 2.424C40.8453 1.74133 40.9093 1.336 40.92 1.208C41.4747 1.24 42.0773 1.31467 42.728 1.432C43.3893 1.54933 43.9653 1.71467 44.456 1.928C43.9227 4.31733 43.384 6.56267 42.84 8.664C42.3067 10.7547 41.7947 12.6587 41.304 14.376C40.8133 16.0933 40.3707 17.592 39.976 18.872C39.592 20.1413 39.2773 21.1493 39.032 21.896C38.7867 22.6427 38.6373 23.096 38.584 23.256C38.3707 23.2773 38.0987 23.2933 37.768 23.304C37.4373 23.3147 37.08 23.32 36.696 23.32ZM54.8035 23.496C52.0088 23.496 49.9448 22.7173 48.6115 21.16C47.2782 19.6027 46.6115 17.3627 46.6115 14.44C46.6115 12.5947 46.9528 11.0373 47.6355 9.768C48.3288 8.49867 49.2888 7.53333 50.5155 6.872C51.7528 6.21067 53.1928 5.88 54.8355 5.88C56.5742 5.88 58.0088 6.28533 59.1395 7.096C60.2702 7.896 61.1075 9.016 61.6515 10.456C62.2062 11.8853 62.4835 13.5493 62.4835 15.448C62.4835 17.08 62.1795 18.4987 61.5715 19.704C60.9635 20.8987 60.0835 21.832 58.9315 22.504C57.7902 23.1653 56.4142 23.496 54.8035 23.496ZM54.6755 20.632C55.5395 20.632 56.2808 20.472 56.8995 20.152C57.5182 19.832 58.0195 19.4053 58.4035 18.872C58.7875 18.328 59.0702 17.72 59.2515 17.048C59.4435 16.376 59.5395 15.688 59.5395 14.984C59.5395 13.704 59.3635 12.5627 59.0115 11.56C58.6595 10.5573 58.1262 9.77333 57.4115 9.208C56.6968 8.632 55.7848 8.344 54.6755 8.344C53.5875 8.344 52.6755 8.60533 51.9395 9.128C51.2035 9.65067 50.6488 10.3707 50.2755 11.288C49.9128 12.2053 49.7315 13.256 49.7315 14.44C49.7315 16.264 50.1528 17.752 50.9955 18.904C51.8382 20.056 53.0648 20.632 54.6755 20.632ZM76.6415 7C76.8015 6.95733 77.0308 6.92 77.3295 6.888C77.6388 6.856 77.9482 6.84 78.2575 6.84C78.5135 6.84 78.7908 6.85067 79.0895 6.872C79.3988 6.88267 79.6442 6.904 79.8255 6.936C79.9962 7.97067 80.1402 9.02667 80.2575 10.104C80.3748 11.1813 80.4335 12.2427 80.4335 13.288C80.4335 14.7173 80.3108 16.0667 80.0655 17.336C79.8202 18.6053 79.4148 19.7253 78.8495 20.696C78.2948 21.656 77.5428 22.4133 76.5935 22.968C75.6548 23.5227 74.4868 23.8 73.0895 23.8C71.5642 23.8 70.3108 23.5013 69.3295 22.904C68.3482 22.296 67.5855 21.4587 67.0415 20.392C66.4975 19.3147 66.1135 18.0773 65.8895 16.68C65.6762 15.2827 65.5695 13.7893 65.5695 12.2C65.5695 11.2293 65.6015 10.248 65.6655 9.256C65.7295 8.264 65.7988 7.29333 65.8735 6.344C66.0655 6.33333 66.3055 6.328 66.5935 6.328C66.8922 6.328 67.1588 6.33333 67.3935 6.344C67.7242 6.36533 68.0495 6.39733 68.3695 6.44C68.7002 6.472 68.9722 6.52 69.1855 6.584C69.0788 7.544 68.9935 8.49333 68.9295 9.432C68.8655 10.3707 68.8335 11.2773 68.8335 12.152C68.8335 14.0293 68.9882 15.6187 69.2975 16.92C69.6175 18.2213 70.0922 19.208 70.7215 19.88C71.3615 20.552 72.1615 20.888 73.1215 20.888C74.0175 20.888 74.7642 20.584 75.3615 19.976C75.9695 19.368 76.4282 18.488 76.7375 17.336C77.0468 16.1733 77.2015 14.76 77.2015 13.096C77.2015 12.1467 77.1535 11.1547 77.0575 10.12C76.9615 9.07467 76.8228 8.03467 76.6415 7ZM90.7653 24.296C89.7733 24.296 88.7866 24.1573 87.8053 23.88C86.8239 23.6027 85.9279 23.2347 85.1173 22.776C84.3173 22.3067 83.6773 21.7893 83.1973 21.224C83.2719 21.0747 83.3786 20.872 83.5173 20.616C83.6559 20.36 83.8159 20.0933 83.9973 19.816C84.1786 19.528 84.3599 19.2667 84.5413 19.032C84.7226 18.7867 84.8826 18.6 85.0213 18.472C85.4799 18.984 86.0293 19.48 86.6693 19.96C87.3093 20.4293 87.9973 20.8133 88.7333 21.112C89.4693 21.4 90.2053 21.544 90.9413 21.544C91.6453 21.544 92.2799 21.4427 92.8453 21.24C93.4213 21.0267 93.8746 20.7227 94.2053 20.328C94.5466 19.9333 94.7173 19.4587 94.7173 18.904C94.7173 18.264 94.5146 17.7147 94.1093 17.256C93.7039 16.7867 93.1599 16.376 92.4773 16.024C91.7946 15.6613 91.0426 15.3307 90.2213 15.032C89.2293 14.6693 88.3226 14.2747 87.5013 13.848C86.6906 13.4107 86.0399 12.8667 85.5493 12.216C85.0693 11.5653 84.8293 10.7387 84.8293 9.736C84.8293 8.712 85.1173 7.85867 85.6933 7.176C86.2799 6.49333 87.0479 5.976 87.9973 5.624C88.9573 5.272 89.9919 5.096 91.1013 5.096C92.3386 5.096 93.4746 5.256 94.5093 5.576C95.5546 5.88533 96.3546 6.248 96.9093 6.664C96.8666 6.84533 96.7759 7.08533 96.6373 7.384C96.4986 7.672 96.3386 7.96533 96.1573 8.264C95.9759 8.56267 95.7893 8.83467 95.5973 9.08C95.0853 8.73867 94.4613 8.41333 93.7253 8.104C92.9893 7.79467 92.1893 7.64 91.3253 7.64C90.7493 7.64 90.1946 7.70933 89.6613 7.848C89.1279 7.976 88.6906 8.19467 88.3493 8.504C88.0079 8.81333 87.8373 9.23467 87.8373 9.768C87.8373 10.2267 88.0026 10.6373 88.3333 11C88.6746 11.3627 89.1333 11.688 89.7093 11.976C90.2853 12.2533 90.9359 12.52 91.6613 12.776C92.5359 13.0747 93.3466 13.4107 94.0933 13.784C94.8399 14.1467 95.4853 14.568 96.0293 15.048C96.5839 15.5173 97.0159 16.0613 97.3253 16.68C97.6346 17.288 97.7893 17.976 97.7893 18.744C97.7893 19.9707 97.4746 20.9947 96.8453 21.816C96.2159 22.6373 95.3733 23.256 94.3173 23.672C93.2613 24.088 92.0773 24.296 90.7653 24.296ZM116.98 23.336C115.647 23.336 114.436 23.16 113.348 22.808C112.271 22.4453 111.412 21.8693 110.772 21.08C110.132 20.28 109.812 19.2187 109.812 17.896C109.812 16.6267 110.169 15.576 110.884 14.744C111.599 13.912 112.564 13.2987 113.78 12.904C115.007 12.4987 116.377 12.296 117.892 12.296C118.596 12.296 119.284 12.3493 119.956 12.456C120.628 12.552 121.209 12.6693 121.7 12.808C122.191 12.936 122.521 13.0373 122.692 13.112C122.66 12.76 122.596 12.4027 122.5 12.04C122.415 11.6667 122.281 11.3413 122.1 11.064C121.695 10.3493 121.103 9.76267 120.324 9.304C119.556 8.83467 118.591 8.6 117.428 8.6C116.201 8.6 115.161 8.86667 114.308 9.4C113.455 9.92267 112.815 10.5467 112.388 11.272L109.796 9.56C110.265 8.86667 110.884 8.25333 111.652 7.72C112.42 7.18667 113.305 6.76533 114.308 6.456C115.311 6.14667 116.388 5.992 117.54 5.992C119.332 5.992 120.815 6.33333 121.988 7.016C123.161 7.69867 124.02 8.6 124.564 9.72C124.841 10.2853 125.06 10.904 125.22 11.576C125.38 12.248 125.476 13.08 125.508 14.072C125.529 15.1173 125.551 16.008 125.572 16.744C125.604 17.48 125.636 18.1147 125.668 18.648C125.721 19.3413 125.828 19.7893 125.988 19.992C126.148 20.1947 126.377 20.296 126.676 20.296C127.017 20.296 127.305 20.152 127.54 19.864C127.775 19.5653 127.908 19.1493 127.94 18.616L129.476 20.312C129.412 21.208 129.097 21.8907 128.532 22.36C127.967 22.8293 127.305 23.064 126.548 23.064C125.951 23.064 125.423 22.952 124.964 22.728C124.516 22.4933 124.159 22.1947 123.892 21.832C123.625 21.4693 123.471 21.096 123.428 20.712C123.215 21.1067 122.799 21.5067 122.18 21.912C121.572 22.3173 120.82 22.6587 119.924 22.936C119.039 23.2027 118.057 23.336 116.98 23.336ZM117.556 20.824C118.249 20.824 118.927 20.7173 119.588 20.504C120.249 20.2907 120.857 20.008 121.412 19.656C121.977 19.304 122.441 18.9147 122.804 18.488C122.793 17.8267 122.793 17.24 122.804 16.728C122.815 16.2053 122.831 15.7253 122.852 15.288C122.543 15.1813 121.951 15.0427 121.076 14.872C120.201 14.6907 119.215 14.6 118.116 14.6C117.167 14.6 116.303 14.728 115.524 14.984C114.756 15.2293 114.143 15.5867 113.684 16.056C113.236 16.5253 113.012 17.0907 113.012 17.752C113.012 18.552 113.204 19.176 113.588 19.624C113.983 20.0613 114.521 20.3707 115.204 20.552C115.887 20.7333 116.671 20.824 117.556 20.824ZM140.414 5.544C140.904 5.62933 141.363 5.73067 141.79 5.848C142.216 5.96533 142.579 6.072 142.878 6.168C143.176 6.25333 143.358 6.312 143.422 6.344C143.24 7.05867 142.979 7.96 142.638 9.048C142.296 10.1253 141.907 11.2933 141.47 12.552C141.043 13.8107 140.59 15.0907 140.11 16.392C139.64 17.6827 139.176 18.9093 138.718 20.072C138.27 21.2347 137.854 22.2427 137.47 23.096C137.128 23.16 136.659 23.192 136.062 23.192C135.806 23.192 135.555 23.1813 135.31 23.16C135.064 23.1387 134.856 23.1173 134.686 23.096C134.078 21.8373 133.486 20.4987 132.91 19.08C132.334 17.6507 131.779 16.1947 131.246 14.712C130.712 13.2293 130.211 11.768 129.742 10.328C129.283 8.888 128.862 7.528 128.478 6.248C128.616 6.20533 128.808 6.15733 129.054 6.104C129.299 6.04 129.56 5.976 129.838 5.912C130.115 5.83733 130.387 5.768 130.654 5.704C130.92 5.64 131.144 5.58133 131.326 5.528C131.496 6.21067 131.736 7.05333 132.046 8.056C132.355 9.048 132.696 10.104 133.07 11.224C133.454 12.344 133.838 13.448 134.222 14.536C134.616 15.6133 134.984 16.5947 135.326 17.48C135.667 18.3547 135.944 19.0427 136.158 19.544L135.934 19.592C136.211 18.9307 136.51 18.1573 136.83 17.272C137.15 16.376 137.48 15.416 137.822 14.392C138.174 13.368 138.515 12.3333 138.846 11.288C139.176 10.232 139.475 9.21333 139.742 8.232C140.008 7.24 140.232 6.344 140.414 5.544ZM160.843 19.432C160.629 19.7307 160.315 20.0773 159.899 20.472C159.483 20.856 158.965 21.2293 158.347 21.592C157.728 21.944 157.008 22.2373 156.187 22.472C155.365 22.7067 154.437 22.824 153.403 22.824C151.803 22.824 150.4 22.4987 149.195 21.848C147.989 21.1973 147.056 20.248 146.395 19C145.733 17.7413 145.403 16.2107 145.403 14.408C145.403 12.68 145.76 11.1813 146.475 9.912C147.2 8.64267 148.192 7.66133 149.451 6.968C150.709 6.27467 152.155 5.928 153.787 5.928C155.835 5.928 157.429 6.552 158.571 7.8C159.723 9.048 160.363 10.7227 160.491 12.824C160.512 13.1653 160.523 13.496 160.523 13.816C160.523 14.1253 160.507 14.4453 160.475 14.776C160.336 14.7653 160.048 14.7547 159.611 14.744C159.184 14.7227 158.683 14.7067 158.107 14.696C157.531 14.6747 156.949 14.6587 156.363 14.648C155.787 14.6267 155.291 14.616 154.875 14.616C153.797 14.616 152.693 14.6693 151.563 14.776C150.432 14.8827 149.424 15.0053 148.539 15.144C148.549 15.4213 148.576 15.6933 148.619 15.96C148.661 16.2267 148.715 16.4827 148.779 16.728C148.96 17.3787 149.291 17.944 149.771 18.424C150.251 18.8933 150.821 19.256 151.483 19.512C152.155 19.768 152.864 19.896 153.611 19.896C154.4 19.896 155.088 19.7787 155.675 19.544C156.261 19.3093 156.763 19.0213 157.179 18.68C157.605 18.3387 157.947 18.0133 158.203 17.704C158.469 17.3947 158.672 17.1653 158.811 17.016C158.875 17.0693 158.997 17.1867 159.179 17.368C159.371 17.5387 159.573 17.7467 159.787 17.992C160.011 18.2373 160.219 18.488 160.411 18.744C160.613 18.9893 160.757 19.2187 160.843 19.432ZM148.587 13C149.355 12.872 150.256 12.76 151.291 12.664C152.336 12.568 153.52 12.52 154.843 12.52C155.536 12.52 156.123 12.5307 156.603 12.552C157.093 12.5627 157.435 12.5787 157.627 12.6C157.627 12.248 157.584 11.8747 157.499 11.48C157.381 10.9467 157.168 10.4293 156.859 9.928C156.549 9.42667 156.128 9.01067 155.595 8.68C155.072 8.33867 154.411 8.168 153.611 8.168C152.693 8.168 151.856 8.36533 151.099 8.76C150.352 9.144 149.755 9.69867 149.307 10.424C148.859 11.1387 148.619 11.9973 148.587 13ZM177.395 22.92C176.51 22.9627 175.454 23 174.227 23.032C173.011 23.0747 171.763 23.096 170.483 23.096C169.075 23.096 167.688 23.0747 166.323 23.032C164.968 22.9893 163.79 22.9147 162.787 22.808L162.931 20.168C163.187 19.8267 163.582 19.352 164.115 18.744C164.659 18.136 165.278 17.4533 165.971 16.696C166.664 15.928 167.384 15.1387 168.131 14.328C168.878 13.5173 169.598 12.744 170.291 12.008C170.995 11.272 171.614 10.6267 172.147 10.072C172.68 9.51733 173.075 9.12267 173.331 8.888C173.182 8.87733 172.942 8.86667 172.611 8.856C172.291 8.84533 171.912 8.84 171.475 8.84C171.048 8.84 170.595 8.84 170.115 8.84C169.635 8.84 169.171 8.84 168.723 8.84C168.136 8.84 167.534 8.84533 166.915 8.856C166.296 8.86667 165.71 8.87733 165.155 8.888C164.611 8.89867 164.158 8.91467 163.795 8.936C163.443 8.94667 163.23 8.95733 163.155 8.968L163.283 6.392C163.539 6.392 163.923 6.38667 164.435 6.376C164.947 6.36533 165.55 6.35467 166.243 6.344C166.947 6.33333 167.71 6.32267 168.531 6.312C169.352 6.30133 170.195 6.296 171.059 6.296C172.04 6.296 173.064 6.30133 174.131 6.312C175.208 6.312 176.227 6.33333 177.187 6.376C177.198 6.41867 177.208 6.54667 177.219 6.76C177.24 6.96267 177.256 7.19733 177.267 7.464C177.288 7.73067 177.304 7.98133 177.315 8.216C177.326 8.44 177.331 8.6 177.331 8.696C176.979 9.00533 176.504 9.464 175.907 10.072C175.31 10.6693 174.648 11.3467 173.923 12.104C173.208 12.8613 172.472 13.6453 171.715 14.456C170.968 15.256 170.254 16.0347 169.571 16.792C168.899 17.5387 168.312 18.2 167.811 18.776C167.31 19.352 166.947 19.7893 166.723 20.088C167.011 20.1307 167.582 20.1627 168.435 20.184C169.299 20.2053 170.195 20.216 171.123 20.216C171.923 20.216 172.739 20.2053 173.571 20.184C174.414 20.1627 175.187 20.1307 175.891 20.088C176.595 20.0453 177.16 20.0027 177.587 19.96C177.587 20.056 177.582 20.2427 177.571 20.52C177.56 20.7973 177.544 21.1013 177.523 21.432C177.512 21.7627 177.496 22.0667 177.475 22.344C177.454 22.6213 177.427 22.8133 177.395 22.92ZM244.31 19.672C244.054 20.1947 243.622 20.7227 243.014 21.256C242.406 21.7787 241.648 22.2213 240.742 22.584C239.835 22.936 238.806 23.112 237.654 23.112C236.086 23.112 234.736 22.712 233.606 21.912C232.475 21.112 231.606 20.0507 230.998 18.728C230.39 17.3947 230.086 15.9387 230.086 14.36C230.086 12.632 230.384 11.1013 230.982 9.768C231.579 8.43467 232.454 7.38933 233.606 6.632C234.758 5.864 236.166 5.48 237.83 5.48C238.822 5.48 239.718 5.64533 240.518 5.976C241.318 6.296 242.006 6.73333 242.582 7.288C243.158 7.832 243.611 8.424 243.942 9.064L241.718 10.52C241.664 10.4027 241.563 10.2107 241.414 9.944C241.275 9.67733 241.056 9.4 240.758 9.112C240.47 8.81333 240.086 8.56267 239.606 8.36C239.136 8.15733 238.544 8.056 237.83 8.056C236.838 8.056 235.995 8.296 235.302 8.776C234.608 9.24533 234.08 9.90667 233.718 10.76C233.366 11.6027 233.19 12.5787 233.19 13.688C233.19 14.7547 233.339 15.7627 233.638 16.712C233.947 17.6507 234.438 18.4187 235.11 19.016C235.782 19.6133 236.672 19.912 237.782 19.912C238.454 19.912 239.046 19.8053 239.558 19.592C240.07 19.3787 240.507 19.128 240.87 18.84C241.232 18.552 241.515 18.2853 241.718 18.04C241.931 17.784 242.059 17.6133 242.102 17.528L244.31 19.672ZM255.116 23.496C252.321 23.496 250.257 22.7173 248.924 21.16C247.591 19.6027 246.924 17.3627 246.924 14.44C246.924 12.5947 247.265 11.0373 247.948 9.768C248.641 8.49867 249.601 7.53333 250.828 6.872C252.065 6.21067 253.505 5.88 255.148 5.88C256.887 5.88 258.321 6.28533 259.452 7.096C260.583 7.896 261.42 9.016 261.964 10.456C262.519 11.8853 262.796 13.5493 262.796 15.448C262.796 17.08 262.492 18.4987 261.884 19.704C261.276 20.8987 260.396 21.832 259.244 22.504C258.103 23.1653 256.727 23.496 255.116 23.496ZM254.988 20.632C255.852 20.632 256.593 20.472 257.212 20.152C257.831 19.832 258.332 19.4053 258.716 18.872C259.1 18.328 259.383 17.72 259.564 17.048C259.756 16.376 259.852 15.688 259.852 14.984C259.852 13.704 259.676 12.5627 259.324 11.56C258.972 10.5573 258.439 9.77333 257.724 9.208C257.009 8.632 256.097 8.344 254.988 8.344C253.9 8.344 252.988 8.60533 252.252 9.128C251.516 9.65067 250.961 10.3707 250.588 11.288C250.225 12.2053 250.044 13.256 250.044 14.44C250.044 16.264 250.465 17.752 251.308 18.904C252.151 20.056 253.377 20.632 254.988 20.632ZM276.954 7C277.114 6.95733 277.343 6.92 277.642 6.888C277.951 6.856 278.261 6.84 278.57 6.84C278.826 6.84 279.103 6.85067 279.402 6.872C279.711 6.88267 279.957 6.904 280.138 6.936C280.309 7.97067 280.453 9.02667 280.57 10.104C280.687 11.1813 280.746 12.2427 280.746 13.288C280.746 14.7173 280.623 16.0667 280.378 17.336C280.133 18.6053 279.727 19.7253 279.162 20.696C278.607 21.656 277.855 22.4133 276.906 22.968C275.967 23.5227 274.799 23.8 273.402 23.8C271.877 23.8 270.623 23.5013 269.642 22.904C268.661 22.296 267.898 21.4587 267.354 20.392C266.81 19.3147 266.426 18.0773 266.202 16.68C265.989 15.2827 265.882 13.7893 265.882 12.2C265.882 11.2293 265.914 10.248 265.978 9.256C266.042 8.264 266.111 7.29333 266.186 6.344C266.378 6.33333 266.618 6.328 266.906 6.328C267.205 6.328 267.471 6.33333 267.706 6.344C268.037 6.36533 268.362 6.39733 268.682 6.44C269.013 6.472 269.285 6.52 269.498 6.584C269.391 7.544 269.306 8.49333 269.242 9.432C269.178 10.3707 269.146 11.2773 269.146 12.152C269.146 14.0293 269.301 15.6187 269.61 16.92C269.93 18.2213 270.405 19.208 271.034 19.88C271.674 20.552 272.474 20.888 273.434 20.888C274.33 20.888 275.077 20.584 275.674 19.976C276.282 19.368 276.741 18.488 277.05 17.336C277.359 16.1733 277.514 14.76 277.514 13.096C277.514 12.1467 277.466 11.1547 277.37 10.12C277.274 9.07467 277.135 8.03467 276.954 7ZM284.326 30.024C284.496 28.4133 284.646 26.7013 284.774 24.888C284.912 23.0853 285.03 21.2667 285.126 19.432C285.232 17.5973 285.312 15.8373 285.366 14.152C285.43 12.4667 285.478 10.9307 285.51 9.544C285.542 8.14667 285.558 6.98933 285.558 6.072C285.984 5.944 286.486 5.85333 287.062 5.8C287.638 5.736 288.182 5.704 288.694 5.704C288.704 5.98133 288.71 6.37067 288.71 6.872C288.72 7.36267 288.726 7.8 288.726 8.184C288.992 7.88533 289.392 7.54933 289.926 7.176C290.47 6.792 291.131 6.456 291.91 6.168C292.699 5.88 293.568 5.736 294.518 5.736C296.619 5.736 298.219 6.408 299.318 7.752C300.427 9.096 300.982 10.9627 300.982 13.352C300.982 15.0267 300.694 16.488 300.118 17.736C299.552 18.9733 298.736 19.9333 297.67 20.616C296.603 21.2987 295.318 21.64 293.814 21.64C293.12 21.64 292.39 21.5387 291.622 21.336C290.864 21.1333 290.182 20.8933 289.574 20.616C288.966 20.328 288.544 20.0613 288.31 19.816C288.31 20.0507 288.288 20.4773 288.246 21.096C288.214 21.7147 288.171 22.4293 288.118 23.24C288.064 24.0613 288.006 24.8933 287.942 25.736C287.878 26.5787 287.814 27.3573 287.75 28.072C287.696 28.7867 287.638 29.3413 287.574 29.736C287.211 29.8 286.816 29.8533 286.39 29.896C285.974 29.9387 285.579 29.9707 285.206 29.992C284.832 30.0133 284.539 30.024 284.326 30.024ZM293.382 18.488C294.459 18.488 295.318 18.2693 295.958 17.832C296.608 17.3947 297.078 16.7707 297.366 15.96C297.654 15.1387 297.798 14.1627 297.798 13.032C297.798 11.5707 297.451 10.44 296.758 9.64C296.064 8.82933 295.046 8.424 293.702 8.424C292.88 8.424 292.123 8.57333 291.43 8.872C290.736 9.17067 290.155 9.50667 289.686 9.88C289.216 10.2533 288.886 10.5627 288.694 10.808C288.694 10.9893 288.683 11.3307 288.662 11.832C288.651 12.3333 288.635 12.8987 288.614 13.528C288.592 14.1573 288.571 14.76 288.55 15.336C288.539 15.9013 288.528 16.3387 288.518 16.648C288.742 16.84 289.072 17.0853 289.51 17.384C289.947 17.672 290.491 17.928 291.142 18.152C291.792 18.376 292.539 18.488 293.382 18.488ZM310.172 24.296C309.18 24.296 308.193 24.1573 307.212 23.88C306.23 23.6027 305.334 23.2347 304.524 22.776C303.724 22.3067 303.084 21.7893 302.604 21.224C302.678 21.0747 302.785 20.872 302.924 20.616C303.062 20.36 303.222 20.0933 303.404 19.816C303.585 19.528 303.766 19.2667 303.948 19.032C304.129 18.7867 304.289 18.6 304.428 18.472C304.886 18.984 305.436 19.48 306.076 19.96C306.716 20.4293 307.404 20.8133 308.14 21.112C308.876 21.4 309.612 21.544 310.348 21.544C311.052 21.544 311.686 21.4427 312.252 21.24C312.828 21.0267 313.281 20.7227 313.612 20.328C313.953 19.9333 314.124 19.4587 314.124 18.904C314.124 18.264 313.921 17.7147 313.516 17.256C313.11 16.7867 312.566 16.376 311.884 16.024C311.201 15.6613 310.449 15.3307 309.628 15.032C308.636 14.6693 307.729 14.2747 306.908 13.848C306.097 13.4107 305.446 12.8667 304.956 12.216C304.476 11.5653 304.236 10.7387 304.236 9.736C304.236 8.712 304.524 7.85867 305.1 7.176C305.686 6.49333 306.454 5.976 307.404 5.624C308.364 5.272 309.398 5.096 310.508 5.096C311.745 5.096 312.881 5.256 313.916 5.576C314.961 5.88533 315.761 6.248 316.316 6.664C316.273 6.84533 316.182 7.08533 316.044 7.384C315.905 7.672 315.745 7.96533 315.564 8.264C315.382 8.56267 315.196 8.83467 315.004 9.08C314.492 8.73867 313.868 8.41333 313.132 8.104C312.396 7.79467 311.596 7.64 310.732 7.64C310.156 7.64 309.601 7.70933 309.068 7.848C308.534 7.976 308.097 8.19467 307.756 8.504C307.414 8.81333 307.244 9.23467 307.244 9.768C307.244 10.2267 307.409 10.6373 307.74 11C308.081 11.3627 308.54 11.688 309.116 11.976C309.692 12.2533 310.342 12.52 311.068 12.776C311.942 13.0747 312.753 13.4107 313.5 13.784C314.246 14.1467 314.892 14.568 315.436 15.048C315.99 15.5173 316.422 16.0613 316.732 16.68C317.041 17.288 317.196 17.976 317.196 18.744C317.196 19.9707 316.881 20.9947 316.252 21.816C315.622 22.6373 314.78 23.256 313.724 23.672C312.668 24.088 311.484 24.296 310.172 24.296Z" fill="#132F63"/>
<path d="M197.29 18.824C197.642 18.824 198 18.8347 198.362 18.856C198.725 18.8667 199.066 18.888 199.386 18.92C199.706 18.952 199.962 18.984 200.154 19.016C200.154 19.1653 200.144 19.416 200.122 19.768C200.112 20.1093 200.096 20.4827 200.074 20.888C200.053 21.2933 200.026 21.6773 199.994 22.04C199.962 22.4027 199.93 22.6747 199.898 22.856C199.621 22.856 199.146 22.8667 198.474 22.888C197.813 22.8987 197.056 22.9147 196.202 22.936C195.36 22.9573 194.517 22.9787 193.674 23C192.842 23.032 192.101 23.064 191.45 23.096C190.81 23.128 190.373 23.16 190.138 23.192C190.138 22.904 190.138 22.5147 190.138 22.024C190.138 21.5333 190.138 21.0427 190.138 20.552C190.149 20.0613 190.16 19.6773 190.17 19.4C190.341 19.3573 190.56 19.3147 190.826 19.272C191.104 19.2293 191.386 19.192 191.674 19.16C191.973 19.1173 192.25 19.0853 192.506 19.064C192.762 19.032 192.96 19.0107 193.098 19C193.098 18.744 193.098 18.3333 193.098 17.768C193.109 17.192 193.12 16.5253 193.13 15.768C193.152 15 193.168 14.2053 193.178 13.384C193.2 12.552 193.221 11.752 193.242 10.984C193.264 10.2053 193.285 9.51733 193.306 8.92C193.328 8.312 193.344 7.85867 193.354 7.56C193.237 7.656 193.072 7.816 192.858 8.04C192.656 8.25333 192.437 8.49333 192.202 8.76C191.978 9.016 191.77 9.25067 191.578 9.464C191.386 9.67733 191.258 9.82667 191.194 9.912C190.885 9.56 190.517 9.04267 190.09 8.36C189.664 7.67733 189.306 7.05333 189.018 6.488C189.178 6.31733 189.44 6.05067 189.802 5.688C190.176 5.31467 190.597 4.89867 191.066 4.44C191.536 3.98133 192.005 3.53333 192.474 3.096C192.944 2.65867 193.349 2.29067 193.69 1.992C193.989 1.992 194.357 2.00267 194.794 2.024C195.242 2.03467 195.685 2.056 196.122 2.088C196.57 2.12 196.928 2.16267 197.194 2.216C197.216 2.39733 197.242 2.78133 197.274 3.368C197.306 3.944 197.338 4.68533 197.37 5.592C197.402 6.488 197.424 7.512 197.434 8.664C197.456 9.816 197.466 11.064 197.466 12.408C197.466 13.4107 197.456 14.456 197.434 15.544C197.413 16.6213 197.365 17.7147 197.29 18.824ZM210.356 23.512C209.065 23.512 207.966 23.192 207.06 22.552C206.153 21.912 205.412 21.048 204.836 19.96C204.26 18.8613 203.838 17.6133 203.572 16.216C203.316 14.8187 203.188 13.3573 203.188 11.832C203.188 9.96533 203.412 8.25867 203.86 6.712C204.318 5.15467 205.07 3.912 206.116 2.984C207.172 2.056 208.585 1.592 210.356 1.592C211.636 1.592 212.718 1.87467 213.604 2.44C214.5 2.99467 215.214 3.77867 215.748 4.792C216.281 5.80533 216.67 6.98933 216.916 8.344C217.161 9.69867 217.284 11.1653 217.284 12.744C217.284 14.184 217.145 15.5547 216.868 16.856C216.601 18.1467 216.185 19.2933 215.62 20.296C215.054 21.288 214.334 22.072 213.46 22.648C212.585 23.224 211.55 23.512 210.356 23.512ZM210.34 18.696C210.809 18.696 211.198 18.5307 211.508 18.2C211.828 17.8693 212.089 17.4 212.292 16.792C212.505 16.184 212.66 15.4693 212.756 14.648C212.852 13.816 212.9 12.9093 212.9 11.928C212.9 11.2027 212.852 10.4827 212.756 9.768C212.66 9.05333 212.51 8.40267 212.308 7.816C212.116 7.22933 211.854 6.76 211.524 6.408C211.204 6.056 210.809 5.88 210.34 5.88C209.87 5.88 209.47 6.06133 209.14 6.424C208.809 6.78667 208.542 7.26133 208.34 7.848C208.148 8.43467 208.004 9.08 207.908 9.784C207.812 10.4773 207.764 11.1547 207.764 11.816C207.764 13.544 207.87 14.9093 208.084 15.912C208.297 16.9147 208.596 17.6293 208.98 18.056C209.374 18.4827 209.828 18.696 210.34 18.696Z" fill="#036913"/>
</svg>


