<svg width="345" height="420" viewBox="0 0 345 182" fill="none" xmlns="http://www.w3.org/2000/svg">
<path d="M129.453 32.071C126.527 32.071 124.133 31.441 122.271 30.181C120.423 28.921 119.058 27.206 118.176 25.036C117.308 22.866 116.874 20.423 116.874 17.707C116.874 14.907 117.364 12.422 118.344 10.252C119.338 8.082 120.766 6.381 122.628 5.149C124.504 3.903 126.779 3.28 129.453 3.28C131.679 3.28 133.59 3.651 135.186 4.393C136.782 5.135 138.084 6.164 139.092 7.48C140.114 8.796 140.863 10.322 141.339 12.058C141.815 13.794 142.053 15.67 142.053 17.686C142.053 19.576 141.808 21.382 141.318 23.104C140.842 24.826 140.093 26.359 139.071 27.703C138.063 29.047 136.761 30.111 135.165 30.895C133.583 31.679 131.679 32.071 129.453 32.071ZM129.516 25.351C130.944 25.351 132.134 24.959 133.086 24.175C134.052 23.391 134.773 22.369 135.249 21.109C135.725 19.835 135.963 18.477 135.963 17.035C135.963 15.971 135.858 14.949 135.648 13.969C135.438 12.975 135.102 12.093 134.64 11.323C134.178 10.553 133.555 9.944 132.771 9.496C131.987 9.048 131.021 8.824 129.873 8.824C128.571 8.824 127.451 9.216 126.513 10C125.575 10.784 124.847 11.841 124.329 13.171C123.825 14.487 123.573 15.964 123.573 17.602C123.573 19.058 123.762 20.374 124.14 21.55C124.532 22.712 125.162 23.636 126.03 24.322C126.912 25.008 128.074 25.351 129.516 25.351ZM156.533 31.462C152.823 31.462 150.03 30.482 148.154 28.522C146.278 26.548 145.34 23.685 145.34 19.933C145.34 17.427 145.823 15.348 146.789 13.696C147.755 12.03 149.092 10.777 150.8 9.937C152.522 9.097 154.51 8.677 156.764 8.677C159.06 8.677 160.964 9.202 162.476 10.252C164.002 11.302 165.143 12.751 165.899 14.599C166.655 16.447 167.033 18.582 167.033 21.004C167.033 23.118 166.627 24.959 165.815 26.527C165.003 28.095 163.813 29.313 162.245 30.181C160.691 31.035 158.787 31.462 156.533 31.462ZM156.302 25.435C157.072 25.435 157.751 25.302 158.339 25.036C158.941 24.77 159.445 24.392 159.851 23.902C160.271 23.398 160.586 22.81 160.796 22.138C161.006 21.466 161.111 20.731 161.111 19.933C161.111 18.687 160.929 17.588 160.565 16.636C160.215 15.67 159.69 14.921 158.99 14.389C158.304 13.843 157.45 13.57 156.428 13.57C155.322 13.57 154.419 13.85 153.719 14.41C153.019 14.97 152.501 15.705 152.165 16.615C151.843 17.511 151.682 18.47 151.682 19.492C151.682 21.214 152.074 22.635 152.858 23.755C153.656 24.875 154.804 25.435 156.302 25.435ZM169.676 40.408C169.844 38.126 169.991 35.725 170.117 33.205C170.257 30.685 170.369 28.186 170.453 25.708C170.537 23.23 170.607 20.899 170.663 18.715C170.733 16.531 170.775 14.62 170.789 12.982C170.817 11.33 170.831 10.084 170.831 9.244C171.699 8.964 172.7 8.768 173.834 8.656C174.968 8.53 176.067 8.467 177.131 8.467C177.173 8.915 177.208 9.447 177.236 10.063C177.264 10.665 177.278 11.218 177.278 11.722C177.544 11.372 178.006 10.945 178.664 10.441C179.322 9.923 180.148 9.468 181.142 9.076C182.136 8.684 183.277 8.488 184.565 8.488C187.407 8.488 189.507 9.391 190.865 11.197C192.237 12.989 192.923 15.488 192.923 18.694C192.923 20.948 192.496 22.894 191.642 24.532C190.788 26.17 189.626 27.43 188.156 28.312C186.686 29.18 185.006 29.614 183.116 29.614C182.262 29.614 181.394 29.509 180.512 29.299C179.644 29.075 178.867 28.802 178.181 28.48C177.509 28.144 177.047 27.822 176.795 27.514C176.795 27.85 176.774 28.41 176.732 29.194C176.704 29.978 176.669 30.867 176.627 31.861C176.585 32.869 176.529 33.891 176.459 34.927C176.403 35.963 176.347 36.915 176.291 37.783C176.235 38.665 176.179 39.351 176.123 39.841C175.381 39.995 174.59 40.107 173.75 40.177C172.924 40.261 172.147 40.317 171.419 40.345C170.691 40.387 170.11 40.408 169.676 40.408ZM182.108 23.104C183.074 23.104 183.886 22.908 184.544 22.516C185.202 22.124 185.699 21.564 186.035 20.836C186.371 20.094 186.539 19.212 186.539 18.19C186.539 16.818 186.217 15.761 185.573 15.019C184.943 14.277 183.921 13.906 182.507 13.906C181.653 13.906 180.876 14.039 180.176 14.305C179.476 14.571 178.881 14.893 178.391 15.271C177.915 15.635 177.551 15.978 177.299 16.3C177.299 16.496 177.292 16.811 177.278 17.245C177.264 17.665 177.25 18.134 177.236 18.652C177.222 19.156 177.208 19.632 177.194 20.08C177.18 20.528 177.173 20.878 177.173 21.13C177.411 21.368 177.74 21.641 178.16 21.949C178.58 22.257 179.112 22.53 179.756 22.768C180.4 22.992 181.184 23.104 182.108 23.104ZM204.202 32.659C202.564 32.659 201.059 32.456 199.687 32.05C198.329 31.658 197.174 31.196 196.222 30.664C195.284 30.118 194.605 29.628 194.185 29.194C194.269 28.928 194.43 28.543 194.668 28.039C194.92 27.521 195.214 26.961 195.55 26.359C195.886 25.757 196.222 25.197 196.558 24.679C196.894 24.161 197.195 23.776 197.461 23.524C198.133 24.098 198.861 24.665 199.645 25.225C200.429 25.771 201.234 26.219 202.06 26.569C202.886 26.919 203.656 27.094 204.37 27.094C204.93 27.094 205.434 27.024 205.882 26.884C206.33 26.73 206.68 26.506 206.932 26.212C207.198 25.918 207.331 25.554 207.331 25.12C207.331 24.616 207.086 24.133 206.596 23.671C206.12 23.195 205.504 22.747 204.748 22.327C203.992 21.907 203.201 21.529 202.375 21.193C201.241 20.731 200.184 20.192 199.204 19.576C198.224 18.946 197.433 18.176 196.831 17.266C196.229 16.342 195.928 15.194 195.928 13.822C195.928 12.422 196.341 11.246 197.167 10.294C197.993 9.342 199.071 8.621 200.401 8.131C201.745 7.641 203.18 7.396 204.706 7.396C206.148 7.396 207.611 7.599 209.095 8.005C210.579 8.397 211.79 8.964 212.728 9.706C212.644 9.972 212.462 10.378 212.182 10.924C211.916 11.47 211.587 12.058 211.195 12.688C210.817 13.304 210.411 13.871 209.977 14.389C209.403 13.899 208.682 13.43 207.814 12.982C206.946 12.534 206.036 12.31 205.084 12.31C204.608 12.31 204.132 12.359 203.656 12.457C203.194 12.555 202.809 12.73 202.501 12.982C202.207 13.234 202.06 13.577 202.06 14.011C202.06 14.431 202.221 14.809 202.543 15.145C202.865 15.467 203.334 15.782 203.95 16.09C204.58 16.398 205.315 16.72 206.155 17.056C206.995 17.392 207.849 17.791 208.717 18.253C209.585 18.701 210.383 19.24 211.111 19.87C211.853 20.5 212.448 21.235 212.896 22.075C213.344 22.901 213.568 23.853 213.568 24.931C213.568 26.653 213.141 28.088 212.287 29.236C211.433 30.384 210.292 31.238 208.864 31.798C207.45 32.372 205.896 32.659 204.202 32.659ZM224.01 21.823C223.604 21.823 223.037 21.816 222.309 21.802C221.581 21.774 220.846 21.739 220.104 21.697C219.376 21.641 218.781 21.585 218.319 21.529C218.235 20.213 218.158 18.827 218.088 17.371C218.018 15.901 217.955 14.417 217.899 12.919C217.857 11.407 217.822 9.902 217.794 8.404C217.766 6.906 217.745 5.457 217.731 4.057C217.731 2.643 217.745 1.313 217.773 0.066999L225.522 0.403C225.452 0.962999 225.361 1.894 225.249 3.196C225.137 4.484 225.011 5.968 224.871 7.648C224.745 9.328 224.619 11.057 224.493 12.835C224.381 14.613 224.276 16.293 224.178 17.875C224.094 19.443 224.038 20.759 224.01 21.823ZM221.427 31.546C220.139 31.546 219.061 31.154 218.193 30.37C217.339 29.586 216.912 28.585 216.912 27.367C216.912 26.163 217.346 25.218 218.214 24.532C219.096 23.832 220.139 23.482 221.343 23.482C222.561 23.482 223.597 23.846 224.451 24.574C225.319 25.302 225.753 26.219 225.753 27.325C225.753 28.613 225.333 29.642 224.493 30.412C223.667 31.168 222.645 31.546 221.427 31.546ZM21.2788 73.441C20.4808 73.441 19.6968 73.413 18.9268 73.357C18.1708 73.315 17.5758 73.266 17.1418 73.21C16.6098 72.104 16.0148 70.648 15.3568 68.842C14.6988 67.022 14.0268 65.041 13.3408 62.899C12.6548 60.743 11.9968 58.573 11.3668 56.389C10.7508 54.191 10.1978 52.14 9.70784 50.236C9.21784 48.318 8.83984 46.715 8.57384 45.427C9.25984 45.217 10.0858 45.042 11.0518 44.902C12.0318 44.748 12.9908 44.636 13.9288 44.566C14.8808 44.482 15.6508 44.44 16.2388 44.44C16.2668 44.664 16.3648 45.189 16.5328 46.015C16.7148 46.827 16.9388 47.856 17.2048 49.102C17.4848 50.334 17.7928 51.713 18.1288 53.239C18.4648 54.765 18.8148 56.361 19.1788 58.027C19.5568 59.679 19.9208 61.338 20.2708 63.004C20.6348 64.67 20.9708 66.245 21.2788 67.729L20.7328 67.855C20.9988 66.847 21.2718 65.615 21.5518 64.159C21.8318 62.689 22.1118 61.114 22.3918 59.434C22.6858 57.754 22.9588 56.081 23.2108 54.415C23.4628 52.749 23.6938 51.202 23.9038 49.774C24.1138 48.346 24.2748 47.149 24.3868 46.183C24.5128 45.217 24.5898 44.608 24.6178 44.356C25.7378 44.37 26.9838 44.482 28.3558 44.692C29.7418 44.888 30.9808 45.175 32.0728 45.553C31.5828 47.975 31.0368 50.432 30.4348 52.924C29.8328 55.402 29.2308 57.796 28.6288 60.106C28.0268 62.402 27.4668 64.488 26.9488 66.364C26.4448 68.24 26.0108 69.794 25.6468 71.026C25.2968 72.244 25.0798 73.014 24.9958 73.336C24.5898 73.378 24.0508 73.406 23.3788 73.42C22.7208 73.434 22.0208 73.441 21.2788 73.441ZM45.3803 73.462C41.6703 73.462 38.8773 72.482 37.0013 70.522C35.1253 68.548 34.1873 65.685 34.1873 61.933C34.1873 59.427 34.6703 57.348 35.6363 55.696C36.6023 54.03 37.9393 52.777 39.6473 51.937C41.3693 51.097 43.3573 50.677 45.6113 50.677C47.9073 50.677 49.8113 51.202 51.3233 52.252C52.8493 53.302 53.9903 54.751 54.7463 56.599C55.5023 58.447 55.8803 60.582 55.8803 63.004C55.8803 65.118 55.4743 66.959 54.6623 68.527C53.8503 70.095 52.6603 71.313 51.0923 72.181C49.5383 73.035 47.6343 73.462 45.3803 73.462ZM45.1493 67.435C45.9193 67.435 46.5983 67.302 47.1863 67.036C47.7883 66.77 48.2923 66.392 48.6983 65.902C49.1183 65.398 49.4333 64.81 49.6433 64.138C49.8533 63.466 49.9583 62.731 49.9583 61.933C49.9583 60.687 49.7763 59.588 49.4123 58.636C49.0623 57.67 48.5373 56.921 47.8373 56.389C47.1513 55.843 46.2973 55.57 45.2753 55.57C44.1693 55.57 43.2663 55.85 42.5663 56.41C41.8663 56.97 41.3483 57.705 41.0123 58.615C40.6903 59.511 40.5293 60.47 40.5293 61.492C40.5293 63.214 40.9213 64.635 41.7053 65.755C42.5033 66.875 43.6513 67.435 45.1493 67.435ZM72.8036 52.462C73.1536 52.336 73.6506 52.245 74.2946 52.189C74.9526 52.119 75.5896 52.084 76.2056 52.084C76.7236 52.084 77.2976 52.105 77.9276 52.147C78.5576 52.189 79.0686 52.238 79.4606 52.294C79.6426 53.428 79.7826 54.576 79.8807 55.738C79.9787 56.886 80.0276 58.02 80.0276 59.14C80.0276 61.198 79.8456 63.137 79.4816 64.957C79.1316 66.777 78.5506 68.38 77.7386 69.766C76.9266 71.152 75.8416 72.237 74.4836 73.021C73.1256 73.819 71.4526 74.218 69.4646 74.218C67.3506 74.218 65.6076 73.805 64.2356 72.979C62.8636 72.139 61.7926 70.977 61.0226 69.493C60.2526 67.995 59.7136 66.252 59.4056 64.264C59.1116 62.262 58.9646 60.106 58.9646 57.796C58.9646 56.774 58.9856 55.738 59.0276 54.688C59.0836 53.624 59.1536 52.567 59.2376 51.517C59.6016 51.489 60.0776 51.468 60.6656 51.454C61.2676 51.426 61.8136 51.419 62.3036 51.433C63.0036 51.433 63.7036 51.475 64.4036 51.559C65.1176 51.629 65.6776 51.727 66.0836 51.853C65.9856 52.805 65.9016 53.834 65.8316 54.94C65.7616 56.032 65.7266 57.131 65.7266 58.237C65.7266 60.085 65.8456 61.751 66.0836 63.235C66.3356 64.719 66.7486 65.895 67.3226 66.763C67.8966 67.631 68.6736 68.065 69.6536 68.065C70.5776 68.065 71.3126 67.673 71.8586 66.889C72.4186 66.105 72.8176 65.055 73.0556 63.739C73.3076 62.409 73.4336 60.925 73.4336 59.287C73.4336 58.055 73.3706 56.844 73.2446 55.654C73.1326 54.45 72.9856 53.386 72.8036 52.462ZM92.4751 74.659C90.8371 74.659 89.3321 74.456 87.9601 74.05C86.6021 73.658 85.4471 73.196 84.4951 72.664C83.5571 72.118 82.8781 71.628 82.4581 71.194C82.5421 70.928 82.7031 70.543 82.9411 70.039C83.1931 69.521 83.4871 68.961 83.8231 68.359C84.1591 67.757 84.4951 67.197 84.8311 66.679C85.1671 66.161 85.4681 65.776 85.7341 65.524C86.4061 66.098 87.1341 66.665 87.9181 67.225C88.7021 67.771 89.5071 68.219 90.3331 68.569C91.1591 68.919 91.9291 69.094 92.6431 69.094C93.2031 69.094 93.7071 69.024 94.1551 68.884C94.6031 68.73 94.9531 68.506 95.2051 68.212C95.4711 67.918 95.6041 67.554 95.6041 67.12C95.6041 66.616 95.3591 66.133 94.8691 65.671C94.3931 65.195 93.7771 64.747 93.0211 64.327C92.2651 63.907 91.4741 63.529 90.6481 63.193C89.5141 62.731 88.4571 62.192 87.4771 61.576C86.4971 60.946 85.7061 60.176 85.1041 59.266C84.5021 58.342 84.2011 57.194 84.2011 55.822C84.2011 54.422 84.6141 53.246 85.4401 52.294C86.2661 51.342 87.3441 50.621 88.6741 50.131C90.0181 49.641 91.4531 49.396 92.9791 49.396C94.4211 49.396 95.8841 49.599 97.3681 50.005C98.8521 50.397 100.063 50.964 101.001 51.706C100.917 51.972 100.735 52.378 100.455 52.924C100.189 53.47 99.8601 54.058 99.4681 54.688C99.0901 55.304 98.6841 55.871 98.2501 56.389C97.6761 55.899 96.9551 55.43 96.0871 54.982C95.2191 54.534 94.3091 54.31 93.3571 54.31C92.8811 54.31 92.4051 54.359 91.9291 54.457C91.4671 54.555 91.0821 54.73 90.7741 54.982C90.4801 55.234 90.3331 55.577 90.3331 56.011C90.3331 56.431 90.4941 56.809 90.8161 57.145C91.1381 57.467 91.6071 57.782 92.2231 58.09C92.8531 58.398 93.5881 58.72 94.4281 59.056C95.2681 59.392 96.1221 59.791 96.9901 60.253C97.8581 60.701 98.6561 61.24 99.3841 61.87C100.126 62.5 100.721 63.235 101.169 64.075C101.617 64.901 101.841 65.853 101.841 66.931C101.841 68.653 101.414 70.088 100.56 71.236C99.7061 72.384 98.5651 73.238 97.1371 73.798C95.7231 74.372 94.1691 74.659 92.4751 74.659ZM126.547 73.357C124.825 73.357 123.25 73.126 121.822 72.664C120.394 72.188 119.253 71.425 118.399 70.375C117.559 69.311 117.139 67.904 117.139 66.154C117.139 64.404 117.629 62.997 118.609 61.933C119.603 60.855 120.905 60.078 122.515 59.602C124.139 59.112 125.882 58.867 127.744 58.867C128.472 58.867 129.172 58.923 129.844 59.035C130.516 59.147 131.104 59.28 131.608 59.434C132.126 59.588 132.497 59.735 132.721 59.875C132.707 59.511 132.63 59.126 132.49 58.72C132.364 58.314 132.182 57.971 131.944 57.691C131.524 57.117 130.95 56.641 130.222 56.263C129.508 55.871 128.563 55.675 127.387 55.675C126.197 55.675 125.147 55.948 124.237 56.494C123.327 57.026 122.634 57.628 122.158 58.3L117.034 55.003C117.664 54.107 118.511 53.323 119.575 52.651C120.653 51.979 121.871 51.454 123.229 51.076C124.601 50.698 126.036 50.509 127.534 50.509C130.012 50.509 132.021 50.915 133.561 51.727C135.101 52.539 136.242 53.673 136.984 55.129C137.334 55.829 137.621 56.599 137.845 57.439C138.069 58.279 138.223 59.245 138.307 60.337C138.363 61.275 138.405 62.15 138.433 62.962C138.461 63.774 138.489 64.544 138.517 65.272C138.545 66.336 138.664 67.029 138.874 67.351C139.084 67.673 139.385 67.834 139.777 67.834C140.141 67.834 140.463 67.736 140.743 67.54C141.037 67.33 141.226 67.057 141.31 66.721L143.494 70.9C143.34 71.544 142.906 72.083 142.192 72.517C141.478 72.951 140.575 73.168 139.483 73.168C138.685 73.168 137.929 73.035 137.215 72.769C136.501 72.489 135.913 72.118 135.451 71.656C134.989 71.18 134.716 70.641 134.632 70.039C134.408 70.571 133.939 71.096 133.225 71.614C132.511 72.118 131.594 72.538 130.474 72.874C129.354 73.196 128.045 73.357 126.547 73.357ZM127.954 68.422C128.612 68.422 129.284 68.324 129.97 68.128C130.67 67.918 131.3 67.659 131.86 67.351C132.434 67.043 132.875 66.728 133.183 66.406C133.155 65.972 133.127 65.524 133.099 65.062C133.085 64.6 133.085 64.208 133.099 63.886C132.791 63.76 132.203 63.627 131.335 63.487C130.481 63.333 129.585 63.256 128.647 63.256C127.793 63.256 126.995 63.347 126.253 63.529C125.511 63.711 124.902 63.991 124.426 64.369C123.964 64.747 123.733 65.237 123.733 65.839C123.733 66.483 123.908 66.994 124.258 67.372C124.608 67.75 125.098 68.023 125.728 68.191C126.358 68.345 127.1 68.422 127.954 68.422ZM155.918 50.089C156.912 50.257 157.843 50.453 158.711 50.677C159.579 50.901 160.3 51.097 160.874 51.265C161.462 51.433 161.819 51.545 161.945 51.601C161.665 52.721 161.329 53.974 160.937 55.36C160.559 56.732 160.132 58.174 159.656 59.686C159.194 61.184 158.704 62.696 158.186 64.222C157.668 65.734 157.136 67.211 156.59 68.653C156.058 70.081 155.533 71.397 155.015 72.601C154.273 72.727 153.363 72.79 152.285 72.79C151.753 72.79 151.235 72.769 150.731 72.727C150.241 72.685 149.821 72.643 149.471 72.601C148.743 71.075 148.036 69.472 147.35 67.792C146.664 66.098 145.999 64.355 145.355 62.563C144.711 60.771 144.088 58.944 143.486 57.082C142.884 55.206 142.296 53.33 141.722 51.454C141.932 51.412 142.275 51.342 142.751 51.244C143.241 51.132 143.773 51.006 144.347 50.866C144.935 50.726 145.509 50.586 146.069 50.446C146.629 50.292 147.091 50.166 147.455 50.068C147.665 50.908 147.938 51.902 148.274 53.05C148.61 54.184 148.974 55.374 149.366 56.62C149.772 57.852 150.171 59.049 150.563 60.211C150.955 61.359 151.305 62.381 151.613 63.277C151.935 64.173 152.18 64.838 152.348 65.272L152.096 65.377C152.348 64.579 152.607 63.746 152.873 62.878C153.139 61.996 153.405 61.072 153.671 60.106C153.937 59.126 154.196 58.104 154.448 57.04C154.714 55.976 154.966 54.863 155.204 53.701C155.456 52.539 155.694 51.335 155.918 50.089ZM184.726 69.241C184.334 69.717 183.844 70.186 183.256 70.648C182.668 71.11 181.961 71.53 181.135 71.908C180.323 72.272 179.392 72.566 178.342 72.79C177.292 73 176.116 73.105 174.814 73.105C172.7 73.105 170.824 72.706 169.186 71.908C167.548 71.096 166.267 69.899 165.343 68.317C164.433 66.721 163.978 64.74 163.978 62.374C163.978 60.008 164.454 57.95 165.406 56.2C166.358 54.436 167.688 53.071 169.396 52.105C171.104 51.125 173.099 50.635 175.381 50.635C178.265 50.635 180.533 51.44 182.185 53.05C183.851 54.646 184.719 56.858 184.789 59.686C184.803 60.204 184.796 60.673 184.768 61.093C184.74 61.513 184.684 61.961 184.6 62.437C184.39 62.423 183.942 62.409 183.256 62.395C182.57 62.381 181.793 62.367 180.925 62.353C180.071 62.325 179.259 62.304 178.489 62.29C177.733 62.276 177.173 62.269 176.809 62.269C175.591 62.269 174.408 62.325 173.26 62.437C172.126 62.549 171.174 62.668 170.404 62.794C170.404 63.046 170.418 63.298 170.446 63.55C170.488 63.788 170.544 64.019 170.614 64.243C170.796 64.817 171.111 65.307 171.559 65.713C172.021 66.119 172.567 66.434 173.197 66.658C173.841 66.868 174.52 66.973 175.234 66.973C175.878 66.973 176.466 66.896 176.998 66.742C177.544 66.574 178.041 66.357 178.489 66.091C178.937 65.825 179.343 65.538 179.707 65.23C180.085 64.908 180.435 64.593 180.757 64.285C180.841 64.355 181.058 64.565 181.408 64.915C181.758 65.251 182.15 65.671 182.584 66.175C183.018 66.665 183.431 67.183 183.823 67.729C184.215 68.275 184.516 68.779 184.726 69.241ZM170.635 58.867C171.265 58.769 172.042 58.678 172.966 58.594C173.89 58.51 174.961 58.468 176.179 58.468C176.837 58.468 177.418 58.475 177.922 58.489C178.44 58.503 178.804 58.517 179.014 58.531C179.014 58.237 178.972 57.915 178.888 57.565C178.776 57.089 178.552 56.634 178.216 56.2C177.894 55.766 177.474 55.416 176.956 55.15C176.452 54.884 175.843 54.751 175.129 54.751C174.233 54.751 173.449 54.947 172.777 55.339C172.119 55.731 171.608 56.242 171.244 56.872C170.88 57.502 170.677 58.167 170.635 58.867ZM206.571 72.937C205.465 72.993 204.072 73.049 202.392 73.105C200.712 73.161 198.969 73.189 197.163 73.189C195.301 73.189 193.474 73.154 191.682 73.084C189.89 73.028 188.364 72.916 187.104 72.748L187.398 67.981C187.692 67.575 188.091 67.071 188.595 66.469C189.099 65.867 189.673 65.195 190.317 64.453C190.975 63.711 191.668 62.948 192.396 62.164C193.124 61.366 193.852 60.582 194.58 59.812C195.322 59.042 196.022 58.321 196.68 57.649C197.352 56.963 197.954 56.368 198.486 55.864C198.234 55.878 197.821 55.892 197.247 55.906C196.673 55.906 196.022 55.913 195.294 55.927C194.58 55.941 193.859 55.948 193.131 55.948C192.417 55.948 191.773 55.948 191.199 55.948C190.821 55.948 190.429 55.955 190.023 55.969C189.617 55.969 189.239 55.976 188.889 55.99C188.553 55.99 188.266 55.99 188.028 55.99C187.804 55.99 187.657 55.997 187.587 56.011L187.86 50.929C188.322 50.943 188.931 50.957 189.687 50.971C190.457 50.985 191.304 50.999 192.228 51.013C193.166 51.027 194.111 51.041 195.063 51.055C196.015 51.055 196.911 51.055 197.751 51.055C199.179 51.055 200.663 51.062 202.203 51.076C203.743 51.076 205.087 51.083 206.235 51.097C206.263 51.195 206.284 51.44 206.298 51.832C206.326 52.224 206.347 52.672 206.361 53.176C206.389 53.68 206.403 54.149 206.403 54.583C206.417 55.017 206.424 55.332 206.424 55.528C205.92 55.976 205.325 56.543 204.639 57.229C203.967 57.901 203.253 58.629 202.497 59.413C201.741 60.197 200.978 60.995 200.208 61.807C199.452 62.619 198.738 63.396 198.066 64.138C197.408 64.88 196.827 65.545 196.323 66.133C195.819 66.707 195.441 67.155 195.189 67.477C195.511 67.519 196.092 67.547 196.932 67.561C197.772 67.561 198.528 67.561 199.2 67.561C200.082 67.561 201.006 67.54 201.972 67.498C202.938 67.456 203.848 67.407 204.702 67.351C205.57 67.295 206.284 67.239 206.844 67.183C206.844 67.337 206.837 67.68 206.823 68.212C206.809 68.744 206.788 69.346 206.76 70.018C206.732 70.676 206.697 71.285 206.655 71.845C206.627 72.391 206.599 72.755 206.571 72.937ZM222.75 82.408C222.918 80.126 223.065 77.725 223.191 75.205C223.331 72.685 223.443 70.186 223.527 67.708C223.611 65.23 223.681 62.899 223.737 60.715C223.807 58.531 223.849 56.62 223.863 54.982C223.891 53.33 223.905 52.084 223.905 51.244C224.773 50.964 225.774 50.768 226.908 50.656C228.042 50.53 229.141 50.467 230.205 50.467C230.247 50.915 230.282 51.447 230.31 52.063C230.338 52.665 230.352 53.218 230.352 53.722C230.618 53.372 231.08 52.945 231.738 52.441C232.396 51.923 233.222 51.468 234.216 51.076C235.21 50.684 236.351 50.488 237.639 50.488C240.481 50.488 242.581 51.391 243.939 53.197C245.311 54.989 245.997 57.488 245.997 60.694C245.997 62.948 245.57 64.894 244.716 66.532C243.862 68.17 242.7 69.43 241.23 70.312C239.76 71.18 238.08 71.614 236.19 71.614C235.336 71.614 234.468 71.509 233.586 71.299C232.718 71.075 231.941 70.802 231.255 70.48C230.583 70.144 230.121 69.822 229.869 69.514C229.869 69.85 229.848 70.41 229.806 71.194C229.778 71.978 229.743 72.867 229.701 73.861C229.659 74.869 229.603 75.891 229.533 76.927C229.477 77.963 229.421 78.915 229.365 79.783C229.309 80.665 229.253 81.351 229.197 81.841C228.455 81.995 227.664 82.107 226.824 82.177C225.998 82.261 225.221 82.317 224.493 82.345C223.765 82.387 223.184 82.408 222.75 82.408ZM235.182 65.104C236.148 65.104 236.96 64.908 237.618 64.516C238.276 64.124 238.773 63.564 239.109 62.836C239.445 62.094 239.613 61.212 239.613 60.19C239.613 58.818 239.291 57.761 238.647 57.019C238.017 56.277 236.995 55.906 235.581 55.906C234.727 55.906 233.95 56.039 233.25 56.305C232.55 56.571 231.955 56.893 231.465 57.271C230.989 57.635 230.625 57.978 230.373 58.3C230.373 58.496 230.366 58.811 230.352 59.245C230.338 59.665 230.324 60.134 230.31 60.652C230.296 61.156 230.282 61.632 230.268 62.08C230.254 62.528 230.247 62.878 230.247 63.13C230.485 63.368 230.814 63.641 231.234 63.949C231.654 64.257 232.186 64.53 232.83 64.768C233.474 64.992 234.258 65.104 235.182 65.104ZM269.3 69.241C268.908 69.717 268.418 70.186 267.83 70.648C267.242 71.11 266.535 71.53 265.709 71.908C264.897 72.272 263.966 72.566 262.916 72.79C261.866 73 260.69 73.105 259.388 73.105C257.274 73.105 255.398 72.706 253.76 71.908C252.122 71.096 250.841 69.899 249.917 68.317C249.007 66.721 248.552 64.74 248.552 62.374C248.552 60.008 249.028 57.95 249.98 56.2C250.932 54.436 252.262 53.071 253.97 52.105C255.678 51.125 257.673 50.635 259.955 50.635C262.839 50.635 265.107 51.44 266.759 53.05C268.425 54.646 269.293 56.858 269.363 59.686C269.377 60.204 269.37 60.673 269.342 61.093C269.314 61.513 269.258 61.961 269.174 62.437C268.964 62.423 268.516 62.409 267.83 62.395C267.144 62.381 266.367 62.367 265.499 62.353C264.645 62.325 263.833 62.304 263.063 62.29C262.307 62.276 261.747 62.269 261.383 62.269C260.165 62.269 258.982 62.325 257.834 62.437C256.7 62.549 255.748 62.668 254.978 62.794C254.978 63.046 254.992 63.298 255.02 63.55C255.062 63.788 255.118 64.019 255.188 64.243C255.37 64.817 255.685 65.307 256.133 65.713C256.595 66.119 257.141 66.434 257.771 66.658C258.415 66.868 259.094 66.973 259.808 66.973C260.452 66.973 261.04 66.896 261.572 66.742C262.118 66.574 262.615 66.357 263.063 66.091C263.511 65.825 263.917 65.538 264.281 65.23C264.659 64.908 265.009 64.593 265.331 64.285C265.415 64.355 265.632 64.565 265.982 64.915C266.332 65.251 266.724 65.671 267.158 66.175C267.592 66.665 268.005 67.183 268.397 67.729C268.789 68.275 269.09 68.779 269.3 69.241ZM255.209 58.867C255.839 58.769 256.616 58.678 257.54 58.594C258.464 58.51 259.535 58.468 260.753 58.468C261.411 58.468 261.992 58.475 262.496 58.489C263.014 58.503 263.378 58.517 263.588 58.531C263.588 58.237 263.546 57.915 263.462 57.565C263.35 57.089 263.126 56.634 262.79 56.2C262.468 55.766 262.048 55.416 261.53 55.15C261.026 54.884 260.417 54.751 259.703 54.751C258.807 54.751 258.023 54.947 257.351 55.339C256.693 55.731 256.182 56.242 255.818 56.872C255.454 57.502 255.251 58.167 255.209 58.867ZM278.251 54.184C278.573 53.554 279.063 52.952 279.721 52.378C280.393 51.804 281.184 51.335 282.094 50.971C283.018 50.607 283.998 50.425 285.034 50.425C285.664 50.425 286.301 50.488 286.945 50.614C287.589 50.74 288.058 50.908 288.352 51.118L287.05 57.796C286.742 57.67 286.343 57.53 285.853 57.376C285.363 57.222 284.803 57.145 284.173 57.145C283.529 57.145 282.899 57.257 282.283 57.481C281.681 57.691 281.121 57.992 280.603 58.384C280.085 58.776 279.63 59.245 279.238 59.791C279.378 60.603 279.532 61.639 279.7 62.899C279.882 64.159 280.05 65.454 280.204 66.784C280.358 68.114 280.484 69.325 280.582 70.417C280.68 71.509 280.729 72.307 280.729 72.811C279.749 72.937 278.615 73.021 277.327 73.063C276.039 73.105 274.8 73.119 273.61 73.105C273.61 71.929 273.575 70.592 273.505 69.094C273.449 67.596 273.365 66.035 273.253 64.411C273.141 62.773 273.001 61.163 272.833 59.581C272.679 57.985 272.497 56.508 272.287 55.15C272.091 53.792 271.881 52.637 271.657 51.685C272.329 51.489 273.071 51.307 273.883 51.139C274.695 50.971 275.43 50.838 276.088 50.74C276.746 50.628 277.166 50.565 277.348 50.551C277.516 50.943 277.705 51.524 277.915 52.294C278.125 53.05 278.237 53.68 278.251 54.184ZM303.728 72.937C303.7 72.741 303.679 72.461 303.665 72.097C303.651 71.733 303.637 71.362 303.623 70.984C303.623 70.592 303.623 70.277 303.623 70.039C303.455 70.277 303.189 70.564 302.825 70.9C302.475 71.222 302.02 71.544 301.46 71.866C300.9 72.188 300.221 72.461 299.423 72.685C298.625 72.895 297.694 73 296.63 73C294.866 73 293.347 72.573 292.073 71.719C290.799 70.865 289.819 69.703 289.133 68.233C288.447 66.749 288.104 65.083 288.104 63.235C288.104 61.415 288.447 59.721 289.133 58.153C289.833 56.571 290.876 55.297 292.262 54.331C293.648 53.351 295.391 52.861 297.491 52.861C298.541 52.861 299.493 52.98 300.347 53.218C301.215 53.456 301.95 53.757 302.552 54.121C303.154 54.471 303.581 54.828 303.833 55.192C303.875 54.422 303.931 53.54 304.001 52.546C304.071 51.538 304.148 50.509 304.232 49.459C304.33 48.395 304.421 47.387 304.505 46.435C304.589 45.483 304.659 44.671 304.715 43.999C304.785 43.313 304.834 42.858 304.862 42.634C305.674 42.634 306.584 42.683 307.592 42.781C308.614 42.865 309.517 43.012 310.301 43.222C310.063 46.428 309.874 49.634 309.734 52.84C309.594 56.032 309.496 59.301 309.44 62.647C309.398 65.979 309.377 69.472 309.377 73.126C309.055 73.126 308.523 73.119 307.781 73.105C307.053 73.091 306.304 73.07 305.534 73.042C304.764 73.014 304.162 72.979 303.728 72.937ZM298.373 66.889C298.989 66.889 299.556 66.819 300.074 66.679C300.592 66.539 301.068 66.35 301.502 66.112C301.936 65.86 302.314 65.594 302.636 65.314C302.972 65.02 303.252 64.726 303.476 64.432C303.476 64.152 303.476 63.809 303.476 63.403C303.476 62.983 303.476 62.563 303.476 62.143C303.49 61.723 303.497 61.324 303.497 60.946C303.511 60.568 303.525 60.274 303.539 60.064C303.231 59.77 302.804 59.483 302.258 59.203C301.712 58.923 301.11 58.699 300.452 58.531C299.808 58.349 299.15 58.258 298.478 58.258C297.106 58.258 296.035 58.671 295.265 59.497C294.509 60.309 294.131 61.366 294.131 62.668C294.131 64.04 294.495 65.09 295.223 65.818C295.965 66.532 297.015 66.889 298.373 66.889ZM327.675 52.462C328.025 52.336 328.522 52.245 329.166 52.189C329.824 52.119 330.461 52.084 331.077 52.084C331.595 52.084 332.169 52.105 332.799 52.147C333.429 52.189 333.94 52.238 334.332 52.294C334.514 53.428 334.654 54.576 334.752 55.738C334.85 56.886 334.899 58.02 334.899 59.14C334.899 61.198 334.717 63.137 334.353 64.957C334.003 66.777 333.422 68.38 332.61 69.766C331.798 71.152 330.713 72.237 329.355 73.021C327.997 73.819 326.324 74.218 324.336 74.218C322.222 74.218 320.479 73.805 319.107 72.979C317.735 72.139 316.664 70.977 315.894 69.493C315.124 67.995 314.585 66.252 314.277 64.264C313.983 62.262 313.836 60.106 313.836 57.796C313.836 56.774 313.857 55.738 313.899 54.688C313.955 53.624 314.025 52.567 314.109 51.517C314.473 51.489 314.949 51.468 315.537 51.454C316.139 51.426 316.685 51.419 317.175 51.433C317.875 51.433 318.575 51.475 319.275 51.559C319.989 51.629 320.549 51.727 320.955 51.853C320.857 52.805 320.773 53.834 320.703 54.94C320.633 56.032 320.598 57.131 320.598 58.237C320.598 60.085 320.717 61.751 320.955 63.235C321.207 64.719 321.62 65.895 322.194 66.763C322.768 67.631 323.545 68.065 324.525 68.065C325.449 68.065 326.184 67.673 326.73 66.889C327.29 66.105 327.689 65.055 327.927 63.739C328.179 62.409 328.305 60.925 328.305 59.287C328.305 58.055 328.242 56.844 328.116 55.654C328.004 54.45 327.857 53.386 327.675 52.462Z" fill="#074D00"/>
<path d="M213.667 103.998L213.207 103.519C204.403 94.5239 190.623 93.6243 180.747 100.687L187.312 120.477L168.938 132.726L178.125 157.225L150.564 129.664L168.938 117.415L163.464 100.859C153.569 93.6243 139.654 94.4665 130.793 103.539L130.333 103.998C121.012 113.529 120.61 128.707 128.936 138.87L169.531 180.709C170.89 182.106 173.091 182.106 174.45 180.709L215.064 138.851C223.39 128.707 222.988 113.529 213.667 103.998Z" fill="#FF0000"/>
</svg>
