<svg width="345" height="420" viewBox="0 0 345 189" fill="none" xmlns="http://www.w3.org/2000/svg">
<path d="M59.9408 32.126L52.7378 31.79C52.6958 28.766 52.6258 25.728 52.5278 22.676C52.4298 19.61 52.3248 16.565 52.2128 13.541C52.1008 10.517 51.9748 7.549 51.8348 4.637C53.3608 4.553 54.8448 4.504 56.2868 4.49C57.7288 4.462 59.0868 4.455 60.3608 4.469C61.9568 4.469 63.3918 4.532 64.6658 4.658C65.9538 4.784 67.0598 4.938 67.9838 5.12C68.0678 6.1 68.1308 7.122 68.1728 8.186C68.2148 9.236 68.2358 10.139 68.2358 10.895C67.7038 10.853 66.9128 10.797 65.8628 10.727C64.8268 10.657 63.6508 10.594 62.3348 10.538C61.0328 10.468 59.6958 10.433 58.3238 10.433C58.3658 10.769 58.4008 11.196 58.4288 11.714C58.4708 12.218 58.5128 12.75 58.5548 13.31C58.5968 13.856 58.6248 14.367 58.6388 14.843C59.6048 14.843 60.6198 14.878 61.6838 14.948C62.7618 15.004 63.7348 15.081 64.6028 15.179C65.4848 15.277 66.1078 15.354 66.4718 15.41C66.4718 16.236 66.4578 17.104 66.4298 18.014C66.4158 18.91 66.3738 19.848 66.3038 20.828C65.7018 20.758 64.9878 20.695 64.1618 20.639C63.3358 20.569 62.4818 20.513 61.5998 20.471C60.7178 20.429 59.8918 20.408 59.1218 20.408C59.2338 21.556 59.3388 22.802 59.4368 24.146C59.5488 25.49 59.6468 26.848 59.7308 28.22C59.8148 29.578 59.8848 30.88 59.9408 32.126ZM89.9387 28.241C89.5467 28.717 89.0567 29.186 88.4687 29.648C87.8807 30.11 87.1737 30.53 86.3477 30.908C85.5357 31.272 84.6047 31.566 83.5547 31.79C82.5047 32 81.3287 32.105 80.0267 32.105C77.9127 32.105 76.0367 31.706 74.3987 30.908C72.7607 30.096 71.4797 28.899 70.5557 27.317C69.6457 25.721 69.1907 23.74 69.1907 21.374C69.1907 19.008 69.6667 16.95 70.6187 15.2C71.5707 13.436 72.9007 12.071 74.6087 11.105C76.3167 10.125 78.3117 9.635 80.5937 9.635C83.4777 9.635 85.7457 10.44 87.3977 12.05C89.0637 13.646 89.9317 15.858 90.0017 18.686C90.0157 19.204 90.0087 19.673 89.9807 20.093C89.9527 20.513 89.8967 20.961 89.8127 21.437C89.6027 21.423 89.1547 21.409 88.4687 21.395C87.7827 21.381 87.0057 21.367 86.1377 21.353C85.2837 21.325 84.4717 21.304 83.7017 21.29C82.9457 21.276 82.3857 21.269 82.0217 21.269C80.8037 21.269 79.6207 21.325 78.4727 21.437C77.3387 21.549 76.3867 21.668 75.6167 21.794C75.6167 22.046 75.6307 22.298 75.6587 22.55C75.7007 22.788 75.7567 23.019 75.8267 23.243C76.0087 23.817 76.3237 24.307 76.7717 24.713C77.2337 25.119 77.7797 25.434 78.4097 25.658C79.0537 25.868 79.7327 25.973 80.4467 25.973C81.0907 25.973 81.6787 25.896 82.2107 25.742C82.7567 25.574 83.2537 25.357 83.7017 25.091C84.1497 24.825 84.5557 24.538 84.9197 24.23C85.2977 23.908 85.6477 23.593 85.9697 23.285C86.0537 23.355 86.2707 23.565 86.6207 23.915C86.9707 24.251 87.3627 24.671 87.7967 25.175C88.2307 25.665 88.6437 26.183 89.0357 26.729C89.4277 27.275 89.7287 27.779 89.9387 28.241ZM75.8477 17.867C76.4777 17.769 77.2547 17.678 78.1787 17.594C79.1027 17.51 80.1737 17.468 81.3917 17.468C82.0497 17.468 82.6307 17.475 83.1347 17.489C83.6527 17.503 84.0167 17.517 84.2267 17.531C84.2267 17.237 84.1847 16.915 84.1007 16.565C83.9887 16.089 83.7647 15.634 83.4287 15.2C83.1067 14.766 82.6867 14.416 82.1687 14.15C81.6647 13.884 81.0557 13.751 80.3417 13.751C79.4457 13.751 78.6617 13.947 77.9897 14.339C77.3317 14.731 76.8207 15.242 76.4567 15.872C76.0927 16.502 75.8897 17.167 75.8477 17.867ZM84.1847 0.310999C84.8427 0.646999 85.4307 1.074 85.9487 1.592C86.4667 2.096 86.8937 2.572 87.2297 3.02C87.5797 3.454 87.8107 3.762 87.9227 3.944C87.4047 4.14 86.8167 4.385 86.1587 4.679C85.5007 4.959 84.8287 5.274 84.1427 5.624C83.4707 5.96 82.8267 6.289 82.2107 6.611C81.5947 6.933 81.0487 7.227 80.5727 7.493C80.1107 7.759 79.7677 7.962 79.5437 8.102C79.4317 8.046 79.2147 7.941 78.8927 7.787C78.5847 7.619 78.2417 7.43 77.8637 7.22C77.4857 6.996 77.1287 6.779 76.7927 6.569C76.4707 6.345 76.2467 6.163 76.1207 6.023C76.4987 5.547 77.0447 5.008 77.7587 4.406C78.4867 3.804 79.2637 3.216 80.0897 2.642C80.9297 2.068 81.7207 1.571 82.4627 1.151C83.2047 0.716998 83.7787 0.436998 84.1847 0.310999ZM104.938 31.013C104.546 31.433 103.811 31.839 102.733 32.231C101.669 32.637 100.479 32.84 99.1626 32.84C97.4546 32.84 96.1526 32.441 95.2566 31.643C94.3746 30.845 93.7796 29.718 93.4716 28.262C93.1636 26.792 93.0096 25.084 93.0096 23.138C93.0096 21.612 93.0236 20.079 93.0516 18.539C93.0796 16.999 93.1146 15.473 93.1566 13.961C93.2126 12.449 93.2686 10.986 93.3246 9.572C93.3946 8.144 93.4576 6.793 93.5136 5.519C93.5836 4.231 93.6536 3.055 93.7236 1.991C94.7176 1.921 95.6346 1.886 96.4746 1.886C97.0206 1.886 97.5596 1.9 98.0916 1.928C98.6236 1.956 99.2116 1.998 99.8556 2.054C99.7856 3.272 99.7016 4.623 99.6036 6.107C99.5196 7.577 99.4356 9.082 99.3516 10.622C99.2816 12.162 99.2116 13.653 99.1416 15.095C99.0716 16.537 99.0156 17.846 98.9736 19.022C98.9456 20.184 98.9316 21.115 98.9316 21.815C98.9316 22.725 98.9666 23.572 99.0366 24.356C99.1206 25.126 99.3026 25.756 99.5826 26.246C99.8626 26.722 100.283 26.96 100.843 26.96C101.319 26.96 101.704 26.855 101.998 26.645C102.306 26.421 102.558 26.141 102.754 25.805C102.852 25.973 103.006 26.309 103.216 26.813C103.426 27.303 103.657 27.849 103.909 28.451C104.161 29.053 104.385 29.599 104.581 30.089C104.777 30.565 104.896 30.873 104.938 31.013ZM113.895 31.958C113.657 31.972 113.202 32 112.53 32.042C111.872 32.098 111.172 32.126 110.43 32.126C109.884 32.126 109.331 32.105 108.771 32.063C108.225 32.035 107.686 31.993 107.154 31.937C107.224 31.573 107.301 30.831 107.385 29.711C107.483 28.577 107.574 27.247 107.658 25.721C107.756 24.195 107.847 22.62 107.931 20.996C108.029 19.358 108.099 17.825 108.141 16.397C108.197 14.969 108.225 13.821 108.225 12.953C108.505 12.939 108.918 12.918 109.464 12.89C110.01 12.862 110.598 12.841 111.228 12.827C111.858 12.799 112.46 12.778 113.034 12.764C113.608 12.736 114.063 12.722 114.399 12.722C114.469 13.156 114.525 13.856 114.567 14.822C114.609 15.788 114.63 16.866 114.63 18.056C114.63 19.33 114.609 20.681 114.567 22.109C114.539 23.537 114.49 24.923 114.42 26.267C114.364 27.597 114.287 28.773 114.189 29.795C114.091 30.803 113.993 31.524 113.895 31.958ZM111.543 10.013C110.283 10.013 109.226 9.649 108.372 8.921C107.518 8.179 107.091 7.206 107.091 6.002C107.091 5.176 107.294 4.469 107.7 3.881C108.106 3.293 108.631 2.845 109.275 2.537C109.933 2.215 110.626 2.054 111.354 2.054C112.516 2.054 113.475 2.432 114.231 3.188C115.001 3.944 115.386 4.917 115.386 6.107C115.386 7.213 115.022 8.144 114.294 8.9C113.566 9.642 112.649 10.013 111.543 10.013ZM138.671 27.548C138.251 28.276 137.614 28.997 136.76 29.711C135.906 30.425 134.849 31.02 133.589 31.496C132.329 31.972 130.88 32.21 129.242 32.21C127.114 32.21 125.273 31.685 123.719 30.635C122.165 29.571 120.961 28.164 120.107 26.414C119.267 24.65 118.847 22.718 118.847 20.618C118.847 18.406 119.281 16.425 120.149 14.675C121.031 12.925 122.27 11.539 123.866 10.517C125.462 9.495 127.352 8.984 129.536 8.984C130.838 8.984 132.035 9.187 133.127 9.593C134.219 9.999 135.178 10.573 136.004 11.315C136.844 12.057 137.537 12.925 138.083 13.919L133.505 16.481C133.463 16.369 133.365 16.194 133.211 15.956C133.071 15.718 132.861 15.466 132.581 15.2C132.301 14.934 131.93 14.71 131.468 14.528C131.02 14.346 130.46 14.255 129.788 14.255C128.78 14.255 127.926 14.472 127.226 14.906C126.526 15.34 125.994 15.956 125.63 16.754C125.28 17.552 125.105 18.49 125.105 19.568C125.105 20.464 125.238 21.367 125.504 22.277C125.77 23.173 126.218 23.922 126.848 24.524C127.478 25.126 128.346 25.427 129.452 25.427C130.11 25.427 130.719 25.315 131.279 25.091C131.839 24.867 132.322 24.601 132.728 24.293C133.148 23.971 133.484 23.67 133.736 23.39C133.988 23.11 134.142 22.921 134.198 22.823L138.671 27.548ZM148.717 31.958C148.479 31.972 148.024 32 147.352 32.042C146.694 32.098 145.994 32.126 145.252 32.126C144.706 32.126 144.153 32.105 143.593 32.063C143.047 32.035 142.508 31.993 141.976 31.937C142.046 31.573 142.123 30.831 142.207 29.711C142.305 28.577 142.396 27.247 142.48 25.721C142.578 24.195 142.669 22.62 142.753 20.996C142.851 19.358 142.921 17.825 142.963 16.397C143.019 14.969 143.047 13.821 143.047 12.953C143.327 12.939 143.74 12.918 144.286 12.89C144.832 12.862 145.42 12.841 146.05 12.827C146.68 12.799 147.282 12.778 147.856 12.764C148.43 12.736 148.885 12.722 149.221 12.722C149.291 13.156 149.347 13.856 149.389 14.822C149.431 15.788 149.452 16.866 149.452 18.056C149.452 19.33 149.431 20.681 149.389 22.109C149.361 23.537 149.312 24.923 149.242 26.267C149.186 27.597 149.109 28.773 149.011 29.795C148.913 30.803 148.815 31.524 148.717 31.958ZM146.365 10.013C145.105 10.013 144.048 9.649 143.194 8.921C142.34 8.179 141.913 7.206 141.913 6.002C141.913 5.176 142.116 4.469 142.522 3.881C142.928 3.293 143.453 2.845 144.097 2.537C144.755 2.215 145.448 2.054 146.176 2.054C147.338 2.054 148.297 2.432 149.053 3.188C149.823 3.944 150.208 4.917 150.208 6.107C150.208 7.213 149.844 8.144 149.116 8.9C148.388 9.642 147.471 10.013 146.365 10.013ZM170.591 29.249C170.325 29.767 169.905 30.32 169.331 30.908C168.771 31.482 168.036 31.972 167.126 32.378C166.23 32.798 165.138 33.008 163.85 33.008C162.156 33.008 160.77 32.651 159.692 31.937C158.628 31.223 157.837 30.271 157.319 29.081C156.815 27.891 156.563 26.589 156.563 25.175C156.563 24.405 156.57 23.586 156.584 22.718C156.612 21.836 156.64 20.968 156.668 20.114C156.696 19.246 156.724 18.427 156.752 17.657C156.794 16.873 156.829 16.187 156.857 15.599C156.899 15.011 156.927 14.556 156.941 14.234C155.835 14.346 154.813 14.472 153.875 14.612C152.937 14.738 152.286 14.843 151.922 14.927C151.782 14.143 151.677 13.345 151.607 12.533C151.537 11.721 151.481 11.014 151.439 10.412C151.411 9.81 151.397 9.439 151.397 9.299C152.209 9.187 153.077 9.089 154.001 9.005C154.925 8.907 155.898 8.837 156.92 8.795C156.906 8.459 156.892 7.934 156.878 7.22C156.864 6.506 156.843 5.862 156.815 5.288C156.801 4.77 156.773 4.252 156.731 3.734C156.689 3.202 156.654 2.775 156.626 2.453L162.842 1.907C162.842 2.075 162.842 2.467 162.842 3.083C162.856 3.699 162.863 4.441 162.863 5.309C162.863 5.743 162.87 6.247 162.884 6.821C162.898 7.381 162.912 7.934 162.926 8.48C163.388 8.452 163.927 8.424 164.543 8.396C165.159 8.368 165.649 8.347 166.013 8.333C166.601 8.305 167.133 8.291 167.609 8.291C168.085 8.277 168.477 8.27 168.785 8.27C169.107 8.27 169.324 8.277 169.436 8.291C169.52 8.949 169.576 9.789 169.604 10.811C169.632 11.819 169.646 12.715 169.646 13.499C169.506 13.485 169.051 13.492 168.281 13.52C167.511 13.534 166.755 13.562 166.013 13.604C165.495 13.618 164.921 13.646 164.291 13.688C163.661 13.73 163.164 13.772 162.8 13.814C162.786 14.108 162.765 14.514 162.737 15.032C162.723 15.536 162.702 16.11 162.674 16.754C162.66 17.384 162.639 18.042 162.611 18.728C162.597 19.4 162.583 20.051 162.569 20.681C162.555 21.311 162.548 21.871 162.548 22.361C162.548 23.285 162.59 24.118 162.674 24.86C162.772 25.588 162.975 26.169 163.283 26.603C163.605 27.023 164.095 27.233 164.753 27.233C165.187 27.233 165.558 27.107 165.866 26.855C166.174 26.603 166.426 26.309 166.622 25.973C166.832 25.623 167.014 25.315 167.168 25.049C167.35 25.301 167.602 25.637 167.924 26.057C168.26 26.463 168.61 26.89 168.974 27.338C169.352 27.786 169.688 28.185 169.982 28.535C170.29 28.885 170.493 29.123 170.591 29.249ZM181.549 32.357C179.827 32.357 178.252 32.126 176.824 31.664C175.396 31.188 174.255 30.425 173.401 29.375C172.561 28.311 172.141 26.904 172.141 25.154C172.141 23.404 172.631 21.997 173.611 20.933C174.605 19.855 175.907 19.078 177.517 18.602C179.141 18.112 180.884 17.867 182.746 17.867C183.474 17.867 184.174 17.923 184.846 18.035C185.518 18.147 186.106 18.28 186.61 18.434C187.128 18.588 187.499 18.735 187.723 18.875C187.709 18.511 187.632 18.126 187.492 17.72C187.366 17.314 187.184 16.971 186.946 16.691C186.526 16.117 185.952 15.641 185.224 15.263C184.51 14.871 183.565 14.675 182.389 14.675C181.199 14.675 180.149 14.948 179.239 15.494C178.329 16.026 177.636 16.628 177.16 17.3L172.036 14.003C172.666 13.107 173.513 12.323 174.577 11.651C175.655 10.979 176.873 10.454 178.231 10.076C179.603 9.698 181.038 9.509 182.536 9.509C185.014 9.509 187.023 9.915 188.563 10.727C190.103 11.539 191.244 12.673 191.986 14.129C192.336 14.829 192.623 15.599 192.847 16.439C193.071 17.279 193.225 18.245 193.309 19.337C193.365 20.275 193.407 21.15 193.435 21.962C193.463 22.774 193.491 23.544 193.519 24.272C193.547 25.336 193.666 26.029 193.876 26.351C194.086 26.673 194.387 26.834 194.779 26.834C195.143 26.834 195.465 26.736 195.745 26.54C196.039 26.33 196.228 26.057 196.312 25.721L198.496 29.9C198.342 30.544 197.908 31.083 197.194 31.517C196.48 31.951 195.577 32.168 194.485 32.168C193.687 32.168 192.931 32.035 192.217 31.769C191.503 31.489 190.915 31.118 190.453 30.656C189.991 30.18 189.718 29.641 189.634 29.039C189.41 29.571 188.941 30.096 188.227 30.614C187.513 31.118 186.596 31.538 185.476 31.874C184.356 32.196 183.047 32.357 181.549 32.357ZM182.956 27.422C183.614 27.422 184.286 27.324 184.972 27.128C185.672 26.918 186.302 26.659 186.862 26.351C187.436 26.043 187.877 25.728 188.185 25.406C188.157 24.972 188.129 24.524 188.101 24.062C188.087 23.6 188.087 23.208 188.101 22.886C187.793 22.76 187.205 22.627 186.337 22.487C185.483 22.333 184.587 22.256 183.649 22.256C182.795 22.256 181.997 22.347 181.255 22.529C180.513 22.711 179.904 22.991 179.428 23.369C178.966 23.747 178.735 24.237 178.735 24.839C178.735 25.483 178.91 25.994 179.26 26.372C179.61 26.75 180.1 27.023 180.73 27.191C181.36 27.345 182.102 27.422 182.956 27.422ZM214.355 29.249C214.089 29.767 213.669 30.32 213.095 30.908C212.535 31.482 211.8 31.972 210.89 32.378C209.994 32.798 208.902 33.008 207.614 33.008C205.92 33.008 204.534 32.651 203.456 31.937C202.392 31.223 201.601 30.271 201.083 29.081C200.579 27.891 200.327 26.589 200.327 25.175C200.327 24.405 200.334 23.586 200.348 22.718C200.376 21.836 200.404 20.968 200.432 20.114C200.46 19.246 200.488 18.427 200.516 17.657C200.558 16.873 200.593 16.187 200.621 15.599C200.663 15.011 200.691 14.556 200.705 14.234C199.599 14.346 198.577 14.472 197.639 14.612C196.701 14.738 196.05 14.843 195.686 14.927C195.546 14.143 195.441 13.345 195.371 12.533C195.301 11.721 195.245 11.014 195.203 10.412C195.175 9.81 195.161 9.439 195.161 9.299C195.973 9.187 196.841 9.089 197.765 9.005C198.689 8.907 199.662 8.837 200.684 8.795C200.67 8.459 200.656 7.934 200.642 7.22C200.628 6.506 200.607 5.862 200.579 5.288C200.565 4.77 200.537 4.252 200.495 3.734C200.453 3.202 200.418 2.775 200.39 2.453L206.606 1.907C206.606 2.075 206.606 2.467 206.606 3.083C206.62 3.699 206.627 4.441 206.627 5.309C206.627 5.743 206.634 6.247 206.648 6.821C206.662 7.381 206.676 7.934 206.69 8.48C207.152 8.452 207.691 8.424 208.307 8.396C208.923 8.368 209.413 8.347 209.777 8.333C210.365 8.305 210.897 8.291 211.373 8.291C211.849 8.277 212.241 8.27 212.549 8.27C212.871 8.27 213.088 8.277 213.2 8.291C213.284 8.949 213.34 9.789 213.368 10.811C213.396 11.819 213.41 12.715 213.41 13.499C213.27 13.485 212.815 13.492 212.045 13.52C211.275 13.534 210.519 13.562 209.777 13.604C209.259 13.618 208.685 13.646 208.055 13.688C207.425 13.73 206.928 13.772 206.564 13.814C206.55 14.108 206.529 14.514 206.501 15.032C206.487 15.536 206.466 16.11 206.438 16.754C206.424 17.384 206.403 18.042 206.375 18.728C206.361 19.4 206.347 20.051 206.333 20.681C206.319 21.311 206.312 21.871 206.312 22.361C206.312 23.285 206.354 24.118 206.438 24.86C206.536 25.588 206.739 26.169 207.047 26.603C207.369 27.023 207.859 27.233 208.517 27.233C208.951 27.233 209.322 27.107 209.63 26.855C209.938 26.603 210.19 26.309 210.386 25.973C210.596 25.623 210.778 25.315 210.932 25.049C211.114 25.301 211.366 25.637 211.688 26.057C212.024 26.463 212.374 26.89 212.738 27.338C213.116 27.786 213.452 28.185 213.746 28.535C214.054 28.885 214.257 29.123 214.355 29.249ZM223.365 31.958C223.127 31.972 222.672 32 222 32.042C221.342 32.098 220.642 32.126 219.9 32.126C219.354 32.126 218.801 32.105 218.241 32.063C217.695 32.035 217.156 31.993 216.624 31.937C216.694 31.573 216.771 30.831 216.855 29.711C216.953 28.577 217.044 27.247 217.128 25.721C217.226 24.195 217.317 22.62 217.401 20.996C217.499 19.358 217.569 17.825 217.611 16.397C217.667 14.969 217.695 13.821 217.695 12.953C217.975 12.939 218.388 12.918 218.934 12.89C219.48 12.862 220.068 12.841 220.698 12.827C221.328 12.799 221.93 12.778 222.504 12.764C223.078 12.736 223.533 12.722 223.869 12.722C223.939 13.156 223.995 13.856 224.037 14.822C224.079 15.788 224.1 16.866 224.1 18.056C224.1 19.33 224.079 20.681 224.037 22.109C224.009 23.537 223.96 24.923 223.89 26.267C223.834 27.597 223.757 28.773 223.659 29.795C223.561 30.803 223.463 31.524 223.365 31.958ZM221.013 10.013C219.753 10.013 218.696 9.649 217.842 8.921C216.988 8.179 216.561 7.206 216.561 6.002C216.561 5.176 216.764 4.469 217.17 3.881C217.576 3.293 218.101 2.845 218.745 2.537C219.403 2.215 220.096 2.054 220.824 2.054C221.986 2.054 222.945 2.432 223.701 3.188C224.471 3.944 224.856 4.917 224.856 6.107C224.856 7.213 224.492 8.144 223.764 8.9C223.036 9.642 222.119 10.013 221.013 10.013ZM240.246 32.462C236.536 32.462 233.743 31.482 231.867 29.522C229.991 27.548 229.053 24.685 229.053 20.933C229.053 18.427 229.536 16.348 230.502 14.696C231.468 13.03 232.805 11.777 234.513 10.937C236.235 10.097 238.223 9.677 240.477 9.677C242.773 9.677 244.677 10.202 246.189 11.252C247.715 12.302 248.856 13.751 249.612 15.599C250.368 17.447 250.746 19.582 250.746 22.004C250.746 24.118 250.34 25.959 249.528 27.527C248.716 29.095 247.526 30.313 245.958 31.181C244.404 32.035 242.5 32.462 240.246 32.462ZM240.015 26.435C240.785 26.435 241.464 26.302 242.052 26.036C242.654 25.77 243.158 25.392 243.564 24.902C243.984 24.398 244.299 23.81 244.509 23.138C244.719 22.466 244.824 21.731 244.824 20.933C244.824 19.687 244.642 18.588 244.278 17.636C243.928 16.67 243.403 15.921 242.703 15.389C242.017 14.843 241.163 14.57 240.141 14.57C239.035 14.57 238.132 14.85 237.432 15.41C236.732 15.97 236.214 16.705 235.878 17.615C235.556 18.511 235.395 19.47 235.395 20.492C235.395 22.214 235.787 23.635 236.571 24.755C237.369 25.875 238.517 26.435 240.015 26.435ZM260.802 32.273C260.382 32.287 259.864 32.287 259.248 32.273C258.632 32.273 258.002 32.266 257.358 32.252C256.84 32.238 256.245 32.217 255.573 32.189C254.901 32.161 254.432 32.133 254.166 32.105C254.292 30.929 254.397 29.599 254.481 28.115C254.579 26.631 254.656 24.986 254.712 23.18C254.768 21.374 254.81 19.4 254.838 17.258C254.866 15.116 254.88 12.799 254.88 10.307C255.412 10.237 256.042 10.181 256.77 10.139C257.498 10.097 258.233 10.076 258.975 10.076C259.493 10.076 259.99 10.09 260.466 10.118C260.956 10.132 261.39 10.174 261.768 10.244C261.768 10.37 261.768 10.629 261.768 11.021C261.782 11.399 261.782 11.819 261.768 12.281C261.768 12.729 261.761 13.135 261.747 13.499C262.111 12.967 262.706 12.414 263.532 11.84C264.358 11.252 265.317 10.755 266.409 10.349C267.501 9.943 268.628 9.74 269.79 9.74C271.932 9.74 273.57 10.174 274.704 11.042C275.838 11.896 276.615 13.184 277.035 14.906C277.455 16.614 277.665 18.756 277.665 21.332C277.665 22.228 277.637 23.278 277.581 24.482C277.539 25.672 277.469 26.925 277.371 28.241C277.273 29.557 277.147 30.831 276.993 32.063C276.713 32.091 276.265 32.112 275.649 32.126C275.047 32.154 274.41 32.168 273.738 32.168C273.024 32.168 272.345 32.154 271.701 32.126C271.057 32.112 270.581 32.091 270.273 32.063C270.427 31.279 270.595 30.299 270.777 29.123C270.959 27.947 271.113 26.694 271.239 25.364C271.365 24.02 271.428 22.739 271.428 21.521C271.428 20.345 271.33 19.323 271.134 18.455C270.952 17.587 270.595 16.915 270.063 16.439C269.545 15.949 268.775 15.704 267.753 15.704C266.913 15.704 266.108 15.851 265.338 16.145C264.568 16.439 263.868 16.803 263.238 17.237C262.608 17.657 262.069 18.07 261.621 18.476C261.607 20.688 261.551 22.69 261.453 24.482C261.355 26.26 261.25 27.807 261.138 29.123C261.026 30.425 260.914 31.475 260.802 32.273ZM289.553 22.823C289.147 22.823 288.58 22.816 287.852 22.802C287.124 22.774 286.389 22.739 285.647 22.697C284.919 22.641 284.324 22.585 283.862 22.529C283.778 21.213 283.701 19.827 283.631 18.371C283.561 16.901 283.498 15.417 283.442 13.919C283.4 12.407 283.365 10.902 283.337 9.404C283.309 7.906 283.288 6.457 283.274 5.057C283.274 3.643 283.288 2.313 283.316 1.067L291.065 1.403C290.995 1.963 290.904 2.894 290.792 4.196C290.68 5.484 290.554 6.968 290.414 8.648C290.288 10.328 290.162 12.057 290.036 13.835C289.924 15.613 289.819 17.293 289.721 18.875C289.637 20.443 289.581 21.759 289.553 22.823ZM286.97 32.546C285.682 32.546 284.604 32.154 283.736 31.37C282.882 30.586 282.455 29.585 282.455 28.367C282.455 27.163 282.889 26.218 283.757 25.532C284.639 24.832 285.682 24.482 286.886 24.482C288.104 24.482 289.14 24.846 289.994 25.574C290.862 26.302 291.296 27.219 291.296 28.325C291.296 29.613 290.876 30.642 290.036 31.412C289.21 32.168 288.188 32.546 286.97 32.546ZM13.5884 74.441C12.7904 74.441 12.0064 74.413 11.2364 74.357C10.4804 74.315 9.88541 74.266 9.45141 74.21C8.91941 73.104 8.32441 71.648 7.66641 69.842C7.00841 68.022 6.33641 66.041 5.65041 63.899C4.96441 61.743 4.30641 59.573 3.67641 57.389C3.06041 55.191 2.50741 53.14 2.01741 51.236C1.52741 49.318 1.14941 47.715 0.883406 46.427C1.56941 46.217 2.39541 46.042 3.36141 45.902C4.34141 45.748 5.30041 45.636 6.23841 45.566C7.19041 45.482 7.96041 45.44 8.54841 45.44C8.57641 45.664 8.67441 46.189 8.84241 47.015C9.02441 47.827 9.24841 48.856 9.51441 50.102C9.79441 51.334 10.1024 52.713 10.4384 54.239C10.7744 55.765 11.1244 57.361 11.4884 59.027C11.8664 60.679 12.2304 62.338 12.5804 64.004C12.9444 65.67 13.2804 67.245 13.5884 68.729L13.0424 68.855C13.3084 67.847 13.5814 66.615 13.8614 65.159C14.1414 63.689 14.4214 62.114 14.7014 60.434C14.9954 58.754 15.2684 57.081 15.5204 55.415C15.7724 53.749 16.0034 52.202 16.2134 50.774C16.4234 49.346 16.5844 48.149 16.6964 47.183C16.8224 46.217 16.8994 45.608 16.9274 45.356C18.0474 45.37 19.2934 45.482 20.6654 45.692C22.0514 45.888 23.2904 46.175 24.3824 46.553C23.8924 48.975 23.3464 51.432 22.7444 53.924C22.1424 56.402 21.5404 58.796 20.9384 61.106C20.3364 63.402 19.7764 65.488 19.2584 67.364C18.7544 69.24 18.3204 70.794 17.9564 72.026C17.6064 73.244 17.3894 74.014 17.3054 74.336C16.8994 74.378 16.3604 74.406 15.6884 74.42C15.0304 74.434 14.3304 74.441 13.5884 74.441ZM37.6898 74.462C33.9798 74.462 31.1868 73.482 29.3108 71.522C27.4348 69.548 26.4968 66.685 26.4968 62.933C26.4968 60.427 26.9798 58.348 27.9458 56.696C28.9118 55.03 30.2488 53.777 31.9568 52.937C33.6788 52.097 35.6668 51.677 37.9208 51.677C40.2168 51.677 42.1208 52.202 43.6328 53.252C45.1588 54.302 46.2998 55.751 47.0558 57.599C47.8118 59.447 48.1898 61.582 48.1898 64.004C48.1898 66.118 47.7838 67.959 46.9718 69.527C46.1598 71.095 44.9698 72.313 43.4018 73.181C41.8478 74.035 39.9438 74.462 37.6898 74.462ZM37.4588 68.435C38.2288 68.435 38.9078 68.302 39.4958 68.036C40.0978 67.77 40.6018 67.392 41.0078 66.902C41.4278 66.398 41.7428 65.81 41.9528 65.138C42.1628 64.466 42.2678 63.731 42.2678 62.933C42.2678 61.687 42.0858 60.588 41.7218 59.636C41.3718 58.67 40.8468 57.921 40.1468 57.389C39.4608 56.843 38.6068 56.57 37.5848 56.57C36.4788 56.57 35.5758 56.85 34.8758 57.41C34.1758 57.97 33.6578 58.705 33.3218 59.615C32.9998 60.511 32.8388 61.47 32.8388 62.492C32.8388 64.214 33.2308 65.635 34.0148 66.755C34.8128 67.875 35.9608 68.435 37.4588 68.435ZM65.1132 53.462C65.4632 53.336 65.9602 53.245 66.6042 53.189C67.2622 53.119 67.8992 53.084 68.5152 53.084C69.0332 53.084 69.6072 53.105 70.2372 53.147C70.8672 53.189 71.3782 53.238 71.7702 53.294C71.9522 54.428 72.0922 55.576 72.1902 56.738C72.2882 57.886 72.3372 59.02 72.3372 60.14C72.3372 62.198 72.1552 64.137 71.7912 65.957C71.4412 67.777 70.8602 69.38 70.0482 70.766C69.2362 72.152 68.1512 73.237 66.7932 74.021C65.4352 74.819 63.7622 75.218 61.7742 75.218C59.6602 75.218 57.9172 74.805 56.5452 73.979C55.1732 73.139 54.1022 71.977 53.3322 70.493C52.5622 68.995 52.0232 67.252 51.7152 65.264C51.4212 63.262 51.2742 61.106 51.2742 58.796C51.2742 57.774 51.2952 56.738 51.3372 55.688C51.3932 54.624 51.4632 53.567 51.5472 52.517C51.9112 52.489 52.3872 52.468 52.9752 52.454C53.5772 52.426 54.1232 52.419 54.6132 52.433C55.3132 52.433 56.0132 52.475 56.7132 52.559C57.4272 52.629 57.9872 52.727 58.3932 52.853C58.2952 53.805 58.2112 54.834 58.1412 55.94C58.0712 57.032 58.0362 58.131 58.0362 59.237C58.0362 61.085 58.1552 62.751 58.3932 64.235C58.6452 65.719 59.0582 66.895 59.6322 67.763C60.2062 68.631 60.9832 69.065 61.9632 69.065C62.8872 69.065 63.6222 68.673 64.1682 67.889C64.7282 67.105 65.1272 66.055 65.3652 64.739C65.6172 63.409 65.7432 61.925 65.7432 60.287C65.7432 59.055 65.6802 57.844 65.5542 56.654C65.4422 55.45 65.2952 54.386 65.1132 53.462ZM84.7846 75.659C83.1466 75.659 81.6416 75.456 80.2696 75.05C78.9116 74.658 77.7566 74.196 76.8046 73.664C75.8666 73.118 75.1876 72.628 74.7676 72.194C74.8516 71.928 75.0126 71.543 75.2506 71.039C75.5026 70.521 75.7966 69.961 76.1326 69.359C76.4686 68.757 76.8046 68.197 77.1406 67.679C77.4766 67.161 77.7776 66.776 78.0436 66.524C78.7156 67.098 79.4436 67.665 80.2276 68.225C81.0116 68.771 81.8166 69.219 82.6426 69.569C83.4686 69.919 84.2386 70.094 84.9526 70.094C85.5126 70.094 86.0166 70.024 86.4646 69.884C86.9126 69.73 87.2626 69.506 87.5146 69.212C87.7806 68.918 87.9136 68.554 87.9136 68.12C87.9136 67.616 87.6686 67.133 87.1786 66.671C86.7026 66.195 86.0866 65.747 85.3306 65.327C84.5746 64.907 83.7836 64.529 82.9576 64.193C81.8236 63.731 80.7666 63.192 79.7866 62.576C78.8066 61.946 78.0156 61.176 77.4136 60.266C76.8116 59.342 76.5106 58.194 76.5106 56.822C76.5106 55.422 76.9236 54.246 77.7496 53.294C78.5756 52.342 79.6536 51.621 80.9836 51.131C82.3276 50.641 83.7626 50.396 85.2886 50.396C86.7306 50.396 88.1936 50.599 89.6776 51.005C91.1616 51.397 92.3726 51.964 93.3106 52.706C93.2266 52.972 93.0446 53.378 92.7646 53.924C92.4986 54.47 92.1696 55.058 91.7776 55.688C91.3996 56.304 90.9936 56.871 90.5596 57.389C89.9856 56.899 89.2646 56.43 88.3966 55.982C87.5286 55.534 86.6186 55.31 85.6666 55.31C85.1906 55.31 84.7146 55.359 84.2386 55.457C83.7766 55.555 83.3916 55.73 83.0836 55.982C82.7896 56.234 82.6426 56.577 82.6426 57.011C82.6426 57.431 82.8036 57.809 83.1256 58.145C83.4476 58.467 83.9166 58.782 84.5326 59.09C85.1626 59.398 85.8976 59.72 86.7376 60.056C87.5776 60.392 88.4316 60.791 89.2996 61.253C90.1676 61.701 90.9656 62.24 91.6936 62.87C92.4356 63.5 93.0306 64.235 93.4786 65.075C93.9266 65.901 94.1506 66.853 94.1506 67.931C94.1506 69.653 93.7236 71.088 92.8696 72.236C92.0156 73.384 90.8746 74.238 89.4466 74.798C88.0326 75.372 86.4786 75.659 84.7846 75.659ZM118.856 74.357C117.134 74.357 115.559 74.126 114.131 73.664C112.703 73.188 111.562 72.425 110.708 71.375C109.868 70.311 109.448 68.904 109.448 67.154C109.448 65.404 109.938 63.997 110.918 62.933C111.912 61.855 113.214 61.078 114.824 60.602C116.448 60.112 118.191 59.867 120.053 59.867C120.781 59.867 121.481 59.923 122.153 60.035C122.825 60.147 123.413 60.28 123.917 60.434C124.435 60.588 124.806 60.735 125.03 60.875C125.016 60.511 124.939 60.126 124.799 59.72C124.673 59.314 124.491 58.971 124.253 58.691C123.833 58.117 123.259 57.641 122.531 57.263C121.817 56.871 120.872 56.675 119.696 56.675C118.506 56.675 117.456 56.948 116.546 57.494C115.636 58.026 114.943 58.628 114.467 59.3L109.343 56.003C109.973 55.107 110.82 54.323 111.884 53.651C112.962 52.979 114.18 52.454 115.538 52.076C116.91 51.698 118.345 51.509 119.843 51.509C122.321 51.509 124.33 51.915 125.87 52.727C127.41 53.539 128.551 54.673 129.293 56.129C129.643 56.829 129.93 57.599 130.154 58.439C130.378 59.279 130.532 60.245 130.616 61.337C130.672 62.275 130.714 63.15 130.742 63.962C130.77 64.774 130.798 65.544 130.826 66.272C130.854 67.336 130.973 68.029 131.183 68.351C131.393 68.673 131.694 68.834 132.086 68.834C132.45 68.834 132.772 68.736 133.052 68.54C133.346 68.33 133.535 68.057 133.619 67.721L135.803 71.9C135.649 72.544 135.215 73.083 134.501 73.517C133.787 73.951 132.884 74.168 131.792 74.168C130.994 74.168 130.238 74.035 129.524 73.769C128.81 73.489 128.222 73.118 127.76 72.656C127.298 72.18 127.025 71.641 126.941 71.039C126.717 71.571 126.248 72.096 125.534 72.614C124.82 73.118 123.903 73.538 122.783 73.874C121.663 74.196 120.354 74.357 118.856 74.357ZM120.263 69.422C120.921 69.422 121.593 69.324 122.279 69.128C122.979 68.918 123.609 68.659 124.169 68.351C124.743 68.043 125.184 67.728 125.492 67.406C125.464 66.972 125.436 66.524 125.408 66.062C125.394 65.6 125.394 65.208 125.408 64.886C125.1 64.76 124.512 64.627 123.644 64.487C122.79 64.333 121.894 64.256 120.956 64.256C120.102 64.256 119.304 64.347 118.562 64.529C117.82 64.711 117.211 64.991 116.735 65.369C116.273 65.747 116.042 66.237 116.042 66.839C116.042 67.483 116.217 67.994 116.567 68.372C116.917 68.75 117.407 69.023 118.037 69.191C118.667 69.345 119.409 69.422 120.263 69.422ZM148.227 51.089C149.221 51.257 150.152 51.453 151.02 51.677C151.888 51.901 152.609 52.097 153.183 52.265C153.771 52.433 154.128 52.545 154.254 52.601C153.974 53.721 153.638 54.974 153.246 56.36C152.868 57.732 152.441 59.174 151.965 60.686C151.503 62.184 151.013 63.696 150.495 65.222C149.977 66.734 149.445 68.211 148.899 69.653C148.367 71.081 147.842 72.397 147.324 73.601C146.582 73.727 145.672 73.79 144.594 73.79C144.062 73.79 143.544 73.769 143.04 73.727C142.55 73.685 142.13 73.643 141.78 73.601C141.052 72.075 140.345 70.472 139.659 68.792C138.973 67.098 138.308 65.355 137.664 63.563C137.02 61.771 136.397 59.944 135.795 58.082C135.193 56.206 134.605 54.33 134.031 52.454C134.241 52.412 134.584 52.342 135.06 52.244C135.55 52.132 136.082 52.006 136.656 51.866C137.244 51.726 137.818 51.586 138.378 51.446C138.938 51.292 139.4 51.166 139.764 51.068C139.974 51.908 140.247 52.902 140.583 54.05C140.919 55.184 141.283 56.374 141.675 57.62C142.081 58.852 142.48 60.049 142.872 61.211C143.264 62.359 143.614 63.381 143.922 64.277C144.244 65.173 144.489 65.838 144.657 66.272L144.405 66.377C144.657 65.579 144.916 64.746 145.182 63.878C145.448 62.996 145.714 62.072 145.98 61.106C146.246 60.126 146.505 59.104 146.757 58.04C147.023 56.976 147.275 55.863 147.513 54.701C147.765 53.539 148.003 52.335 148.227 51.089ZM177.035 70.241C176.643 70.717 176.153 71.186 175.565 71.648C174.977 72.11 174.27 72.53 173.444 72.908C172.632 73.272 171.701 73.566 170.651 73.79C169.601 74 168.425 74.105 167.123 74.105C165.009 74.105 163.133 73.706 161.495 72.908C159.857 72.096 158.576 70.899 157.652 69.317C156.742 67.721 156.287 65.74 156.287 63.374C156.287 61.008 156.763 58.95 157.715 57.2C158.667 55.436 159.997 54.071 161.705 53.105C163.413 52.125 165.408 51.635 167.69 51.635C170.574 51.635 172.842 52.44 174.494 54.05C176.16 55.646 177.028 57.858 177.098 60.686C177.112 61.204 177.105 61.673 177.077 62.093C177.049 62.513 176.993 62.961 176.909 63.437C176.699 63.423 176.251 63.409 175.565 63.395C174.879 63.381 174.102 63.367 173.234 63.353C172.38 63.325 171.568 63.304 170.798 63.29C170.042 63.276 169.482 63.269 169.118 63.269C167.9 63.269 166.717 63.325 165.569 63.437C164.435 63.549 163.483 63.668 162.713 63.794C162.713 64.046 162.727 64.298 162.755 64.55C162.797 64.788 162.853 65.019 162.923 65.243C163.105 65.817 163.42 66.307 163.868 66.713C164.33 67.119 164.876 67.434 165.506 67.658C166.15 67.868 166.829 67.973 167.543 67.973C168.187 67.973 168.775 67.896 169.307 67.742C169.853 67.574 170.35 67.357 170.798 67.091C171.246 66.825 171.652 66.538 172.016 66.23C172.394 65.908 172.744 65.593 173.066 65.285C173.15 65.355 173.367 65.565 173.717 65.915C174.067 66.251 174.459 66.671 174.893 67.175C175.327 67.665 175.74 68.183 176.132 68.729C176.524 69.275 176.825 69.779 177.035 70.241ZM162.944 59.867C163.574 59.769 164.351 59.678 165.275 59.594C166.199 59.51 167.27 59.468 168.488 59.468C169.146 59.468 169.727 59.475 170.231 59.489C170.749 59.503 171.113 59.517 171.323 59.531C171.323 59.237 171.281 58.915 171.197 58.565C171.085 58.089 170.861 57.634 170.525 57.2C170.203 56.766 169.783 56.416 169.265 56.15C168.761 55.884 168.152 55.751 167.438 55.751C166.542 55.751 165.758 55.947 165.086 56.339C164.428 56.731 163.917 57.242 163.553 57.872C163.189 58.502 162.986 59.167 162.944 59.867ZM198.88 73.937C197.774 73.993 196.381 74.049 194.701 74.105C193.021 74.161 191.278 74.189 189.472 74.189C187.61 74.189 185.783 74.154 183.991 74.084C182.199 74.028 180.673 73.916 179.413 73.748L179.707 68.981C180.001 68.575 180.4 68.071 180.904 67.469C181.408 66.867 181.982 66.195 182.626 65.453C183.284 64.711 183.977 63.948 184.705 63.164C185.433 62.366 186.161 61.582 186.889 60.812C187.631 60.042 188.331 59.321 188.989 58.649C189.661 57.963 190.263 57.368 190.795 56.864C190.543 56.878 190.13 56.892 189.556 56.906C188.982 56.906 188.331 56.913 187.603 56.927C186.889 56.941 186.168 56.948 185.44 56.948C184.726 56.948 184.082 56.948 183.508 56.948C183.13 56.948 182.738 56.955 182.332 56.969C181.926 56.969 181.548 56.976 181.198 56.99C180.862 56.99 180.575 56.99 180.337 56.99C180.113 56.99 179.966 56.997 179.896 57.011L180.169 51.929C180.631 51.943 181.24 51.957 181.996 51.971C182.766 51.985 183.613 51.999 184.537 52.013C185.475 52.027 186.42 52.041 187.372 52.055C188.324 52.055 189.22 52.055 190.06 52.055C191.488 52.055 192.972 52.062 194.512 52.076C196.052 52.076 197.396 52.083 198.544 52.097C198.572 52.195 198.593 52.44 198.607 52.832C198.635 53.224 198.656 53.672 198.67 54.176C198.698 54.68 198.712 55.149 198.712 55.583C198.726 56.017 198.733 56.332 198.733 56.528C198.229 56.976 197.634 57.543 196.948 58.229C196.276 58.901 195.562 59.629 194.806 60.413C194.05 61.197 193.287 61.995 192.517 62.807C191.761 63.619 191.047 64.396 190.375 65.138C189.717 65.88 189.136 66.545 188.632 67.133C188.128 67.707 187.75 68.155 187.498 68.477C187.82 68.519 188.401 68.547 189.241 68.561C190.081 68.561 190.837 68.561 191.509 68.561C192.391 68.561 193.315 68.54 194.281 68.498C195.247 68.456 196.157 68.407 197.011 68.351C197.879 68.295 198.593 68.239 199.153 68.183C199.153 68.337 199.146 68.68 199.132 69.212C199.118 69.744 199.097 70.346 199.069 71.018C199.041 71.676 199.006 72.285 198.964 72.845C198.936 73.391 198.908 73.755 198.88 73.937ZM227.66 68.603C224.804 68.603 222.536 68.197 220.856 67.385C219.19 66.573 218 65.53 217.286 64.256C216.572 62.968 216.215 61.617 216.215 60.203C216.215 58.383 216.691 56.85 217.643 55.604C218.595 54.358 219.89 53.42 221.528 52.79C223.166 52.146 225.035 51.824 227.135 51.824C230.509 51.824 233.029 52.566 234.695 54.05C236.375 55.534 237.215 57.501 237.215 59.951C237.215 61.855 236.809 63.451 235.997 64.739C235.199 66.013 234.086 66.979 232.658 67.637C231.23 68.281 229.564 68.603 227.66 68.603ZM226.715 84.479C224.531 84.479 222.543 84.269 220.751 83.849C218.973 83.443 217.552 82.715 216.488 81.665C215.438 80.629 214.913 79.173 214.913 77.297C214.913 76.135 215.291 75.057 216.047 74.063C216.803 73.083 217.888 72.278 219.302 71.648C220.716 71.004 222.389 70.626 224.321 70.514C225.189 70.458 226.106 70.423 227.072 70.409C228.052 70.381 229.2 70.367 230.516 70.367C232.742 70.367 234.562 70.864 235.976 71.858C237.404 72.838 238.118 74.413 238.118 76.583C238.118 78.487 237.614 80.02 236.606 81.182C235.612 82.344 234.254 83.184 232.532 83.702C230.824 84.22 228.885 84.479 226.715 84.479ZM226.904 80.405C227.856 80.405 228.703 80.307 229.445 80.111C230.187 79.915 230.775 79.607 231.209 79.187C231.643 78.767 231.86 78.214 231.86 77.528C231.86 76.926 231.685 76.45 231.335 76.1C230.999 75.764 230.565 75.526 230.033 75.386C229.515 75.246 228.976 75.176 228.416 75.176C228.038 75.176 227.604 75.176 227.114 75.176C226.624 75.176 226.141 75.176 225.665 75.176C225.203 75.176 224.818 75.176 224.51 75.176C223.992 75.176 223.509 75.239 223.061 75.365C222.627 75.505 222.27 75.75 221.99 76.1C221.724 76.45 221.591 76.947 221.591 77.591C221.591 78.235 221.822 78.767 222.284 79.187C222.746 79.607 223.376 79.915 224.174 80.111C224.972 80.307 225.882 80.405 226.904 80.405ZM221.696 72.677C219.792 72.285 218.462 71.746 217.706 71.06C216.964 70.374 216.593 69.611 216.593 68.771C216.593 68.113 216.74 67.546 217.034 67.07C217.328 66.58 217.678 66.188 218.084 65.894C218.504 65.586 218.903 65.383 219.281 65.285L223.439 67.385C222.907 67.567 222.508 67.805 222.242 68.099C221.99 68.379 221.864 68.666 221.864 68.96C221.864 69.352 222.074 69.709 222.494 70.031C222.928 70.353 223.537 70.514 224.321 70.514L221.696 72.677ZM227.093 63.605C227.989 63.605 228.745 63.465 229.361 63.185C229.977 62.905 230.439 62.492 230.747 61.946C231.069 61.4 231.23 60.735 231.23 59.951C231.23 59.307 231.048 58.74 230.684 58.25C230.334 57.76 229.865 57.382 229.277 57.116C228.703 56.836 228.066 56.696 227.366 56.696C226.218 56.696 225.189 56.941 224.279 57.431C223.383 57.921 222.935 58.789 222.935 60.035C222.935 61.197 223.327 62.086 224.111 62.702C224.909 63.304 225.903 63.605 227.093 63.605ZM235.451 57.116L231.755 54.008C231.923 53.462 232.238 52.881 232.7 52.265C233.176 51.635 233.715 51.054 234.317 50.522C234.933 49.976 235.528 49.563 236.102 49.283C236.298 49.577 236.578 49.983 236.942 50.501C237.306 51.019 237.684 51.544 238.076 52.076C238.468 52.608 238.804 53.049 239.084 53.399C238.762 53.553 238.412 53.763 238.034 54.029C237.67 54.281 237.313 54.575 236.963 54.911C236.613 55.233 236.305 55.583 236.039 55.961C235.773 56.339 235.577 56.724 235.451 57.116ZM250.476 74.357C248.754 74.357 247.179 74.126 245.751 73.664C244.323 73.188 243.182 72.425 242.328 71.375C241.488 70.311 241.068 68.904 241.068 67.154C241.068 65.404 241.558 63.997 242.538 62.933C243.532 61.855 244.834 61.078 246.444 60.602C248.068 60.112 249.811 59.867 251.673 59.867C252.401 59.867 253.101 59.923 253.773 60.035C254.445 60.147 255.033 60.28 255.537 60.434C256.055 60.588 256.426 60.735 256.65 60.875C256.636 60.511 256.559 60.126 256.419 59.72C256.293 59.314 256.111 58.971 255.873 58.691C255.453 58.117 254.879 57.641 254.151 57.263C253.437 56.871 252.492 56.675 251.316 56.675C250.126 56.675 249.076 56.948 248.166 57.494C247.256 58.026 246.563 58.628 246.087 59.3L240.963 56.003C241.593 55.107 242.44 54.323 243.504 53.651C244.582 52.979 245.8 52.454 247.158 52.076C248.53 51.698 249.965 51.509 251.463 51.509C253.941 51.509 255.95 51.915 257.49 52.727C259.03 53.539 260.171 54.673 260.913 56.129C261.263 56.829 261.55 57.599 261.774 58.439C261.998 59.279 262.152 60.245 262.236 61.337C262.292 62.275 262.334 63.15 262.362 63.962C262.39 64.774 262.418 65.544 262.446 66.272C262.474 67.336 262.593 68.029 262.803 68.351C263.013 68.673 263.314 68.834 263.706 68.834C264.07 68.834 264.392 68.736 264.672 68.54C264.966 68.33 265.155 68.057 265.239 67.721L267.423 71.9C267.269 72.544 266.835 73.083 266.121 73.517C265.407 73.951 264.504 74.168 263.412 74.168C262.614 74.168 261.858 74.035 261.144 73.769C260.43 73.489 259.842 73.118 259.38 72.656C258.918 72.18 258.645 71.641 258.561 71.039C258.337 71.571 257.868 72.096 257.154 72.614C256.44 73.118 255.523 73.538 254.403 73.874C253.283 74.196 251.974 74.357 250.476 74.357ZM251.883 69.422C252.541 69.422 253.213 69.324 253.899 69.128C254.599 68.918 255.229 68.659 255.789 68.351C256.363 68.043 256.804 67.728 257.112 67.406C257.084 66.972 257.056 66.524 257.028 66.062C257.014 65.6 257.014 65.208 257.028 64.886C256.72 64.76 256.132 64.627 255.264 64.487C254.41 64.333 253.514 64.256 252.576 64.256C251.722 64.256 250.924 64.347 250.182 64.529C249.44 64.711 248.831 64.991 248.355 65.369C247.893 65.747 247.662 66.237 247.662 66.839C247.662 67.483 247.837 67.994 248.187 68.372C248.537 68.75 249.027 69.023 249.657 69.191C250.287 69.345 251.029 69.422 251.883 69.422ZM280.693 68.603C277.837 68.603 275.569 68.197 273.889 67.385C272.223 66.573 271.033 65.53 270.319 64.256C269.605 62.968 269.248 61.617 269.248 60.203C269.248 58.383 269.724 56.85 270.676 55.604C271.628 54.358 272.923 53.42 274.561 52.79C276.199 52.146 278.068 51.824 280.168 51.824C283.542 51.824 286.062 52.566 287.728 54.05C289.408 55.534 290.248 57.501 290.248 59.951C290.248 61.855 289.842 63.451 289.03 64.739C288.232 66.013 287.119 66.979 285.691 67.637C284.263 68.281 282.597 68.603 280.693 68.603ZM279.748 84.479C277.564 84.479 275.576 84.269 273.784 83.849C272.006 83.443 270.585 82.715 269.521 81.665C268.471 80.629 267.946 79.173 267.946 77.297C267.946 76.135 268.324 75.057 269.08 74.063C269.836 73.083 270.921 72.278 272.335 71.648C273.749 71.004 275.422 70.626 277.354 70.514C278.222 70.458 279.139 70.423 280.105 70.409C281.085 70.381 282.233 70.367 283.549 70.367C285.775 70.367 287.595 70.864 289.009 71.858C290.437 72.838 291.151 74.413 291.151 76.583C291.151 78.487 290.647 80.02 289.639 81.182C288.645 82.344 287.287 83.184 285.565 83.702C283.857 84.22 281.918 84.479 279.748 84.479ZM279.937 80.405C280.889 80.405 281.736 80.307 282.478 80.111C283.22 79.915 283.808 79.607 284.242 79.187C284.676 78.767 284.893 78.214 284.893 77.528C284.893 76.926 284.718 76.45 284.368 76.1C284.032 75.764 283.598 75.526 283.066 75.386C282.548 75.246 282.009 75.176 281.449 75.176C281.071 75.176 280.637 75.176 280.147 75.176C279.657 75.176 279.174 75.176 278.698 75.176C278.236 75.176 277.851 75.176 277.543 75.176C277.025 75.176 276.542 75.239 276.094 75.365C275.66 75.505 275.303 75.75 275.023 76.1C274.757 76.45 274.624 76.947 274.624 77.591C274.624 78.235 274.855 78.767 275.317 79.187C275.779 79.607 276.409 79.915 277.207 80.111C278.005 80.307 278.915 80.405 279.937 80.405ZM274.729 72.677C272.825 72.285 271.495 71.746 270.739 71.06C269.997 70.374 269.626 69.611 269.626 68.771C269.626 68.113 269.773 67.546 270.067 67.07C270.361 66.58 270.711 66.188 271.117 65.894C271.537 65.586 271.936 65.383 272.314 65.285L276.472 67.385C275.94 67.567 275.541 67.805 275.275 68.099C275.023 68.379 274.897 68.666 274.897 68.96C274.897 69.352 275.107 69.709 275.527 70.031C275.961 70.353 276.57 70.514 277.354 70.514L274.729 72.677ZM280.126 63.605C281.022 63.605 281.778 63.465 282.394 63.185C283.01 62.905 283.472 62.492 283.78 61.946C284.102 61.4 284.263 60.735 284.263 59.951C284.263 59.307 284.081 58.74 283.717 58.25C283.367 57.76 282.898 57.382 282.31 57.116C281.736 56.836 281.099 56.696 280.399 56.696C279.251 56.696 278.222 56.941 277.312 57.431C276.416 57.921 275.968 58.789 275.968 60.035C275.968 61.197 276.36 62.086 277.144 62.702C277.942 63.304 278.936 63.605 280.126 63.605ZM288.484 57.116L284.788 54.008C284.956 53.462 285.271 52.881 285.733 52.265C286.209 51.635 286.748 51.054 287.35 50.522C287.966 49.976 288.561 49.563 289.135 49.283C289.331 49.577 289.611 49.983 289.975 50.501C290.339 51.019 290.717 51.544 291.109 52.076C291.501 52.608 291.837 53.049 292.117 53.399C291.795 53.553 291.445 53.763 291.067 54.029C290.703 54.281 290.346 54.575 289.996 54.911C289.646 55.233 289.338 55.583 289.072 55.961C288.806 56.339 288.61 56.724 288.484 57.116ZM301.346 74.273C300.926 74.287 300.408 74.287 299.792 74.273C299.176 74.273 298.546 74.266 297.902 74.252C297.384 74.238 296.789 74.217 296.117 74.189C295.445 74.161 294.976 74.133 294.71 74.105C294.836 72.929 294.941 71.599 295.025 70.115C295.123 68.631 295.2 66.986 295.256 65.18C295.312 63.374 295.354 61.4 295.382 59.258C295.41 57.116 295.424 54.799 295.424 52.307C295.956 52.237 296.586 52.181 297.314 52.139C298.042 52.097 298.777 52.076 299.519 52.076C300.037 52.076 300.534 52.09 301.01 52.118C301.5 52.132 301.934 52.174 302.312 52.244C302.312 52.37 302.312 52.629 302.312 53.021C302.326 53.399 302.326 53.819 302.312 54.281C302.312 54.729 302.305 55.135 302.291 55.499C302.655 54.967 303.25 54.414 304.076 53.84C304.902 53.252 305.861 52.755 306.953 52.349C308.045 51.943 309.172 51.74 310.334 51.74C312.476 51.74 314.114 52.174 315.248 53.042C316.382 53.896 317.159 55.184 317.579 56.906C317.999 58.614 318.209 60.756 318.209 63.332C318.209 64.228 318.181 65.278 318.125 66.482C318.083 67.672 318.013 68.925 317.915 70.241C317.817 71.557 317.691 72.831 317.537 74.063C317.257 74.091 316.809 74.112 316.193 74.126C315.591 74.154 314.954 74.168 314.282 74.168C313.568 74.168 312.889 74.154 312.245 74.126C311.601 74.112 311.125 74.091 310.817 74.063C310.971 73.279 311.139 72.299 311.321 71.123C311.503 69.947 311.657 68.694 311.783 67.364C311.909 66.02 311.972 64.739 311.972 63.521C311.972 62.345 311.874 61.323 311.678 60.455C311.496 59.587 311.139 58.915 310.607 58.439C310.089 57.949 309.319 57.704 308.297 57.704C307.457 57.704 306.652 57.851 305.882 58.145C305.112 58.439 304.412 58.803 303.782 59.237C303.152 59.657 302.613 60.07 302.165 60.476C302.151 62.688 302.095 64.69 301.997 66.482C301.899 68.26 301.794 69.807 301.682 71.123C301.57 72.425 301.458 73.475 301.346 74.273ZM343.272 70.241C342.88 70.717 342.39 71.186 341.802 71.648C341.214 72.11 340.507 72.53 339.681 72.908C338.869 73.272 337.938 73.566 336.888 73.79C335.838 74 334.662 74.105 333.36 74.105C331.246 74.105 329.37 73.706 327.732 72.908C326.094 72.096 324.813 70.899 323.889 69.317C322.979 67.721 322.524 65.74 322.524 63.374C322.524 61.008 323 58.95 323.952 57.2C324.904 55.436 326.234 54.071 327.942 53.105C329.65 52.125 331.645 51.635 333.927 51.635C336.811 51.635 339.079 52.44 340.731 54.05C342.397 55.646 343.265 57.858 343.335 60.686C343.349 61.204 343.342 61.673 343.314 62.093C343.286 62.513 343.23 62.961 343.146 63.437C342.936 63.423 342.488 63.409 341.802 63.395C341.116 63.381 340.339 63.367 339.471 63.353C338.617 63.325 337.805 63.304 337.035 63.29C336.279 63.276 335.719 63.269 335.355 63.269C334.137 63.269 332.954 63.325 331.806 63.437C330.672 63.549 329.72 63.668 328.95 63.794C328.95 64.046 328.964 64.298 328.992 64.55C329.034 64.788 329.09 65.019 329.16 65.243C329.342 65.817 329.657 66.307 330.105 66.713C330.567 67.119 331.113 67.434 331.743 67.658C332.387 67.868 333.066 67.973 333.78 67.973C334.424 67.973 335.012 67.896 335.544 67.742C336.09 67.574 336.587 67.357 337.035 67.091C337.483 66.825 337.889 66.538 338.253 66.23C338.631 65.908 338.981 65.593 339.303 65.285C339.387 65.355 339.604 65.565 339.954 65.915C340.304 66.251 340.696 66.671 341.13 67.175C341.564 67.665 341.977 68.183 342.369 68.729C342.761 69.275 343.062 69.779 343.272 70.241ZM329.181 59.867C329.811 59.769 330.588 59.678 331.512 59.594C332.436 59.51 333.507 59.468 334.725 59.468C335.383 59.468 335.964 59.475 336.468 59.489C336.986 59.503 337.35 59.517 337.56 59.531C337.56 59.237 337.518 58.915 337.434 58.565C337.322 58.089 337.098 57.634 336.762 57.2C336.44 56.766 336.02 56.416 335.502 56.15C334.998 55.884 334.389 55.751 333.675 55.751C332.779 55.751 331.995 55.947 331.323 56.339C330.665 56.731 330.154 57.242 329.79 57.872C329.426 58.502 329.223 59.167 329.181 59.867ZM337.518 42.311C338.176 42.647 338.764 43.074 339.282 43.592C339.8 44.096 340.227 44.572 340.563 45.02C340.913 45.454 341.144 45.762 341.256 45.944C340.738 46.14 340.15 46.385 339.492 46.679C338.834 46.959 338.162 47.274 337.476 47.624C336.804 47.96 336.16 48.289 335.544 48.611C334.928 48.933 334.382 49.227 333.906 49.493C333.444 49.759 333.101 49.962 332.877 50.102C332.765 50.046 332.548 49.941 332.226 49.787C331.918 49.619 331.575 49.43 331.197 49.22C330.819 48.996 330.462 48.779 330.126 48.569C329.804 48.345 329.58 48.163 329.454 48.023C329.832 47.547 330.378 47.008 331.092 46.406C331.82 45.804 332.597 45.216 333.423 44.642C334.263 44.068 335.054 43.571 335.796 43.151C336.538 42.717 337.112 42.437 337.518 42.311Z" fill="#074D00"/>
<path d="M171.651 122.586L159.709 102.684C159.218 101.866 158.524 101.188 157.693 100.718C156.862 100.247 155.924 100 154.969 100H135.769C133.532 100 132.223 102.517 133.504 104.35L152.725 131.809C157.859 127.012 164.389 123.719 171.651 122.586ZM218.675 100H199.475C197.533 100 195.733 101.019 194.735 102.684L182.793 122.586C190.055 123.719 196.585 127.012 201.719 131.807L220.94 104.35C222.222 102.517 220.913 100 218.675 100ZM177.222 127.639C160.432 127.639 146.819 141.251 146.819 158.042C146.819 174.833 160.432 188.445 177.222 188.445C194.013 188.445 207.625 174.833 207.625 158.042C207.625 141.251 194.013 127.639 177.222 127.639ZM193.204 154.805L186.652 161.189L188.202 170.21C188.478 171.827 186.775 173.062 185.326 172.298L177.222 168.04L169.121 172.298C167.67 173.067 165.968 171.825 166.244 170.21L167.794 161.189L161.242 154.805C160.064 153.658 160.715 151.656 162.339 151.421L171.396 150.101L175.443 141.892C175.807 141.153 176.512 140.788 177.219 140.788C177.929 140.788 178.639 141.158 179.003 141.892L183.051 150.101L192.108 151.421C193.731 151.656 194.383 153.658 193.204 154.805Z" fill="#F3BF06"/>
</svg>
